<svg width="26" height="25" viewBox="0 0 26 25" fill="none" xmlns="http://www.w3.org/2000/svg">
<path d="M23.7 3C24.5284 3 25.2 3.67157 25.2 4.5V20.5C25.2 21.3284 24.5284 22 23.7 22H1.70001C0.871585 22 0.200012 21.3284 0.200012 20.5V4.5C0.200012 3.67157 0.871585 3 1.70001 3H23.7ZM13.7195 13.8027C13.0909 14.1752 12.3091 14.1752 11.6805 13.8027L1.20001 7.59277V20.5C1.20001 20.7761 1.42387 21 1.70001 21H23.7C23.9762 21 24.2 20.7761 24.2 20.5V7.59277L13.7195 13.8027ZM1.70001 4C1.42401 4.00033 1.20034 4.22399 1.20001 4.5V6.42969L12.1902 12.9434C12.5044 13.1294 12.8955 13.1292 13.2098 12.9434L24.2 6.42969V4.5C24.1997 4.22399 23.976 4.00033 23.7 4H1.70001Z" fill="#0A181B"/>
<path d="M23.7 3V2.8V3ZM23.7 22V22.2V22ZM13.7195 13.8027L13.6176 13.6307L13.6176 13.6307L13.7195 13.8027ZM11.6805 13.8027L11.5785 13.9748L11.5785 13.9748L11.6805 13.8027ZM1.20001 7.59277L1.30196 7.42071L1.00001 7.2418V7.59277H1.20001ZM24.2 7.59277H24.4V7.2418L24.0981 7.42071L24.2 7.59277ZM1.70001 4V3.8L1.69977 3.8L1.70001 4ZM1.20001 4.5L1.00001 4.49976V4.5H1.20001ZM1.20001 6.42969H1.00001V6.54364L1.09804 6.60174L1.20001 6.42969ZM12.1902 12.9434L12.0883 13.1154L12.0884 13.1155L12.1902 12.9434ZM13.2098 12.9434L13.3116 13.1155L13.3117 13.1154L13.2098 12.9434ZM24.2 6.42969L24.302 6.60174L24.4 6.54364V6.42969H24.2ZM24.2 4.5H24.4V4.49976L24.2 4.5ZM23.7 4L23.7003 3.8H23.7V4ZM23.7 3V3.2C24.418 3.2 25 3.78203 25 4.5H25.2H25.4C25.4 3.56112 24.6389 2.8 23.7 2.8V3ZM25.2 4.5H25V20.5H25.2H25.4V4.5H25.2ZM25.2 20.5H25C25 21.218 24.418 21.8 23.7 21.8V22V22.2C24.6389 22.2 25.4 21.4389 25.4 20.5H25.2ZM23.7 22V21.8H1.70001V22V22.2H23.7V22ZM1.70001 22V21.8C0.982042 21.8 0.400012 21.218 0.400012 20.5H0.200012H1.22041e-05C1.22041e-05 21.4389 0.761128 22.2 1.70001 22.2V22ZM0.200012 20.5H0.400012V4.5H0.200012H1.22041e-05V20.5H0.200012ZM0.200012 4.5H0.400012C0.400012 3.78203 0.982042 3.2 1.70001 3.2V3V2.8C0.761128 2.8 1.22041e-05 3.56112 1.22041e-05 4.5H0.200012ZM1.70001 3V3.2H23.7V3V2.8H1.70001V3ZM13.7195 13.8027L13.6176 13.6307C13.0519 13.9659 12.3482 13.9659 11.7824 13.6307L11.6805 13.8027L11.5785 13.9748C12.27 14.3845 13.13 14.3845 13.8215 13.9748L13.7195 13.8027ZM11.6805 13.8027L11.7824 13.6307L1.30196 7.42071L1.20001 7.59277L1.09806 7.76484L11.5785 13.9748L11.6805 13.8027ZM1.20001 7.59277H1.00001V20.5H1.20001H1.40001V7.59277H1.20001ZM1.20001 20.5H1.00001C1.00001 20.8866 1.31341 21.2 1.70001 21.2V21V20.8C1.53433 20.8 1.40001 20.6657 1.40001 20.5H1.20001ZM1.70001 21V21.2H23.7V21V20.8H1.70001V21ZM23.7 21V21.2C24.0866 21.2 24.4 20.8866 24.4 20.5H24.2H24C24 20.6657 23.8657 20.8 23.7 20.8V21ZM24.2 20.5H24.4V7.59277H24.2H24V20.5H24.2ZM24.2 7.59277L24.0981 7.42071L13.6176 13.6307L13.7195 13.8027L13.8215 13.9748L24.302 7.76484L24.2 7.59277ZM1.70001 4L1.69977 3.8C1.3135 3.80046 1.00048 4.11349 1.00001 4.49976L1.20001 4.5L1.40001 4.50024C1.40021 4.3345 1.53452 4.2002 1.70025 4.2L1.70001 4ZM1.20001 4.5H1.00001V6.42969H1.20001H1.40001V4.5H1.20001ZM1.20001 6.42969L1.09804 6.60174L12.0883 13.1154L12.1902 12.9434L12.2922 12.7713L1.30198 6.25764L1.20001 6.42969ZM12.1902 12.9434L12.0884 13.1155C12.4654 13.3387 12.9346 13.3385 13.3116 13.1155L13.2098 12.9434L13.108 12.7712C12.8565 12.92 12.5435 12.92 12.2921 12.7713L12.1902 12.9434ZM13.2098 12.9434L13.3117 13.1154L24.302 6.60174L24.2 6.42969L24.098 6.25764L13.1078 12.7713L13.2098 12.9434ZM24.2 6.42969H24.4V4.5H24.2H24V6.42969H24.2ZM24.2 4.5L24.4 4.49976C24.3995 4.11349 24.0865 3.80046 23.7003 3.8L23.7 4L23.6998 4.2C23.8655 4.2002 23.9998 4.3345 24 4.50024L24.2 4.5ZM23.7 4V3.8H1.70001V4V4.2H23.7V4Z" fill="#0A181B"/>
</svg>
