<svg width="32" height="32" viewBox="0 0 32 32" fill="none" xmlns="http://www.w3.org/2000/svg">
<path d="M16 5.56C21.76 5.56 26.44 9.8224 26.44 15.0616C26.44 20.3008 21.76 24.5656 16 24.5656C15.0523 24.5658 14.1082 24.4481 13.1896 24.2152L12.6184 24.0712L12.0952 24.34L9.9352 25.4512V22.8256L9.3208 22.3456C6.928 20.5432 5.56 17.884 5.56 15.0616C5.56 9.8224 10.24 5.56 16 5.56ZM16 4C9.3736 4 4 8.9536 4 15.0616C4 18.4984 5.6992 21.568 8.3656 23.5984V28L12.8056 25.7248C13.8496 25.9906 14.9227 26.1253 16 26.1256C22.6264 26.1256 28 21.172 28 15.064C28 8.956 22.6264 4 16 4Z" fill="white"/>
<path d="M9 18.7373L14.8117 12L17.7631 15.2115L23 12.1179L17.1655 19L14.3028 15.6191L9 18.7373Z" fill="white"/>
</svg>
