<svg width="39" height="28" viewBox="0 0 39 28" fill="none" xmlns="http://www.w3.org/2000/svg">
<path d="M10.4553 0.358154C17.3517 -1.25512 24.3256 2.72034 26.4514 9.47632H28.9953L29.8733 7.28198C30.1162 6.6745 30.7044 6.27618 31.3586 6.27612H36.676C37.5594 6.27637 38.2755 6.99236 38.2756 7.87573V12.6755C38.2756 13.559 37.5595 14.2759 36.676 14.2761H31.3586C30.7045 14.276 30.1162 13.8776 29.8733 13.2703L28.9953 11.0759H13.4758C12.5051 11.0759 11.6295 11.6606 11.258 12.5574C10.8866 13.4541 11.0923 14.4862 11.7785 15.1726C12.4649 15.859 13.497 16.0645 14.3938 15.6931C15.2905 15.3217 15.8751 14.4469 15.8752 13.4763C15.8725 13.2032 15.8234 12.9318 15.7287 12.6755H17.3957C17.7336 14.3323 16.9932 16.0235 15.5461 16.8982C14.0991 17.7729 12.2583 17.6422 10.9485 16.573C9.63864 15.5037 9.14202 13.7264 9.70921 12.1335C10.2765 10.5406 11.7849 9.47694 13.4758 9.47632H19.4055C18.0893 7.48403 15.8636 6.28261 13.4758 6.27612C9.49936 6.27612 6.27562 9.49987 6.27562 13.4763C6.27579 17.4526 9.49947 20.6755 13.4758 20.6755C17.452 20.6754 20.6758 17.4525 20.676 13.4763C20.6643 13.2083 20.637 12.9405 20.595 12.6755H22.2356C22.2597 12.9395 22.2756 13.2064 22.2756 13.4763C22.2979 17.9104 19.0019 21.6608 14.6018 22.2087C10.2013 22.7565 6.08604 19.9283 5.02074 15.6238C3.95544 11.3192 6.27605 6.89767 10.4241 5.32983C14.5721 3.76202 19.2371 5.54331 21.2854 9.47632H24.7776C22.6793 3.58477 16.4193 0.280577 10.3713 1.8728C4.32367 3.46513 0.501922 9.42297 1.5764 15.5837C2.65112 21.7447 8.26457 26.057 14.4944 25.5076C20.7241 24.9581 25.496 19.7302 25.4758 13.4763C25.4758 13.2064 25.4526 12.9411 25.4348 12.6755H27.0354C27.0509 12.9419 27.0754 13.2061 27.0754 13.4763C27.1083 20.5586 21.6764 26.469 14.6164 27.033C7.55647 27.5968 1.25502 22.6235 0.163315 15.6257C-0.928357 8.62784 3.55896 1.97143 10.4553 0.358154ZM31.3586 7.87573L30.3987 10.2761L31.3586 12.6755H36.676V7.87573H31.3586Z" fill="#30CEC2" fill-opacity="0.4"/>
</svg>
