<svg width="40" height="39" viewBox="0 0 40 39" fill="none" xmlns="http://www.w3.org/2000/svg">
<path d="M8 11.2002C12.4183 11.2002 16 14.7819 16 19.2002V24.7998C16 26.1253 14.9251 27.2002 13.5996 27.2002H12.7998V36C12.7998 37.3253 11.7257 38.4002 10.4004 38.4004H5.59961C4.27431 38.4002 3.20021 37.3253 3.2002 36V27.2002H2.40039C1.07491 27.2002 0 26.1253 0 24.7998V19.2002C0 14.7819 3.58172 11.2002 8 11.2002ZM8 12.7998C4.46538 12.7998 1.59961 15.6656 1.59961 19.2002V24.7998C1.60014 25.2414 1.95878 25.5991 2.40039 25.5996H3.2002C4.08376 25.5997 4.7998 26.3166 4.7998 27.2002V36C4.80034 36.4415 5.15818 36.7991 5.59961 36.7998H10.4004C10.8418 36.7991 11.1997 36.4415 11.2002 36V27.2002C11.2002 26.3166 11.9162 25.5997 12.7998 25.5996H13.5996C14.0412 25.5991 14.3999 25.2414 14.4004 24.7998V19.2002C14.4004 15.6656 11.5346 12.7998 8 12.7998ZM37.5996 3.2002C38.925 3.2002 39.9998 4.2743 40 5.59961V28C40 29.3255 38.9251 30.4004 37.5996 30.4004H15.2002C14.7584 30.4004 14.4004 30.0414 14.4004 29.5996C14.4006 29.158 14.7585 28.7998 15.2002 28.7998H37.5996C38.0412 28.7992 38.3998 28.4416 38.4004 28V5.59961C38.3996 5.15821 38.0411 4.80042 37.5996 4.7998H15.2002C14.7584 4.7998 14.4004 4.44182 14.4004 4C14.4004 3.55817 14.7584 3.2002 15.2002 3.2002H37.5996ZM20 19.2002C20.4418 19.2002 20.7998 19.5582 20.7998 20V24.7998C20.7998 25.2416 20.4418 25.5996 20 25.5996C19.5582 25.5996 19.2002 25.2416 19.2002 24.7998V20C19.2002 19.5582 19.5582 19.2002 20 19.2002ZM24.7998 9.59961C25.2416 9.59961 25.5996 9.95856 25.5996 10.4004V24.7998C25.5996 25.2416 25.2416 25.5996 24.7998 25.5996C24.3581 25.5995 24 25.2416 24 24.7998V10.4004C24 9.95863 24.3581 9.59971 24.7998 9.59961ZM29.5996 16C30.0414 16 30.4003 16.3581 30.4004 16.7998V24.7998C30.4004 25.2416 30.0414 25.5996 29.5996 25.5996C29.158 25.5994 28.7998 25.2415 28.7998 24.7998V16.7998C28.7999 16.3582 29.158 16.0002 29.5996 16ZM34.4004 11.2002C34.842 11.2004 35.2002 11.5583 35.2002 12V24.7998C35.2002 25.2415 34.842 25.5994 34.4004 25.5996C33.9586 25.5996 33.5996 25.2416 33.5996 24.7998V12C33.5996 11.5582 33.9586 11.2002 34.4004 11.2002ZM8 0C10.6509 7.731e-07 12.7997 2.14893 12.7998 4.7998C12.7998 7.45077 10.651 9.59961 8 9.59961C5.34903 9.59961 3.2002 7.45077 3.2002 4.7998C3.2003 2.14893 5.3491 0 8 0ZM8 1.59961C6.2336 1.60164 4.80195 3.03343 4.7998 4.7998C4.7998 6.56711 6.23269 8 8 8C9.76731 8 11.2002 6.56712 11.2002 4.7998C11.2001 3.03259 9.76724 1.59961 8 1.59961Z" fill="#30CEC2" fill-opacity="0.4"/>
</svg>
