<svg width="62" height="64" viewBox="0 0 62 64" fill="none" xmlns="http://www.w3.org/2000/svg">
<path d="M8.75591 18.5645C13.9953 16.8314 19.7551 18.6621 23.0332 23.1016L23.0293 23.1055C27.5582 19.6046 33.8803 19.6046 38.4092 23.1055L38.4063 23.1025C40.8029 19.8504 44.5998 17.9273 48.6397 17.9199C52.0345 17.9199 55.291 19.2685 57.6915 21.6689C60.0918 24.0693 61.4404 27.3251 61.4405 30.7197V37.1201C61.4404 39.2409 59.7204 40.96 57.5997 40.96H56.3204V52.4805C56.3201 54.6009 54.601 56.3201 52.4805 56.3203H44.7999C42.6793 56.3202 40.9602 54.601 40.96 52.4805V45.8447C40.55 45.9961 40.1167 46.0759 39.6797 46.0801H38.4004V60.1602C38.4004 62.2809 36.6804 64 34.5596 64H26.8799C24.7593 63.9999 23.0401 62.2808 23.0401 60.1602V46.0801H21.7598C21.323 46.0759 20.8903 45.996 20.4805 45.8447V52.4805C20.4803 54.601 18.7603 56.3203 16.6397 56.3203H8.96001C6.83942 56.3203 5.12039 54.601 5.12016 52.4805V40.96H3.83989C1.71924 40.9599 8.53053e-05 39.2408 4.57764e-05 37.1201V30.7197C-0.0154497 25.2014 3.51677 20.2975 8.75591 18.5645ZM30.7198 23.04C25.0645 23.0402 20.4805 27.625 20.4805 33.2803V42.2402C20.4815 42.9466 21.0534 43.5186 21.7598 43.5195H23.0401C24.4539 43.5195 25.5997 44.6662 25.5997 46.0801V60.1602C25.6006 60.8666 26.1735 61.4395 26.8799 61.4404H34.5596C35.2661 61.4396 35.839 60.8667 35.8399 60.1602V46.0801C35.8399 44.6662 36.9866 43.5195 38.4004 43.5195H39.6797C40.3862 43.5187 40.959 42.9467 40.96 42.2402V33.2803C40.96 27.6249 36.3752 23.04 30.7198 23.04ZM21.1612 24.8447C18.6016 21.1848 13.9628 19.6099 9.70415 20.9551C5.44558 22.3003 2.55249 26.2538 2.55962 30.7197V37.1201C2.56062 37.8266 3.13346 38.3993 3.83989 38.4004H5.12016C6.53392 38.4004 7.67966 39.5462 7.67973 40.96V52.4805C7.68093 53.1868 8.25364 53.7587 8.96001 53.7598H16.6397C17.3461 53.7588 17.9188 53.1868 17.92 52.4805V33.2803C17.9293 30.1661 19.083 27.164 21.1612 24.8447ZM51.7364 20.9551C47.4777 19.6099 42.8379 21.1848 40.2784 24.8447C42.3567 27.164 43.5102 30.166 43.5196 33.2803V52.4805C43.5208 53.1867 44.0935 53.7587 44.7999 53.7598H52.4805C53.1867 53.7585 53.7586 53.1866 53.7598 52.4805V40.96C53.7599 39.5462 54.9066 38.4004 56.3204 38.4004H57.5997C58.3062 38.3994 58.8789 37.8266 58.8799 37.1201V30.7197C58.8871 26.2539 55.9947 22.3004 51.7364 20.9551ZM30.7198 2.55957C34.9613 2.55957 38.4004 5.99869 38.4004 10.2402C38.4003 14.4817 34.9612 17.9199 30.7198 17.9199C26.4784 17.9198 23.0402 14.4816 23.0401 10.2402C23.0401 5.99879 26.4784 2.55974 30.7198 2.55957ZM12.7999 0C17.0413 0 20.4803 3.43828 20.4805 7.67969C20.4805 11.9212 17.0414 15.3604 12.7999 15.3604C8.55841 15.3602 5.12016 11.9212 5.12016 7.67969C5.12033 3.43836 8.55852 0.000125882 12.7999 0ZM30.7198 5.12012C27.8936 5.12352 25.6029 7.41398 25.5997 10.2402C25.5998 13.0677 27.8923 15.3602 30.7198 15.3604C33.5474 15.3604 35.8398 13.0678 35.8399 10.2402C35.8399 7.41254 33.5475 5.12012 30.7198 5.12012ZM48.6397 0C52.8811 0 56.3202 3.43828 56.3204 7.67969C56.3204 11.9212 52.8812 15.3604 48.6397 15.3604C44.3983 15.3601 40.96 11.9211 40.96 7.67969C40.9602 3.43841 44.3984 0.000211174 48.6397 0ZM12.7999 2.55957C9.97371 2.56293 7.68315 4.85356 7.67973 7.67969C7.67973 10.5073 9.97225 12.7997 12.7999 12.7998C15.6275 12.7998 17.92 10.5074 17.92 7.67969C17.9198 4.85214 15.6274 2.55957 12.7999 2.55957ZM48.6397 2.55957C45.8136 2.56302 43.524 4.85361 43.5206 7.67969C43.5206 10.5073 45.8122 12.7996 48.6397 12.7998C51.4674 12.7998 53.7598 10.5074 53.7598 7.67969C53.7596 4.85214 51.4673 2.55957 48.6397 2.55957Z" fill="#30CEC2" fill-opacity="0.4"/>
</svg>
