<svg width="64" height="62" viewBox="0 0 64 62" fill="none" xmlns="http://www.w3.org/2000/svg">
<path d="M37.1201 0C37.827 6.3777e-05 38.4004 0.573388 38.4004 1.28027C38.4002 1.98703 37.8269 2.55951 37.1201 2.55957H3.83984C3.13304 2.55965 2.55965 3.13304 2.55957 3.83984V38.4004H61.4404V26.8799C61.4405 26.1731 62.013 25.5998 62.7197 25.5996C63.4266 25.5996 63.9999 26.173 64 26.8799V47.3604C63.9976 49.48 62.2798 51.1979 60.1602 51.2002H38.9121L40.4482 58.8799H44.7998C45.5067 58.8799 46.0801 59.4532 46.0801 60.1602C46.08 60.867 45.5067 61.4404 44.7998 61.4404H19.2002C18.4933 61.4404 17.92 60.867 17.9199 60.1602C17.9199 59.4532 18.4933 58.8799 19.2002 58.8799H23.5518L25.0879 51.2002H3.83984C1.7202 51.1979 0.00244761 49.48 0 47.3604V3.83984C0.00234169 1.72013 1.72013 0.00234169 3.83984 0H37.1201ZM26.1631 58.8799H37.8369L36.3008 51.2002H27.6992L26.1631 58.8799ZM2.55957 47.3604C2.55976 48.0671 3.13311 48.6396 3.83984 48.6396H60.1602C60.8669 48.6396 61.4402 48.0671 61.4404 47.3604V40.96H2.55957V47.3604ZM46.0801 15.3604C47.4939 15.3604 48.6396 16.5061 48.6396 17.9199C48.6396 19.3337 47.4939 20.4804 46.0801 20.4805C44.6662 20.4805 43.5195 19.3338 43.5195 17.9199C43.5196 16.5061 44.6663 15.3604 46.0801 15.3604ZM44.7324 7.70215C47.8568 7.37878 50.9725 8.38895 53.3125 10.4844C55.2951 12.4493 56.383 15.1429 56.3203 17.9336C56.3112 18.4024 56.2672 18.8706 56.1895 19.333C56.0964 19.9766 55.5544 20.4609 54.9043 20.4805C54.8452 20.4801 54.786 20.4746 54.7275 20.4658C54.3933 20.4232 54.0903 20.248 53.8867 19.9795C53.6832 19.7111 53.5955 19.3723 53.6445 19.0391C53.7086 18.6739 53.7473 18.3041 53.7598 17.9336C53.8168 15.8535 53.0188 13.8411 51.5518 12.3652C49.714 10.7653 47.2878 10.0121 44.8672 10.291C44.1613 10.3122 43.5658 9.76931 43.5225 9.06445C43.4811 8.3543 44.0223 7.74486 44.7324 7.70215ZM44.7002 0.0693359C49.6431 -0.332908 54.5263 1.37118 58.1455 4.76172C61.8411 8.14339 63.962 12.9108 64 17.9199C64 18.3848 63.9651 18.8419 63.9326 19.2979C63.8816 19.9642 63.3265 20.4795 62.6582 20.4805C62.6231 20.4805 62.5901 20.4804 62.5576 20.4766C61.8528 20.4225 61.325 19.8075 61.3779 19.1025C61.4104 18.7114 61.4404 18.32 61.4404 17.9199C61.4034 13.6242 59.5802 9.53765 56.4082 6.64062C53.3145 3.73194 49.1323 2.27101 44.9004 2.62109C44.2044 2.65216 43.6036 2.13853 43.5254 1.44629C43.4986 1.10797 43.6069 0.772883 43.8271 0.514648C44.0475 0.256292 44.3617 0.0961117 44.7002 0.0693359Z" fill="#30CEC2" fill-opacity="0.4"/>
</svg>
