<svg width="39" height="37" viewBox="0 0 39 37" fill="none" xmlns="http://www.w3.org/2000/svg">
<path d="M15.4049 1.6001C15.7946 0.498168 16.9219 -0.162982 18.0739 0.034668C19.2257 0.232394 20.0678 1.23127 20.068 2.3999C20.068 3.56872 19.2258 4.56837 18.0739 4.76611C16.9219 4.96376 15.7946 4.30255 15.4049 3.20068H11.2584C10.8166 3.20068 10.4577 3.55866 10.4577 4.00049V9.6001H32.6246C33.7069 9.60003 34.6552 10.3246 34.9401 11.3687L38.4313 24.1685C38.6282 24.8902 38.4772 25.6628 38.0231 26.2573C37.569 26.8517 36.8638 27.2007 36.1159 27.2007H20.0582V35.2007H22.4577C22.8995 35.2007 23.2584 35.5587 23.2584 36.0005C23.2584 36.4422 22.8994 36.8003 22.4577 36.8003H16.0582C15.6165 36.8003 15.2585 36.4422 15.2584 36.0005C15.2584 35.5587 15.6164 35.2007 16.0582 35.2007H18.4577V27.2007H2.40004C1.65213 27.2006 0.946816 26.8517 0.492813 26.2573C0.0387447 25.6628 -0.112283 24.8902 0.08461 24.1685L3.57582 11.3687C3.86066 10.3246 4.80906 9.60011 5.89125 9.6001H8.85805V4.00049C8.85946 2.67559 9.93354 1.60151 11.2584 1.6001H15.4049ZM5.89125 11.2007C5.53083 11.2013 5.21526 11.442 5.11977 11.7896L1.62856 24.5894C1.56296 24.8298 1.61311 25.0875 1.7643 25.2856C1.91558 25.4837 2.15081 25.6 2.40004 25.6001H36.1159C36.3343 25.602 36.5422 25.5131 36.6911 25.3569L36.7516 25.2856C36.9049 25.0884 36.9551 24.8298 36.8873 24.5894L33.3971 11.7896C33.3017 11.4419 32.9852 11.2012 32.6246 11.2007H10.4577V13.6001C10.4577 14.0419 10.0997 14.3999 9.65785 14.3999C9.21616 14.3997 8.85805 14.0418 8.85805 13.6001V11.2007H5.89125ZM25.6579 19.2007C26.0997 19.2007 26.4577 19.5587 26.4577 20.0005C26.4576 20.4422 26.0996 20.8003 25.6579 20.8003H12.858C12.4163 20.8002 12.0583 20.4422 12.0582 20.0005C12.0582 19.5587 12.4163 19.2007 12.858 19.2007H25.6579ZM22.4577 14.3999C22.8995 14.3999 23.2584 14.7589 23.2584 15.2007C23.2582 15.6424 22.8994 16.0005 22.4577 16.0005H16.0582C15.6165 16.0005 15.2586 15.6424 15.2584 15.2007C15.2584 14.7589 15.6164 14.3999 16.0582 14.3999H22.4577Z" fill="#30CEC2" fill-opacity="0.4"/>
</svg>
