<svg width="37" height="40" viewBox="0 0 37 40" fill="none" xmlns="http://www.w3.org/2000/svg">
<path d="M29.5996 0C30.0414 0 30.4003 0.358067 30.4004 0.799805V4.7998H36C36.4417 4.7998 36.7996 5.15796 36.7998 5.59961V9.59961C36.7957 13.4799 34.0036 16.7965 30.1807 17.4609C29.3374 21.8434 26.1334 25.3974 21.8613 26.6885L23.042 32H25.2783C25.9325 31.9999 26.5206 32.3985 26.7637 33.0059L28.6836 37.8057C28.8809 38.2986 28.8211 38.8572 28.5234 39.2969C28.2258 39.7366 27.7293 40.0001 27.1982 40H9.60156C9.07056 40 8.57403 39.7366 8.27637 39.2969C7.97877 38.8572 7.91896 38.2986 8.11621 37.8057L10.0361 33.0059C10.2792 32.3986 10.8674 32 11.5215 32H13.7578L14.9375 26.6885C10.6658 25.3973 7.46284 21.8432 6.62012 17.4609C2.79686 16.7967 0.00398105 13.4801 0 9.59961V5.59961C0.000211049 5.15803 0.358197 4.79991 0.799805 4.7998H6.40039V0.799805C6.4005 0.358067 6.75843 0 7.2002 0H29.5996ZM9.60156 38.4004H27.1982L25.2783 33.5996H11.5215L9.60156 38.4004ZM23.2002 35.2002C23.6419 35.2003 24 35.5582 24 36C24 36.4418 23.6419 36.7997 23.2002 36.7998H13.5996C13.158 36.7996 12.7998 36.4417 12.7998 36C12.7998 35.5583 13.158 35.2004 13.5996 35.2002H23.2002ZM15.3975 32H21.4023L20.2988 27.0361C19.6714 27.1407 19.0364 27.1956 18.4004 27.2002C17.7641 27.1957 17.1286 27.1404 16.501 27.0352L15.3975 32ZM8 15.2002C8.00012 20.9439 12.6567 25.5996 18.4004 25.5996C24.1439 25.5994 28.7997 20.9437 28.7998 15.2002V1.59961H8V15.2002ZM1.59961 9.59961C1.60346 12.5169 3.57683 15.0644 6.40039 15.7979V6.40039H1.59961V9.59961ZM30.4004 15.7979C33.2238 15.0643 35.1963 12.5168 35.2002 9.59961V6.40039H30.4004V15.7979Z" fill="#30CEC2" fill-opacity="0.4"/>
</svg>
