<svg width="40" height="39" viewBox="0 0 40 39" fill="none" xmlns="http://www.w3.org/2000/svg">
<path d="M37.5996 0C38.9245 0.00141097 39.9986 1.07549 40 2.40039V29.5996C39.9986 30.9245 38.9245 31.9986 37.5996 32H24.3203L25.2803 36.7998H28C28.4417 36.7998 28.7996 37.158 28.7998 37.5996C28.7998 38.0414 28.4418 38.4004 28 38.4004H12C11.5582 38.4004 11.2002 38.0414 11.2002 37.5996C11.2004 37.158 11.5583 36.7998 12 36.7998H14.7197L15.6797 32H2.40039C1.07549 31.9986 0.00141097 30.9245 0 29.5996V2.40039C0.00141097 1.07549 1.07549 0.00141097 2.40039 0H37.5996ZM16.3516 36.7998H23.6484L22.6885 32H17.3115L16.3516 36.7998ZM1.59961 29.5996C1.59961 30.0414 1.95856 30.4004 2.40039 30.4004H37.5996C38.0414 30.4004 38.4004 30.0414 38.4004 29.5996V25.5996H1.59961V29.5996ZM2.40039 1.59961C1.95856 1.59961 1.59961 1.95856 1.59961 2.40039V24H38.4004V2.40039C38.4004 1.95856 38.0414 1.59961 37.5996 1.59961H2.40039ZM7.2002 14.4004C7.64193 14.4005 8 14.7584 8 15.2002V20C8 20.4418 7.64193 20.7997 7.2002 20.7998C6.75837 20.7998 6.40039 20.4418 6.40039 20V15.2002C6.40039 14.7584 6.75837 14.4004 7.2002 14.4004ZM13.5996 6.40039C14.0414 6.40039 14.4004 6.75837 14.4004 7.2002V20C14.4004 20.4418 14.0414 20.7998 13.5996 20.7998C13.158 20.7996 12.7998 20.4417 12.7998 20V7.2002C12.7998 6.7585 13.158 6.4006 13.5996 6.40039ZM20 16C20.4418 16 20.7997 16.3581 20.7998 16.7998V20C20.7998 20.4418 20.4418 20.7998 20 20.7998C19.5582 20.7998 19.2002 20.4418 19.2002 20V16.7998C19.2003 16.3581 19.5582 16 20 16ZM26.4004 9.59961C26.842 9.59982 27.2002 9.95869 27.2002 10.4004V20C27.2002 20.4417 26.842 20.7996 26.4004 20.7998C25.9586 20.7998 25.5996 20.4418 25.5996 20V10.4004C25.5996 9.95856 25.9586 9.59961 26.4004 9.59961ZM32.7998 12.7998C33.2415 12.7998 33.5994 13.158 33.5996 13.5996V20C33.5996 20.4418 33.2416 20.7998 32.7998 20.7998C32.3581 20.7997 32 20.4418 32 20V13.5996C32.0002 13.158 32.3582 12.7999 32.7998 12.7998Z" fill="#30CEC2" fill-opacity="0.4"/>
</svg>
