<svg width="40" height="39" viewBox="0 0 40 39" fill="none" xmlns="http://www.w3.org/2000/svg">
<path d="M29.5996 0C30.0414 0 30.4003 0.358067 30.4004 0.799805V3.2002H38.4004C39.2838 3.20041 39.9999 3.91637 40 4.7998V36.7998C40 37.6833 39.2839 38.4002 38.4004 38.4004H1.59961C0.716133 38.4002 0 37.6833 0 36.7998V4.7998C0.000105375 3.91637 0.716198 3.20041 1.59961 3.2002H9.59961V0.799805C9.59972 0.358067 9.95863 0 10.4004 0C10.842 0.00021092 11.2001 0.358197 11.2002 0.799805V3.2002H28.7998V0.799805C28.7999 0.358197 29.158 0.000211242 29.5996 0ZM1.59961 36.7998H38.4004V12.7998H1.59961V36.7998ZM20 16C24.86 16 28.7997 19.9398 28.7998 24.7998C28.7998 29.6599 24.8601 33.5996 20 33.5996C15.1399 33.5996 11.2002 29.6599 11.2002 24.7998C11.2003 19.9398 15.14 16 20 16ZM20 17.5996C16.0255 17.604 12.8043 20.8253 12.7998 24.7998C12.7998 28.7763 16.0236 32 20 32C23.9764 32 27.2002 28.7763 27.2002 24.7998C27.2001 20.8235 23.9764 17.5996 20 17.5996ZM20 20.7998C20.4417 20.7998 20.7996 21.158 20.7998 21.5996V25.2002L23.6797 27.3604C23.9083 27.5318 24.0283 27.8119 23.9941 28.0957C23.96 28.3793 23.7772 28.623 23.5146 28.7354C23.2518 28.8476 22.9484 28.8111 22.7197 28.6396L19.5195 26.2402C19.3182 26.0891 19.2002 25.8513 19.2002 25.5996V21.5996C19.2004 21.158 19.5583 20.7998 20 20.7998ZM1.59961 11.2002H38.4004V4.7998H1.59961V11.2002Z" fill="#30CEC2" fill-opacity="0.4"/>
</svg>
