<svg width="40" height="40" viewBox="0 0 40 40" fill="none" xmlns="http://www.w3.org/2000/svg">
<path d="M19.2003 0C20.9675 0.000210937 22.3996 1.43301 22.3996 3.2002C22.3995 3.29612 22.3804 3.38562 22.3722 3.47852L35.3361 13.1699C35.787 12.9301 36.2893 12.8031 36.8 12.7998C38.4518 12.7994 39.832 14.0574 39.9845 15.7021C40.1371 17.3469 39.0115 18.8372 37.3878 19.1406L32.463 33.2129C33.6608 34.4396 33.9426 36.2942 33.1632 37.8213C32.3838 39.3483 30.7167 40.2082 29.0207 39.958C27.3246 39.7076 25.9771 38.4029 25.672 36.7158L14.2609 36.082C13.7968 37.7097 12.141 38.6905 10.4904 38.3164C8.83998 37.9421 7.76983 36.3433 8.05289 34.6748L8.0441 34.6641L2.61148 19.1406C0.987376 18.8376 -0.138746 17.3472 0.0138245 15.7021C0.166554 14.057 1.54812 12.7987 3.20035 12.7998C3.73244 12.8034 4.25499 12.9413 4.71988 13.2002L16.0402 3.59668C16.0186 3.46547 16.0052 3.33307 16.0002 3.2002C16.0002 1.43288 17.433 0 19.2003 0ZM29.5998 33.5996C28.2744 33.5997 27.2004 34.6746 27.2003 36C27.2003 37.3254 28.2744 38.4003 29.5998 38.4004C30.9252 38.4004 32.0002 37.3255 32.0002 36C32.0001 34.6745 30.9252 33.5996 29.5998 33.5996ZM11.2003 33.5996C10.3167 33.5996 9.59976 34.3165 9.59976 35.2002C9.59986 36.0838 10.3168 36.7998 11.2003 36.7998C12.0838 36.7996 12.7999 36.0836 12.8 35.2002C12.8 34.3167 12.0838 33.5998 11.2003 33.5996ZM5.92105 17.665C5.53775 18.2895 4.95109 18.7636 4.25992 19.0068L9.09195 32.8105C9.93207 32.0586 11.1081 31.8074 12.1818 32.1514C13.2554 32.4953 14.0668 33.3825 14.3136 34.4824L25.7052 35.1152C25.9598 33.972 26.705 32.9989 27.7423 32.4551C28.7797 31.9112 30.0039 31.852 31.089 32.293L35.7404 19.0068C35.1062 18.7859 34.5582 18.3704 34.173 17.8203L25.5392 21.002C25.5745 21.1996 25.5949 21.3999 25.5998 21.6006C25.5995 23.8095 23.8088 25.6006 21.5998 25.6006C19.3908 25.6005 17.6 23.8095 17.5998 21.6006C17.5998 21.474 17.6254 21.3538 17.6369 21.2305L5.92105 17.665ZM21.5998 19.2002C20.2745 19.2003 19.2006 20.2744 19.2003 21.5996C19.2003 22.925 20.2744 23.9999 21.5998 24C22.9252 24 24.0002 22.9251 24.0002 21.5996C23.9984 20.2749 22.9245 19.2017 21.5998 19.2002ZM21.8029 5.0498C21.221 5.87808 20.2788 6.37956 19.2668 6.39941C18.2547 6.41917 17.2937 5.95517 16.6798 5.15039L5.89957 14.2959C6.22512 14.8046 6.39837 15.396 6.39957 16C6.39956 16.0452 6.38851 16.0881 6.38687 16.1338L18.1017 19.6992C18.773 18.4439 20.0646 17.644 21.4875 17.6025C22.9105 17.5612 24.2474 18.2847 24.9904 19.499L33.632 16.3145C33.6214 16.2092 33.5998 16.1077 33.5998 16C33.6002 15.3813 33.7812 14.7762 34.1203 14.2588L21.8029 5.0498ZM3.20035 14.4004C2.3167 14.4004 1.59977 15.1163 1.59976 16C1.60082 16.8832 2.31713 17.5986 3.20035 17.5996C4.08382 17.5994 4.79996 16.8835 4.79996 16C4.79995 15.1165 4.08382 14.4006 3.20035 14.4004ZM36.8 14.4004C35.9163 14.4004 35.2004 15.1163 35.2003 16C35.2003 16.8837 35.9163 17.5996 36.8 17.5996C37.6832 17.5985 38.3985 16.8832 38.3996 16C38.3996 15.1164 37.6836 14.4004 36.8 14.4004ZM19.2003 1.59961C18.3171 1.60067 17.6008 2.31698 17.5998 3.2002C17.5999 4.08375 18.3168 4.7998 19.2003 4.7998C20.0837 4.79959 20.7998 4.08362 20.8 3.2002C20.8 2.31667 20.0838 1.59982 19.2003 1.59961Z" fill="#30CEC2" fill-opacity="0.4"/>
</svg>
