<svg width="40" height="40" viewBox="0 0 40 40" fill="none" xmlns="http://www.w3.org/2000/svg">
<path d="M20.8 1.59961C27.8692 1.59961 33.5997 7.33026 33.5998 14.3994V25.874C33.5997 26.7227 33.9372 27.5365 34.5373 28.1367L36.0969 29.6963C36.5469 30.1464 36.8 30.7571 36.8 31.3936V33.5996H26.9738C26.2557 36.4232 23.7135 38.3994 20.8 38.3994C17.8865 38.3994 15.3443 36.4232 14.6262 33.5996H4.79999V31.3936C4.80004 30.7571 5.05311 30.1463 5.50311 29.6963L7.06268 28.1377C7.66286 27.5374 8.00034 26.7228 8.00018 25.874V14.3994C8.00029 7.33026 13.7308 1.59961 20.8 1.59961ZM16.2951 33.5996C16.969 35.5116 18.7727 36.7932 20.8 36.7998C22.8273 36.7932 24.6311 35.5116 25.3049 33.5996H16.2951ZM20.8 3.19922C14.6145 3.19923 9.59989 8.21391 9.59979 14.3994V25.874C9.60319 27.1478 9.09747 28.3702 8.19452 29.2686L6.63397 30.8281C6.4838 30.9778 6.39918 31.1815 6.3996 31.3936V32H35.2004V31.3936C35.2008 31.1815 35.1162 30.9779 34.966 30.8281L33.4055 29.2686C32.5025 28.3702 31.9968 27.1477 32.0002 25.874V14.3994C32.0001 8.2139 26.9855 3.19922 20.8 3.19922Z" fill="#30CEC2" fill-opacity="0.4"/>
</svg>
