<svg width="40" height="40" viewBox="0 0 40 40" fill="none" xmlns="http://www.w3.org/2000/svg">
<path d="M31.1996 0C31.6414 0 32.0003 0.358067 32.0004 0.799805V4.7998H37.6C38.0417 4.7998 38.3996 5.15796 38.3998 5.59961V9.59961C38.3957 13.4799 35.6036 16.7965 31.7807 17.4609C30.9374 21.8434 27.7334 25.3974 23.4613 26.6885L24.642 32H26.8783C27.5325 31.9999 28.1206 32.3985 28.3637 33.0059L30.2836 37.8057C30.4809 38.2986 30.4211 38.8572 30.1234 39.2969C29.8258 39.7366 29.3293 40.0001 28.7982 40H11.2016C10.6706 40 10.174 39.7366 9.87637 39.2969C9.57877 38.8572 9.51896 38.2986 9.71622 37.8057L11.6361 33.0059C11.8792 32.3986 12.4674 32 13.1215 32H15.3578L16.5375 26.6885C12.2658 25.3973 9.06284 21.8432 8.22012 17.4609C4.39687 16.7967 1.60399 13.4801 1.60001 9.59961V5.59961C1.60022 5.15803 1.9582 4.79991 2.39981 4.7998H8.0004V0.799805C8.0005 0.358067 8.35844 0 8.8002 0H31.1996ZM11.2016 38.4004H28.7982L26.8783 33.5996H13.1215L11.2016 38.4004ZM24.8002 35.2002C25.2419 35.2003 25.6 35.5582 25.6 36C25.6 36.4418 25.2419 36.7997 24.8002 36.7998H15.1996C14.758 36.7996 14.3998 36.4417 14.3998 36C14.3998 35.5583 14.758 35.2004 15.1996 35.2002H24.8002ZM16.9975 32H23.0023L21.8988 27.0361C21.2714 27.1407 20.6365 27.1956 20.0004 27.2002C19.3641 27.1957 18.7286 27.1404 18.101 27.0352L16.9975 32ZM9.60001 15.2002C9.60013 20.9439 14.2567 25.5996 20.0004 25.5996C25.7439 25.5994 30.3997 20.9437 30.3998 15.2002V1.59961H9.60001V15.2002ZM3.19962 9.59961C3.20347 12.5169 5.17684 15.0644 8.0004 15.7979V6.40039H3.19962V9.59961ZM32.0004 15.7979C34.8238 15.0643 36.7964 12.5168 36.8002 9.59961V6.40039H32.0004V15.7979Z" fill="#30CEC2" fill-opacity="0.4"/>
</svg>
