<svg width="105" height="20" viewBox="0 0 105 20" fill="none" xmlns="http://www.w3.org/2000/svg">
<path fill-rule="evenodd" clip-rule="evenodd" d="M101.794 12.8714C101.793 10.9711 100.83 9.66881 99.3674 9.34664C97.8888 9.02099 96.446 9.61459 95.7891 10.819C95.0034 12.2599 95.2467 14.175 96.367 15.1636C97.4164 16.0897 98.633 16.2696 99.9083 15.7247C101.263 15.1457 101.748 14.0001 101.794 12.8714ZM96.9338 19.08C96.867 18.9113 96.6945 18.9645 96.5738 18.9319C93.9443 18.2229 92.1641 16.1683 91.9173 13.5026C91.7127 11.2906 92.2292 9.30175 93.9271 7.7196C95.8464 5.93102 98.949 5.65989 100.89 7.10376C101.136 7.28693 101.359 7.50014 101.691 7.78305C101.691 7.44264 101.708 7.1832 101.686 6.92694C101.659 6.59944 101.768 6.48372 102.124 6.4911C103.082 6.51129 104.041 6.48874 105 6.4832V18.7728C104.216 18.7712 103.432 18.7689 102.648 18.7682C101.714 18.7674 101.714 18.768 101.696 17.8334C101.694 17.7379 101.732 17.6274 101.589 17.5331C100.866 18.3748 99.8797 18.793 98.8194 19.08H96.9338Z" fill="white"/>
<mask id="mask0_1_309" style="mask-type:alpha" maskUnits="userSpaceOnUse" x="0" y="6" width="14" height="14">
<path d="M0 6.17969H13.0585V19.1631H0V6.17969Z" fill="white"/>
</mask>
<g mask="url(#mask0_1_309)">
<path fill-rule="evenodd" clip-rule="evenodd" d="M3.43876 12.6411C3.42543 14.6148 4.78574 16.0685 6.65012 16.0729C8.51262 16.0772 9.86532 14.6717 9.8823 12.7146C9.89949 10.7333 8.5471 9.28675 6.67282 9.28169C4.82335 9.27676 3.45189 10.7012 3.43876 12.6411ZM-9.15527e-05 11.5429C0.236054 11.142 0.255117 10.6747 0.405533 10.2457C1.45855 7.24324 4.6072 5.54634 7.57407 6.40035C8.42418 6.64504 9.10668 7.15409 9.78126 7.86174C9.78126 7.46947 9.80314 7.18336 9.77553 6.90198C9.74303 6.57062 9.88137 6.49909 10.1913 6.50713C10.9718 6.52744 11.7547 6.54352 12.5337 6.5027C13 6.47827 13.0604 6.66266 13.0585 7.06205C13.0432 10.1683 13.05 13.2745 13.05 16.3809C13.05 17.0674 13.0375 17.7541 13.0557 18.4402C13.0636 18.7367 13.0042 18.868 12.6618 18.8576C11.8294 18.8324 10.9955 18.8388 10.1628 18.8552C9.87928 18.8609 9.74866 18.7977 9.77574 18.4906C9.80116 18.2035 9.78126 17.9124 9.78126 17.545C9.47762 17.8066 9.22741 18.0281 8.97074 18.2422C8.3623 18.7495 7.60835 18.9358 6.87345 19.1632H4.99887C4.93949 18.9916 4.76658 19.035 4.64908 19.0035C2.40783 18.4047 1.01522 16.9581 0.305221 14.8077C0.195846 14.4762 0.227825 14.103 -9.15527e-05 13.8084V11.5429Z" fill="white"/>
</g>
<mask id="mask1_1_309" style="mask-type:alpha" maskUnits="userSpaceOnUse" x="69" y="6" width="13" height="13">
<path d="M69.3028 6.19531H81.8835V18.5642H69.3028V6.19531Z" fill="white"/>
</mask>
<g mask="url(#mask1_1_309)">
<path fill-rule="evenodd" clip-rule="evenodd" d="M74.3667 18.5642C74.3205 18.4375 74.1916 18.4667 74.0915 18.445C70.9065 17.7598 69.3852 16.0958 69.3242 13.128C69.2795 10.9496 69.321 8.76991 69.3068 6.59089C69.3047 6.27678 69.4156 6.19108 69.7486 6.19783C70.6502 6.21606 71.5531 6.22129 72.4542 6.19592C72.8367 6.18524 72.9094 6.31556 72.9074 6.63037C72.8942 8.60828 72.8985 10.5863 72.903 12.5641C72.9038 12.8988 72.8983 13.2387 72.9564 13.5671C73.183 14.8463 74.2123 15.5777 75.6967 15.5406C77.1322 15.5048 78.1138 14.7191 78.2429 13.4325C78.404 11.8277 78.2809 10.2165 78.3085 8.60828C78.3204 7.92115 78.3144 7.23381 78.3084 6.54658C78.3066 6.33872 78.3313 6.19642 78.6279 6.20005C79.6033 6.21183 80.5792 6.20941 81.5547 6.20065C81.8027 6.19843 81.8681 6.29401 81.8669 6.50136C81.8535 8.8814 81.9408 11.2657 81.8121 13.6403C81.6668 16.3243 79.892 17.9944 76.9695 18.4613C76.8688 18.4774 76.7413 18.4396 76.6872 18.5642H74.3667Z" fill="white"/>
</g>
<mask id="mask2_1_309" style="mask-type:alpha" maskUnits="userSpaceOnUse" x="33" y="0" width="12" height="19">
<path d="M33.6009 0H44.5834V18.4699H33.6009V0Z" fill="white"/>
</mask>
<g mask="url(#mask2_1_309)">
<path fill-rule="evenodd" clip-rule="evenodd" d="M42.5154 0C43.0267 0.244611 43.6107 0.269624 44.1246 0.518523C44.4986 0.699633 44.6942 0.872882 44.5179 1.33158C44.2867 1.933 44.1379 2.56566 43.9781 3.19077C43.8956 3.51358 43.8016 3.65202 43.4329 3.45743C42.8884 3.17014 42.2853 3.05111 41.6632 3.06519C40.8999 3.08265 40.4329 3.48836 40.3039 4.22342C40.2031 4.79758 40.2574 5.37685 40.2351 5.95346C40.2242 6.23432 40.3908 6.24146 40.602 6.24044C41.5467 6.23626 42.4918 6.25525 43.4358 6.23054C43.8109 6.22074 43.9691 6.29567 43.9485 6.69904C43.9139 7.37733 43.9181 8.0593 43.9473 8.73801C43.9632 9.10819 43.8236 9.19068 43.4687 9.18211C42.5421 9.15965 41.614 9.19283 40.6877 9.16577C40.3061 9.15464 40.2291 9.28277 40.2307 9.62784C40.2444 12.3984 40.228 15.1691 40.2492 17.9396C40.2525 18.3676 40.1374 18.488 39.7002 18.4678C38.9148 18.4314 38.1254 18.4365 37.3395 18.4664C36.9523 18.4811 36.8405 18.3838 36.8431 17.9938C36.862 15.2234 36.8417 12.4526 36.8651 9.68215C36.8688 9.24265 36.7372 9.14607 36.3128 9.16424C35.5271 9.19762 34.7387 9.16465 33.9516 9.17506C33.6691 9.17874 33.5276 9.15158 33.6389 8.81407C33.8838 8.07166 34.1078 7.32149 34.3051 6.56581C34.3785 6.28455 34.5215 6.22697 34.7844 6.23432C35.3088 6.24902 35.8366 6.20685 36.3578 6.24851C36.7965 6.28352 36.8753 6.11416 36.8617 5.73529C36.8334 4.93786 36.8252 4.13756 37.002 3.34962C37.3726 1.69666 38.3407 0.582023 40.0584 0.139049C40.1516 0.115057 40.2768 0.13129 40.311 0H42.5154Z" fill="white"/>
</g>
<mask id="mask3_1_309" style="mask-type:alpha" maskUnits="userSpaceOnUse" x="45" y="6" width="13" height="13">
<path d="M45.1951 6.19336H57.7391V18.5643H45.1951V6.19336Z" fill="white"/>
</mask>
<g mask="url(#mask3_1_309)">
<path fill-rule="evenodd" clip-rule="evenodd" d="M50.2224 18.5643C49.9256 18.3409 49.5407 18.3687 49.1993 18.2773C46.865 17.6523 45.3114 15.9348 45.2468 13.7161C45.1775 11.3376 45.2189 8.95645 45.1951 6.57662C45.1918 6.24307 45.3462 6.19423 45.6567 6.19957C46.5032 6.21407 47.3512 6.22767 48.1965 6.19514C48.6454 6.17792 48.7896 6.28104 48.7835 6.71227C48.7565 8.65634 48.771 10.6009 48.7727 12.5453C48.7729 12.8134 48.7681 13.0828 48.7942 13.3492C48.9247 14.6835 49.9046 15.5097 51.3813 15.5418C52.8888 15.5745 53.8851 14.8286 54.1129 13.5037C54.2477 12.7197 54.1732 11.9311 54.1802 11.1446C54.1934 9.63623 54.1947 8.12742 54.1757 6.61912C54.1714 6.28759 54.2739 6.18789 54.6377 6.19725C55.5207 6.21981 56.4053 6.22162 57.2881 6.19655C57.6665 6.18577 57.741 6.30914 57.739 6.62687C57.7246 8.80579 57.7509 10.985 57.7257 13.1638C57.6922 16.0476 56.0642 17.8386 52.9803 18.4454C52.868 18.4675 52.7093 18.4062 52.6535 18.5643H50.2224Z" fill="white"/>
</g>
<mask id="mask4_1_309" style="mask-type:alpha" maskUnits="userSpaceOnUse" x="57" y="2" width="13" height="17">
<path d="M57.7767 2.13379H69.2748V18.5479H57.7767V2.13379Z" fill="white"/>
</mask>
<g mask="url(#mask4_1_309)">
<path fill-rule="evenodd" clip-rule="evenodd" d="M63.9382 18.5479C63.888 18.3915 63.734 18.4324 63.6252 18.4036C61.7018 17.8948 60.6426 16.721 60.4037 14.7944C60.1969 13.1251 60.3417 11.4477 60.3093 9.77429C60.2904 8.79643 60.3058 8.8038 59.3252 8.7929C58.8489 8.78761 58.2299 8.98779 57.9348 8.71393C57.6367 8.43717 57.8534 7.83248 57.8447 7.37203C57.8352 6.87402 57.6666 6.20666 57.9268 5.92117C58.2267 5.59232 58.93 5.82726 59.4574 5.81657C60.3056 5.79934 60.3059 5.8119 60.3059 5.0144C60.3059 4.20268 60.319 3.39065 60.2994 2.57946C60.2915 2.26087 60.3566 2.12275 60.729 2.13448C61.6009 2.16198 62.4745 2.15928 63.3466 2.1352C63.6903 2.12576 63.763 2.24385 63.7568 2.54988C63.7384 3.44763 63.7751 4.34693 63.7398 5.24364C63.7223 5.68374 63.8208 5.83919 64.3143 5.82477C65.6132 5.78679 66.9142 5.82103 68.2142 5.80567C68.5462 5.80173 68.6903 5.86763 68.6758 6.22834C68.6466 6.95268 68.6501 7.67931 68.6747 8.40396C68.686 8.73199 68.5711 8.80722 68.2494 8.80317C66.896 8.78657 65.5422 8.80836 64.1889 8.78802C63.8331 8.78263 63.738 8.88495 63.7428 9.22242C63.7614 10.5347 63.7486 11.8476 63.7526 13.1601C63.7531 13.3493 63.7744 13.5393 63.7978 13.7274C63.9549 14.9828 64.8242 15.6144 66.1113 15.4081C66.6982 15.314 67.2396 15.0907 67.7458 14.8011C68.0224 14.6428 68.1326 14.702 68.2537 14.9697C68.5533 15.6323 68.8696 16.2887 69.2066 16.934C69.3345 17.1793 69.2826 17.2888 69.0512 17.422C68.3129 17.8465 67.5495 18.2013 66.7093 18.3961C66.5704 18.4283 66.3754 18.3621 66.2904 18.5479H63.9382Z" fill="white"/>
</g>
<mask id="mask5_1_309" style="mask-type:alpha" maskUnits="userSpaceOnUse" x="23" y="6" width="12" height="14">
<path d="M23.1442 6.20117H34.559V19.0596H23.1442V6.20117Z" fill="white"/>
</mask>
<g mask="url(#mask5_1_309)">
<path fill-rule="evenodd" clip-rule="evenodd" d="M27.2263 19.0596C26.6595 18.8327 26.039 18.827 25.457 18.6549C24.7299 18.4401 24.026 18.1847 23.3705 17.8064C23.1516 17.68 23.0732 17.5812 23.2173 17.3341C23.5799 16.7125 23.9244 16.0799 24.2435 15.4366C24.3859 15.1496 24.5115 15.1785 24.7557 15.3166C26.355 16.2215 28.079 16.4892 29.9026 16.2132C30.1507 16.1756 30.3809 16.093 30.5914 15.9654C30.8934 15.7823 31.0799 15.5303 31.0728 15.1686C31.0654 14.7933 30.8315 14.5819 30.5094 14.4365C29.7932 14.1132 29.0132 14.0606 28.2472 13.9548C27.3904 13.8365 26.5439 13.689 25.7455 13.3469C24.4432 12.7891 23.6513 11.8671 23.5695 10.4646C23.4886 9.0756 23.9715 7.91514 25.2006 7.12603C26.5772 6.24214 28.1403 6.14154 29.7287 6.22476C30.6816 6.27476 31.6194 6.42935 32.5328 6.71001C32.7686 6.7825 32.8789 6.85233 32.7828 7.13472C32.5577 7.79562 32.372 8.4695 32.1915 9.14349C32.1126 9.43856 32.0002 9.50911 31.6803 9.40247C30.708 9.07866 29.7073 8.88594 28.6686 8.94554C28.2765 8.96804 27.8987 9.03726 27.5591 9.23949C27.2312 9.43467 27.0663 9.71431 27.0892 10.0917C27.1109 10.4505 27.3595 10.6417 27.6618 10.7597C28.3722 11.037 29.1368 11.08 29.884 11.1922C30.7393 11.3207 31.5789 11.4907 32.3826 11.8174C35.4221 13.0538 34.8711 16.542 33.1986 17.7909C32.3349 18.4358 31.3542 18.7655 30.301 18.9499C30.1906 18.9692 30.0442 18.9073 29.9808 19.0596H27.2263Z" fill="white"/>
</g>
<path fill-rule="evenodd" clip-rule="evenodd" d="M86.4611 7.77745C87.7263 6.13352 89.2998 5.97699 91.0228 6.33539C91.3491 6.40332 91.3986 6.541 91.3129 6.84527C91.0918 7.6311 90.8738 8.41875 90.6869 9.21406C90.618 9.50684 90.5129 9.54535 90.2595 9.46693C89.6268 9.27141 88.9807 9.20509 88.3283 9.35798C87.3866 9.57881 86.8416 10.2177 86.6512 11.1911C86.5812 11.5492 86.5617 11.9233 86.5599 12.2904C86.5513 14.202 86.5385 16.114 86.5683 18.0251C86.5756 18.4901 86.4408 18.5806 86.0376 18.5615C85.3066 18.5269 84.573 18.5431 83.8407 18.5564C83.5941 18.5609 83.4742 18.5224 83.475 18.2114C83.4847 14.4216 83.4844 10.6318 83.4755 6.84205C83.4748 6.54473 83.5732 6.478 83.8338 6.48355C84.582 6.49917 85.3311 6.50743 86.0786 6.48062C86.4104 6.46873 86.4922 6.59804 86.4655 6.913C86.4442 7.16144 86.4611 7.41341 86.4611 7.77745Z" fill="white"/>
<path fill-rule="evenodd" clip-rule="evenodd" d="M18.2235 7.75518C19.4987 6.12759 21.071 5.97309 22.7868 6.34386C23.07 6.40503 23.156 6.50128 23.0655 6.8138C22.8386 7.59756 22.637 8.38979 22.4429 9.18343C22.3756 9.45876 22.2967 9.57959 21.9953 9.46521C21.5748 9.30567 21.1264 9.27494 20.6782 9.2832C19.2875 9.3089 18.3633 10.2237 18.3385 11.6996C18.3029 13.8116 18.3111 15.9249 18.3284 18.0373C18.3318 18.4535 18.233 18.5813 17.833 18.562C17.1024 18.5268 16.3691 18.5397 15.6373 18.5581C15.3433 18.5654 15.2239 18.5009 15.225 18.1513C15.2371 14.3953 15.2354 10.6393 15.2272 6.88333C15.2265 6.57827 15.3099 6.47568 15.6048 6.48374C16.3365 6.5036 17.0694 6.50712 17.8006 6.48253C18.129 6.47145 18.2691 6.56195 18.2284 6.92485C18.2024 7.15614 18.2235 7.39328 18.2235 7.75518Z" fill="white"/>
</svg>
