<svg width="60" height="32" viewBox="0 0 60 32" fill="none" xmlns="http://www.w3.org/2000/svg">
<mask id="mask0_1_372" style="mask-type:alpha" maskUnits="userSpaceOnUse" x="0" y="0" width="20" height="20">
<path d="M0 0.0214844H19.0465V19.8565H0V0.0214844Z" fill="white"/>
</mask>
<g mask="url(#mask0_1_372)">
<path fill-rule="evenodd" clip-rule="evenodd" d="M3.16138 0.0214844C3.67426 0.232552 3.86598 0.631554 3.86368 1.16083C3.85779 2.47113 3.86144 3.78147 3.86204 5.09176C3.86229 5.5669 3.94374 5.64566 4.4324 5.64571C7.99103 5.64591 11.5497 5.64541 15.1083 5.64601C17.1419 5.64635 18.6773 6.93218 19.0206 8.92446C19.0429 9.0534 19.0437 9.18695 19.0438 9.31841C19.0452 11.6012 19.0492 13.8839 19.0434 16.1666C19.0387 18.0517 17.4343 19.708 15.5353 19.8258C14.9698 19.8608 14.4055 19.8532 13.8409 19.854C10.9141 19.8578 7.98744 19.8554 5.06075 19.8565C4.8939 19.8565 4.72845 19.8507 4.56484 19.8167C4.13106 19.7264 3.80725 19.3673 3.79946 18.9278C3.78773 18.2605 3.78558 17.5926 3.79986 16.9254C3.811 16.406 4.21946 16.0308 4.76575 16.0291C6.53673 16.0236 8.3077 16.026 10.0787 16.0256C11.5836 16.0253 13.0885 16.0263 14.5935 16.025C15.0972 16.0246 15.1833 15.9363 15.1834 15.4332C15.1836 13.6285 15.1838 11.8237 15.1832 10.0189C15.183 9.54479 15.1158 9.47955 14.6332 9.47955C11.2243 9.4793 7.81529 9.4793 4.40638 9.47955C3.92921 9.4796 3.86224 9.54622 3.86204 10.025C3.86144 11.6237 3.86284 13.2225 3.86014 14.8212C3.85989 14.9769 3.8504 15.135 3.82203 15.2877C3.73724 15.7434 3.35884 16.0563 2.88985 16.0597C2.24967 16.0644 1.60944 16.0639 0.969207 16.0602C0.400339 16.0569 0.0024169 15.6591 0.00226708 15.0897C0.000918698 10.3841 0.00251678 5.67855 -3.03408e-05 0.972948C-0.000279864 0.49568 0.263703 0.214323 0.66647 0.0214844H3.16138Z" fill="white"/>
</g>
<path fill-rule="evenodd" clip-rule="evenodd" d="M40.8192 0C41.3315 0.232106 41.4941 0.631718 41.4926 1.17968C41.4794 5.78583 41.4831 10.392 41.4879 14.9982C41.4884 15.4451 41.3399 15.785 40.9222 15.986C40.7912 16.0491 40.6529 16.0669 40.5097 16.0668C39.8852 16.0663 39.2606 16.0718 38.6362 16.0652C38.043 16.059 37.6574 15.672 37.656 15.0791C37.6523 13.4281 37.6548 11.7771 37.6536 10.1262C37.6536 10.0193 37.6537 9.9106 37.636 9.80566C37.5995 9.59033 37.4728 9.46906 37.2424 9.4716C37.1259 9.47284 37.0093 9.4706 36.8927 9.4706C33.5452 9.4705 30.1978 9.47045 26.8503 9.4706C26.3582 9.47065 26.2795 9.54686 26.2794 10.0259C26.2789 11.8502 26.2788 13.6745 26.2795 15.4988C26.2797 15.9329 26.3817 16.034 26.8275 16.0342C30.1 16.0352 33.3725 16.0342 36.6451 16.0357C37.1701 16.036 37.5346 16.2973 37.6506 16.7528C37.6747 16.8474 37.6811 16.9485 37.6815 17.0466C37.6842 17.641 37.6857 18.2353 37.682 18.8297C37.6785 19.3986 37.3583 19.7594 36.7908 19.8375C36.6676 19.8545 36.542 19.861 36.4177 19.861C33.1201 19.8622 29.8226 19.859 26.5251 19.8634C25.1304 19.8653 23.9659 19.3956 23.1307 18.255C22.6692 17.6247 22.4195 16.9135 22.4187 16.1283C22.4164 13.8748 22.4124 11.6212 22.4196 9.36765C22.4255 7.53452 23.8667 5.92669 25.6992 5.68407C25.9477 5.65117 26.1958 5.63917 26.4459 5.63922C29.9765 5.64001 33.5072 5.63981 37.0379 5.63971C37.5672 5.63966 37.6536 5.55343 37.654 5.01757C37.6549 3.73806 37.6708 2.45825 37.6466 1.17924C37.6362 0.630626 37.8072 0.231312 38.3205 0H40.8192Z" fill="white"/>
<mask id="mask1_1_372" style="mask-type:alpha" maskUnits="userSpaceOnUse" x="44" y="5" width="16" height="12">
<path d="M44.3735 5.67871H59.5839V16.0361H44.3735V5.67871Z" fill="white"/>
</mask>
<g mask="url(#mask1_1_372)">
<path fill-rule="evenodd" clip-rule="evenodd" d="M59.5839 8.78923C59.3514 9.30291 58.944 9.48704 58.3847 9.48516C55.1875 9.47446 51.9902 9.48043 48.793 9.48107C48.2863 9.48117 48.2227 9.54483 48.2225 10.0515C48.2219 11.6432 48.2217 13.2349 48.2218 14.8266C48.2219 14.9745 48.2178 15.1211 48.1839 15.2667C48.0755 15.7318 47.7293 16.0235 47.2447 16.0299C46.6219 16.0382 45.9989 16.0378 45.3762 16.0306C44.7951 16.0239 44.3842 15.6233 44.3827 15.0497C44.3776 13.1298 44.3627 11.2097 44.3873 9.29009C44.4097 7.54561 45.8379 5.99383 47.6055 5.73312C47.8359 5.69915 48.0665 5.68283 48.2997 5.68298C51.6714 5.6846 55.043 5.68948 58.4147 5.67872C58.969 5.67696 59.3596 5.87337 59.5839 6.37683V8.78923Z" fill="white"/>
</g>
<mask id="mask2_1_372" style="mask-type:alpha" maskUnits="userSpaceOnUse" x="55" y="16" width="5" height="4">
<path d="M55.8091 16.0977H59.5846V19.8574H55.8091V16.0977Z" fill="white"/>
</mask>
<g mask="url(#mask2_1_372)">
<path fill-rule="evenodd" clip-rule="evenodd" d="M59.5846 19.1757C59.3758 19.6723 58.9819 19.8635 58.4597 19.8572C57.9473 19.851 57.4347 19.8623 56.9224 19.8538C56.2613 19.8428 55.8687 19.5171 55.8346 18.8921C55.8008 18.2735 55.7999 17.65 55.8362 17.0316C55.872 16.4219 56.248 16.1108 56.865 16.1064C57.3937 16.1027 57.9234 16.1248 58.4509 16.0998C58.9851 16.0746 59.3654 16.266 59.5846 16.7542V19.1757Z" fill="white"/>
</g>
<mask id="mask3_1_372" style="mask-type:alpha" maskUnits="userSpaceOnUse" x="58" y="27" width="2" height="5">
<path d="M58.6736 27.9248H59.5751V31.6402H58.6736V27.9248Z" fill="white"/>
</mask>
<g mask="url(#mask3_1_372)">
<path fill-rule="evenodd" clip-rule="evenodd" d="M59.5751 31.6121C58.6737 31.6783 58.6737 31.6783 58.6737 31.0207C58.6737 30.105 58.6733 29.1893 58.674 28.2736C58.6743 27.9275 58.6775 27.9254 59.1309 27.9248C59.279 27.9246 59.4271 27.9284 59.5751 27.9302V31.6121Z" fill="white"/>
</g>
<path fill-rule="evenodd" clip-rule="evenodd" d="M1.23954 28.5582C0.671072 28.5534 0.671072 28.5534 0.672104 29.1201C0.672252 29.1849 0.673382 29.2497 0.674169 29.3144C0.675201 29.4009 0.716154 29.4562 0.805924 29.4544C1.09013 29.449 1.3767 29.4911 1.6582 29.426C1.92889 29.3634 2.03346 29.2232 2.01596 28.9613C2.00008 28.7234 1.84374 28.5756 1.58166 28.5594C1.46799 28.5524 1.35359 28.5582 1.23954 28.5582ZM1.22312 31.0684C1.34553 31.0684 1.46809 31.0729 1.59036 31.0676C1.95308 31.0522 2.12033 30.8937 2.11979 30.5716C2.1193 30.2543 1.94841 30.0927 1.58648 30.0762C1.43166 30.0691 1.27636 30.0728 1.1213 30.0739C0.618615 30.0773 0.674513 30.0234 0.672547 30.5128C0.670334 31.0696 0.672006 31.0696 1.22312 31.0684ZM2.22736 29.7383C2.72095 29.9525 2.91617 30.3192 2.84862 30.8071C2.7736 31.3489 2.41899 31.6625 1.86577 31.6788C1.31795 31.695 0.769249 31.6808 0.220941 31.6859C0.0672594 31.6873 -0.000486341 31.6337 2.62714e-06 31.474C0.00349581 30.3602 0.00261089 29.2464 0.000447744 28.1326C0.000201932 27.9995 0.0339765 27.9081 0.188297 27.9103C0.719644 27.9177 1.25183 27.878 1.78224 27.9331C2.21969 27.9787 2.59455 28.1428 2.70669 28.6021C2.81952 29.0643 2.71632 29.4778 2.22736 29.7383Z" fill="white"/>
<path fill-rule="evenodd" clip-rule="evenodd" d="M9.22687 29.3632C9.22687 30.0185 9.22965 30.674 9.22423 31.3293C9.22333 31.4414 9.28419 31.6021 9.13902 31.6512C8.98441 31.7034 8.81169 31.6945 8.65118 31.6487C8.5797 31.6284 8.5864 31.5443 8.58636 31.481C8.58532 30.3545 8.58636 29.2281 8.58466 28.1017C8.58442 27.9658 8.64991 27.9206 8.77177 27.9094C9.05476 27.8832 9.26763 27.9334 9.43479 28.228C9.79939 28.8708 10.2092 29.4862 10.6028 30.1114C10.639 30.1689 10.6579 30.2461 10.7384 30.2715C10.7986 30.1912 10.77 30.0994 10.7704 30.0151C10.7734 29.4154 10.7703 28.8157 10.773 28.216C10.7744 27.9254 10.7971 27.9085 11.1169 27.909C11.4246 27.9095 11.4403 27.9213 11.4406 28.2061C11.4419 29.2596 11.4342 30.3132 11.4462 31.3665C11.449 31.6194 11.3603 31.6715 11.1319 31.6831C10.8445 31.6977 10.679 31.5976 10.5282 31.3432C10.1276 30.667 9.69461 30.0112 9.27452 29.3473C9.25862 29.3526 9.24277 29.3579 9.22687 29.3632Z" fill="white"/>
<path fill-rule="evenodd" clip-rule="evenodd" d="M30.2646 29.1022C30.2646 29.2073 30.2716 29.313 30.2631 29.4173C30.2486 29.5933 30.3169 29.67 30.497 29.6613C30.7215 29.6504 30.9468 29.6582 31.1717 29.6508C31.3421 29.6452 31.4831 29.5762 31.5718 29.422C31.8031 29.0198 31.5612 28.5707 31.1036 28.5535C31.0072 28.5498 30.9107 28.5499 30.8143 28.5512C30.1717 28.5596 30.2751 28.4695 30.2646 29.1022ZM29.5728 29.7989C29.5729 29.2729 29.5797 28.7468 29.5697 28.2211C29.5655 27.9982 29.632 27.8923 29.8709 27.9045C30.3923 27.9309 30.9167 27.8635 31.4362 27.9459C31.9175 28.0223 32.2598 28.3675 32.3338 28.8362C32.4271 29.4268 32.2371 29.8796 31.7768 30.1127C31.6367 30.1836 31.6261 30.2391 31.706 30.3646C31.9359 30.7256 32.1532 31.0946 32.3791 31.4582C32.4728 31.6091 32.4434 31.6536 32.2617 31.6757C31.8664 31.7239 31.5895 31.6228 31.4248 31.2222C31.3122 30.9486 31.1293 30.7039 30.9735 30.4489C30.8929 30.3172 30.4335 30.2373 30.3166 30.331C30.2504 30.3842 30.2657 30.4631 30.2653 30.5342C30.2634 30.8416 30.2598 31.1491 30.2653 31.4565C30.268 31.6122 30.2044 31.6821 30.0506 31.6696C30.0346 31.6683 30.0184 31.6696 30.0023 31.67C29.5731 31.6794 29.5729 31.6794 29.5728 31.2553C29.5725 30.7698 29.5727 30.2843 29.5728 29.7989Z" fill="white"/>
<path fill-rule="evenodd" clip-rule="evenodd" d="M13.6511 29.8095C13.6511 30.1588 13.6509 30.5081 13.6512 30.8574C13.6513 30.9577 13.6485 31.0662 13.8047 31.065C14.0891 31.0627 14.3743 31.0923 14.6576 31.0401C15.0202 30.9732 15.2395 30.7721 15.327 30.4508C15.4359 30.0505 15.4319 29.6412 15.3581 29.2414C15.2681 28.7537 14.992 28.5653 14.4523 28.5547C14.292 28.5516 14.1305 28.563 13.9712 28.5503C13.7342 28.5313 13.6311 28.6009 13.6456 28.835C13.6658 29.1588 13.6507 29.4846 13.6511 29.8095ZM12.8807 29.7952C12.8806 29.2667 12.8874 28.7382 12.8773 28.2098C12.8732 27.9957 12.9462 27.8929 13.1977 27.9042C13.7049 27.9269 14.2138 27.8772 14.7211 27.9383C15.534 28.0363 15.9925 28.4178 16.1477 29.1482C16.2491 29.6254 16.2384 30.1019 16.1056 30.5739C15.9104 31.267 15.3627 31.6676 14.5793 31.681C14.1065 31.6891 13.6333 31.6765 13.1606 31.6866C12.9494 31.6912 12.8762 31.6154 12.8785 31.4295C12.8853 30.8848 12.8809 30.34 12.8807 29.7952Z" fill="white"/>
<path fill-rule="evenodd" clip-rule="evenodd" d="M26.0533 29.815C26.0533 30.1472 26.0533 30.4794 26.0533 30.8116C26.0533 30.8278 26.0548 30.8441 26.0539 30.8602C26.0462 30.998 26.1044 31.0738 26.2709 31.069C26.4856 31.0627 26.7016 31.077 26.9152 31.0622C27.3359 31.0332 27.5944 30.8456 27.7113 30.479C27.8585 30.0177 27.856 29.5509 27.7122 29.0892C27.6108 28.764 27.3422 28.5783 26.9639 28.5605C26.7496 28.5505 26.534 28.5621 26.3196 28.5521C26.1225 28.543 26.0466 28.6167 26.051 28.7942C26.0595 29.1343 26.0535 29.4747 26.0533 29.815ZM25.2815 29.8048C25.2816 29.253 25.2837 28.7012 25.2802 28.1495C25.2793 28.0096 25.3104 27.9079 25.4958 27.9096C25.9977 27.9145 26.5037 27.8822 27.0006 27.9293C28.0086 28.0249 28.4508 28.4236 28.5804 29.3294C28.6425 29.7637 28.6277 30.2036 28.4919 30.6326C28.2911 31.267 27.7463 31.6619 27.0162 31.6791C26.5323 31.6906 26.0476 31.6742 25.5637 31.6866C25.3314 31.6925 25.2575 31.6023 25.2813 31.4113C25.2823 31.4033 25.2813 31.3951 25.2813 31.387C25.2813 30.8596 25.2813 30.3322 25.2815 29.8048Z" fill="white"/>
<path fill-rule="evenodd" clip-rule="evenodd" d="M51.7593 29.6498C51.9049 29.6498 52.0512 29.6588 52.1959 29.6475C52.3691 29.6339 52.5185 29.5501 52.5708 29.3825C52.6905 28.9995 52.6184 28.5499 52.0553 28.5551C51.9663 28.5559 51.8772 28.5539 51.7882 28.5538C51.2228 28.5535 51.219 28.5535 51.2238 29.1168C51.2292 29.7304 51.1326 29.6557 51.7593 29.6498ZM50.5566 29.7929C50.5565 29.2427 50.5577 28.6924 50.5556 28.1422C50.5551 28.0154 50.5761 27.9112 50.7339 27.9139C51.2932 27.9232 51.8545 27.8659 52.4114 27.9495C52.9062 28.0238 53.2429 28.3613 53.3157 28.8358C53.4085 29.4411 53.2264 29.8856 52.7599 30.1108C52.5923 30.1918 52.617 30.2582 52.6938 30.3794C52.9191 30.7352 53.1342 31.0973 53.3597 31.4529C53.4677 31.6232 53.4178 31.6587 53.2307 31.678C52.8438 31.7181 52.5635 31.6301 52.4065 31.232C52.3099 30.9868 52.1397 30.7704 52.0021 30.5414C51.8762 30.3318 51.5334 30.2221 51.3105 30.3161C51.211 30.3581 51.2242 30.4431 51.2238 30.5218C51.222 30.8212 51.215 31.1208 51.2253 31.4199C51.2317 31.6064 51.1684 31.6948 50.9742 31.6735C50.91 31.6664 50.844 31.6674 50.7795 31.6729C50.6086 31.6876 50.5527 31.6074 50.5544 31.4436C50.5602 30.8934 50.5566 30.3432 50.5566 29.7929Z" fill="white"/>
<path fill-rule="evenodd" clip-rule="evenodd" d="M43.1752 29.6091C43.582 29.1215 43.9897 28.6346 44.3953 28.1459C44.55 27.9595 45.0153 27.8394 45.2296 27.9395C45.3646 28.0025 45.2649 28.0705 45.2217 28.1237C44.9007 28.5193 44.5855 28.9208 44.2486 29.3016C44.1075 29.4611 44.1209 29.5756 44.2238 29.7421C44.5682 30.2992 44.9005 30.8642 45.2343 31.4282C45.3572 31.6358 45.3361 31.6387 45.0997 31.6737C44.6967 31.7333 44.4418 31.5923 44.2677 31.2051C44.1209 30.8783 43.8996 30.5877 43.73 30.2706C43.6263 30.0766 43.5618 30.1126 43.431 30.2484C43.2021 30.4863 43.0755 30.7453 43.1227 31.0869C43.1402 31.2132 43.1231 31.3442 43.1246 31.473C43.126 31.5994 43.0767 31.6727 42.9449 31.667C42.9371 31.6667 42.9292 31.6671 42.9213 31.6676C42.448 31.6999 42.4469 31.6989 42.4469 31.2186C42.4468 30.22 42.446 29.2214 42.4474 28.2229C42.4479 27.9366 42.4624 27.933 42.794 27.9252C42.9971 27.9205 43.1415 27.9365 43.1304 28.2146C43.1121 28.6718 43.1254 29.1304 43.1254 29.5884C43.142 29.5953 43.1586 29.6022 43.1752 29.6091Z" fill="white"/>
<path fill-rule="evenodd" clip-rule="evenodd" d="M54.8495 29.7967C54.8495 29.2607 54.8551 28.7246 54.8466 28.1887C54.8434 27.9795 54.9337 27.9018 55.17 27.9046C55.8996 27.9134 56.6296 27.9174 57.359 27.9035C57.6682 27.8976 57.6566 28.0546 57.6622 28.2472C57.668 28.4509 57.6241 28.5674 57.3513 28.5591C56.8684 28.5444 56.3844 28.5607 55.9011 28.5529C55.7043 28.5497 55.6225 28.6057 55.6278 28.7901C55.6494 29.5374 55.5113 29.4024 56.3089 29.4161C56.5824 29.4208 56.8562 29.42 57.1298 29.4169C57.2931 29.415 57.3776 29.4619 57.3863 29.6252C57.409 30.0501 57.4013 30.0642 56.9224 30.0646C56.5758 30.0649 56.229 30.0703 55.8827 30.0629C55.6935 30.0588 55.6321 30.1255 55.6271 30.2926C55.6038 31.0691 55.599 31.0689 56.4664 31.069C56.7948 31.0691 57.1236 31.0778 57.4515 31.0671C57.7215 31.0582 57.7101 31.2128 57.7072 31.3734C57.7045 31.5277 57.7365 31.6888 57.4599 31.6862C56.6756 31.6787 55.891 31.6792 55.1066 31.6868C54.8877 31.6889 54.8477 31.5888 54.8485 31.4291C54.8513 30.885 54.8496 30.3409 54.8495 29.7967Z" fill="white"/>
<path fill-rule="evenodd" clip-rule="evenodd" d="M17.6492 29.7983C17.6492 29.2541 17.654 28.7098 17.6465 28.1656C17.6441 27.9778 17.708 27.9033 17.8873 27.9049C18.517 27.9109 19.1469 27.9147 19.7765 27.9034C20.0207 27.8991 20.022 28.0468 20.0236 28.2333C20.0252 28.4253 20.011 28.5657 19.7712 28.5576C19.3646 28.5439 18.9571 28.5611 18.5503 28.5513C18.3681 28.5468 18.3078 28.619 18.312 28.8076C18.3279 29.5289 18.2259 29.4023 18.8831 29.4146C19.1134 29.4189 19.344 29.4225 19.5741 29.4142C19.7983 29.4062 19.7939 29.5614 19.7895 29.7234C19.7853 29.8815 19.8274 30.0663 19.5801 30.0629C19.2345 30.0582 18.8888 30.0683 18.5434 30.0606C18.3767 30.0569 18.303 30.1183 18.3126 30.3004C18.322 30.4786 18.3227 30.6582 18.3124 30.8363C18.3017 31.0238 18.3833 31.0724 18.5463 31.0691C18.9533 31.0611 19.3609 31.0795 19.7673 31.0619C19.998 31.0519 20.0348 31.1641 20.0308 31.3684C20.0271 31.5579 20.0237 31.6927 19.7794 31.6866C19.1499 31.671 18.5199 31.6768 17.8903 31.6843C17.7126 31.6864 17.6438 31.6227 17.6465 31.4311C17.6543 30.887 17.6493 30.3426 17.6492 29.7983Z" fill="white"/>
<path fill-rule="evenodd" clip-rule="evenodd" d="M46.7427 29.7905C46.7426 29.2627 46.75 28.7346 46.739 28.207C46.7344 27.9905 46.7944 27.9004 47.0114 27.9043C47.6256 27.9154 48.2403 27.918 48.8543 27.9035C49.1102 27.8974 49.1153 28.0451 49.1173 28.2432C49.1192 28.4431 49.0888 28.5678 48.8556 28.5592C48.4491 28.5444 48.0416 28.5609 47.6347 28.553C47.4665 28.5498 47.4017 28.6138 47.4049 28.7938C47.418 29.5342 47.3245 29.4031 47.9623 29.4157C48.185 29.4201 48.4084 29.4282 48.6303 29.4135C48.8686 29.3977 48.8878 29.5414 48.8851 29.735C48.8824 29.9191 48.886 30.0763 48.6396 30.0667C48.3023 30.0536 47.9639 30.0684 47.6261 30.0622C47.4715 30.0595 47.3986 30.1172 47.4056 30.2883C47.4131 30.4747 47.4135 30.6621 47.4053 30.8485C47.3977 31.0226 47.4738 31.0721 47.6273 31.0697C48.0496 31.0631 48.4723 31.0777 48.8943 31.0642C49.1341 31.0565 49.1203 31.2094 49.123 31.3798C49.1259 31.5587 49.1186 31.6914 48.8863 31.6867C48.2491 31.6738 47.6115 31.677 46.9742 31.6854C46.7865 31.6879 46.7381 31.6038 46.7403 31.4228C46.7471 30.8788 46.7428 30.3346 46.7427 29.7905Z" fill="white"/>
<path fill-rule="evenodd" clip-rule="evenodd" d="M34.5508 29.2645C34.5508 29.6245 34.5465 29.9845 34.5522 30.3445C34.5565 30.6097 34.6115 30.8655 34.8666 31C35.1577 31.1536 35.4657 31.1537 35.7509 30.9857C35.9996 30.8391 36.0353 30.5729 36.0379 30.313C36.0448 29.6091 36.0513 28.9049 36.0352 28.2013C36.0291 27.9359 36.149 27.8974 36.3641 27.9041C36.6913 27.9143 36.7216 27.9239 36.7178 28.2015C36.7071 28.9849 36.7525 29.7689 36.6885 30.5517C36.6417 31.1248 36.3306 31.497 35.7774 31.6314C35.4883 31.7016 35.1933 31.7003 34.9061 31.6544C34.2388 31.5479 33.9003 31.1294 33.8743 30.3448C33.85 29.6096 33.8698 28.873 33.8657 28.137C33.8649 27.9752 33.9289 27.8981 34.0907 27.9071C34.1538 27.9106 34.2177 27.9127 34.2803 27.9063C34.4867 27.8853 34.5605 27.9763 34.5534 28.1847C34.5411 28.5442 34.55 28.9045 34.55 29.2645H34.5508Z" fill="white"/>
<path fill-rule="evenodd" clip-rule="evenodd" d="M7.15153 29.3344C7.15153 29.7024 7.15801 30.0704 7.15018 30.4382C7.13439 31.1818 6.64948 31.6666 5.91033 31.6822C5.72701 31.6861 5.54057 31.6949 5.36027 31.6689C4.70875 31.5746 4.31286 31.1285 4.2998 30.4515C4.28506 29.6839 4.29798 28.9159 4.29313 28.148C4.29202 27.9855 4.35344 27.9088 4.51712 27.9168C4.58084 27.9199 4.64542 27.9219 4.70865 27.9156C4.91536 27.8949 4.99117 27.9832 4.98863 28.1921C4.98013 28.8879 4.98469 29.5838 4.9869 30.2797C4.98729 30.4069 4.97739 30.5362 5.01984 30.6602C5.14137 31.0147 5.39638 31.1311 5.801 31.111C6.2256 31.0898 6.44599 30.8752 6.45314 30.4915C6.46707 29.748 6.45924 29.004 6.4652 28.2602C6.46611 28.1472 6.41689 27.9917 6.56233 27.9433C6.72818 27.8883 6.91131 27.8904 7.08046 27.9475C7.17361 27.9789 7.15114 28.0817 7.15157 28.1587C7.15369 28.5506 7.15253 28.9425 7.15253 29.3344H7.15153Z" fill="white"/>
<path fill-rule="evenodd" clip-rule="evenodd" d="M22.7898 31.6838C22.3964 31.7032 22.0373 31.6253 21.6748 31.5628C21.3533 31.5074 21.4858 31.3101 21.5051 31.1427C21.526 30.9605 21.6306 30.934 21.8047 30.9698C22.1645 31.0437 22.5286 31.0956 22.8994 31.0868C23.0529 31.0831 23.201 31.0584 23.334 30.9866C23.6494 30.8163 23.6491 30.4515 23.3349 30.2803C23.1812 30.1965 23.0106 30.1542 22.8407 30.1106C22.5491 30.0358 22.2632 29.9484 22.0074 29.7889C21.5987 29.5341 21.4407 29.1701 21.5155 28.7237C21.5856 28.3061 21.8884 28.0865 22.3 27.9806C22.9047 27.825 23.4946 27.9297 24.0824 28.0717C24.1629 28.0911 24.2087 28.1251 24.207 28.2188C24.2005 28.5678 24.0683 28.6752 23.7137 28.6059C23.3839 28.5415 23.0508 28.5189 22.715 28.5405C22.486 28.5552 22.3016 28.6443 22.2507 28.8703C22.1991 29.0996 22.3638 29.2219 22.5545 29.3078C22.7976 29.4173 23.0647 29.4592 23.3208 29.532C23.7784 29.6623 24.1889 29.8559 24.2957 30.3545C24.4484 31.0667 23.9539 31.6334 23.1452 31.6828C23.02 31.6903 22.894 31.6838 22.7898 31.6838Z" fill="white"/>
<path fill-rule="evenodd" clip-rule="evenodd" d="M38.1576 29.8577C38.1617 29.5787 38.1622 29.3828 38.1983 29.186C38.3509 28.3539 38.8016 27.9469 39.6456 27.9065C40.0485 27.8873 40.4431 27.9574 40.8341 28.0502C40.9844 28.0859 41.0598 28.1677 40.9887 28.3217C40.9274 28.4549 41.0011 28.7139 40.7033 28.6413C40.3896 28.5648 40.0717 28.5215 39.7468 28.5333C39.3017 28.5494 39.0253 28.7606 38.917 29.195C38.8179 29.5928 38.8199 29.9949 38.9192 30.392C39.0588 30.9501 39.4601 31.1706 40.1322 31.0664C40.3183 31.0376 40.5064 31.012 40.6872 30.9616C40.9366 30.8922 40.9322 31.0785 40.9755 31.2242C41.018 31.3675 41.0595 31.4934 40.8439 31.5478C40.3193 31.68 39.7919 31.7369 39.2585 31.6335C38.7876 31.5422 38.4763 31.249 38.3094 30.801C38.1865 30.471 38.1405 30.1279 38.1576 29.8577Z" fill="white"/>
</svg>
