<?xml version="1.0" standalone="no"?>
<!DOCTYPE svg PUBLIC "-//W3C//DTD SVG 20010904//EN"
 "http://www.w3.org/TR/2001/REC-SVG-20010904/DTD/svg10.dtd">
<svg version="1.0" xmlns="http://www.w3.org/2000/svg"
 width="225.000000pt" height="225.000000pt" viewBox="0 0 225.000000 225.000000"
 preserveAspectRatio="xMidYMid meet">

<g transform="translate(0.000000,225.000000) scale(0.100000,-0.100000)"
fill="#000000" stroke="none">
<path d="M64 1165 c0 -104 2 -146 3 -92 2 54 2 139 0 190 -1 51 -3 7 -3 -98z"/>
<path d="M84 1165 c0 -104 2 -146 3 -92 2 54 2 139 0 190 -1 51 -3 7 -3 -98z"/>
<path d="M100 1164 l0 -185 240 2 c204 1 242 4 249 17 5 9 17 13 28 10 13 -3
24 2 32 13 6 11 20 19 31 19 17 0 20 7 20 40 0 35 -3 40 -24 40 -15 0 -26 7
-29 20 -3 13 -14 20 -30 20 -14 0 -28 4 -31 9 -8 12 16 29 36 26 21 -4 33 42
24 90 -6 31 -9 33 -61 40 -30 3 -57 11 -60 16 -4 5 -97 9 -216 9 l-209 0 0
-186z m207 59 c-3 -10 -5 -4 -5 12 0 17 2 24 5 18 2 -7 2 -21 0 -30z m20 0
c-3 -10 -5 -4 -5 12 0 17 2 24 5 18 2 -7 2 -21 0 -30z m86 25 c8 -25 -6 -38
-39 -38 -30 0 -34 3 -34 25 0 22 4 25 34 25 19 0 36 -6 39 -12z m-106 -165
c-3 -10 -5 -2 -5 17 0 19 2 27 5 18 2 -10 2 -26 0 -35z m20 0 c-3 -10 -5 -2
-5 17 0 19 2 27 5 18 2 -10 2 -26 0 -35z m138 30 c2 -7 2 -20 -2 -29 -5 -13
-7 -13 -14 -2 -5 7 -9 8 -9 2 0 -6 -22 -11 -50 -13 -50 -2 -50 -2 -50 29 l0
31 60 -3 c36 -2 62 -8 65 -15z"/>
<path d="M714 1210 c0 -80 2 -112 3 -72 2 39 2 105 0 145 -1 39 -3 7 -3 -73z"/>
<path d="M734 1210 c0 -80 2 -112 3 -72 2 39 2 105 0 145 -1 39 -3 7 -3 -73z"/>
<path d="M762 1193 l3 -158 23 0 c15 0 29 -9 37 -25 8 -14 14 -20 15 -13 0 12
13 11 45 -3 11 -5 96 -9 188 -9 138 0 169 3 177 15 9 13 10 13 10 0 0 -13 1
-13 10 0 9 13 10 13 10 0 1 -8 7 -3 15 12 11 19 21 26 35 23 32 -6 40 31 40
181 l0 134 -125 0 -125 0 0 -122 c0 -68 -5 -130 -10 -138 -9 -13 -10 -13 -10
0 0 13 -1 13 -10 0 -9 -13 -10 -13 -10 0 0 13 -1 13 -10 0 -9 -13 -11 -13 -20
0 -9 13 -10 13 -10 0 0 -13 -1 -13 -10 0 -9 13 -10 13 -10 0 0 -13 -1 -13 -10
0 -5 8 -10 70 -10 138 l0 122 -120 0 -121 0 3 -157z"/>
<path d="M1384 1210 c0 -80 2 -112 3 -72 2 39 2 105 0 145 -1 39 -3 7 -3 -73z"/>
<path d="M1404 1210 c0 -80 2 -112 3 -72 2 39 2 105 0 145 -1 39 -3 7 -3 -73z"/>
<path d="M1680 1345 c0 -6 -17 -12 -37 -13 -21 -2 -43 -9 -49 -17 -6 -8 -21
-15 -32 -15 -12 0 -25 -6 -29 -14 -4 -8 -19 -16 -33 -18 -16 -2 -26 -10 -28
-24 -2 -16 -8 -20 -28 -16 -24 4 -24 3 -24 -62 0 -63 1 -66 24 -66 17 0 26 -7
30 -25 5 -18 13 -25 30 -25 13 0 26 -7 30 -15 3 -8 15 -15 27 -15 12 0 27 -7
34 -16 17 -25 336 -31 360 -8 11 12 15 12 15 2 0 -10 3 -9 10 2 9 13 10 13 10
0 1 -9 6 -5 15 10 l14 25 2 -25 1 -25 8 25 8 25 2 -25 2 -25 8 25 8 25 1 -27
c1 -28 2 -28 66 -28 l65 0 0 105 0 105 -185 0 -185 0 0 -45 c0 -45 0 -45 35
-45 19 0 35 -4 35 -10 0 -6 -28 -10 -65 -10 -45 0 -65 4 -65 13 0 8 -4 7 -10
-3 -9 -13 -10 -13 -10 0 0 12 -2 12 -8 2 -12 -18 -32 29 -32 74 0 64 9 71 100
71 59 0 83 -4 87 -14 6 -14 63 -18 63 -4 0 5 28 12 63 16 34 4 65 12 69 19 5
7 8 6 8 -4 0 -13 1 -13 10 0 7 11 10 11 10 2 0 -10 3 -10 14 0 10 9 11 17 2
30 -7 13 -12 14 -18 5 -6 -9 -8 -8 -8 3 0 12 -2 13 -9 1 -7 -11 -10 -9 -15 7
-6 17 -18 22 -71 27 -38 4 -65 12 -65 19 0 6 -5 4 -10 -4 -9 -13 -10 -13 -10
0 0 13 -1 13 -10 0 -6 -10 -10 -11 -10 -2 0 16 -186 17 -196 1 -4 -8 -9 -7
-15 2 -5 8 -9 9 -9 4z m-13 -202 c-2 -16 -4 -5 -4 22 0 28 2 40 4 28 2 -13 2
-35 0 -50z m20 0 c-2 -16 -4 -5 -4 22 0 28 2 40 4 28 2 -13 2 -35 0 -50z"/>
<path d="M1783 1145 c0 -27 2 -38 4 -22 2 15 2 37 0 50 -2 12 -4 0 -4 -28z"/>
<path d="M1803 1145 c0 -27 2 -38 4 -22 2 15 2 37 0 50 -2 12 -4 0 -4 -28z"/>
</g>
</svg>
