<svg width="109" height="21" viewBox="0 0 109 21" fill="none" xmlns="http://www.w3.org/2000/svg">
<mask id="mask0_1_1050" style="mask-type:alpha" maskUnits="userSpaceOnUse" x="37" y="11" width="9" height="10">
<path d="M37.6118 11.6748H45.0793V20.9667H37.6118V11.6748Z" fill="white"/>
</mask>
<g mask="url(#mask0_1_1050)">
<path fill-rule="evenodd" clip-rule="evenodd" d="M42.9221 17.468C42.9361 16.478 42.2955 15.733 41.3995 15.6974C40.5337 15.6628 39.8396 16.4194 39.8243 17.4142C39.8078 18.4807 40.3711 19.1205 41.3412 19.1367C42.3117 19.1531 42.9071 18.5245 42.9221 17.468ZM39.9937 20.923C38.1394 19.9117 37.4918 18.7056 37.6297 17.0325C37.8039 14.9162 39.8776 13.013 42.8294 14.5402C43.007 13.8926 42.9409 13.2526 42.902 12.6365C42.8494 11.8012 43.2876 11.6752 44.0264 11.6748C44.7483 11.6744 45.0918 11.842 45.079 12.6083C45.0401 14.9257 45.0671 17.2438 45.0654 19.5619C45.0645 20.7193 44.2602 21.3485 43.3005 20.7158C42.4824 20.176 42.1807 20.7145 41.666 20.923H39.9937Z" fill="white"/>
</g>
<path fill-rule="evenodd" clip-rule="evenodd" d="M62.833 17.531C62.2779 17.5669 61.6133 17.5069 61.5542 18.2729C61.5121 18.8214 61.9319 19.0046 62.4494 19.0031C63.0968 19.0012 63.7198 18.8734 63.8036 18.1555C63.8778 17.5202 63.2978 17.5731 62.833 17.531ZM60.9304 20.4388C60.6537 20.2595 60.3512 20.1071 60.1049 19.8964C58.9247 18.8864 59.2917 17.0874 60.7955 16.4771C61.585 16.1567 62.4104 16.2023 63.2373 16.2938C63.4113 16.3132 63.6231 16.4156 63.7318 16.2185C63.8559 15.9935 63.6703 15.8244 63.506 15.7075C62.8468 15.239 62.0635 15.3392 61.3884 15.5296C60.5603 15.7634 60.3927 15.4026 60.1942 14.8083C59.9478 14.0701 60.4784 13.9713 60.9882 13.8505C61.4019 13.7525 61.8271 13.6674 62.2513 13.6433C64.8296 13.4955 65.9345 14.4792 65.9434 16.9064C65.9458 17.6261 65.9454 18.3459 65.9434 19.0656C65.9399 20.2679 65.3606 20.7398 64.1974 20.2551C63.5594 19.9894 63.2168 20.1744 62.7737 20.4388H60.9304Z" fill="white"/>
<path fill-rule="evenodd" clip-rule="evenodd" d="M48.4167 19.0097C49.0857 18.9713 49.703 18.7078 49.7173 18.0515C49.7315 17.399 49.0305 17.5631 48.5758 17.5422C47.9792 17.5146 47.3983 17.6553 47.3615 18.3075C47.3271 18.9196 47.8898 18.9849 48.4167 19.0097ZM46.888 20.4375C45.8867 20.0124 45.1887 19.3735 45.2374 18.2669C45.2844 17.1969 46.1004 16.4467 47.4251 16.2834C47.9387 16.22 48.47 16.2866 48.9933 16.2829C49.2102 16.2815 49.5224 16.5529 49.6239 16.212C49.7173 15.898 49.4479 15.6647 49.1427 15.5591C48.4826 15.3308 47.7746 15.3397 47.139 15.5388C46.2961 15.8025 46.2376 15.3022 46.0395 14.7986C45.8018 14.194 46.1703 14.0087 46.6629 13.8936C47.2905 13.7468 47.921 13.6235 48.5785 13.6291C50.7079 13.6473 51.7508 14.6065 51.7695 16.6013C51.7779 17.4655 51.7751 18.3299 51.7712 19.1943C51.7664 20.2601 51.1765 20.7424 50.1689 20.2494C49.4419 19.8937 49.0688 20.2208 48.5579 20.4375H46.888Z" fill="white"/>
<path fill-rule="evenodd" clip-rule="evenodd" d="M68.3414 20.4432C67.9563 20.2908 67.5584 20.162 67.1877 19.9812C66.3344 19.5645 66.3082 19.3478 66.868 18.606C67.1354 18.2517 67.3814 18.2034 67.7648 18.4198C68.2294 18.6822 68.7264 18.8879 69.2871 18.8532C69.5466 18.8373 69.8812 18.899 69.9603 18.5713C70.0408 18.2386 69.7272 18.1429 69.4794 18.0528C69.0054 17.8805 68.5136 17.7515 68.0495 17.5589C67.0532 17.1452 66.6415 16.5416 66.6926 15.6425C66.7463 14.696 67.3303 14.0201 68.3628 13.7527C69.1971 13.5363 70.0295 13.6057 70.8102 13.9441C71.1859 14.1071 71.882 14.1233 71.5734 14.8352C71.3224 15.4147 71.0245 15.9928 70.2045 15.4605C70.1322 15.4138 70.0408 15.3835 69.9542 15.3702C69.526 15.3055 68.9016 15.0442 68.7427 15.5001C68.5462 16.0651 69.2848 16.0219 69.6402 16.2009C69.9551 16.3598 70.308 16.4466 70.6334 16.5876C71.3916 16.9164 71.9369 17.425 71.9399 18.2815C71.943 19.1245 71.5619 19.776 70.7697 20.178C70.6121 20.2578 70.4636 20.3542 70.3108 20.4432H68.3414Z" fill="white"/>
<path fill-rule="evenodd" clip-rule="evenodd" d="M3.26999 20.2656C10.7191 19.6499 13.826 15.2841 13.9757 10.8441C14.1423 5.9034 11.2773 1.51739 3.44567 0.686752C3.76102 0.473022 4.08331 0.541395 4.37928 0.541395C7.75505 0.541567 11.1328 0.485078 14.5059 0.577218C17.7321 0.665224 20.7434 1.39407 23.2049 3.5572C27.7609 7.56053 27.4207 16.805 19.5598 19.5605C17.952 20.1242 16.2958 20.437 14.5704 20.4332C11.3166 20.4261 8.06236 20.4415 4.80815 20.4387C4.36009 20.4384 3.90123 20.4869 3.26999 20.2656Z" fill="white"/>
<mask id="mask1_1_1050" style="mask-type:alpha" maskUnits="userSpaceOnUse" x="0" y="5" width="8" height="11">
<path d="M0 5.26562H7.99927V15.5821H0V5.26562Z" fill="white"/>
</mask>
<g mask="url(#mask1_1_1050)">
<path fill-rule="evenodd" clip-rule="evenodd" d="M0.00785178 10.3601C0.00749635 8.94707 0.0236686 7.53372 0.000209935 6.12108C-0.0102754 5.48753 0.252035 5.23575 0.89715 5.26842C2.09959 5.32958 3.31126 5.15887 4.4961 5.5534C6.77728 6.31275 8.10448 8.15924 7.99269 10.4977C7.87078 13.0487 6.49951 14.7664 4.1197 15.3493C2.98835 15.6264 1.83585 15.585 0.684422 15.5721C0.121946 15.5658 0.00429743 15.2328 0.00607461 14.772C0.0117616 13.3014 0.00820722 11.8307 0.00785178 10.3601Z" fill="white"/>
</g>
<path fill-rule="evenodd" clip-rule="evenodd" d="M69.7336 3.7011C69.1905 4.53576 68.6304 5.36023 68.1102 6.20882C67.7165 6.85076 67.414 6.78735 67.0464 6.18596C66.5263 5.33541 65.966 4.5095 65.4201 3.66877C65.0784 3.84363 65.2006 4.10905 65.1983 4.31338C65.1838 5.58046 65.1723 6.84826 65.1953 8.11516C65.207 8.76745 64.8556 8.92356 64.3041 8.90337C63.8001 8.88516 63.2281 8.94928 63.2252 8.20071C63.2158 5.69567 63.2211 3.19062 63.225 0.685756C63.2258 0.350678 63.3837 0.153311 63.7362 0.0772222C64.7757 -0.146758 65.3742 0.100978 65.9446 1.02458C66.3161 1.62633 66.6929 2.22468 67.0675 2.82482C67.6036 3.68395 67.6086 3.68717 68.1283 2.86448C68.6002 2.11698 69.0486 1.35448 69.5281 0.611989C69.861 0.0968696 71.1961 -0.159261 71.6819 0.172423C71.9436 0.351036 71.9262 0.628243 71.9267 0.889196C71.9312 3.27636 71.9125 5.66387 71.9398 8.05086C71.9484 8.81335 71.5314 8.90659 70.9273 8.91095C70.2848 8.91534 69.9298 8.71226 69.9424 7.99942C69.9669 6.58873 69.9497 5.17733 69.9497 3.76611C69.8777 3.7445 69.8056 3.72271 69.7336 3.7011Z" fill="white"/>
<path fill-rule="evenodd" clip-rule="evenodd" d="M39.6402 4.64326H39.6456C39.6456 5.2287 39.6411 5.81414 39.6478 6.39958C39.6508 6.65327 39.6785 6.89391 39.9783 7.03041C41.3591 7.6592 43.3118 6.70119 43.5593 5.26731C43.8557 3.54995 42.8565 2.37619 40.9892 2.24799C39.7435 2.16264 39.6454 2.24511 39.6405 3.38873C39.6387 3.80685 39.6402 4.22497 39.6402 4.64326ZM37.6145 4.71591C37.6138 3.59957 37.6346 2.48288 37.6057 1.36704C37.5898 0.753317 37.8603 0.502681 38.5094 0.525882C39.7647 0.570759 41.0273 0.429183 42.2743 0.686763C44.4112 1.12809 45.8582 2.85206 45.7767 4.87866C45.6974 6.85039 44.1282 8.4631 42.0034 8.78148C40.8103 8.96031 39.6113 8.8985 38.4131 8.909C37.8507 8.91408 37.6006 8.68291 37.6093 8.14862C37.6281 7.00467 37.6151 5.86021 37.6145 4.71591Z" fill="white"/>
<path fill-rule="evenodd" clip-rule="evenodd" d="M77.0619 5.1339C78.1982 5.14158 78.2329 5.11014 77.8155 4.15699C77.6204 3.71158 77.5373 2.94577 77.1058 2.94059C76.6182 2.93487 76.594 3.7039 76.3967 4.14181C75.9769 5.07317 76.0293 5.12693 77.0619 5.1339ZM81.0995 8.78757C79.978 9.01313 79.5602 8.55022 79.3745 7.84781C79.1819 7.11914 78.7359 6.83429 77.9715 6.91805C77.6084 6.95787 77.2305 6.96662 76.8702 6.91698C75.7138 6.75749 74.9374 7.06932 74.6308 8.26893C74.4888 8.82471 73.1145 9.10332 72.6453 8.76167C72.3696 8.56093 72.5138 8.33679 72.6051 8.12873C73.7117 5.60378 74.8303 3.08346 75.9301 0.555646C76.1543 0.0402246 76.5728 -0.00978163 77.0553 0.00129118C77.5443 0.012364 78.0502 -0.0521084 78.2991 0.516713C79.4151 3.06989 80.5545 5.61396 81.6526 8.1741C82.0288 9.05099 81.2006 8.73559 81.0995 8.78757Z" fill="white"/>
<path fill-rule="evenodd" clip-rule="evenodd" d="M104.312 2.50482C103.944 3.36209 103.688 3.948 103.442 4.53765C103.276 4.93491 103.397 5.15149 103.871 5.13637C104.142 5.12766 104.414 5.12908 104.685 5.13566C105.183 5.14776 105.352 4.94593 105.158 4.49089C104.908 3.90888 104.661 3.32563 104.312 2.50482ZM104.533 0.0192483C105.116 -0.0922449 105.42 0.291846 105.67 0.880608C106.641 3.15902 107.669 5.41484 108.636 7.69449C108.774 8.02079 109.36 8.45165 108.671 8.79467C108.089 9.08469 107.073 8.7936 106.8 8.34656C106.516 7.88085 106.543 7.10271 105.909 6.99993C104.835 6.82567 103.719 6.82051 102.637 7.017C102.202 7.09613 102.165 7.59136 102.009 7.93206C101.62 8.78631 101.161 9.01214 100.214 8.83752C99.7762 8.75697 99.6332 8.5523 99.8069 8.1602C100.942 5.59853 102.079 3.03774 103.216 0.476957C103.452 -0.0540136 103.95 0.0473438 104.533 0.0192483Z" fill="white"/>
<path fill-rule="evenodd" clip-rule="evenodd" d="M50.3873 2.50135C50.0397 3.32547 49.7836 3.9145 49.545 4.50979C49.4717 4.69221 49.3478 4.96406 49.6175 5.04545C50.1422 5.20378 50.7513 5.27196 51.2147 5.03206C51.6218 4.82144 51.2026 4.40786 51.0994 4.10781C50.9396 3.64212 50.7032 3.2007 50.3873 2.50135ZM54.2784 8.81582C53.3766 8.95397 52.9056 8.6566 52.7344 7.97939C52.5114 7.0969 51.9263 6.80292 51.0378 6.91555C50.7973 6.94625 50.5453 6.94572 50.3044 6.91591C49.1191 6.76954 48.2204 7.00301 47.8968 8.30461C47.7712 8.80886 46.4693 9.07803 45.9741 8.79797C45.666 8.62393 45.7947 8.39492 45.8871 8.18412C47.0064 5.63306 48.1367 3.08664 49.2489 0.533079C49.498 -0.0386432 49.9874 0.00812275 50.4786 0.000804426C50.9555 -0.0063354 51.3867 0.0232949 51.6118 0.541468C52.7224 3.09592 53.873 5.63449 54.9535 8.20054C55.3216 9.07481 54.4734 8.7371 54.2784 8.81582Z" fill="white"/>
<path fill-rule="evenodd" clip-rule="evenodd" d="M81.756 4.28387C81.6704 2.70379 82.5069 1.38406 84.1246 0.575925C85.8539 -0.287811 87.6108 -0.156502 89.2825 0.812141C89.6958 1.05168 90.1128 1.34489 89.6288 1.82327C89.2238 2.22332 89.0022 3.03705 88.0645 2.39344C87.0052 1.66643 85.7396 1.71574 84.9091 2.36319C83.908 3.1437 83.5795 4.42724 84.0864 5.57737C84.7268 7.03051 86.5129 7.51064 88.0213 6.63484C88.7718 6.19912 89.4382 6.38463 89.8482 7.12195C90.0816 7.54176 89.7316 7.70279 89.4816 7.88498C87.8734 9.05627 86.0989 9.20104 84.2892 8.43994C82.5093 7.69178 81.7257 6.29424 81.756 4.28387Z" fill="white"/>
<path fill-rule="evenodd" clip-rule="evenodd" d="M55.0895 14.3729C55.6482 13.9546 56.1415 13.6421 56.8064 13.6297C58.335 13.601 59.2795 14.3242 59.3662 15.7865C59.4439 17.0984 59.3777 18.4177 59.3967 19.7336C59.4079 20.5205 58.8296 20.4183 58.3155 20.4266C57.7794 20.4353 57.243 20.4729 57.2622 19.7026C57.2869 18.7089 57.2705 17.714 57.2583 16.7198C57.2502 16.0756 57.0463 15.5527 56.2526 15.4952C55.4631 15.438 55.1101 15.9233 55.0573 16.5555C54.9749 17.544 54.9579 18.5423 54.9977 19.5333C55.0295 20.3236 54.6135 20.4353 53.9254 20.4429C53.205 20.4511 52.8487 20.2627 52.8656 19.5078C52.9014 17.9 52.8697 16.2909 52.88 14.6824C52.8826 14.2907 52.7737 13.7588 53.3882 13.7217C53.9985 13.685 54.7789 13.3681 55.0895 14.3729Z" fill="white"/>
<path fill-rule="evenodd" clip-rule="evenodd" d="M55.6038 4.41451C55.6029 3.35008 55.6309 2.28457 55.5935 1.2214C55.5673 0.471759 55.6675 -0.00598749 56.6593 5.66858e-05C57.6157 0.00603693 57.6861 0.480732 57.6755 1.18281C57.6518 2.74958 57.7089 4.31832 57.6528 5.88364C57.6215 6.7546 57.9724 7.03978 58.8367 6.98684C59.6628 6.93605 60.495 6.99186 61.3242 6.97733C62.0006 6.96548 62.1376 7.33555 62.1297 7.88957C62.1219 8.43102 62.1147 8.91272 61.3436 8.90769C59.7158 8.8971 58.0875 8.8971 56.4597 8.911C55.8316 8.91631 55.5846 8.65285 55.5973 8.05127C55.6225 6.83949 55.6047 5.62682 55.6038 4.41451Z" fill="white"/>
<path fill-rule="evenodd" clip-rule="evenodd" d="M99.7195 3.47809C99.7195 4.36276 99.753 5.24869 99.7117 6.13158C99.6515 7.41675 98.931 8.39566 97.7428 8.72565C96.3793 9.10436 95.0865 8.92375 93.9822 7.98732C93.5094 7.58629 93.8215 7.22632 94.1327 6.9413C94.4202 6.67806 94.5968 6.06269 95.2066 6.5003C95.3529 6.60524 95.5001 6.71286 95.6596 6.79656C96.6903 7.33679 97.4748 6.97896 97.618 5.84282C97.7059 5.14464 97.6624 4.43022 97.6673 3.72313C97.6741 2.74993 97.6949 1.77619 97.6648 0.804067C97.6399 -0.00101204 98.1729 0.010767 98.7546 0.000594176C99.3562 -0.010114 99.7592 0.118563 99.7338 0.824591C99.7022 1.7082 99.7263 2.59341 99.7263 3.47809H99.7195Z" fill="white"/>
<path fill-rule="evenodd" clip-rule="evenodd" d="M92.6351 4.51642C92.6355 5.66999 92.5994 6.825 92.6481 7.97678C92.6818 8.76781 92.2542 8.9189 91.5383 8.91063C90.8729 8.90309 90.4602 8.7811 90.4701 8.0287C90.5017 5.63334 90.5002 3.23691 90.4722 0.841372C90.4633 0.0598669 90.9438 0.00866496 91.5781 0.000400771C92.2488 -0.00858204 92.6695 0.128855 92.6454 0.878561C92.6062 2.09016 92.6347 3.30374 92.6351 4.51642Z" fill="white"/>
</svg>
