<svg width="76" height="32" viewBox="0 0 76 32" fill="none" xmlns="http://www.w3.org/2000/svg">
<path fill-rule="evenodd" clip-rule="evenodd" d="M74.1297 15.9073C73.9228 15.6317 73.928 15.468 74.128 15.1945C75.6046 13.1755 76.2352 10.9138 75.9195 8.42582C75.4904 5.04361 73.704 2.59129 70.7108 1.00147C69.6697 0.448552 68.5421 0.174344 67.3858 0H46.5699C46.5093 0.0161613 46.4496 0.0402507 46.3878 0.0474166C44.527 0.262011 42.8812 0.973259 41.4315 2.16119C37.7651 5.16551 36.8139 10.4105 39.2953 14.4436C41.1513 17.4603 43.9061 19.024 47.4612 19.103C49.3684 19.1455 50.5373 21.0808 49.6256 22.7576C49.1454 23.641 48.3586 24.0187 47.3627 24.018C41.6022 24.0136 35.8417 24.016 30.0812 24.0157C29.5115 24.0157 28.9409 24.0329 28.3722 24.008C27.5944 23.9739 26.9488 23.6487 26.5077 22.9969C25.9492 22.1714 25.8949 21.2885 26.348 20.4035C26.8017 19.5173 27.574 19.1115 28.5494 19.1101C33.1452 19.1035 37.7409 19.1075 42.3367 19.1049C42.478 19.1048 42.6332 19.1478 42.8583 18.9855C42.7675 18.9515 42.7176 18.9376 42.6721 18.9149C41.9316 18.5458 41.2512 18.0858 40.6296 17.5405C40.4721 17.4023 40.2932 17.3875 40.0993 17.3876C36.1999 17.3896 32.3004 17.3792 28.4011 17.3935C25.8616 17.4027 23.8909 19.8791 24.4153 22.3657C24.84 24.3794 26.4943 25.7291 28.5719 25.7307C34.8515 25.7358 41.1311 25.7329 47.4106 25.7317C47.6257 25.7316 47.8429 25.7351 48.0553 25.7079C50.0442 25.4526 51.6203 23.6669 51.6701 21.62C51.7174 19.6815 50.2262 17.8364 48.3159 17.4671C47.667 17.3417 47.0042 17.3997 46.3521 17.3073C41.9236 16.6791 38.9032 12.403 39.7926 8.01416C40.5451 4.30035 43.7142 1.70158 47.5238 1.69724C53.8033 1.69007 60.0829 1.69358 66.3624 1.69907C66.7661 1.69945 67.1756 1.72133 67.5724 1.79009C70.752 2.34064 72.9514 4.12547 73.9076 7.20816C74.8671 10.3014 74.0655 13.0332 71.7603 15.307C71.5461 15.5183 71.5674 15.6109 71.772 15.8076C73.8134 17.7703 74.64 20.1767 74.1462 22.9543C73.4626 26.7997 70.2617 29.4043 66.3519 29.4076C62.579 29.4108 58.8063 29.412 55.0335 29.4022C54.6845 29.4012 54.4012 29.4736 54.1389 29.7131C53.6789 30.1332 53.147 30.4555 52.6107 30.7696C52.4813 30.8454 52.2244 30.8621 52.2745 31.0538C52.3117 31.1965 52.5448 31.1196 52.6886 31.1197C57.2589 31.1233 61.8294 31.1228 66.3999 31.1226C68.732 31.1225 70.7885 30.3662 72.5803 28.8739C76.4437 25.6563 77.1374 19.9137 74.1297 15.9073Z" fill="white"/>
<path fill-rule="evenodd" clip-rule="evenodd" d="M0.260839 16.5799C0.597041 15.9677 0.979479 15.3859 1.43119 14.8545C1.62397 14.6276 1.69698 14.3943 1.70048 14.0978C1.72177 12.3009 1.60435 10.5009 1.76519 8.70727C1.93363 6.82776 2.73471 5.22642 4.07206 3.91774C5.64143 2.38196 7.56845 1.69533 9.75083 1.69526C13.5205 1.69518 17.2902 1.69259 21.0598 1.70021C21.3583 1.70075 21.5908 1.61887 21.8131 1.42143C22.3358 0.957403 22.9283 0.591411 23.5375 0.252329C23.6572 0.185702 23.8005 0.148958 23.8547 0H8.66071C7.5029 0.154447 6.37521 0.420117 5.33398 0.967771C2.29029 2.5688 0.494226 5.05345 0.0466165 8.48642C0.0384795 8.5484 0.0158937 8.60839 0 8.6693V16.8824C0.167454 16.8516 0.196884 16.6963 0.260839 16.5799Z" fill="white"/>
<path fill-rule="evenodd" clip-rule="evenodd" d="M18.98 9.43841C18.9298 11.7557 18.9695 14.0749 18.973 16.3933C18.9733 16.5328 18.9219 16.6912 19.0398 16.815C19.1809 16.7595 19.2031 16.6377 19.255 16.5408C19.5432 16.0035 19.8503 15.4686 20.2632 15.0267C20.6083 14.6573 20.6839 14.2698 20.6885 13.7924C20.7055 12.0205 20.5414 10.2401 20.7649 8.47796C21.0772 6.01535 22.3548 4.13782 24.4567 2.83043C25.7616 2.01879 27.2067 1.6977 28.7291 1.69632C32.488 1.69289 36.2469 1.69206 40.0057 1.70082C40.318 1.70158 40.5613 1.61834 40.795 1.41411C41.3307 0.946121 41.9257 0.560537 42.555 0.229231C42.6669 0.170303 42.7873 0.124183 42.8474 0H27.5773C26.2641 0.183949 24.9967 0.521506 23.8503 1.20844C20.7447 3.06912 19.059 5.79588 18.98 9.43841Z" fill="white"/>
<path fill-rule="evenodd" clip-rule="evenodd" d="M17.5066 11.9883C14.8609 12.0029 12.2141 11.9491 9.56968 12.0071C5.62279 12.0937 2.74245 13.9528 0.919311 17.4496C0.392081 18.4608 0.155272 19.5629 6.10352e-05 20.6843V31.1027C0.392081 31.1093 0.784176 31.1202 1.1762 31.1214C1.69225 31.1227 1.69392 31.1195 1.69407 30.5858C1.69468 27.6332 1.68845 24.6807 1.69704 21.7282C1.70114 20.3253 1.98016 18.9811 2.69165 17.7561C4.05691 15.4051 6.08287 14.0583 8.79727 13.7742C9.98428 13.6499 11.1746 13.7283 12.3633 13.7182C14.0975 13.7036 15.8319 13.7071 17.566 13.7207C17.9003 13.7233 18.0252 13.608 18.0059 13.2825C17.9901 13.0174 17.9843 12.7489 18.0074 12.4848C18.041 12.1002 17.8885 11.9863 17.5066 11.9883Z" fill="white"/>
<path fill-rule="evenodd" clip-rule="evenodd" d="M47.4775 26.6899C44.3249 26.7029 41.1722 26.6932 38.0195 26.6932C38.0195 26.6902 38.0195 26.6871 38.0195 26.6841C34.7403 26.6841 31.4606 26.7143 28.1819 26.6741C25.7532 26.6442 23.3309 24.5806 23.3624 21.5036C23.3924 18.5838 25.6483 16.4362 28.5674 16.4341C31.9733 16.4316 35.3792 16.4334 38.7851 16.4333C38.8864 16.4333 38.9881 16.438 39.0889 16.4313C39.1848 16.4249 39.3091 16.4642 39.3557 16.3435C39.3928 16.2478 39.2977 16.1864 39.2484 16.1159C39.0021 15.763 38.7321 15.4239 38.517 15.0528C38.3491 14.763 38.1468 14.6617 37.8145 14.6636C35.5228 14.6768 33.231 14.6624 30.9394 14.6742C29.915 14.6795 28.8908 14.6334 27.8659 14.7227C23.9404 15.0644 21.0301 18.8651 21.7411 22.74C22.3492 26.0534 25.184 28.4412 28.5542 28.4461C34.8469 28.4554 41.1396 28.4487 47.4323 28.4491C47.8898 28.4492 48.3409 28.3908 48.7895 28.3085C52.2008 27.6836 54.7036 24.3255 54.3215 20.8865C53.9274 17.3387 50.9949 14.7096 47.4072 14.6675C45.3918 14.6439 43.8777 13.7186 42.9399 11.9532C41.977 10.1404 42.1035 8.31016 43.2429 6.62214C44.253 5.1257 45.7253 4.40546 47.5474 4.40919C51.523 4.41727 55.4988 4.41056 59.4745 4.41171C61.8927 4.41239 64.3117 4.38175 66.7291 4.42833C69.3464 4.47872 71.6795 6.67101 71.5956 9.70696C71.5165 12.5669 69.2667 14.6674 66.3999 14.6697C62.9813 14.6724 59.5628 14.6705 56.1442 14.6706C56.0302 14.6706 55.9162 14.6702 55.8023 14.6733C55.5725 14.6795 55.5384 14.7663 55.6743 14.9527C55.9277 15.3004 56.196 15.6414 56.4083 16.0136C56.5879 16.3281 56.8052 16.4424 57.1677 16.4409C60.2571 16.4278 63.3464 16.4325 66.4358 16.4352C66.701 16.4355 66.9698 16.4368 67.2308 16.4772C70.1992 16.9374 71.915 19.6595 71.5487 22.3048C71.2201 24.6778 69.167 26.6029 66.7704 26.6797C65.8345 26.7097 64.8969 26.6928 63.9599 26.6935C61.6809 26.6948 59.4018 26.6931 57.1228 26.6954C56.9255 26.6957 56.7054 26.6518 56.575 26.8673C56.2926 27.3337 55.9912 27.7867 55.6523 28.2144C55.5545 28.3378 55.5798 28.4284 55.7486 28.4421C55.8619 28.4511 55.9762 28.4489 56.0902 28.4489C59.4834 28.4492 62.8767 28.4505 66.2699 28.4467C66.5729 28.4463 66.8771 28.4255 67.1783 28.3924C70.0926 28.0739 72.4716 25.9567 73.1389 23.0932C73.793 20.2867 72.5843 17.3529 70.1249 15.7775C69.7779 15.5552 69.7823 15.5616 70.1185 15.3385C72.1397 13.9967 73.2467 12.1042 73.3144 9.68608C73.4221 5.83748 70.2782 2.66621 66.4001 2.65928C60.1074 2.64792 53.8147 2.65638 47.522 2.65592C47.0644 2.65592 46.6133 2.71447 46.1646 2.79665C42.7499 3.42214 40.2396 6.81798 40.6429 10.2653C41.0559 13.7962 43.9842 16.4081 47.5587 16.4337C51.0432 16.4586 53.485 19.9027 52.3624 23.2092C51.6418 25.3317 49.7693 26.6806 47.4775 26.6899Z" fill="white"/>
<path fill-rule="evenodd" clip-rule="evenodd" d="M57.0028 20.9461C56.7826 17.9407 55.4248 15.5627 53.0138 13.791C51.361 12.5765 49.4827 12.0139 47.4341 11.993C45.9922 11.9783 44.9283 10.811 45.0241 9.41846C45.1241 7.96418 46.1441 7.09078 47.6092 7.08888C49.85 7.0859 52.0909 7.08796 54.3318 7.08796C58.3578 7.08804 62.3839 7.0859 66.4098 7.08979C67.5584 7.09094 68.4844 7.76346 68.794 8.79862C69.2829 10.434 68.1413 11.9915 66.436 11.9941C61.891 12.0011 57.3461 11.999 52.8011 12.0007C52.6871 12.0007 52.573 11.9985 52.4593 12.0034C52.3869 12.0066 52.2896 11.9841 52.2571 12.0669C52.2096 12.1876 52.3325 12.2117 52.401 12.2494C52.8563 12.5001 53.3406 12.725 53.7087 13.0876C54.2607 13.6313 54.8938 13.7339 55.6363 13.7279C59.2823 13.6985 62.9287 13.7183 66.5748 13.7121C68.6385 13.7086 70.6749 11.9387 70.6223 9.48006C70.5652 6.80918 68.2731 5.33843 66.3342 5.35363C60.0803 5.40307 53.8259 5.37174 47.5716 5.37365C47.3191 5.37372 47.062 5.36984 46.8146 5.41215C44.8242 5.75245 43.3327 7.47377 43.2945 9.46077C43.2561 11.4547 44.6681 13.2356 46.6572 13.6301C47.2848 13.7546 47.9442 13.7088 48.5803 13.8017C53.0643 14.4561 56.022 18.6223 55.1653 23.0667C54.4426 26.8159 51.2417 29.4039 47.4187 29.4069C41.2151 29.4118 35.0115 29.4072 28.8078 29.41C28.2363 29.4103 27.668 29.3757 27.1088 29.2641C24.1576 28.6752 22.1034 26.9714 21.1233 24.1356C20.1232 21.2416 20.702 18.5658 22.7259 16.2744C24.258 14.5396 26.2635 13.7374 28.566 13.7196C31.2119 13.6991 33.858 13.7148 36.504 13.7147C36.8078 13.7147 37.1121 13.7043 37.4155 13.7173C37.6944 13.7292 37.7854 13.6432 37.6755 13.3643C37.5596 13.0703 37.447 12.7707 37.3784 12.4635C37.2985 12.1049 37.1208 11.9855 36.7472 11.9877C34.0632 12.0037 31.3792 11.9991 28.6952 11.9941C28.0984 11.993 27.5089 12.0435 26.9197 12.1368C21.8233 12.945 18.2093 17.9823 19.0739 23.0791C19.8696 27.7694 23.8256 31.1174 28.5829 31.122C31.7101 31.125 34.8372 31.1226 37.9643 31.1226C41.1167 31.1226 44.2692 31.1196 47.4216 31.1257C47.917 31.1266 48.4091 31.0961 48.8963 31.0221C53.7709 30.2824 57.3634 25.8671 57.0028 20.9461Z" fill="white"/>
<path fill-rule="evenodd" clip-rule="evenodd" d="M66.5339 24.0124C66.0658 24.0227 65.5973 24.0159 65.1289 24.016C62.7999 24.0163 60.4708 24.0204 58.1419 24.0111C57.8413 24.01 57.6775 24.0923 57.6067 24.4046C57.5314 24.7362 57.4149 25.0621 57.2826 25.3764C57.1557 25.678 57.2453 25.7406 57.5462 25.7385C59.0904 25.7271 60.6347 25.7331 62.1789 25.7331V25.7293C63.6599 25.7293 65.1411 25.746 66.6217 25.7254C68.8133 25.6946 70.6848 23.7253 70.6357 21.5303C70.5835 19.2031 68.7402 17.3952 66.4058 17.3901C64.3047 17.3855 62.2034 17.389 60.1023 17.3889C59.2794 17.3889 58.4567 17.3875 57.634 17.3896C57.1698 17.3908 57.1636 17.4055 57.3159 17.8281C57.4101 18.09 57.5206 18.3506 57.5734 18.6217C57.6477 19.0024 57.839 19.1184 58.227 19.1161C60.9863 19.0995 63.7457 19.1004 66.5051 19.1108C67.8543 19.116 68.8887 20.1884 68.8939 21.5505C68.8993 22.9214 67.8853 23.9826 66.5339 24.0124Z" fill="white"/>
<path fill-rule="evenodd" clip-rule="evenodd" d="M4.40962 25.9024H4.41152C4.41152 24.4326 4.3973 22.9626 4.41457 21.4929C4.44826 18.6276 6.66927 16.4392 9.53493 16.4346C11.9527 16.4307 14.3704 16.4336 16.7882 16.4336C18.0146 16.4336 18.0146 16.4336 18.0031 15.2083C17.9983 14.6962 17.9768 14.6715 17.4681 14.6713C14.8225 14.6703 12.1769 14.6673 9.53135 14.6756C9.17903 14.6766 8.82275 14.7147 8.47537 14.776C5.02073 15.3848 2.65964 18.2054 2.6563 21.722C2.65356 24.649 2.65569 27.576 2.65584 30.503C2.65584 30.6044 2.65941 30.7058 2.65812 30.8071C2.65546 31.0276 2.75782 31.129 2.98269 31.1236C3.29904 31.1162 3.61707 31.1034 3.9316 31.1281C4.29495 31.1566 4.41921 31.0198 4.41594 30.654C4.40126 29.0702 4.40962 27.4863 4.40962 25.9024Z" fill="white"/>
<path fill-rule="evenodd" clip-rule="evenodd" d="M19.5517 4.02276C19.745 3.68299 19.9959 3.37638 20.213 3.04942C20.2784 2.95078 20.4401 2.86959 20.368 2.73275C20.3003 2.60415 20.1389 2.65843 20.0182 2.6582C18.2456 2.65515 16.4729 2.65606 14.7003 2.65599C14.561 2.65591 14.4217 2.65362 14.2825 2.65622C12.4351 2.69075 10.5838 2.55643 8.74044 2.72406C6.07402 2.96656 3.62426 5.07835 2.93254 7.67422C2.44364 9.50936 2.72721 11.3812 2.66524 13.2364C2.65657 13.4959 2.79946 13.4471 2.95588 13.3344C3.31528 13.0754 3.66738 12.8014 4.04951 12.5805C4.33332 12.4165 4.41932 12.21 4.41461 11.9002C4.4016 11.0512 4.39697 10.2015 4.41674 9.35285C4.47955 6.6601 6.62779 4.4957 9.31474 4.42023C10.1497 4.39683 10.9859 4.41185 11.8215 4.41154C14.164 4.41078 16.5065 4.40575 18.8488 4.41741C19.1809 4.41909 19.3864 4.31328 19.5517 4.02276Z" fill="white"/>
<path fill-rule="evenodd" clip-rule="evenodd" d="M38.5043 4.04881C38.7013 3.69669 38.958 3.37819 39.1848 3.04239C39.2515 2.94351 39.4181 2.86926 39.3487 2.73098C39.2829 2.59986 39.1199 2.65871 39.0001 2.65848C37.2023 2.65505 35.4046 2.65612 33.6068 2.65642C31.8977 2.65673 30.1884 2.64522 28.4794 2.65917C25.351 2.68463 22.5969 4.85032 21.8583 7.88688C21.4303 9.64716 21.708 11.4459 21.6468 13.2264C21.638 13.4795 21.773 13.4533 21.9351 13.3357C22.2834 13.0833 22.6222 12.8125 22.9928 12.5975C23.275 12.4338 23.3609 12.2337 23.353 11.9209C23.3336 11.1611 23.3346 10.4001 23.3496 9.64C23.3782 8.20302 23.827 6.92658 24.8639 5.90027C25.8855 4.88919 27.1195 4.40298 28.5621 4.40824C31.6511 4.41968 34.7402 4.40809 37.8293 4.41655C38.1409 4.41739 38.3447 4.33415 38.5043 4.04881Z" fill="white"/>
<path fill-rule="evenodd" clip-rule="evenodd" d="M17.567 17.3828C14.8341 17.3944 12.101 17.3761 9.36815 17.3952C7.22995 17.4101 5.38385 19.2893 5.37282 21.4297C5.36506 22.9368 5.3713 24.4441 5.37107 25.9512C5.37077 27.5218 5.37791 29.0924 5.36493 30.6628C5.36225 30.9986 5.45229 31.1612 5.81313 31.1269C6.05131 31.1043 6.29351 31.1234 6.5339 31.1227C7.0809 31.1213 7.08272 31.121 7.0828 30.5772C7.08348 27.6262 7.08166 24.6752 7.08379 21.7241C7.08501 20.1182 8.09026 19.1092 9.68747 19.1077C11.6992 19.1059 13.711 19.1073 15.7228 19.1072C16.3555 19.1071 16.9883 19.0978 17.6206 19.1109C17.9 19.1167 18.0127 19.0073 18.0042 18.7331C17.9948 18.4294 17.9898 18.1245 18.0061 17.8215C18.0236 17.4968 17.9016 17.3814 17.567 17.3828Z" fill="white"/>
<path fill-rule="evenodd" clip-rule="evenodd" d="M18.3927 5.37255C16.8614 5.37179 15.3301 5.37224 13.7988 5.37224V5.37522C12.3307 5.37522 10.8625 5.36432 9.3947 5.37796C7.55019 5.39496 5.84987 6.78415 5.46766 8.59779C5.25678 9.59842 5.40423 10.6185 5.3761 11.6294C5.36971 11.8592 5.51671 11.8159 5.66294 11.7669C6.03466 11.6427 6.40561 11.515 6.78189 11.4063C6.99878 11.3437 7.09132 11.2264 7.08539 10.9984C7.07452 10.5807 7.08258 10.1624 7.08326 9.74433C7.08585 8.08688 8.07582 7.09014 9.72672 7.089C12.435 7.08709 15.1434 7.0842 17.8516 7.09418C18.1546 7.09533 18.3158 7.00873 18.3875 6.70326C18.4624 6.38423 18.5833 6.07572 18.6899 5.76454C18.82 5.38452 18.8143 5.37278 18.3927 5.37255Z" fill="white"/>
<path fill-rule="evenodd" clip-rule="evenodd" d="M28.7195 7.08836C31.4036 7.08675 34.0879 7.08317 36.7719 7.09384C37.102 7.09514 37.287 7.01266 37.3556 6.66427C37.4141 6.36857 37.5379 6.08521 37.6396 5.79888C37.7833 5.39478 37.7731 5.3732 37.3417 5.37274C35.8096 5.37092 34.2777 5.37198 32.7456 5.37198V5.37457C31.2896 5.37457 29.8335 5.36291 28.3776 5.37732C26.2469 5.39836 24.4283 7.18121 24.3598 9.30931C24.3358 10.0562 24.346 10.804 24.3341 11.5513C24.3307 11.7704 24.387 11.8581 24.6239 11.7725C25.0043 11.6351 25.3908 11.513 25.7792 11.3998C25.9845 11.3399 26.0637 11.2189 26.0612 11.013C26.056 10.5948 26.0603 10.1765 26.0613 9.75832C26.0655 8.06238 27.0323 7.08935 28.7195 7.08836Z" fill="white"/>
</svg>
