<svg width="136" height="41" viewBox="0 0 136 41" fill="none" xmlns="http://www.w3.org/2000/svg">
<g clip-path="url(#clip0_2_1692)">
<path d="M135.128 19.7881C135.057 19.2823 135.288 18.7416 134.897 18.0953C133.221 18.0953 131.471 18.0347 129.726 18.1143C128.288 18.18 126.522 20.0346 126.488 21.8201C126.384 27.2357 126.45 32.6543 126.45 38.1549H130.052V28.4213C130.052 26.5593 130.099 24.6955 130.034 22.8358C129.998 21.7883 130.349 21.4041 131.363 21.4643C132.56 21.5354 133.763 21.4809 134.964 21.4809C135.107 20.9731 135.323 20.4652 134.964 19.9574" stroke="white" stroke-width="1.6"/>
<path d="M28.2086 23.4287H16.958V37.9975C17.9714 38.2998 19.0991 38.0228 20.3749 38.1552V26.9752C21.8153 26.9752 23.0957 26.9944 24.3751 26.9708C26.4402 26.9329 27.8286 25.7484 28.3753 23.5976" stroke="white" stroke-width="1.6"/>
<path d="M51.4178 30.9591C51.0795 31.6624 51.2198 32.1268 52.0794 32.1044C52.9625 32.0813 53.8618 32.2684 54.8931 31.8877C54.8931 29.0921 54.9027 26.2321 54.8892 23.3722C54.8819 21.7578 54.5936 21.2789 56.8794 21.3854C57.8734 21.4316 58.8713 21.393 59.9407 21.393V18.0943C58.1514 18.0943 56.4369 18.0366 54.7286 18.1121C53.3077 18.1752 51.5469 19.8331 51.434 21.2294C51.1765 24.4139 51.1027 27.6054 51.4178 30.7942" stroke="white" stroke-width="1.6"/>
<path d="M85.2889 26.9158C87.1822 26.4322 88.7903 25.5947 89.4913 23.4287H79.5249C79.3185 24.9551 79.2614 26.3482 80.7576 27.4448C81.6613 28.1074 82.4351 29.0054 83.0984 29.9187C84.6066 31.9943 86.5807 32.4911 88.9626 31.8973" stroke="white" stroke-width="1.6"/>
<path d="M100.909 28.1612C99.9137 25.0785 98.8764 22.0084 97.9461 18.9063C97.6078 17.7776 96.787 18.1892 96.15 18.0732C94.3943 22.7143 92.6496 27.3269 90.8345 32.1248C91.8371 32.1248 92.7252 32.1123 93.6126 32.1298C94.0965 32.1393 94.315 32.0429 94.4775 31.4745C94.8639 30.1219 95.4184 28.8149 95.945 27.5049C96.1045 27.1082 96.01 26.5233 96.7618 26.486C97.4672 26.4509 97.5256 27.0346 97.5554 27.3391C97.6589 28.3918 98.3461 28.3475 99.0846 28.329C99.6371 28.3151 100.19 28.3264 100.743 28.3264" stroke="white" stroke-width="1.6"/>
<path d="M102.252 31.7815C102.194 31.6304 102.102 31.4823 102.086 31.3279C101.923 29.8296 101.012 29.2933 99.3284 29.4933C98.3133 29.6139 97.2641 29.5154 96.2074 29.5154C96.698 31.7947 98.6454 32.529 102.252 31.9325" stroke="white" stroke-width="1.6"/>
<path d="M110.643 37.7246C112.153 38.4169 113.308 38.2557 113.557 37.2344C113.665 36.7927 113.841 36.1548 113.259 35.8007C112.591 35.3944 111.904 35.4266 111.126 35.5964C110.354 35.765 110.303 36.1725 110.312 36.7596C110.326 37.6709 110.316 38.5826 110.316 39.4939" stroke="white" stroke-width="1.6"/>
<path d="M15.6148 15.3965V8.24534C10.5809 8.0311 5.69987 8.47886 0.839478 8.0332" stroke="white" stroke-width="1.6"/>
<path d="M49.6734 37.1791C50.5636 36.8211 51.5421 37.1726 52.553 36.952C52.4893 35.6602 51.6836 35.3897 50.6515 35.4997C49.9151 35.5783 49.0262 35.7773 49.2227 36.7099C49.4052 37.5753 49.9128 38.344 51.1399 38.1138C51.5053 38.0454 51.8967 38.1033 52.2765 38.1033" stroke="white" stroke-width="1.6"/>
<path d="M97.8101 37.0193C98.8141 36.9211 99.8682 37.2534 100.909 36.7452C100.515 35.4349 99.6636 35.3559 98.4724 35.5666C97.2615 35.7811 97.5921 36.4043 97.5911 37.1773C97.5905 38.0251 98.1936 38.0172 98.6516 38.0965C99.2982 38.209 99.9832 38.1249 100.652 38.1249" stroke="white" stroke-width="1.6"/>
<path d="M10.5778 8.70215V22.7593" stroke="white" stroke-width="1.6"/>
<path d="M95.0474 37.9745C95.5881 37.6497 96.3676 37.48 96.1784 36.559C96.0201 35.7864 95.372 35.5716 94.7186 35.4931C93.9624 35.4022 93.3183 35.7097 92.9372 36.3932C92.767 36.6989 92.8308 37.2414 93.2463 37.4281C93.745 37.6532 94.1089 38.2007 94.7189 38.152" stroke="white" stroke-width="1.6"/>
<path d="M41.1357 35.4775C41.1943 35.9253 41.3384 36.3793 41.2939 36.8196C41.1887 37.8542 41.8602 38.1826 42.8886 38.1533C43.8518 38.1262 44.6193 37.8659 44.4766 36.8199C44.4167 36.3781 44.4668 35.9253 44.4668 35.4775" stroke="white" stroke-width="1.6"/>
<path d="M91.5037 38.1551C91.5037 37.787 91.4964 37.4188 91.5053 37.051C91.5317 35.969 90.9587 35.4747 89.9129 35.4776C88.8659 35.4804 88.0469 35.7536 88.1583 37.0513C88.1898 37.4169 88.1631 37.787 88.1631 38.1551" stroke="white" stroke-width="1.6"/>
<path d="M34.4197 34.8086C34.764 35.3652 34.4152 35.9281 34.443 36.4773C34.4988 37.5682 35.0497 38.2231 36.1835 38.15C37.1881 38.0854 37.8248 37.6587 37.775 36.4784C37.7511 35.9225 37.7708 35.3652 37.7708 34.8086" stroke="white" stroke-width="1.6"/>
<path d="M74.0647 35.4775C74.0647 35.9246 74.1088 36.3755 74.0557 36.8181C73.946 37.7277 74.6531 38.0382 75.4571 38.1372C76.2183 38.231 77.0313 37.9586 77.1393 37.2601C77.2274 36.6917 77.6541 36.0736 77.1889 35.4775" stroke="white" stroke-width="1.6"/>
<path d="M118.306 36.2785C117.168 35.2494 116.35 35.2089 115.112 36.1748C115.903 37.2147 117.603 36.3788 118.37 37.4632C117.2 38.3772 116.209 38.3772 115.012 37.5132" stroke="white" stroke-width="1.6"/>
<path d="M65.337 34.8086C65.337 35.3159 65.2759 35.8358 65.3508 36.3283C65.4723 37.1303 65.9302 37.4861 66.6567 37.4861C67.3836 37.4861 67.8412 37.1303 67.9627 36.3283C68.0376 35.8358 67.9765 35.3159 67.9765 34.8086" stroke="white" stroke-width="1.6"/>
<path d="M84.1185 26.7754C86.0886 28.3702 87.6622 30.3861 89.4913 32.1305" stroke="white" stroke-width="1.6"/>
<path d="M20.316 1.33887C19.41 1.81459 19.685 2.55579 19.6794 3.21315C19.6575 5.71209 19.6704 8.21136 19.6704 10.7103" stroke="white" stroke-width="1.6"/>
<path d="M48.5235 35.9494C46.7323 35.0081 45.853 35.4723 45.8381 37.3673C45.8359 37.6298 45.8378 37.8926 45.8378 38.1551" stroke="white" stroke-width="1.6"/>
<path d="M80.7605 35.8104C78.7074 35.0204 78.074 35.5731 78.074 38.1551" stroke="white" stroke-width="1.6"/>
<path d="M104.938 35.796C102.693 35.0754 102.252 35.4626 102.252 38.1551" stroke="white" stroke-width="1.6"/>
<path d="M56.4219 35.4926C56.8967 35.4926 57.3747 35.5261 57.8457 35.4858C58.9123 35.3946 59.1826 36.0725 59.2621 36.8889C59.3463 37.7569 58.6572 38.0121 58.0011 38.1064C57.2617 38.2124 56.4792 38.205 55.9111 37.4561C56.4549 35.8306 58.0397 37.0186 58.9541 36.4229" stroke="white" stroke-width="1.6"/>
<path d="M26.3605 10.376H15.6148" stroke="white" stroke-width="1.6"/>
<path d="M38.4514 34.1387C38.4514 34.7473 38.4573 35.3555 38.4503 35.9642C38.4291 37.836 38.7365 38.1653 40.4642 38.1548" stroke="white" stroke-width="1.6"/>
<path d="M59.9612 34.1387C59.9612 34.7473 59.9826 35.3567 59.9572 35.9643C59.88 37.8111 60.0011 37.9513 61.9556 38.155" stroke="white" stroke-width="1.6"/>
<path d="M33.0765 34.1387C31.2918 34.2062 30.9431 34.4833 31.1249 36.1425C31.2012 36.8384 30.9942 37.4857 31.0854 38.155" stroke="white" stroke-width="1.6"/>
<path d="M12.76 4.0166C12.84 5.3555 11.9561 6.69403 12.76 8.03293" stroke="white" stroke-width="1.6"/>
<path d="M23.674 4.15625C22.3472 4.93006 20.9852 4.27741 19.6444 4.49094" stroke="white" stroke-width="1.6"/>
<path d="M106.318 34.1387C106.318 34.7473 106.374 35.3611 106.307 35.9632C106.152 37.3506 106.689 38.1539 108.296 38.155" stroke="white" stroke-width="1.6"/>
<path d="M86.1333 34.1584C84.472 33.9967 83.9203 34.8461 84.1794 36.1505C84.3184 36.851 84.0425 37.489 84.1428 38.155" stroke="white" stroke-width="1.6"/>
<path d="M94.9873 38.1553C95.5019 38.6745 95.8398 39.3135 95.1349 39.8675C94.5298 40.3434 93.8628 40.3039 93.5209 39.315" stroke="white" stroke-width="1.6"/>
<path d="M67.7979 37.4854C68.3724 38.8885 67.7077 39.5201 65.9852 39.4927" stroke="white" stroke-width="1.6"/>
<path d="M6.88391 16.4004H10.2419" stroke="white" stroke-width="1.6"/>
<path d="M23.5144 10.71C22.4197 11.3385 24.2438 12.0882 23.1786 12.7181" stroke="white" stroke-width="1.6"/>
<path d="M70.79 35.4784C70.0723 35.7101 69.313 35.8508 69.3441 36.8923C69.3628 37.5012 69.6537 37.8231 70.1589 37.9814C70.8798 38.2075 71.5236 38.2952 72.2543 37.7233C72.7481 37.3373 72.7275 36.9774 72.6755 36.5798C72.5454 35.5861 71.7735 35.4658 70.9486 35.4784" stroke="white" stroke-width="1.6"/>
<path d="M74.5726 23.4287C73.7961 23.6317 74.1069 24.2781 74.1011 24.7385C74.0716 27.1397 74.0875 29.5413 74.0875 31.9624C75.1515 32.2794 76.2456 32.0109 77.4025 32.1308V23.4287H74.7343" stroke="white" stroke-width="1.6"/>
<path d="M119.768 18.0732C118.55 19.042 119.748 20.2692 119.042 21.4202H124.415V18.0732H119.937" stroke="white" stroke-width="1.6"/>
<path d="M114.967 18.0732C114.336 18.3698 114.352 18.9923 114.349 19.5593C114.336 23.5222 114.34 27.485 114.349 31.4479C114.349 31.613 114.448 31.7778 114.515 31.9881C115.539 32.1807 116.58 32.1807 117.699 31.9703V18.0732H115.123" stroke="white" stroke-width="1.6"/>
<path d="M74.7006 18.0854C73.5137 19.076 74.6812 20.3309 74.0444 21.4202H89.4913C88.5698 19.0736 87.1043 18.045 84.9075 18.0738C81.5606 18.1177 78.2128 18.0854 74.8653 18.0854" stroke="white" stroke-width="1.6"/>
<path d="M61.311 18.0732C60.492 18.6156 60.6131 19.4436 60.6258 20.2217C60.671 22.9763 60.7097 25.7312 60.8021 28.4845C60.8697 30.4809 62.6393 32.0783 64.7612 32.1167C65.9684 32.1385 67.1763 32.1305 68.3839 32.1186C71.0391 32.0925 72.679 30.5331 72.6924 27.989C72.7093 24.738 72.6966 21.4869 72.6966 18.1559H69.0739V28.5675H64.4162V18.0732H61.4835" stroke="white" stroke-width="1.6"/>
<path d="M44.9606 18.0732C44.1677 19.1216 44.919 20.2513 44.4938 21.4202H49.8666V18.0732H45.1328" stroke="white" stroke-width="1.6"/>
<path d="M31.6241 18.0732C30.7981 18.2783 31.1273 18.931 31.1225 19.3959C31.094 22.3168 31.1497 25.2386 31.0926 28.1585C31.0578 29.9484 32.7496 32.1061 35.0647 32.1252C36.2689 32.1351 37.4731 32.1279 38.6773 32.1269C41.5044 32.1236 43.148 30.5453 43.1497 27.8281C43.1515 24.6308 43.1501 21.4332 43.1501 18.1559H39.3654V28.6548C38.0525 28.6548 36.9023 28.6389 35.7528 28.6591C34.571 28.6799 34.7241 27.8738 34.7227 27.1668C34.7176 24.5766 34.731 21.9861 34.7097 19.3959C34.7062 19.0133 34.9009 18.5838 34.4048 18.0732H31.7962" stroke="white" stroke-width="1.6"/>
<path d="M17.6812 18.0732C16.4675 19.042 17.6613 20.2692 16.958 21.4202H30.3901V18.0732H17.8495" stroke="white" stroke-width="1.6"/>
</g>
<defs>
<clipPath id="clip0_2_1692">
<rect width="136" height="41" fill="white"/>
</clipPath>
</defs>
</svg>
