<svg width="119" height="30" viewBox="0 0 119 30" fill="none" xmlns="http://www.w3.org/2000/svg">
<g clip-path="url(#clip0_1_465)">
<mask id="mask0_1_465" style="mask-type:alpha" maskUnits="userSpaceOnUse" x="0" y="0" width="38" height="30">
<path d="M0 0.175781H37.6627V29.5386H0V0.175781Z" fill="white"/>
</mask>
<g mask="url(#mask0_1_465)">
<path fill-rule="evenodd" clip-rule="evenodd" d="M10.8965 16.4968H10.9028C10.9028 18.0087 10.8947 19.5207 10.9066 21.0324C10.9117 21.6793 11.1924 22.1215 11.8677 22.1418C12.5493 22.1625 12.8277 21.7118 12.889 21.0826C12.9263 20.699 12.9097 20.31 12.9174 19.9235C12.9819 16.7082 12.3682 17.154 15.7921 17.1065C16.552 17.0958 16.8038 17.4551 16.7813 18.199C16.7525 19.1474 16.7718 20.0975 16.7888 21.0465C16.8006 21.6987 17.09 22.1279 17.7631 22.1414C18.4477 22.1549 18.7633 21.6907 18.7688 21.0689C18.7955 18.0456 18.8079 15.0218 18.7704 11.9989C18.7598 11.1632 18.0137 10.7414 17.3342 11.0788C16.7193 11.3843 16.7856 11.9844 16.7767 12.5435C16.7278 15.5937 16.7298 15.5748 13.8498 15.415C13.1419 15.3758 12.8924 15.0659 12.9143 14.3728C12.9366 13.6704 12.9151 12.9667 12.9137 12.2635C12.9123 11.5474 12.7042 10.9891 11.8989 10.9931C11.0901 10.9971 10.8973 11.5683 10.8967 12.2774C10.8959 13.6839 10.8965 15.0903 10.8965 16.4968ZM20.2078 16.4426C20.2078 17.8813 20.2058 19.3198 20.2086 20.7585C20.2099 21.4276 20.2812 22.1019 21.1125 22.1211C21.9399 22.1403 22.0596 21.4913 22.0645 20.8079C22.0687 20.2465 22.0403 19.6831 22.0764 19.124C22.1097 18.6073 21.8554 17.8933 22.6437 17.7579C23.349 17.6363 24.0681 17.6083 24.4751 18.4567C24.957 19.4608 25.4796 20.4435 25.97 21.4434C26.2547 22.0243 26.6812 22.3384 27.2797 22.0612C27.885 21.7808 27.795 21.1968 27.5901 20.6961C27.2738 19.9224 26.9337 19.1519 26.5246 18.4284C26.1176 17.7087 26.1588 17.2238 26.8069 16.6371C27.8672 15.6771 27.9927 14.3721 27.5279 13.0615C27.0639 11.7525 26.047 11.0714 24.7321 10.9876C23.5895 10.9151 22.4392 10.9803 21.2928 10.9642C20.5199 10.9535 20.1975 11.3432 20.2054 12.1266C20.2202 13.5649 20.2096 15.0038 20.2078 16.4426ZM18.5376 29.5317C15.6308 29.5319 12.7241 29.5393 9.81738 29.5302C4.27892 29.5129 0.121117 25.4176 0.00247871 19.6633C-0.053494 16.9472 0.802321 14.4578 2.80558 12.5587C3.43162 11.9652 3.77009 11.3337 3.91246 10.4304C4.75752 5.06307 9.58436 1.73599 14.6915 2.96268C15.3615 3.12345 15.8069 2.97935 16.3339 2.53606C22.2476 -2.44012 30.8416 0.855531 32.2683 8.64651C32.4172 9.45966 32.705 10.0201 33.3896 10.499C38.085 13.783 39.0658 20.8752 35.5583 25.5115C33.5044 28.2269 30.8268 29.5 27.5617 29.5264C24.5538 29.5507 21.5455 29.5315 18.5376 29.5317Z" fill="white"/>
</g>
<path fill-rule="evenodd" clip-rule="evenodd" d="M58.7356 13.985C58.736 15.8815 58.736 15.8815 60.278 15.8809C62.0707 15.88 62.7845 15.355 62.7835 14.0387C62.7826 12.6822 61.8644 12.0152 60.0047 12.0203C58.7399 12.0238 58.7352 12.0313 58.7356 13.985ZM56.2953 16.2711C56.2951 14.5205 56.3172 12.7694 56.2851 11.0195C56.2705 10.2138 56.5225 9.81501 57.3337 9.86266C59.0193 9.96139 60.7227 9.65661 62.3935 10.0745C64.0198 10.4812 65.0517 11.6349 65.2219 13.1791C65.4371 15.1329 64.8119 16.5012 63.1748 17.3037C62.4328 17.6674 62.507 17.9945 62.878 18.5828C63.5532 19.6528 64.1611 20.7695 64.8259 21.8469C65.225 22.4934 65.061 22.6763 64.3692 22.7456C63.1661 22.8662 62.2977 22.5593 61.7656 21.2825C61.3602 20.3095 60.7357 19.439 60.2146 18.5193C59.9794 18.1046 59.7294 17.7026 59.1884 17.8507C58.6438 17.9999 58.7506 18.5054 58.7425 18.914C58.7244 19.8069 58.6914 20.7032 58.7456 21.5926C58.8084 22.6247 58.2675 22.7482 57.4812 22.7467C56.7202 22.7452 56.2587 22.5883 56.2827 21.6299C56.3274 19.8449 56.2955 18.0576 56.2953 16.2711Z" fill="white"/>
<mask id="mask1_1_465" style="mask-type:alpha" maskUnits="userSpaceOnUse" x="109" y="9" width="10" height="15">
<path d="M109.056 9.85742H118.519V23.3058H109.056V9.85742Z" fill="white"/>
</mask>
<g mask="url(#mask1_1_465)">
<path fill-rule="evenodd" clip-rule="evenodd" d="M116.162 18.2596C116.173 16.4687 115.315 15.3914 113.855 15.3639C112.389 15.3364 111.473 16.4089 111.46 18.1678C111.446 19.9058 112.373 21.0399 113.807 21.0399C115.134 21.0401 116.152 19.8379 116.162 18.2596ZM116.169 14.7627C116.169 13.3213 116.191 12.1267 116.162 10.9336C116.136 9.88143 116.761 9.87889 117.462 9.85858C118.196 9.83701 118.524 10.1131 118.519 10.9554C118.494 14.5488 118.511 18.1424 118.508 21.736C118.508 22.4358 118.635 23.2054 117.595 23.1859C116.757 23.1701 115.91 23.2669 116.165 21.9558C115.952 21.7796 115.86 21.8949 115.777 21.9922C114.656 23.3071 113.296 23.5904 111.769 23.04C110.301 22.5103 109.462 21.3403 109.211 19.7343C109.006 18.4145 108.938 17.0642 109.432 15.7776C110.514 12.9572 113.667 12.2405 115.708 14.3426C115.796 14.4337 115.895 14.5139 116.169 14.7627Z" fill="white"/>
</g>
<path fill-rule="evenodd" clip-rule="evenodd" d="M53.8715 16.3615C53.8719 18.1161 53.8351 19.8723 53.8855 21.6255C53.9159 22.6701 53.4051 22.7674 52.6628 22.7698C51.9293 22.7719 51.4843 22.5998 51.523 21.644C51.5691 20.5002 51.5148 19.3521 51.5362 18.2065C51.5495 17.4941 51.3108 17.1442 50.631 17.1623C49.5948 17.1899 48.5574 17.1838 47.521 17.166C46.8975 17.155 46.6481 17.4758 46.6559 18.1454C46.6695 19.3269 46.6234 20.5103 46.6641 21.6903C46.6981 22.6854 46.1762 22.7646 45.4813 22.7665C44.7768 22.7685 44.299 22.6594 44.307 21.6767C44.3366 18.0957 44.3368 14.5141 44.307 10.9331C44.2988 9.94524 44.7857 9.84777 45.4852 9.84669C46.1823 9.84583 46.7042 9.93211 46.6641 10.926C46.6224 11.9624 46.6699 13.0027 46.6565 14.0411C46.6479 14.7092 46.9006 15.0343 47.522 15.0253C48.5586 15.0102 49.596 15.0042 50.6322 15.029C51.3116 15.0451 51.5497 14.6864 51.5357 13.9774C51.5152 12.9395 51.5612 11.8994 51.5275 10.8621C51.4932 9.81313 52.1175 9.86756 52.7609 9.85164C53.4255 9.83507 53.8976 9.95363 53.8808 10.8823C53.8477 12.708 53.8711 14.5349 53.8715 16.3615Z" fill="white"/>
<path fill-rule="evenodd" clip-rule="evenodd" d="M75.6696 10.4619C78.3582 10.4675 80.2846 11.6457 81.1811 13.8334C81.5673 14.7758 81.4563 14.9244 80.4516 14.9844C79.5623 15.0377 78.888 14.8865 78.296 14.0404C77.4933 12.8935 76.1979 12.6299 74.8701 12.8924C73.5882 13.1458 72.764 14.0042 72.342 15.2375C71.9604 16.3516 71.9585 17.4861 72.3549 18.5954C72.7881 19.8076 73.5444 20.7239 74.8775 20.9207C76.3251 21.1342 77.6148 20.8426 78.5219 19.5342C78.954 18.911 80.5785 18.5472 81.1804 18.9031C81.5751 19.1365 81.4102 19.4519 81.2912 19.7419C80.8789 20.7458 80.3093 21.6242 79.4086 22.2683C77.5151 23.6221 74.2863 23.7724 72.3725 22.5687C70.2765 21.2507 69.0935 18.3941 69.5524 15.7593C70.1471 12.3451 72.3295 10.4551 75.6696 10.4619Z" fill="white"/>
<path fill-rule="evenodd" clip-rule="evenodd" d="M94.4425 18.417C94.4329 16.7288 93.57 15.7166 92.1451 15.7217C90.7001 15.727 89.8276 16.7982 89.8461 18.5443C89.8635 20.191 90.7938 21.2382 92.2069 21.2012C93.6032 21.1647 94.4523 20.1075 94.4425 18.417ZM92.2549 13.5393C94.9464 13.5608 97.0326 15.7457 96.9957 18.5042C96.9589 21.2747 94.8828 23.4484 92.165 23.3838C89.2336 23.3142 87.3037 21.3376 87.4214 18.315C87.5332 15.447 89.4036 13.5163 92.2549 13.5393Z" fill="white"/>
<path fill-rule="evenodd" clip-rule="evenodd" d="M104.699 21.8351C103.611 23.1467 102.384 23.6322 100.881 23.2678C99.5284 22.9397 98.7447 21.998 98.458 20.6203C98.02 18.5146 98.2528 16.3676 98.2778 14.2399C98.289 13.2687 99.1111 13.6221 99.6333 13.5669C100.197 13.5071 100.568 13.7203 100.565 14.4203C100.558 15.9344 100.521 17.4517 100.593 18.9626C100.683 20.8327 101.964 21.7483 103.513 21.1331C104.529 20.7299 104.772 19.8042 104.804 18.8057C104.848 17.4302 104.86 16.0507 104.808 14.6762C104.771 13.7044 105.225 13.5456 105.996 13.5392C106.791 13.5328 107.181 13.7511 107.163 14.6973C107.118 17.037 107.167 19.3787 107.137 21.7187C107.129 22.3295 107.446 23.1791 106.379 23.2703C105.12 23.378 104.945 23.2664 104.699 21.8351Z" fill="white"/>
<path fill-rule="evenodd" clip-rule="evenodd" d="M83.2411 16.2208C83.2413 14.4452 83.2721 12.6689 83.2289 10.8944C83.2058 9.96028 83.6876 9.8381 84.4092 9.84712C85.0998 9.85553 85.6275 9.89611 85.6194 10.8604C85.5888 14.4796 85.5884 18.0994 85.62 21.7184C85.6281 22.6497 85.1638 22.7588 84.4412 22.7692C83.6588 22.7807 83.1989 22.6173 83.2263 21.6493C83.2773 19.8413 83.2409 18.0305 83.2411 16.2208Z" fill="white"/>
<path fill-rule="evenodd" clip-rule="evenodd" d="M23.9322 15.3828C23.3749 15.2642 22.6374 15.6208 22.3586 15.0383C22.0284 14.3477 22.1613 13.5561 22.3114 12.8086C22.3287 12.7218 22.4129 12.6336 22.4901 12.5724C23.2933 11.9345 25.8402 12.5359 26.2429 13.4548C26.5711 14.203 26.0778 15.0702 25.1589 15.2781C24.7548 15.3695 24.3226 15.3526 23.9322 15.3828Z" fill="white"/>
</g>
<defs>
<clipPath id="clip0_1_465">
<rect width="119" height="30" fill="white"/>
</clipPath>
</defs>
</svg>
