<svg width="130" height="29" viewBox="0 0 130 29" fill="none" xmlns="http://www.w3.org/2000/svg">
<g clip-path="url(#clip0_1_485)">
<path fill-rule="evenodd" clip-rule="evenodd" d="M128.451 15.9169L125.403 23.9863L121.951 15.9169H120.39L124.705 25.5631C124.423 26.2492 124.135 26.7239 123.842 26.9871C123.542 27.2516 123.156 27.3917 122.759 27.3803C122.491 27.3841 122.222 27.3558 121.96 27.2957C121.72 27.2342 121.489 27.143 121.271 27.0242L120.794 28.1635C121.098 28.3201 121.419 28.4424 121.75 28.528C122.098 28.6133 122.456 28.6544 122.814 28.6505C123.523 28.6505 124.126 28.4441 124.622 28.0314C125.119 27.6188 125.568 26.9135 125.972 25.9153L129.956 15.9131L128.451 15.9169Z" fill="white"/>
<path fill-rule="evenodd" clip-rule="evenodd" d="M40.2889 17.6784H35.074V12.4893H32.247V25.6007H35.074V20.3375H40.2889V25.6007H43.116V12.4893H40.2889V17.6784Z" fill="white"/>
<path fill-rule="evenodd" clip-rule="evenodd" d="M53.4332 17.0035C53.4332 17.5655 53.247 18.0152 52.8748 18.3526C52.5026 18.6899 51.9672 18.8586 51.2687 18.8586H48.4081V15.0934H51.2165C51.9145 15.0934 52.4591 15.2494 52.8506 15.5616C53.2421 15.8735 53.4381 16.3418 53.4387 16.9665L53.4332 17.0035ZM55.5372 19.4481C56.0452 18.7798 56.2993 17.915 56.2993 16.8535V16.8165C56.2993 15.4551 55.8737 14.3938 55.0226 13.6324C54.1715 12.871 52.9813 12.4913 51.452 12.4932H45.5764V25.6009H48.4081V21.4057H50.6294L53.3838 25.6009H56.6883L53.5448 20.9186C54.332 20.6307 55.0228 20.1208 55.5372 19.4481Z" fill="white"/>
<path fill-rule="evenodd" clip-rule="evenodd" d="M71.9319 17.9114C71.7645 18.2695 71.5188 18.5836 71.2135 18.8294C70.8792 19.097 70.4981 19.2973 70.0903 19.419C69.6212 19.5616 69.1337 19.6313 68.6442 19.6259H65.4607V13.8558H68.7177C69.7611 13.8558 70.5987 14.0963 71.2302 14.5773C71.8618 15.0582 72.1779 15.7732 72.1785 16.7219C72.1847 17.1322 72.1005 17.5387 71.9319 17.9114ZM72.3181 13.6033C71.8666 13.2317 71.3494 12.9519 70.7947 12.7792C70.1555 12.5788 69.4897 12.4808 68.821 12.4887H64.01V25.6002H65.4607V20.974H68.5818C69.2398 20.978 69.8949 20.8866 70.5277 20.7024C71.1101 20.5378 71.6565 20.2613 72.1375 19.8878C72.5954 19.5266 72.9686 19.0657 73.23 18.5388C73.5093 17.9564 73.6477 17.3142 73.6339 16.6659C73.6432 16.0641 73.5274 15.4671 73.2942 14.9143C73.0736 14.4055 72.7393 13.9566 72.3181 13.6033Z" fill="white"/>
<path fill-rule="evenodd" clip-rule="evenodd" d="M78.4653 16.47C78.1323 16.7157 77.8355 17.009 77.5841 17.3406C77.3257 17.6806 77.1097 18.0521 76.9411 18.4466V15.9176H75.5257V25.6009H76.9392V21.7427C76.9278 21.0903 77.0273 20.4409 77.2333 19.8231C77.406 19.3065 77.6809 18.8314 78.0409 18.4276C78.3753 18.0583 78.7864 17.7702 79.2442 17.5846C79.7081 17.3951 80.2036 17.2984 80.7033 17.2997H80.8132V15.7485C80.3847 15.7332 79.9568 15.7904 79.5467 15.9176C79.1593 16.0407 78.794 16.2273 78.4653 16.47Z" fill="white"/>
<path fill-rule="evenodd" clip-rule="evenodd" d="M89.7903 22.2491C89.628 22.6878 89.3848 23.0906 89.0738 23.4358C88.764 23.7749 88.3888 24.0451 87.972 24.2295C87.5265 24.4244 87.0459 24.5216 86.5613 24.5143C86.0803 24.519 85.604 24.4169 85.1654 24.2152C84.7454 24.0244 84.366 23.7515 84.0487 23.4121C83.7299 23.0659 83.4804 22.6596 83.3145 22.2159C83.1347 21.7455 83.044 21.2446 83.0475 20.7397C83.0435 20.239 83.1309 19.742 83.3052 19.2739C83.4673 18.8346 83.7067 18.4292 84.0114 18.0778C84.3148 17.733 84.6874 17.459 85.104 17.2746C85.5502 17.0772 86.0322 16.9782 86.5185 16.984C86.9996 16.9797 87.4758 17.082 87.9143 17.284C88.3346 17.4784 88.714 17.7544 89.031 18.0968C89.3531 18.4456 89.6059 18.8545 89.7754 19.3014C89.9544 19.7721 90.0446 20.2729 90.0416 20.7776C90.0473 21.2781 89.9621 21.7755 89.7903 22.2444V22.2491ZM90.1021 17.2043C89.6524 16.7423 89.1192 16.3735 88.5321 16.1182C86.0527 14.9908 83.1467 16.1273 82.0415 18.6568C82.0159 18.7154 81.9914 18.7746 81.9679 18.8343C81.7227 19.4565 81.5982 20.1213 81.6013 20.7919C81.5976 21.4594 81.7222 22.1212 81.9679 22.7399C82.2041 23.3377 82.5534 23.8819 82.9963 24.3415C83.4439 24.8016 83.9736 25.1703 84.5568 25.4275C85.1772 25.7003 85.8467 25.8374 86.5222 25.8301C87.2029 25.8361 87.8776 25.6991 88.5043 25.4275C89.0978 25.1734 89.6356 24.801 90.0862 24.332C91.4698 22.8602 91.8794 20.6977 91.1331 18.8058C90.8964 18.2078 90.5459 17.6635 90.1021 17.2043Z" fill="white"/>
<path fill-rule="evenodd" clip-rule="evenodd" d="M101.089 22.29C100.913 22.7339 100.651 23.1366 100.318 23.4738C99.9997 23.7927 99.6264 24.0489 99.217 24.2295C98.8144 24.4079 98.3801 24.4996 97.9412 24.4992C97.5 24.5017 97.0628 24.4132 96.656 24.2389C96.2533 24.0656 95.8905 23.8086 95.5905 23.4842C95.2759 23.1412 95.0298 22.7392 94.8656 22.3003C94.6819 21.8063 94.5918 21.2813 94.5995 20.753C94.5913 20.2156 94.6816 19.6814 94.8656 19.178C95.0246 18.7419 95.2679 18.3429 95.5812 18.0045C95.8794 17.6892 96.2392 17.4415 96.6374 17.2773C97.0513 17.1076 97.494 17.0221 97.9402 17.0258C98.3792 17.0256 98.8135 17.1177 99.216 17.2963C99.6259 17.4762 99.9995 17.7321 100.318 18.0511C100.65 18.3856 100.912 18.785 101.089 19.2255C101.283 19.7101 101.38 20.2295 101.373 20.753C101.378 21.2784 101.282 21.7998 101.089 22.2871V22.29ZM101.318 17.7739C101.13 17.4936 100.918 17.2302 100.685 16.9869C100.445 16.7369 100.177 16.517 99.8859 16.3318C99.5767 16.1376 99.2434 15.9864 98.895 15.8819C98.5018 15.7662 98.0943 15.7098 97.6852 15.7137C97.1097 15.7133 96.54 15.8312 96.0102 16.0604C95.4708 16.2929 94.9799 16.6287 94.5641 17.0496C94.1235 17.503 93.7755 18.0413 93.5405 18.633C93.0264 20.0088 93.0264 21.5294 93.5405 22.9051C93.7755 23.4969 94.1235 24.0352 94.5641 24.4887C94.9797 24.9104 95.4727 25.2441 96.0149 25.4712C96.5461 25.695 97.1152 25.8099 97.6899 25.8091C98.0967 25.8137 98.5017 25.7568 98.8922 25.6402C99.2404 25.534 99.5714 25.3763 99.8749 25.1721C100.167 24.9738 100.435 24.7411 100.673 24.4792C100.909 24.2201 101.126 23.9449 101.325 23.6551V25.6022H102.739V11.9316H101.325L101.318 17.7739Z" fill="white"/>
<mask id="mask0_1_485" style="mask-type:alpha" maskUnits="userSpaceOnUse" x="0" y="0" width="130" height="29">
<path d="M0 28.6509H129.956V0H0V28.6509Z" fill="white"/>
</mask>
<g mask="url(#mask0_1_485)">
<path fill-rule="evenodd" clip-rule="evenodd" d="M105.534 25.6013H106.947V15.917H105.534V25.6013Z" fill="white"/>
<path fill-rule="evenodd" clip-rule="evenodd" d="M105.442 13.8001H107.057V12.208H105.442V13.8001Z" fill="white"/>
<path fill-rule="evenodd" clip-rule="evenodd" d="M117.057 21.6396C116.867 22.0358 116.602 22.389 116.276 22.6782C115.949 22.9673 115.572 23.1925 115.165 23.3428C114.748 23.4995 114.307 23.5789 113.862 23.5773C113.432 23.5795 113.006 23.5001 112.604 23.3428C112.214 23.1922 111.858 22.9628 111.557 22.6687C110.917 22.0402 110.561 21.168 110.575 20.2612C110.569 19.7955 110.657 19.3335 110.832 18.9037C110.995 18.5109 111.236 18.1568 111.54 17.8641C111.841 17.5755 112.197 17.3524 112.585 17.2081C112.995 17.0562 113.427 16.98 113.862 16.9831C114.307 16.9819 114.748 17.0613 115.165 17.2176C115.572 17.3682 115.948 17.5935 116.276 17.8821C116.603 18.173 116.868 18.5282 117.057 18.9264C117.448 19.7878 117.448 20.781 117.057 21.6425V21.6396ZM117.295 17.659C117.095 17.3918 116.874 17.1412 116.634 16.9101C116.387 16.6711 116.113 16.4634 115.817 16.291C115.499 16.1087 115.16 15.9672 114.808 15.8696C113.857 15.613 112.852 15.6687 111.934 16.029C111.404 16.236 110.918 16.5443 110.502 16.9376C110.076 17.3442 109.736 17.8348 109.502 18.3796C109.245 18.9854 109.118 19.6401 109.129 20.3002C109.117 20.9568 109.244 21.6083 109.502 22.2103C109.969 23.2874 110.84 24.128 111.921 24.5427C112.452 24.7484 113.015 24.853 113.583 24.8513C114.452 24.8513 115.186 24.6516 115.786 24.2523C116.372 23.8658 116.888 23.3778 117.31 22.8102V23.9494C117.31 25.0886 116.998 25.9472 116.374 26.525C115.75 27.1028 114.912 27.3933 113.861 27.3966C113.205 27.4015 112.554 27.2938 111.933 27.0775C111.318 26.857 110.737 26.5478 110.207 26.1595L109.565 27.2835C110.188 27.7273 110.876 28.0688 111.603 28.2955C112.341 28.5228 113.108 28.6363 113.879 28.6325C114.554 28.6414 115.227 28.5402 115.871 28.3325C116.436 28.1501 116.955 27.8469 117.396 27.443C117.827 27.0359 118.159 26.5327 118.368 25.9726C118.607 25.3136 118.722 24.6148 118.708 23.9124V15.9171H117.294L117.295 17.659Z" fill="white"/>
<path fill-rule="evenodd" clip-rule="evenodd" d="M13.2122 1.34766C13.9421 1.34766 14.5336 1.95116 14.5336 2.69573C14.5336 3.44021 13.9421 4.0438 13.2122 4.0438C12.4825 4.0438 11.8908 3.44021 11.8908 2.69573C11.8908 1.95116 12.4825 1.34766 13.2122 1.34766Z" fill="white"/>
<path fill-rule="evenodd" clip-rule="evenodd" d="M2.33924 1.39415C3.04712 1.20058 3.77482 1.62911 3.96456 2.35128C4.15431 3.07345 3.73425 3.81584 3.02637 4.00941C2.31849 4.20298 1.59078 3.77445 1.40104 3.05228C1.2113 2.33011 1.63136 1.58772 2.33924 1.39415Z" fill="white"/>
<path fill-rule="evenodd" clip-rule="evenodd" d="M1.83393 23.1957C2.41135 22.7403 3.24123 22.8486 3.68753 23.4376C4.13401 24.0267 4.02783 24.8733 3.45051 25.3287C2.87309 25.7841 2.04322 25.6758 1.59682 25.0868C1.15043 24.4977 1.25661 23.6511 1.83393 23.1957Z" fill="white"/>
<path fill-rule="evenodd" clip-rule="evenodd" d="M13.2122 22.917C13.9421 22.917 14.5336 23.5205 14.5336 24.2651C14.5336 25.0096 13.9421 25.6131 13.2122 25.6131C12.4825 25.6131 11.8908 25.0096 11.8908 24.2651C11.8908 23.5205 12.4825 22.917 13.2122 22.917Z" fill="white"/>
<path fill-rule="evenodd" clip-rule="evenodd" d="M13.2122 12.1318C13.9421 12.1318 14.5336 12.7354 14.5336 13.4799C14.5336 14.2244 13.9421 14.828 13.2122 14.828C12.4825 14.828 11.8908 14.2244 11.8908 13.4799C11.8908 12.7354 12.4825 12.1318 13.2122 12.1318Z" fill="white"/>
<path fill-rule="evenodd" clip-rule="evenodd" d="M23.7835 25.6155C23.0537 25.6155 22.4621 25.012 22.4621 24.2675C22.4621 23.523 23.0537 22.9195 23.7835 22.9195C24.5133 22.9195 25.1049 23.523 25.1049 24.2675C25.1034 25.0109 24.5122 25.6128 23.7835 25.6128V25.6155ZM13.2122 16.1791C11.7526 16.1791 10.5694 14.972 10.5694 13.4829C10.5694 11.9939 11.7526 10.7867 13.2122 10.7867C14.6718 10.7867 15.855 11.9939 15.855 13.4829C15.853 14.9706 14.6705 16.1756 13.2122 16.1762V16.1791ZM2.64102 14.8309C1.91127 14.8309 1.31961 14.2274 1.31961 13.4829C1.31961 12.7384 1.91127 12.1348 2.64102 12.1348C3.37086 12.1348 3.96242 12.7384 3.96242 13.4829C3.96242 14.2274 3.37086 14.8309 2.64102 14.8309ZM23.7835 1.3502C24.5133 1.3502 25.1049 1.95379 25.1049 2.69836C25.1049 3.44284 24.5132 4.04634 23.7835 4.04634C23.0537 4.04634 22.4621 3.44284 22.4621 2.69836C22.4615 1.95436 23.0523 1.35077 23.7816 1.3502H23.7835ZM23.8458 21.5713C23.5204 21.5629 23.1964 21.6163 22.8901 21.729C22.6478 21.8201 22.3756 21.7598 22.1922 21.5742L16.8554 16.1296C16.6517 15.9257 16.6019 15.6101 16.7326 15.3513C17.3385 14.1615 17.3287 12.7432 16.7065 11.5623C16.5648 11.3 16.6095 10.9737 16.8163 10.7611L22.1122 5.35654C22.3004 5.16667 22.581 5.10857 22.8268 5.20844C24.187 5.7471 25.7177 5.05901 26.2457 3.67145C26.7739 2.28378 26.0994 0.722203 24.7392 0.183448C23.379 -0.355307 21.8484 0.332875 21.3203 1.72044C21.0815 2.34796 21.0815 3.04393 21.3203 3.67145C21.4183 3.92226 21.3614 4.20859 21.1751 4.40045L15.8792 9.79939C15.6708 10.0101 15.3513 10.0561 15.0938 9.91236C13.1646 8.85203 10.7581 9.58797 9.71862 11.5562C9.59113 11.7976 9.48802 12.0516 9.41088 12.3143C9.32862 12.6012 9.07122 12.7989 8.7781 12.8003H5.66722C5.40573 12.8001 5.16908 12.6421 5.06421 12.3978C4.4786 11.0338 2.92 10.4125 1.58306 11.01C0.246113 11.6074 -0.362849 13.1974 0.222756 14.5614C0.808361 15.9253 2.36687 16.5467 3.70382 15.9492C4.31213 15.6773 4.79779 15.1819 5.06421 14.5614C5.16862 14.3139 5.40694 14.1533 5.67094 14.1521H8.78089C9.07411 14.1533 9.3316 14.3511 9.41367 14.6382C10.0406 16.7816 12.252 18.0006 14.3528 17.361C14.6323 17.276 14.9017 17.1598 15.1562 17.0144C15.4146 16.8641 15.7397 16.908 15.9509 17.1217L21.2077 22.4847C21.398 22.6813 21.4525 22.9759 21.3454 23.2298C21.2024 23.5776 21.1333 23.9522 21.1425 24.3291C21.1763 25.8178 22.3866 26.9967 23.8458 26.9623C25.305 26.9277 26.4605 25.6929 26.4267 24.2043C26.3941 22.7642 25.2575 21.6047 23.8458 21.5713Z" fill="white"/>
<path fill-rule="evenodd" clip-rule="evenodd" d="M23.7835 12.1318C24.5133 12.1318 25.1049 12.7354 25.1049 13.4799C25.1049 14.2244 24.5133 14.828 23.7835 14.828C23.0537 14.828 22.4621 14.2244 22.4621 13.4799C22.4621 12.7354 23.0537 12.1318 23.7835 12.1318Z" fill="white"/>
</g>
</g>
<defs>
<clipPath id="clip0_1_485">
<rect width="130" height="29" fill="white"/>
</clipPath>
</defs>
</svg>
