<svg width="125" height="38" viewBox="0 0 125 38" fill="none" xmlns="http://www.w3.org/2000/svg">
<path d="M13.5892 24.433C13.2798 24.1269 12.3383 23.1923 12.3383 18.9392C12.3383 14.686 13.2798 13.7523 13.5892 13.4462C13.8987 13.1401 14.8401 12.2055 19.1284 12.2055C23.4166 12.2055 24.354 13.1384 24.6667 13.4462C24.9794 13.7539 25.9176 14.6868 25.9176 18.9392C25.9176 23.1915 24.9762 24.1269 24.6667 24.433C24.3573 24.7391 23.4158 25.6736 19.1284 25.6736C14.8409 25.6736 13.897 24.7399 13.5892 24.433ZM10.1689 10.087C8.68368 11.5601 7.72429 15.0593 7.72429 19.0015C7.72429 22.9437 8.68368 26.4421 10.1689 27.9144C11.6541 29.3866 15.1822 30.3438 19.1561 30.3438C23.1301 30.3438 26.659 29.3923 28.1442 27.9144C29.6286 26.4421 30.5888 22.9429 30.5888 19.0015C30.5888 15.0601 29.6286 11.5601 28.1442 10.087C26.6598 8.61398 23.1309 7.66406 19.1561 7.66406C15.1814 7.66406 11.6541 8.61641 10.1689 10.0887" fill="#F15F22"/>
<path d="M10.1689 10.087C8.68368 11.5601 7.72429 15.0593 7.72429 19.0015C7.72429 22.9437 8.68368 26.4421 10.1689 27.9144C11.6541 29.3866 15.1822 30.3438 19.1561 30.3438C23.1301 30.3438 26.659 29.3915 28.1442 27.9144C29.6294 26.4421 30.5888 22.9429 30.5888 19.0015C30.5888 15.0601 29.6294 11.5601 28.1442 10.087C26.659 8.61398 23.1309 7.66406 19.1561 7.66406C15.1814 7.66406 11.6541 8.61641 10.1689 10.0887V10.087ZM13.5892 24.4346C13.2798 24.1285 12.3383 23.1939 12.3383 18.9408C12.3383 14.6876 13.2798 13.7539 13.5892 13.4478C13.8987 13.1417 14.8401 12.2071 19.1276 12.2071C23.415 12.2071 24.3573 13.1409 24.6667 13.4478C24.9762 13.7547 25.9176 14.6884 25.9176 18.9408C25.9176 23.1931 24.977 24.1285 24.6667 24.4346C24.3564 24.7407 23.4158 25.6752 19.1276 25.6752C14.8393 25.6752 13.9019 24.7415 13.5892 24.4346Z" fill="#F15F22"/>
<path d="M8.20666 29.9373C6.1107 27.8585 4.859 23.7924 4.859 19.0599C4.859 14.3273 6.10907 10.2612 8.20666 8.18401C10.3043 6.10683 14.4015 4.86376 19.1731 4.86376C23.9447 4.86376 28.0436 6.1044 30.1395 8.18401C32.2355 10.2636 33.4872 14.3273 33.4872 19.0599C33.4872 23.7924 32.2363 27.8585 30.1395 29.9373C28.0428 32.0161 23.9423 33.2527 19.1731 33.2527C14.4039 33.2527 10.3018 32.0121 8.20666 29.9325V29.9373ZM0.00163211 18.9999C0.00163211 29.4053 8.4361 37.8582 18.8939 37.9982C29.6096 38.1424 38.4597 29.3656 38.3127 18.7367C38.1698 8.36379 29.6488 0 19.1568 0C8.57736 0 0 8.50308 0 18.9999" fill="#F15F22"/>
<path d="M21.778 15.3203H16.5336C15.9334 15.3203 15.4469 15.8029 15.4469 16.3982V21.6004C15.4469 22.1957 15.9334 22.6783 16.5336 22.6783H21.778C22.3782 22.6783 22.8648 22.1957 22.8648 21.6004V16.3982C22.8648 15.8029 22.3782 15.3203 21.778 15.3203Z" fill="#F15F22"/>
<path d="M51.4243 13.3877H47.2462V25.0426H51.4243V13.3877Z" fill="white"/>
<path d="M53.6803 25.042V13.3871H57.0043L57.526 14.6585C58.4993 13.623 59.7812 13.105 61.3718 13.1045C62.7729 13.1045 63.8882 13.5288 64.7668 14.4002C65.6453 15.2481 66.0732 16.3316 66.0732 17.6735V25.0428H61.8943V18.3521C61.8943 17.2921 61.1105 16.4895 60.0425 16.4895C58.7361 16.4895 57.8583 17.4079 57.8583 18.7967V25.0364L53.6803 25.042Z" fill="white"/>
<path d="M67.02 16.5184V13.3869H68.9902V12.3033C68.9902 11.0554 69.3985 10.0666 70.2011 9.31347C71.0323 8.55764 72.1006 8.17972 73.4059 8.17972C74.3916 8.17727 75.3734 8.30388 76.3257 8.55629L75.8039 11.6174C75.3496 11.5321 74.8888 11.4849 74.4265 11.4765C73.6671 11.4765 73.1683 11.947 73.1683 12.7244V13.3836H75.59V16.5152H73.1683V25.0418H68.9902V16.5184H67.02Z" fill="white"/>
<path d="M82.8323 22.1226C84.2563 22.1226 85.277 20.9217 85.277 19.2267C85.277 17.5075 84.2563 16.3065 82.8323 16.3065C81.4084 16.3065 80.4106 17.5075 80.4106 19.2267C80.4106 20.9217 81.4076 22.1226 82.8323 22.1226ZM78.015 14.8237C79.2732 13.6697 80.8638 13.1045 82.8323 13.1045C84.8009 13.1045 86.4168 13.6714 87.6497 14.8237C88.9079 15.9534 89.5277 17.4152 89.5277 19.2267C89.5277 21.0156 88.9104 22.4757 87.6497 23.6289C86.4152 24.7626 84.8009 25.3246 82.8323 25.3246C80.8638 25.3246 79.2716 24.7578 78.015 23.6289C76.7567 22.4757 76.137 21.0156 76.137 19.2267C76.137 17.4378 76.7543 15.9769 78.015 14.8237Z" fill="white"/>
<path d="M94.8649 19.8381C94.8649 21.1338 95.7198 22.0748 96.978 22.0748C98.331 22.0748 99.3042 20.8981 99.3042 19.2267C99.3042 17.5309 98.331 16.3534 96.978 16.3534C95.7198 16.3534 94.8649 17.2953 94.8649 18.6144V19.8381ZM90.7579 25.042V8.46582H94.936V14.2115C95.822 13.4814 96.9416 13.0889 98.0934 13.1045C99.6839 13.1045 100.99 13.6713 102.013 14.8237C103.033 15.9534 103.555 17.4151 103.555 19.2267C103.555 21.0156 103.033 22.4756 102.013 23.6288C100.991 24.7593 99.6845 25.3246 98.0934 25.3246C96.6694 25.3246 95.5059 24.8768 94.6036 23.9592L94.0811 25.042H90.7579Z" fill="white"/>
<path d="M105.077 13.3868H109.256V25.0417H105.077V13.3868ZM107.167 7.94727C108.591 7.94727 109.565 8.93687 109.565 10.3257C109.565 11.6676 108.591 12.6807 107.167 12.6807C105.814 12.6807 104.793 11.6676 104.793 10.3257C104.793 8.93687 105.814 7.94727 107.167 7.94727Z" fill="white"/>
<path d="M115.619 19.8381C115.619 21.1338 116.474 22.0748 117.732 22.0748C119.085 22.0748 120.058 20.8982 120.058 19.2267C120.058 17.531 119.085 16.3535 117.732 16.3535C116.474 16.3535 115.619 17.2953 115.619 18.6145V19.8381ZM111.513 29.939V13.3871H114.836L115.358 14.4698C116.26 13.5523 117.423 13.1045 118.848 13.1045C120.439 13.1045 121.744 13.6714 122.767 14.8237C123.788 15.9534 124.311 17.4152 124.311 19.2267C124.311 21.0156 123.788 22.4757 122.767 23.6289C121.747 24.7594 120.44 25.3246 118.848 25.3246C117.698 25.3322 116.581 24.9409 115.691 24.2184V29.939H111.513Z" fill="white"/>
<path d="M51.4243 8.00098H47.2462V12.1448H51.4243V8.00098Z" fill="white"/>
</svg>
