<svg width="99" height="31" viewBox="0 0 99 31" fill="none" xmlns="http://www.w3.org/2000/svg">
<g clip-path="url(#clip0_1_407)">
<path fill-rule="evenodd" clip-rule="evenodd" d="M13.167 12.366H17.3415C17.82 12.366 18.1995 12.7473 18.1995 13.228V17.4218C18.1995 17.9024 17.82 18.2838 17.3415 18.2838H13.167C12.6885 18.2838 12.309 17.9024 12.309 17.4218V13.228C12.309 12.7473 12.6885 12.366 13.167 12.366ZM0 15.3332C0 6.86263 6.831 0 15.2625 0C23.6115 0 30.4095 6.7466 30.525 15.1177C30.6405 23.6877 23.595 30.7658 15.0645 30.6498C6.7155 30.5337 0 23.7208 0 15.3332ZM6.534 24.1518C8.2005 25.826 11.4675 26.8372 15.2625 26.8372C19.0575 26.8372 22.3245 25.8426 23.991 24.1518C25.6575 22.4776 26.664 19.1955 26.664 15.3829C26.664 11.5703 25.674 8.2882 23.991 6.61399C22.3245 4.93977 19.0575 3.92861 15.2625 3.92861C11.4675 3.92861 8.2005 4.92319 6.534 6.61399C4.8675 8.30478 3.861 11.5703 3.861 15.3829C3.8775 19.1955 4.8675 22.4776 6.534 24.1518ZM8.1015 8.13901C9.2895 6.94551 12.0945 6.183 15.2625 6.183C18.4305 6.183 21.2355 6.94551 22.4235 8.13901C23.6115 9.33252 24.3705 12.1505 24.3705 15.3332C24.3705 18.5158 23.6115 21.3338 22.4235 22.5273C21.2355 23.7208 18.4305 24.4834 15.2625 24.4834C12.0945 24.4834 9.2895 23.7041 8.1015 22.5273C6.9135 21.3504 6.1545 18.5158 6.1545 15.3332C6.1545 12.1505 6.9135 9.33252 8.1015 8.13901ZM10.824 19.7093C11.0715 19.958 11.814 20.7039 15.2295 20.7039C18.645 20.7039 19.3875 19.958 19.635 19.7093C19.8825 19.4607 20.625 18.7148 20.625 15.2834C20.625 11.8521 19.8825 11.1062 19.635 10.8575C19.3875 10.6089 18.645 9.86296 15.2295 9.86296C11.814 9.86296 11.0715 10.6089 10.824 10.8575C10.5765 11.1062 9.834 11.8521 9.834 15.2834C9.834 18.7148 10.5765 19.4607 10.824 19.7093Z" fill="white"/>
<mask id="mask0_1_407" style="mask-type:alpha" maskUnits="userSpaceOnUse" x="0" y="0" width="99" height="31">
<path d="M0 30.6511H98.9835V0H0V30.6511Z" fill="white"/>
</mask>
<g mask="url(#mask0_1_407)">
<path fill-rule="evenodd" clip-rule="evenodd" d="M37.6365 20.2064H40.9695V10.8076H37.6365V20.2064Z" fill="white"/>
<path fill-rule="evenodd" clip-rule="evenodd" d="M42.7515 20.2071V10.8082H45.3915L45.804 11.836C46.5795 11.0072 47.6025 10.5762 48.873 10.5762C49.995 10.5762 50.8695 10.9243 51.579 11.6205C52.272 12.3001 52.6185 13.1787 52.6185 14.2561V20.2071H49.2855V14.8197C49.2855 13.9578 48.6585 13.3113 47.817 13.3113C46.7775 13.3113 46.0845 14.0572 46.0845 15.1678V20.1905L42.7515 20.2071Z" fill="white"/>
<path fill-rule="evenodd" clip-rule="evenodd" d="M53.3775 13.3277V10.8081H54.945V9.92951C54.945 8.91835 55.275 8.12269 55.902 7.50936C56.562 6.89603 57.42 6.59766 58.4595 6.59766C59.2515 6.59766 60.027 6.69711 60.7859 6.89603L60.3734 9.36592C60.0105 9.29961 59.6475 9.26646 59.2845 9.24988C58.674 9.24988 58.278 9.63114 58.278 10.261V10.7915H60.2084V13.3277H58.278V20.2069H54.945V13.3277H53.3775Z" fill="white"/>
<path fill-rule="evenodd" clip-rule="evenodd" d="M62.1389 11.952C63.1456 11.0237 64.416 10.5596 65.9834 10.5596C67.5509 10.5596 68.8381 11.0237 69.8281 11.952C70.8344 12.8637 71.3294 14.0406 71.3294 15.4993C71.3294 16.9415 70.8344 18.1184 69.8281 19.0467C68.8381 19.9584 67.5509 20.4225 65.9834 20.4225C64.416 20.4225 63.1456 19.9584 62.1389 19.0467C61.1324 18.1184 60.6375 16.9415 60.6375 15.4993C60.6375 14.0738 61.1324 12.8968 62.1389 11.952ZM65.9669 17.8532C67.1056 17.8532 67.9139 16.8918 67.9139 15.5159C67.9139 14.1235 67.1056 13.1621 65.9669 13.1621C64.8284 13.1621 64.0364 14.1235 64.0364 15.5159C64.0531 16.8752 64.8449 17.8532 65.9669 17.8532Z" fill="white"/>
<path fill-rule="evenodd" clip-rule="evenodd" d="M72.2864 20.2063V6.8291H75.6194V11.4705C76.3289 10.8903 77.2199 10.5588 78.1274 10.5754C79.3981 10.5754 80.4374 11.0395 81.2459 11.9678C82.0544 12.8795 82.4669 14.0564 82.4669 15.5151C82.4669 16.9573 82.0544 18.1342 81.2459 19.0625C80.4374 19.9742 79.3981 20.4383 78.1274 20.4383C76.9889 20.4383 76.0649 20.0737 75.3556 19.3443L74.9431 20.2228L72.2864 20.2063ZM75.5534 16.0124C75.5534 17.0567 76.2299 17.8193 77.2364 17.8193C78.3089 17.8193 79.0844 16.8744 79.0844 15.5151C79.0844 14.1559 78.3089 13.1944 77.2364 13.1944C76.2299 13.1944 75.5534 13.957 75.5534 15.0178V16.0124Z" fill="white"/>
<path fill-rule="evenodd" clip-rule="evenodd" d="M85.3545 6.41504C86.493 6.41504 87.2685 7.21071 87.2685 8.3379C87.2685 9.41537 86.493 10.2442 85.3545 10.2442C84.282 10.2442 83.457 9.43195 83.457 8.3379C83.457 7.21071 84.282 6.41504 85.3545 6.41504ZM83.688 20.2066H87.0209V10.8078H83.688V20.2066Z" fill="white"/>
<path fill-rule="evenodd" clip-rule="evenodd" d="M88.8195 24.1522V10.7917H91.4595L91.872 11.6702C92.598 10.9243 93.522 10.5762 94.644 10.5762C95.9145 10.5762 96.954 11.0403 97.7625 11.9686C98.571 12.8803 98.9835 14.0572 98.9835 15.5159C98.9835 16.9583 98.571 18.135 97.7625 19.0633C96.954 19.975 95.9145 20.4393 94.644 20.4393C93.72 20.4393 92.8455 20.1242 92.136 19.544V24.1522H88.8195ZM92.0865 16.0132C92.0865 17.0575 92.763 17.8201 93.7695 17.8201C94.842 17.8201 95.6175 16.8754 95.6175 15.5159C95.6175 14.1567 94.842 13.1952 93.7695 13.1952C92.763 13.1952 92.0865 13.9578 92.0865 15.0186V16.0132Z" fill="white"/>
<path fill-rule="evenodd" clip-rule="evenodd" d="M37.6365 9.81328H40.9695V6.46484H37.6365V9.81328Z" fill="white"/>
</g>
</g>
<defs>
<clipPath id="clip0_1_407">
<rect width="99" height="31" fill="white"/>
</clipPath>
</defs>
</svg>
