<svg width="119" height="18" viewBox="0 0 119 18" fill="none" xmlns="http://www.w3.org/2000/svg">
<g clip-path="url(#clip0_1_625)">
<path fill-rule="evenodd" clip-rule="evenodd" d="M48.5224 13.6695L49.4403 5.90349H46.313L46.516 4.2041H54.4493L54.2464 5.90349H51.1238L50.2059 13.6695H48.5224Z" fill="white"/>
<path fill-rule="evenodd" clip-rule="evenodd" d="M76.1785 8.75797H79.0797C79.8717 8.73841 80.5373 8.15084 80.6618 7.36121C80.7088 6.99293 80.5981 6.62185 80.3574 6.34157C80.1143 6.07153 79.7679 5.92068 79.4072 5.92673H76.5148L76.1785 8.75797ZM79.91 13.6699L80.0114 12.8221C80.1351 11.9375 79.8136 11.0482 79.1531 10.4527H75.9756L75.5969 13.6653H73.9185L75.0347 4.19941H79.6194C80.4113 4.19009 81.1673 4.52997 81.6899 5.13058C82.2069 5.73631 82.4422 6.53665 82.3361 7.32861C82.2143 8.28586 81.7153 9.15372 80.9524 9.7357V9.76317C81.5746 10.6464 81.8416 11.7349 81.6996 12.8081L81.5981 13.6653L79.91 13.6699Z" fill="white"/>
<path fill-rule="evenodd" clip-rule="evenodd" d="M70.1176 13.6693L70.2144 12.8219C70.3749 11.7063 69.8201 10.6108 68.8307 10.0889C68.1864 10.3249 67.506 10.4497 66.8202 10.4567H66.6537L66.6168 10.4893L66.2385 13.6739H64.5596L65.6758 4.20853H67.3598L66.8202 8.75219H67.0411C69.1236 8.70145 70.8616 7.13381 71.1461 5.05124L71.2476 4.19922H72.9316L72.8297 5.04193C72.6175 6.62167 71.8117 8.05847 70.5788 9.05529L70.547 9.08276L70.5788 9.11116C71.6046 10.0433 72.1041 11.4289 71.9123 12.8075L71.8154 13.6646L70.1176 13.6693Z" fill="white"/>
<path fill-rule="evenodd" clip-rule="evenodd" d="M102.404 13.6695L103.526 4.2041H105.204L104.088 13.6695H102.404Z" fill="white"/>
<path fill-rule="evenodd" clip-rule="evenodd" d="M107.409 4.20462L106.311 13.5164C106.113 14.9345 104.93 16.0017 103.512 16.0398L103.304 17.7392C105.683 17.6773 107.668 15.8867 107.995 13.5066L109.092 4.19531L107.409 4.20462Z" fill="white"/>
<path fill-rule="evenodd" clip-rule="evenodd" d="M88.5352 5.90312C87.2824 5.93431 86.2363 6.87619 86.0629 8.12862L85.8876 9.62781H90.311L90.4858 8.13793C90.5651 7.56806 90.3972 6.99073 90.0245 6.55494C89.6463 6.12846 89.102 5.89055 88.5352 5.90312ZM89.8354 13.6691L90.1126 11.3412H85.6889L85.4121 13.6691H83.7198L84.3743 8.13793C84.6769 5.92593 86.5219 4.26053 88.7335 4.20372C89.7247 4.1851 90.6753 4.60134 91.3391 5.34441C92.0028 6.11077 92.3026 7.1304 92.1601 8.13793L91.5051 13.6784L89.8354 13.6691Z" fill="white"/>
<path fill-rule="evenodd" clip-rule="evenodd" d="M114.881 5.90312C113.629 5.93431 112.584 6.87666 112.413 8.12862L112.238 9.62781H116.657L116.832 8.13794C116.99 7.075 116.265 6.08376 115.212 5.92407C115.102 5.90777 114.992 5.90079 114.881 5.90312ZM116.182 13.6691L116.459 11.3412H112.035L111.758 13.6691H110.075L110.73 8.13794C111.033 5.92872 112.875 4.26425 115.084 4.20372C116.074 4.1851 117.023 4.60134 117.685 5.34441C118.349 6.11077 118.648 7.1304 118.506 8.13794L117.851 13.6691H116.182Z" fill="white"/>
<path fill-rule="evenodd" clip-rule="evenodd" d="M97.1465 13.6697C96.1521 13.6907 95.1973 13.274 94.5313 12.529C93.8731 11.7599 93.5788 10.7407 93.7241 9.73551L93.9128 8.12923C94.2098 5.91397 96.0584 4.24577 98.2715 4.19502C99.2682 4.175 100.223 4.59496 100.887 5.34502L101.413 5.94097L100.075 7.14684L99.5542 6.54624C99.1741 6.12162 98.6308 5.88417 98.0639 5.89441C96.8116 5.92375 95.766 6.86702 95.5968 8.11992L95.403 9.73551C95.3251 10.304 95.493 10.879 95.8643 11.3134C96.2416 11.7417 96.7863 11.982 97.3536 11.9703C97.9606 11.9624 98.5427 11.7305 98.9915 11.3185L99.6552 10.7179L100.703 11.914L100.038 12.529C99.2465 13.2558 98.2166 13.6618 97.1465 13.6697Z" fill="white"/>
<path fill-rule="evenodd" clip-rule="evenodd" d="M59.5737 5.90315C58.9671 5.91014 58.3841 6.14246 57.9363 6.55497C57.4787 6.96003 57.1817 7.5192 57.1014 8.12866L56.9077 9.73493C56.832 10.3034 56.9999 10.8775 57.3689 11.3133C57.7476 11.7407 58.2914 11.98 58.8587 11.9698C59.4653 11.9623 60.0483 11.7304 60.4961 11.3179C60.9537 10.9129 61.2489 10.3532 61.3264 9.74425L61.5155 8.13797C61.6788 7.08109 60.9625 6.09032 59.9159 5.9255C59.801 5.90734 59.6848 5.89989 59.569 5.90315H59.5737ZM58.6512 13.6691C57.66 13.6873 56.7098 13.2715 56.0452 12.5285C55.3861 11.7602 55.0899 10.7406 55.2334 9.73493L55.4225 8.12866C55.5581 7.04757 56.0816 6.05354 56.8939 5.33514C57.6858 4.60696 58.7148 4.19724 59.7858 4.18514C60.7807 4.16698 61.7336 4.58647 62.3964 5.33514C63.0574 6.10242 63.354 7.12252 63.2082 8.12866L63.0099 9.73493C62.8766 10.817 62.3526 11.8115 61.5385 12.5285C60.7484 13.2557 59.7199 13.6617 58.6512 13.6691Z" fill="white"/>
<path fill-rule="evenodd" clip-rule="evenodd" d="M37.1943 13.6695L38.3105 4.2041H44.694L44.4911 5.90349H39.7911L39.5328 8.0871H43.7208L43.5225 9.78137H39.3344L39.0761 11.9701H43.7762L43.5732 13.6695H37.1943Z" fill="white"/>
<path fill-rule="evenodd" clip-rule="evenodd" d="M28.9059 7.38406L28.1633 13.6695H26.4844L27.6144 4.2041H29.0674L33.6705 10.4895L34.4131 4.2041H36.0782L34.962 13.6695H33.5091L28.9059 7.38406Z" fill="white"/>
<path fill-rule="evenodd" clip-rule="evenodd" d="M16.7984 8.02672C15.4746 7.83117 13.8879 7.02105 12.3566 6.24352C11.5079 5.81053 10.65 5.37753 9.78752 5.01437C9.57535 4.21449 8.76126 3.73959 7.96839 3.95376C7.75114 4.01243 7.55004 4.12044 7.37985 4.26943C7.19535 4.2415 7.01085 4.20891 6.82636 4.19494C5.15667 4.05992 4.26647 4.27409 3.08566 5.12611C3.08566 5.12611 3.03496 1.54575 6.86326 1.67146C8.44531 1.72267 10.3318 2.75627 12.1537 3.75263C14.1601 4.84676 16.0742 5.89899 17.8454 5.8664C18.73 5.8501 19.5838 5.53164 20.2669 4.96316C20.2761 4.93522 20.0686 8.50628 16.7984 8.02672ZM16.4063 11.8911C16.1125 11.8608 15.821 11.8096 15.5346 11.7374C15.2694 10.9483 14.4202 10.526 13.6389 10.7937C13.5254 10.8328 13.417 10.8859 13.316 10.9506C12.7533 10.7085 12.1814 10.4385 11.614 10.1684C9.92128 9.36761 8.16857 8.53887 6.54039 8.30607C5.16728 8.06024 3.75403 8.37917 2.61523 9.19069C2.61523 9.15344 2.65213 5.46599 6.49426 5.7919C6.64186 5.7919 6.78946 5.82915 6.9555 5.85708C7.19443 6.65184 8.02604 7.10067 8.81338 6.85949C8.98404 6.80735 9.14317 6.72494 9.28477 6.61599C10.0181 6.93725 10.77 7.31437 11.5079 7.6915C13.1407 8.52024 14.8289 9.38158 16.3833 9.61437C17.5211 9.85136 18.7061 9.61251 19.6673 8.95324L19.8379 8.82287C19.8057 8.80425 19.8057 12.1937 16.4063 11.8911ZM16.0097 15.7555C14.4645 15.7089 12.5965 14.8844 10.7884 14.0887C8.02097 12.8595 5.38729 11.635 2.97039 12.7245C2.66412 12.8651 2.37493 13.0402 2.10787 13.2459C2.10787 13.204 2.23702 9.4137 6.09299 9.92166C7.51822 10.1121 9.16946 10.8947 10.7653 11.649C11.388 11.947 12.0199 12.2403 12.6472 12.5103C12.7819 13.2259 13.4018 13.7432 14.1232 13.7441C14.494 13.7427 14.851 13.6021 15.1241 13.3484C15.428 13.4191 15.7361 13.4704 16.0466 13.502C17.2066 13.6808 18.3897 13.3912 19.3398 12.6966C19.326 12.7892 19.3536 15.8625 16.0097 15.7555ZM20.885 0L20.7097 1.44798C20.5289 2.54071 19.8813 3.49749 18.9385 4.06457C17.5179 4.74433 15.2486 3.51053 13.09 2.32328C11.1205 1.24777 9.08643 0.130364 7.14923 0.0698381C5.72307 -0.0265385 4.3149 0.433462 3.21485 1.35486C2.26146 2.21247 1.66369 3.40111 1.54054 4.68381L0 17.3385H1.59128L1.72043 16.2862C1.94274 15.3476 2.58802 14.5687 3.46391 14.1818C5.10593 13.4415 7.58279 14.531 9.97663 15.5785C11.9092 16.4306 13.9064 17.3101 15.7375 17.3664H16.0927C17.2485 17.3915 18.3744 16.9967 19.266 16.2536C20.2374 15.3513 20.831 14.1091 20.9265 12.7804L22.4716 0.0139676L20.885 0Z" fill="white"/>
</g>
<defs>
<clipPath id="clip0_1_625">
<rect width="119" height="18" fill="white"/>
</clipPath>
</defs>
</svg>
