<svg width="115" height="28" viewBox="0 0 115 28" fill="none" xmlns="http://www.w3.org/2000/svg">
<g clip-path="url(#clip0_1_523)">
<path fill-rule="evenodd" clip-rule="evenodd" d="M45.9674 13.325C46.6771 9.43946 45.1669 8.34411 43.0964 8.34411C42.2618 8.34973 41.4327 8.48598 40.6363 8.74837L38.6138 18.82C39.3796 19.1316 40.1942 19.288 41.0152 19.2805C43.638 19.2805 45.3057 17.0077 45.906 13.6397L45.9674 13.325ZM38.1228 21.2357L37.0849 26.3293C36.9461 27.0794 36.5913 27.394 35.9082 27.394H34.985C34.2753 27.394 34.0271 27.0794 34.1659 26.3293L37.8773 7.95643C38.0961 6.91979 38.6778 6.74843 39.1341 6.57425C40.0626 6.20061 42.0318 5.91406 43.5873 5.91406C47.4429 5.91406 50.2312 7.92834 49.0812 13.3079L49.0011 13.6818C47.9072 18.7748 45.4738 21.7417 41.4021 21.7417C40.2929 21.7226 39.1906 21.5526 38.1228 21.2357Z" fill="white"/>
<path fill-rule="evenodd" clip-rule="evenodd" d="M60.6157 7.56815C60.3702 8.11316 60.4532 8.57388 59.6608 8.54579C59.1541 8.46207 58.6418 8.42359 58.1292 8.43061C57.2001 8.44887 56.2793 8.61378 55.3967 8.91943L53.0727 20.373C52.9369 21.1202 52.582 21.4377 51.896 21.4377H50.9675C50.258 21.4377 50.0122 21.1202 50.1486 20.373L52.6887 7.82661C52.8275 7.19452 53.1557 6.82088 53.9185 6.59052C55.314 6.02865 56.8722 5.89943 58.292 5.89943C59.0081 5.88482 59.7237 5.95168 60.4263 6.09889C61.056 6.21407 60.9735 6.55961 60.728 7.33779L60.6157 7.56815Z" fill="white"/>
<path fill-rule="evenodd" clip-rule="evenodd" d="M70.128 13.552C70.8378 10.3016 70.0453 8.34351 67.7773 8.34351C65.4266 8.34351 64.0872 10.1867 63.3481 13.552L63.2414 14.0436C62.5292 17.353 63.3774 19.2801 65.5627 19.2801C67.748 19.2801 69.2528 17.5524 70.0186 14.0436L70.128 13.552ZM60.2876 13.552C61.4083 8.40251 64.0872 5.89941 68.2683 5.89941C72.3133 5.89941 74.2824 8.51769 73.1884 13.552L73.079 14.0436C71.9584 19.193 69.2528 21.727 65.0744 21.727C61.0294 21.727 59.0869 19.0779 60.1809 14.0436L60.2876 13.552Z" fill="white"/>
<path fill-rule="evenodd" clip-rule="evenodd" d="M75.7578 7.25104C75.9206 6.50377 76.2755 6.18632 76.9615 6.18632H77.8897L78.1566 4.80414C78.8129 1.55377 81.3824 0.000225597 85.2649 0.000225597C86.468 -0.00735953 87.6653 0.176369 88.8161 0.545231C89.4724 0.719408 89.7179 0.977864 89.3631 1.72514L89.2537 1.9555C88.9257 2.64659 88.6242 2.84886 87.8875 2.79829C87.0294 2.57439 86.1489 2.45921 85.2649 2.45556C82.4206 2.45556 81.3557 3.31802 81.0545 4.81257L80.7877 6.19474H87.618C88.3305 6.19474 88.5759 6.5122 88.4185 7.25947L86.3613 17.5078C86.1428 18.5725 86.2789 19.0024 86.9083 19.0024C87.1399 18.9951 87.3696 18.9563 87.5916 18.8872C87.9195 18.831 87.9756 18.974 87.9756 19.449L87.9465 19.8533C87.9195 20.4854 87.8929 20.918 86.9913 21.1765C86.5353 21.3504 86.0539 21.4378 85.5691 21.4353C83.7654 21.4353 82.7806 20.6596 83.4105 17.5219L85.2407 8.57142H80.3207L77.9193 20.3705C77.7833 21.1175 77.4284 21.4353 76.7451 21.4353H75.8085C75.1257 21.4353 74.88 21.1175 75.0081 20.3705L77.4095 8.57142H76.4783C75.8779 8.57142 75.523 8.29049 75.6778 7.50669L75.7578 7.25104Z" fill="white"/>
<path fill-rule="evenodd" clip-rule="evenodd" d="M101.477 7.65533C101.231 8.34361 101.066 8.51779 100.575 8.49813C99.8226 8.40205 99.0651 8.35317 98.3071 8.35204C95.4358 8.35204 94.0166 10.1669 93.2775 13.5911L93.1678 14.0802C92.4023 17.5918 93.4963 19.2887 96.2016 19.2887C96.9882 19.2822 97.7731 19.2241 98.5525 19.1145C98.9341 19.0864 99.0699 19.2887 99.0168 19.9798L98.9901 20.4405C98.9901 20.9804 98.5744 21.4181 98.0616 21.4181C97.0495 21.6044 96.0255 21.7055 94.9985 21.7215C90.7293 21.7215 88.9603 19.1594 90.1343 13.9229L90.217 13.5745C91.3083 8.71163 93.4696 5.89109 98.1147 5.89109C99.1142 5.87199 100.113 5.9661 101.093 6.17202C101.586 6.2872 101.893 6.45295 101.639 7.18056L101.477 7.65533Z" fill="white"/>
<path fill-rule="evenodd" clip-rule="evenodd" d="M111.589 13.552C112.299 10.3016 111.507 8.34351 109.239 8.34351C106.888 8.34351 105.548 10.1867 104.812 13.552L104.703 14.0436C103.99 17.353 104.839 19.2801 107.024 19.2801C109.209 19.2801 110.714 17.5524 111.48 14.0436L111.589 13.552ZM101.752 13.552C102.87 8.40251 105.548 5.89941 109.732 5.89941C113.775 5.89941 115.744 8.51769 114.65 13.552L114.541 14.0436C113.43 19.193 110.714 21.7214 106.533 21.7214C102.488 21.7214 100.548 19.0722 101.642 14.038L101.752 13.552Z" fill="white"/>
<path fill-rule="evenodd" clip-rule="evenodd" d="M16.7611 9.36047C16.6146 10.0114 16.0751 10.4808 15.4404 10.5095H13.682C13.2079 10.5297 12.8079 10.1415 12.7887 9.64224C12.785 9.54729 12.7956 9.45205 12.8202 9.36047L13.1884 7.50914C13.3354 6.8585 13.8747 6.38963 14.5092 6.36013H16.2675C16.7416 6.3399 17.1416 6.72815 17.1608 7.22736C17.1643 7.32232 17.1539 7.41755 17.1293 7.50914L16.7611 9.36047Z" fill="white"/>
<path fill-rule="evenodd" clip-rule="evenodd" d="M22.0681 9.36082C21.9213 10.0174 21.3744 10.4885 20.734 10.5098H18.9756C18.4999 10.5295 18.0991 10.1396 18.0805 9.63894C18.077 9.54511 18.0874 9.45128 18.1111 9.36082L18.482 7.50948C18.6288 6.85295 19.176 6.38183 19.8161 6.36048H21.5745C22.0484 6.33604 22.4515 6.72063 22.4747 7.21956C22.4793 7.31649 22.4691 7.41341 22.4443 7.50668L22.0681 9.36082Z" fill="white"/>
<path fill-rule="evenodd" clip-rule="evenodd" d="M27.3726 9.36043C27.2272 10.0119 26.6872 10.4819 26.0519 10.5094H24.2935C23.8194 10.5297 23.4194 10.1414 23.4002 9.6422C23.3965 9.54725 23.4071 9.45201 23.4317 9.36043L23.7999 7.50909C23.9469 6.85846 24.4862 6.38959 25.1207 6.36009H26.879C27.3545 6.34042 27.7553 6.73035 27.7739 7.23097C27.7777 7.3248 27.7673 7.41863 27.7435 7.50909L27.3726 9.36043Z" fill="white"/>
<path fill-rule="evenodd" clip-rule="evenodd" d="M15.6458 14.946C15.499 15.6025 14.9518 16.0736 14.3117 16.095H12.572C12.0979 16.1152 11.6979 15.727 11.6787 15.2278C11.6749 15.1328 11.6856 15.0376 11.7102 14.946L12.0784 13.0918C12.2262 12.4359 12.7724 11.9653 13.4125 11.9431H15.1682C15.6439 11.9232 16.0447 12.3131 16.0634 12.8137C16.0668 12.9075 16.0564 13.0014 16.0327 13.0918L15.6458 14.946Z" fill="white"/>
<path fill-rule="evenodd" clip-rule="evenodd" d="M20.9555 14.946C20.8093 15.5969 20.2698 16.0664 19.6347 16.095H17.8737C17.3996 16.1153 16.9996 15.727 16.9804 15.2278C16.9767 15.1328 16.9873 15.0376 17.0119 14.946L17.3801 13.0919C17.5271 12.4412 18.0664 11.9724 18.7009 11.9432H20.4619C20.936 11.9227 21.336 12.3109 21.3552 12.8101C21.3589 12.9051 21.3483 13.0003 21.3237 13.0919L20.9555 14.946Z" fill="white"/>
<path fill-rule="evenodd" clip-rule="evenodd" d="M26.2599 14.946C26.1131 15.6026 25.5661 16.0737 24.9258 16.095H23.1674C22.6933 16.1153 22.2933 15.727 22.2741 15.2278C22.2706 15.1328 22.281 15.0376 22.3056 14.946L22.6738 13.0919C22.8216 12.4359 23.3681 11.9654 24.0079 11.9432H25.7662C26.2404 11.9227 26.6403 12.3109 26.6596 12.8101C26.6633 12.9051 26.6526 13.0003 26.6281 13.0919L26.2599 14.946Z" fill="white"/>
<path fill-rule="evenodd" clip-rule="evenodd" d="M14.5332 20.5304C14.3878 21.1819 13.8477 21.6519 13.2124 21.6794H11.4567C10.981 21.6991 10.5805 21.3091 10.5615 20.8085C10.5581 20.7147 10.5685 20.6208 10.5922 20.5304L10.9604 18.6791C11.1091 18.0236 11.655 17.5534 12.2945 17.5301H14.0502C14.5244 17.5098 14.9243 17.8981 14.9435 18.3973C14.947 18.4922 14.9366 18.5875 14.9121 18.6791L14.5332 20.5304Z" fill="white"/>
<path fill-rule="evenodd" clip-rule="evenodd" d="M19.8403 20.5303C19.6951 21.181 19.1564 21.6504 18.5222 21.6794H16.7611C16.287 21.6996 15.887 21.3113 15.8678 20.8121C15.8641 20.7172 15.8748 20.6219 15.8993 20.5303L16.2675 18.679C16.4143 18.0225 16.9613 17.5514 17.6016 17.53H19.36C19.8355 17.5103 20.2362 17.9003 20.2552 18.4012C20.2586 18.4947 20.2482 18.5886 20.2245 18.679L19.8403 20.5303Z" fill="white"/>
<path fill-rule="evenodd" clip-rule="evenodd" d="M6.20294 9.36047C6.05673 10.0114 5.51721 10.4808 4.88218 10.5095H3.12116C2.64702 10.5297 2.24705 10.1415 2.22784 9.64224C2.2241 9.54729 2.23478 9.45205 2.25932 9.36047L2.62754 7.50914C2.77616 6.85373 3.32207 6.38345 3.96164 6.36013H5.72267C6.19681 6.3399 6.59677 6.72815 6.61598 7.22736C6.61972 7.32232 6.60905 7.41755 6.5845 7.50914L6.20294 9.36047Z" fill="white"/>
<path fill-rule="evenodd" clip-rule="evenodd" d="M17.7803 4.08494C17.6336 4.74147 17.0863 5.21259 16.4462 5.23394H14.7065C14.2324 5.25417 13.8324 4.86592 13.8132 4.36671C13.8095 4.27175 13.8202 4.17652 13.8447 4.08494L14.2129 2.23079C14.3621 1.57594 14.9077 1.10595 15.547 1.08179H17.3054C17.7809 1.06184 18.1816 1.45177 18.2006 1.95267C18.204 2.0465 18.1936 2.14033 18.1699 2.23079L17.7803 4.08494Z" fill="white"/>
<path fill-rule="evenodd" clip-rule="evenodd" d="M10.3947 14.946C10.2471 15.602 9.70039 16.0728 9.06056 16.095H7.31555C6.84007 16.1147 6.4393 15.7248 6.42036 15.2241C6.41689 15.1303 6.4273 15.0365 6.45104 14.946L6.82193 13.0919C6.96975 12.4359 7.51619 11.9654 8.15603 11.9432H9.90371C10.3779 11.9227 10.7778 12.3109 10.797 12.8101C10.8008 12.9051 10.7901 13.0003 10.7655 13.0919L10.3947 14.946Z" fill="white"/>
<path fill-rule="evenodd" clip-rule="evenodd" d="M3.97496 20.5304C3.8282 21.1869 3.28122 21.658 2.64085 21.6794H0.895837C0.420361 21.6991 0.0195957 21.3091 0.000651423 20.8085C-0.00281725 20.7147 0.00758878 20.6208 0.0313359 20.5304L0.402218 18.6791C0.549236 18.0225 1.09595 17.5514 1.73632 17.5301H3.49468C3.96882 17.5098 4.36878 17.8981 4.38799 18.3973C4.39173 18.4922 4.38106 18.5875 4.35651 18.6791L3.97496 20.5304Z" fill="white"/>
<path fill-rule="evenodd" clip-rule="evenodd" d="M9.28206 20.5303C9.13344 21.1858 8.58752 21.656 7.94795 21.6794H6.1896C5.71386 21.699 5.31309 21.3091 5.29441 20.8085C5.29094 20.7146 5.30135 20.6208 5.3251 20.5303L5.69331 18.679C5.84166 18.0236 6.38785 17.5533 7.02742 17.53H8.78577C9.26125 17.5103 9.66201 17.9003 9.68096 18.4012C9.68443 18.4947 9.67402 18.5886 9.65027 18.679L9.28206 20.5303Z" fill="white"/>
<path fill-rule="evenodd" clip-rule="evenodd" d="M7.70783 26.2618C7.56108 26.9184 7.01383 27.3895 6.37373 27.4108H4.61537C4.14097 27.4232 3.74687 27.0285 3.73513 26.529C3.733 26.4388 3.74367 26.3489 3.76688 26.2618L4.1351 24.4105C4.28185 23.754 4.82883 23.2828 5.4692 23.2615H7.22756C7.7017 23.2413 8.10166 23.6295 8.12087 24.1285C8.12461 24.2237 8.11394 24.3189 8.08939 24.4105L7.70783 26.2618Z" fill="white"/>
</g>
<defs>
<clipPath id="clip0_1_523">
<rect width="115" height="28" fill="white"/>
</clipPath>
</defs>
</svg>
