<svg width="114" height="12" viewBox="0 0 114 12" fill="none" xmlns="http://www.w3.org/2000/svg">
<g clip-path="url(#clip0_1_643)">
<path fill-rule="evenodd" clip-rule="evenodd" d="M113.848 1.0402L110.124 7.7642V11.2002C110.124 11.6402 109.972 11.9602 109.554 11.9602H108.262C107.844 11.9602 107.692 11.7202 107.692 11.2002V7.7362L104.12 1.0402C103.892 0.600195 103.968 0.200195 104.424 0.200195H105.716C106.286 0.200195 106.514 0.520195 106.742 0.960195L109.06 5.5202L111.302 0.960195C111.53 0.520195 111.796 0.200195 112.252 0.200195H113.544C114.038 0.200195 114.114 0.640195 113.848 1.0402Z" fill="white"/>
<path fill-rule="evenodd" clip-rule="evenodd" d="M103.474 0.800195V1.8002C103.474 2.2402 103.246 2.4002 102.752 2.4002H100.206V11.2002C100.206 11.6402 100.054 11.9602 99.6359 11.9602H98.3439C97.9259 11.9602 97.7739 11.6402 97.7739 11.2002V2.4002H94.8859C94.3923 2.4002 94.1639 2.2402 94.1639 1.8002V0.800195C94.1639 0.360195 94.4679 0.200195 94.8859 0.200195H102.752C103.17 0.200195 103.474 0.360195 103.474 0.800195Z" fill="white"/>
<path fill-rule="evenodd" clip-rule="evenodd" d="M93.1761 0.960195V11.1602C93.1761 11.6002 93.0241 11.9202 92.6061 11.9202H91.3141C90.8961 11.9202 90.7441 11.6002 90.7441 11.1602V0.960195C90.7441 0.520195 90.8961 0.200195 91.3141 0.200195H92.6061C92.9861 0.200195 93.1761 0.520195 93.1761 0.960195Z" fill="white"/>
<path fill-rule="evenodd" clip-rule="evenodd" d="M83.7139 5.32016V6.84016C83.7139 8.28016 84.2079 9.72016 85.6523 9.72016H88.4639C88.8823 9.72016 89.1859 9.88016 89.1859 10.3202V11.3202C89.1859 11.7606 88.9579 11.9202 88.4639 11.9202H85.6523C82.9159 11.9202 81.3199 9.80016 81.3199 6.96056V5.12016C81.3199 2.24016 82.9159 0.160156 85.6523 0.160156H88.5399C88.9579 0.160156 89.2623 0.320156 89.2623 0.760156V1.76016C89.2623 2.20016 89.0339 2.36016 88.5399 2.36016H85.6523C84.2079 2.36016 83.7139 3.80016 83.7139 5.32016Z" fill="white"/>
<path fill-rule="evenodd" clip-rule="evenodd" d="M63.0039 5.20004V6.72004C63.0039 8.20004 63.4979 9.60004 64.9423 9.60004H67.7539C68.1723 9.60004 68.4759 9.76004 68.4759 10.2V11.2C68.4759 11.64 68.2479 11.8 67.7539 11.8H64.9423C62.2059 11.8 60.6099 9.68004 60.6099 6.84004V5.00004C60.6099 2.12004 62.2059 0.0400391 64.9423 0.0400391H67.8299C68.2479 0.0400391 68.5523 0.200039 68.5523 0.640039V1.64004C68.5523 2.08004 68.3239 2.24004 67.8299 2.24004H64.9423C63.4979 2.24004 63.0039 3.68004 63.0039 5.20004Z" fill="white"/>
<path fill-rule="evenodd" clip-rule="evenodd" d="M50.6161 0.64V1.64C50.6161 2.08 50.3881 2.24 49.8941 2.24H46.9301V11.08C46.9301 11.52 46.7781 11.84 46.3601 11.84H45.0681C44.6501 11.84 44.4981 11.52 44.4981 11.08V2.2H42.4081C41.9141 2.2 41.6861 2.04 41.6861 1.6V0.6C41.6861 0.16 41.9901 0 42.4081 0H49.8941V0.04C50.3121 0.04 50.6161 0.2 50.6161 0.64Z" fill="white"/>
<path fill-rule="evenodd" clip-rule="evenodd" d="M79.4961 0.880117V11.0801C79.4961 11.5201 79.3441 11.8397 78.9261 11.8397H77.6341C77.2161 11.8397 77.0641 11.5201 77.0641 11.0801V7.00012H72.2761V11.0801C72.2761 11.5201 72.1241 11.8397 71.7061 11.8397H70.4141C69.9961 11.8397 69.8441 11.5201 69.8441 11.0801V0.880117C69.8441 0.440117 69.9961 0.120117 70.4141 0.120117H71.7061C72.1241 0.120117 72.2761 0.440117 72.2761 0.880117V4.80012H77.0641V0.880117C77.0641 0.440117 77.2161 0.120117 77.6341 0.120117H78.9261C79.3061 0.120117 79.4961 0.440117 79.4961 0.880117Z" fill="white"/>
<path fill-rule="evenodd" clip-rule="evenodd" d="M54.2261 2.24004V4.72004H57.9877C58.4061 4.72004 58.7101 4.88004 58.7101 5.32004V6.32004C58.7101 6.76004 58.4821 6.92004 57.9877 6.92004H54.2261V9.60004H58.8621C59.3561 9.60004 59.5841 9.76004 59.5841 10.2V11.2C59.5841 11.64 59.2801 11.8 58.8621 11.8H52.6301C52.0601 11.8 51.8321 11.56 51.8321 11.04V0.800039C51.8321 0.280039 52.0601 0.0400391 52.6301 0.0400391H58.8621C59.2801 0.0400391 59.5841 0.200039 59.5841 0.640039V1.64004C59.5841 2.08004 59.3561 2.24004 58.8621 2.24004H54.2261Z" fill="white"/>
<path fill-rule="evenodd" clip-rule="evenodd" d="M26.068 11.8H20.862C20.292 11.8 20.064 11.56 20.064 11.04V0.800039C20.064 0.360039 20.216 0.0400391 20.634 0.0400391H21.926C22.344 0.0400391 22.496 0.360039 22.496 0.800039V9.60004H26.106C26.6 9.60004 26.828 9.76004 26.828 10.2V11.2C26.79 11.64 26.486 11.8 26.068 11.8Z" fill="white"/>
<path fill-rule="evenodd" clip-rule="evenodd" d="M30.4 11.04C30.4 11.4804 30.248 11.8 29.83 11.8H28.538C28.12 11.8 27.968 11.4804 27.968 11.04V0.800039C27.968 0.360039 28.12 0.0400391 28.538 0.0400391H29.83C30.21 0.0400391 30.4 0.360039 30.4 0.800039V11.04Z" fill="white"/>
<path fill-rule="evenodd" clip-rule="evenodd" d="M39.748 0.04C40.166 0.04 40.47 0.2 40.47 0.64V1.64C40.47 2.08 40.242 2.24 39.748 2.24H37.582V11.08C37.582 11.52 37.43 11.84 37.012 11.84H35.72C35.302 11.84 35.15 11.52 35.15 11.08V2.2H32.3C31.806 2.2 31.578 2.04 31.578 1.6V0.6C31.578 0.16 31.882 0 32.3 0H39.748V0.04Z" fill="white"/>
<path fill-rule="evenodd" clip-rule="evenodd" d="M6.08 8.60004C6.08 8.08004 5.586 7.68004 4.56 7.24004C2.736 6.52004 0 5.56004 0 3.48004C0 1.56004 1.102 0.0400391 3.762 0.0400391H7.106C7.524 0.0400391 7.828 0.200039 7.828 0.640039V1.64004C7.828 2.08004 7.524 2.24004 7.106 2.24004H3.914C3.192 2.20004 2.318 2.40004 2.318 3.12004C2.318 3.72004 2.888 4.04004 3.686 4.40004C5.7 5.24004 8.398 6.24004 8.398 8.36004C8.398 10.64 6.954 11.8 4.636 11.8H0.874C0.456 11.8 0.152 11.64 0.152 11.2V10.2C0.152 9.76004 0.456 9.60004 0.874 9.60004H4.484C5.206 9.60004 6.08 9.36004 6.08 8.60004Z" fill="white"/>
<path fill-rule="evenodd" clip-rule="evenodd" d="M16.302 4.16004C16.302 5.16004 15.428 5.52004 14.478 5.76004L12.312 6.28004V2.20004H14.478C15.428 2.20004 16.302 2.52004 16.302 3.56004V4.16004ZM14.326 0.0400391H10.716C10.222 0.0400391 9.91797 0.360039 9.91797 1.04004V11.04C9.91797 11.48 10.07 11.8 10.488 11.8H11.78C12.198 11.8 12.35 11.48 12.35 11.04V8.36004L14.592 7.84004C16.758 7.32004 18.848 6.56004 18.848 4.24004V3.24004C18.81 0.800039 16.644 0.0400391 14.326 0.0400391Z" fill="white"/>
</g>
<defs>
<clipPath id="clip0_1_643">
<rect width="114" height="12" fill="white"/>
</clipPath>
</defs>
</svg>
