<svg width="70" height="34" viewBox="0 0 70 34" fill="none" xmlns="http://www.w3.org/2000/svg">
<g clip-path="url(#clip0_1_695)">
<path fill-rule="evenodd" clip-rule="evenodd" d="M35.3446 5.85685H9.56308V13.1672H34.1169C37.9508 13.1672 40.5785 13.7337 41.9031 14.8452C43.2277 15.9567 43.9277 18.0515 43.9277 21.1296V25.7894C43.9277 28.8568 43.26 30.9943 41.8708 32.0631C40.4815 33.1318 37.9185 33.7624 34.0846 33.7624H9.82154C5.98015 33.7838 3.38154 33.2173 2.02462 32.0631C0.678462 30.9195 0 28.8568 0 25.7573V24.8275L8.07692 23.374V27.3819H35.8615V19.6867H11.3508C7.53092 19.6867 4.95062 19.1171 3.60769 17.9767C2.27231 16.8438 1.59385 14.7704 1.59385 11.671V7.97301C1.59385 4.90565 2.27231 2.80017 3.60769 1.66728C4.94308 0.534384 7.52769 0 11.3508 0H33.6646C37.3628 0 39.9108 0.541866 41.3118 1.62453C42.7108 2.70719 43.428 4.63846 43.4657 7.41725V8.12264L35.3985 9.74717L35.3446 5.85685Z" fill="white"/>
<path fill-rule="evenodd" clip-rule="evenodd" d="M49.0759 15.8814V14.1606L61.901 2.9172H50.3564V0.0849609H68.7944V1.65605L55.7518 12.8995H68.7944V15.8814H49.0759Z" fill="white"/>
<path fill-rule="evenodd" clip-rule="evenodd" d="M61.3197 20.7346V33.6987H57.012V20.7346H48.6227V17.9023H69.7746V20.7346H61.3197Z" fill="white"/>
</g>
<defs>
<clipPath id="clip0_1_695">
<rect width="70" height="34" fill="white"/>
</clipPath>
</defs>
</svg>
