<svg width="49" height="56" viewBox="0 0 49 56" fill="none" xmlns="http://www.w3.org/2000/svg">
<path fill-rule="evenodd" clip-rule="evenodd" d="M0 0V3.31513H1.65223V1.64314H3.31513V0H0Z" fill="white"/>
<path fill-rule="evenodd" clip-rule="evenodd" d="M48.5801 55.2526C47.6932 55.2468 46.8063 55.2409 45.9196 55.2353C45.768 55.2344 45.6164 55.2353 45.4427 55.2353V53.6638H47.0325V52.0205H48.5801V55.2526Z" fill="white"/>
<path fill-rule="evenodd" clip-rule="evenodd" d="M48.58 3.37757H47.0402V1.74856H45.4023V0.145508H48.58V3.37757Z" fill="white"/>
<mask id="mask0_1_704" style="mask-type:alpha" maskUnits="userSpaceOnUse" x="19" y="0" width="4" height="2">
<path d="M19.4417 0.145508H22.6743V1.75796H19.4417V0.145508Z" fill="white"/>
</mask>
<g mask="url(#mask0_1_704)">
<path fill-rule="evenodd" clip-rule="evenodd" d="M19.45 1.75802C19.4476 1.22051 19.4454 0.683011 19.4428 0.145508H22.6743V1.7493H19.4417L19.45 1.75802Z" fill="white"/>
</g>
<mask id="mask1_1_704" style="mask-type:alpha" maskUnits="userSpaceOnUse" x="0" y="0" width="49" height="56">
<path d="M3.05176e-05 55.2523H48.58V0.145508H3.05176e-05V55.2523Z" fill="white"/>
</mask>
<g mask="url(#mask1_1_704)">
<path fill-rule="evenodd" clip-rule="evenodd" d="M32.4227 1.72075H35.654V0.145508H32.4227V1.72075Z" fill="white"/>
<path fill-rule="evenodd" clip-rule="evenodd" d="M29.1373 0.145508C29.1412 0.611628 29.1513 1.07775 29.142 1.5435C29.1409 1.6108 29.047 1.73336 28.9946 1.7341C28.0014 1.7456 27.0078 1.74244 25.9597 1.74244V0.145508H29.1373Z" fill="white"/>
<path fill-rule="evenodd" clip-rule="evenodd" d="M38.9394 1.72168H42.117V0.145508H38.9394V1.72168Z" fill="white"/>
<path fill-rule="evenodd" clip-rule="evenodd" d="M16.1575 0.145508C16.1621 0.611628 16.1729 1.07775 16.1643 1.54368C16.163 1.6108 16.0686 1.73336 16.0161 1.7341C15.0225 1.74541 14.0287 1.74244 12.98 1.74244V0.145508H16.1575Z" fill="white"/>
<path fill-rule="evenodd" clip-rule="evenodd" d="M6.51691 1.72168H9.69459V0.145508H6.51691V1.72168Z" fill="white"/>
<path fill-rule="evenodd" clip-rule="evenodd" d="M48.5801 22.8236H47.0296V19.5908L47.0208 19.5993L48.5801 19.5916V22.8236Z" fill="white"/>
<path fill-rule="evenodd" clip-rule="evenodd" d="M48.58 42.2701H47.031V39.054L48.58 39.0381V42.2701Z" fill="white"/>
<path fill-rule="evenodd" clip-rule="evenodd" d="M48.58 35.8063C48.0619 35.8035 47.544 35.8007 47.026 35.7981V32.5742H48.58V35.8063Z" fill="white"/>
<path fill-rule="evenodd" clip-rule="evenodd" d="M47.0581 9.84217H48.58V6.66406H47.0581V9.84217Z" fill="white"/>
<path fill-rule="evenodd" clip-rule="evenodd" d="M48.58 16.3062C48.132 16.3097 47.6838 16.3198 47.2362 16.3099C47.1689 16.3085 47.0462 16.215 47.0456 16.1631C47.0343 15.1697 47.0373 14.1762 47.0373 13.1279H48.58V16.3062Z" fill="white"/>
<path fill-rule="evenodd" clip-rule="evenodd" d="M47.0579 29.2877H48.58V26.1094H47.0579V29.2877Z" fill="white"/>
<path fill-rule="evenodd" clip-rule="evenodd" d="M47.0581 48.734H48.58V45.5557H47.0581V48.734Z" fill="white"/>
<path fill-rule="evenodd" clip-rule="evenodd" d="M13.2396 42.3611C13.0657 42.3611 12.9039 42.3467 12.7471 42.3687C12.6884 42.3767 12.5983 42.469 12.5968 42.525C12.5847 42.9817 12.5856 43.4387 12.5962 43.8956C12.5975 43.9503 12.6764 44.043 12.7276 44.0495C12.8887 44.0697 13.0537 44.0569 13.2689 44.0569C13.0754 43.6169 12.9087 43.2381 12.7506 42.879C12.9304 42.698 13.3614 42.8375 13.2396 42.3611ZM35.3576 44.0595C35.5602 44.0595 35.7131 44.081 35.8545 44.0506C35.9273 44.035 36.0308 43.9286 36.0333 43.86C36.0494 43.4219 36.0468 42.9828 36.0351 42.5443C36.0334 42.4824 35.9538 42.3776 35.9002 42.3706C35.7291 42.348 35.5528 42.3622 35.3915 42.3622C35.2588 42.8517 35.7447 42.6823 35.8725 42.8903C35.7092 43.2609 35.5452 43.6332 35.3576 44.0595ZM12.6938 47.3618C12.6938 47.5769 12.7024 47.7925 12.6914 48.0072C12.6793 48.2412 12.8384 48.2093 12.9789 48.2075C13.1151 48.2056 13.2756 48.2512 13.2697 48.0122C13.2593 47.6001 13.2589 47.1872 13.27 46.775C13.2764 46.5423 13.1257 46.5701 12.9837 46.5718C12.8453 46.5735 12.681 46.5353 12.692 46.77C12.7011 46.9669 12.6938 47.1645 12.6938 47.3618ZM35.9382 47.388C35.9382 47.1727 35.9386 46.9576 35.9381 46.7424C35.9371 46.5219 35.7686 46.5751 35.6458 46.5736C35.5209 46.5722 35.3594 46.5275 35.3613 46.749C35.3648 47.1794 35.3631 47.6097 35.362 48.0401C35.3616 48.2663 35.5322 48.2034 35.6523 48.2054C35.776 48.2077 35.941 48.2553 35.9386 48.0334C35.9366 47.8183 35.9384 47.603 35.9382 47.388ZM35.8679 38.8345C35.8679 38.5651 35.8746 38.2957 35.8629 38.027C35.8603 37.963 35.8054 37.8585 35.7592 37.8494C35.6853 37.8345 35.5611 37.8586 35.5255 37.9115C35.4489 38.0251 35.3763 38.166 35.3706 38.2988C35.3514 38.7288 35.3689 39.16 35.3603 39.5907C35.3572 39.7595 35.4262 39.8088 35.5838 39.806C35.7404 39.803 35.8742 39.8006 35.8692 39.5881C35.8635 39.3369 35.8679 39.0857 35.8679 38.8345ZM12.7608 37.8714C12.7608 38.461 12.7532 39.0579 12.7649 39.6541C12.7694 39.865 12.9564 39.7884 13.0772 39.8016C13.212 39.8162 13.2699 39.7559 13.2682 39.6154C13.2632 39.1684 13.2756 38.7208 13.2632 38.274C13.2543 37.9599 13.0761 37.8167 12.7608 37.8714ZM12.7851 37.3834C12.6643 37.1596 12.6508 36.8951 12.3871 36.8825C11.9051 36.8597 11.4209 36.87 10.9382 36.8838C10.8761 36.8854 10.7744 36.9828 10.7632 37.048C10.7126 37.3464 10.7528 37.3821 11.0631 37.3832C11.2959 37.3842 11.5284 37.3834 11.7611 37.3834H12.7851ZM35.8661 37.3832C36.4725 37.3832 37.0536 37.3773 37.6346 37.3868C37.823 37.3899 37.8814 37.3258 37.8829 37.1394C37.8848 36.9436 37.8263 36.865 37.6231 36.8715C37.2471 36.8832 36.8708 36.8745 36.4946 36.8745C36.0548 36.8745 36.0234 36.8982 35.8661 37.3832ZM11.4311 45.3299C11.4311 45.1145 11.4469 44.8975 11.4226 44.6849C11.4143 44.6128 11.3165 44.5238 11.2396 44.4937C11.1537 44.4603 11.036 44.4607 10.9492 44.4926C10.8725 44.5208 10.7664 44.6105 10.7638 44.6767C10.7473 45.1067 10.7486 45.5378 10.7632 45.9679C10.7655 46.0311 10.8588 46.117 10.929 46.1453C11.0062 46.1767 11.1058 46.1494 11.1951 46.155C11.3638 46.1659 11.443 46.1005 11.4339 45.9217C11.4237 45.725 11.4315 45.5272 11.4311 45.3299ZM37.8772 45.3392C37.8772 45.1239 37.8707 44.9083 37.8792 44.6932C37.8857 44.5397 37.8172 44.4809 37.6732 44.4843C37.5836 44.4863 37.4938 44.4863 37.4041 44.4843C37.2599 44.4807 37.1957 44.5403 37.1983 44.6932C37.2054 45.115 37.1926 45.5372 37.2095 45.9583C37.2122 46.0256 37.3167 46.1131 37.3936 46.1461C37.4695 46.1785 37.5702 46.1498 37.6597 46.1548C37.8204 46.1637 37.8866 46.094 37.8792 45.9314C37.8707 45.7345 37.8774 45.5366 37.8772 45.3392ZM37.8774 49.5714C37.8774 49.3298 37.8685 49.0878 37.8796 48.8468C37.8913 48.5992 37.7206 48.6278 37.573 48.6335C37.4362 48.6389 37.2488 48.5714 37.2518 48.8292C37.2573 49.3299 37.2592 49.8313 37.2512 50.3321C37.2468 50.5952 37.4331 50.5206 37.5686 50.5244C37.7105 50.5284 37.8898 50.5781 37.8792 50.3228C37.869 50.0727 37.8772 49.8218 37.8774 49.5714ZM11.3794 49.5843C11.3794 49.3426 11.3679 49.1004 11.3825 48.8597C11.3968 48.6215 11.2459 48.6228 11.0878 48.6326C10.9425 48.6417 10.7475 48.5677 10.7527 48.8431C10.7618 49.335 10.7631 49.8274 10.7523 50.3193C10.746 50.5994 10.9412 50.5164 11.0848 50.5257C11.2387 50.5355 11.3972 50.5542 11.3823 50.3087C11.3679 50.0681 11.3794 49.8257 11.3794 49.5843ZM37.1456 41.9098C37.3225 41.9098 37.4643 41.8991 37.6038 41.9124C37.8087 41.9319 37.8939 41.8657 37.8818 41.6462C37.8647 41.3341 37.8777 41.0208 37.8777 40.7078C37.8777 40.1998 37.8148 40.1429 37.3082 40.2306C37.2468 40.2412 37.1542 40.3324 37.1527 40.3882C37.1406 40.8786 37.1456 41.3694 37.1456 41.9098ZM11.4881 41.0644V40.7156C11.4881 40.1954 11.4402 40.1486 10.928 40.2311C10.8627 40.2415 10.7653 40.3446 10.7632 40.4071C10.7491 40.8538 10.7525 41.3011 10.7605 41.748C10.7614 41.801 10.8148 41.8857 10.8614 41.9006C11.2981 42.0383 11.4881 41.8948 11.4881 41.4398V41.0644ZM26.2983 5.79144H25.8859C25.0193 5.79126 25.0193 5.79126 25.0898 6.66732C25.0906 6.67622 25.0868 6.68901 25.0915 6.69365C25.1512 6.75372 25.2088 6.85959 25.2728 6.86385C25.5582 6.88258 25.846 6.88072 26.1318 6.86515C26.1897 6.86218 26.2881 6.77096 26.2909 6.71627C26.3068 6.42276 26.2983 6.12815 26.2983 5.79144ZM30.1283 28.6707C30.1051 28.6547 30.0819 28.6389 30.0587 28.6232C29.8223 28.9742 29.5693 29.2786 29.1048 28.9545V30.5157C29.1508 30.5236 29.1703 30.5335 29.185 30.5286C29.4571 30.4413 29.7291 30.3538 30.0001 30.2631C30.2771 30.1704 30.4683 29.6776 30.2653 29.4664C30.1109 29.3055 30.1387 29.1531 30.1294 28.9844C30.1237 28.8802 30.1283 28.7752 30.1283 28.6707ZM13.7882 29.0189V30.5969C14.1638 30.4808 14.5125 30.3744 14.8597 30.2635C14.8993 30.2509 14.9601 30.2142 14.9611 30.1869C14.9687 29.9466 15.047 29.658 14.9421 29.4785C14.8352 29.2955 14.8373 29.1364 14.8226 28.9588C14.8141 28.8579 14.8117 28.7565 14.8022 28.5729C14.6142 28.7745 14.5066 28.9714 14.3449 29.0392C14.1926 29.1034 13.9832 29.0315 13.7882 29.0189ZM33.8809 28.6299C33.857 28.6404 33.8328 28.6508 33.8089 28.6612C33.8089 28.7724 33.8124 28.8841 33.808 28.9951C33.8028 29.1186 33.8382 29.2894 33.772 29.3567C33.5328 29.5997 33.6912 29.8806 33.656 30.1395C33.6512 30.1743 33.7066 30.2413 33.7469 30.2544C34.1058 30.3718 34.4675 30.4806 34.84 30.5954V29.0487C34.6336 29.0487 34.4261 29.103 34.2756 29.0337C34.1157 28.9604 34.0101 28.7695 33.8809 28.6299ZM19.5174 30.5605V29.0209C19.3038 29.0324 19.096 29.0999 18.9427 29.0361C18.7851 28.9706 18.6806 28.7769 18.4997 28.5818C18.4904 28.7745 18.4869 28.8791 18.48 28.9836C18.4717 29.1077 18.5086 29.2834 18.4412 29.3459C18.2352 29.5376 18.3215 29.7644 18.321 29.975C18.3206 30.0536 18.4093 30.174 18.486 30.2044C18.8083 30.3323 19.1414 30.4335 19.5174 30.5605ZM37.5279 39.7975C37.5381 39.7747 37.5481 39.752 37.5582 39.7294C37.4837 39.6486 37.4181 39.5564 37.3327 39.4895C37.1623 39.3562 37.1067 39.1947 37.113 38.9781C37.1276 38.4729 37.1169 38.4655 37.638 38.4505C37.826 38.4449 37.8959 38.375 37.8792 38.1924C37.8694 38.0813 37.8776 37.9686 37.8776 37.8356C37.3757 37.8356 36.92 37.8293 36.4647 37.8434C36.405 37.8453 36.2992 37.9508 36.2979 38.0103C36.2849 38.5476 36.2864 39.0853 36.296 39.6224C36.297 39.6814 36.3719 39.7882 36.4159 39.7897C36.7862 39.8032 37.1571 39.7975 37.5279 39.7975ZM11.0225 39.7977C11.466 39.7977 11.8383 39.8034 12.2096 39.7899C12.2546 39.7884 12.3316 39.6823 12.3327 39.6236C12.3425 39.0855 12.3423 38.5471 12.3332 38.0088C12.3323 37.9513 12.2568 37.8466 12.2139 37.8457C11.734 37.8338 11.2537 37.8381 10.7798 37.8381C10.7103 38.4379 10.7103 38.4379 11.2431 38.4475C11.2611 38.4479 11.2793 38.4494 11.297 38.4477C11.4573 38.4317 11.507 38.4998 11.5178 38.6631C11.5425 39.0445 11.5208 39.3953 11.158 39.628C11.1236 39.6501 11.1034 39.6946 11.0225 39.7977ZM35.3644 41.8895H36.6926C36.6926 41.3688 36.6976 40.8682 36.6846 40.368C36.6832 40.3183 36.5724 40.2328 36.5093 40.2302C36.1867 40.2161 35.8631 40.2161 35.5407 40.2306C35.48 40.2334 35.3735 40.3229 35.3722 40.3745C35.3592 40.8741 35.3644 41.3746 35.3644 41.8895ZM13.2662 41.8983C13.2662 41.3762 13.2702 40.8842 13.2602 40.3924C13.2591 40.3368 13.1804 40.2365 13.1351 40.235C12.7443 40.2224 12.3531 40.2278 11.9643 40.2278V41.8983H13.2662ZM10.7547 42.376C10.7547 42.6878 10.7508 42.965 10.756 43.242C10.761 43.4997 10.6777 43.8661 10.8115 43.9863C10.9657 44.1246 11.315 44.0556 11.5798 44.0587C12.1447 44.0654 12.1447 44.0608 12.1447 43.4931V42.376H10.7547ZM36.7483 44.4933C36.3087 44.4933 35.8915 44.4885 35.4748 44.5011C35.4355 44.5024 35.3681 44.6127 35.3668 44.6734C35.3576 45.1028 35.3552 45.5328 35.3693 45.9618C35.3713 46.0269 35.4682 46.1409 35.5253 46.1435C35.8824 46.16 36.2407 46.1574 36.5984 46.1448C36.6498 46.1429 36.7405 46.0549 36.7416 46.0052C36.7524 45.5146 36.7483 45.0234 36.7483 44.4933ZM13.2669 45.3164C13.2669 45.11 13.2604 44.9031 13.2691 44.6971C13.2756 44.5493 13.2225 44.482 13.0715 44.4837C12.7395 44.4872 12.4073 44.4874 12.0753 44.4828C11.9291 44.4809 11.8621 44.5404 11.8632 44.6891C11.8665 45.1109 11.8565 45.5331 11.8737 45.9544C11.8763 46.023 11.9881 46.1405 12.0547 46.1444C12.3945 46.1637 12.7367 46.1631 13.0769 46.1446C13.1431 46.1409 13.2502 46.0313 13.2582 45.9616C13.2821 45.7489 13.2667 45.5318 13.2669 45.3164ZM37.8761 42.3608C37.434 42.3608 37.0404 42.3519 36.6479 42.3695C36.5837 42.3724 36.4742 42.4896 36.4716 42.5573C36.4553 42.9869 36.4638 43.417 36.4623 43.8472C36.4619 43.9855 36.5091 44.0647 36.6652 44.0619C37.0055 44.056 37.3462 44.0684 37.686 44.0523C37.7517 44.0491 37.866 43.9523 37.8677 43.896C37.882 43.397 37.8761 42.8975 37.8761 42.3608ZM12.2431 47.3902C12.2431 47.1931 12.2367 46.9958 12.2451 46.7991C12.2514 46.6452 12.2061 46.566 12.0361 46.5694C11.678 46.5764 11.3196 46.5744 10.9616 46.5703C10.8167 46.5685 10.7508 46.6204 10.7532 46.7739C10.7595 47.1857 10.7471 47.5982 10.7634 48.0095C10.7662 48.0777 10.8735 48.1954 10.9368 48.1984C11.312 48.2166 11.6885 48.2045 12.0645 48.2088C12.2104 48.2104 12.2471 48.1368 12.2442 48.0082C12.2392 47.8024 12.2427 47.5962 12.2431 47.3902ZM37.8774 47.3891C37.8774 47.1922 37.8714 46.9949 37.8792 46.7982C37.8855 46.6421 37.8325 46.5668 37.666 46.5698C37.308 46.5757 36.9498 46.5753 36.5919 46.5699C36.4434 46.5677 36.3855 46.6243 36.3879 46.7754C36.3946 47.1872 36.395 47.5991 36.3879 48.0109C36.3853 48.1667 36.4508 48.2123 36.5956 48.2099C36.9446 48.2041 37.2941 48.2025 37.643 48.2106C37.8133 48.2147 37.8894 48.1585 37.8796 47.98C37.869 47.7834 37.8774 47.5862 37.8774 47.3891ZM11.8285 48.6347V49.9885C11.8285 50.5273 11.8285 50.5329 12.3618 50.5236C12.5049 50.521 12.7079 50.5234 12.7784 50.4376C12.9713 50.2019 13.1628 49.9375 13.2506 49.6524C13.3285 49.3991 13.2769 49.1021 13.2595 48.826C13.2554 48.7593 13.1622 48.6454 13.1066 48.6432C12.6975 48.6274 12.2876 48.6347 11.8285 48.6347ZM36.8027 49.5953C36.8027 49.3537 36.794 49.1115 36.8055 48.8705C36.8138 48.6981 36.7541 48.6202 36.5789 48.6304C36.4718 48.6367 36.3638 48.6272 36.2567 48.6313C35.9726 48.6419 35.5693 48.549 35.4359 48.6973C35.2848 48.8653 35.3702 49.251 35.3642 49.5421C35.3622 49.6457 35.368 49.764 35.4149 49.8515C35.6625 50.3128 35.9715 50.6844 36.5811 50.5271C36.5896 50.5251 36.5991 50.5258 36.608 50.5268C36.7644 50.5442 36.8088 50.4648 36.8043 50.3202C36.7971 50.0788 36.8025 49.8369 36.8027 49.5953ZM20.0393 42.6007C20.0647 42.6148 20.0903 42.629 20.1159 42.6433C20.7658 41.501 21.7145 40.7249 22.935 40.2714H20.0393V42.6007ZM25.6913 40.2753C26.9235 40.7217 27.859 41.5162 28.5223 42.6496L28.5874 42.6038V40.2753H25.6913ZM19.8578 43.0262C17.6655 42.1946 15.5146 42.2749 13.3428 43.13C13.4269 43.3125 13.4992 43.4697 13.5714 43.6258C14.1748 43.4054 14.7302 43.1145 15.3185 43.0123C15.9192 42.9079 16.5539 43.0186 17.1706 42.9808C17.9318 42.9339 18.6402 43.0631 19.3225 43.4042C19.6889 43.5874 19.7011 43.5635 19.8338 43.1649C19.845 43.1317 19.8463 43.095 19.8578 43.0262ZM28.7704 43.0292C28.8968 43.5722 28.8966 43.5719 29.3761 43.3772C29.5419 43.3101 29.7139 43.2561 29.8735 43.1766C30.1778 43.0249 30.4937 42.9769 30.8333 42.9836C31.6044 42.9988 32.376 42.9839 33.1475 42.9923C33.295 42.9939 33.4487 43.0275 33.5881 43.0779C34.0732 43.2535 34.5531 43.443 35.0569 43.6358C35.136 43.4528 35.2041 43.2954 35.2778 43.125C33.0916 42.2745 30.9391 42.1928 28.7704 43.0292ZM13.2125 50.6502C14.2648 51.0309 15.1832 51.7247 16.3637 51.555C16.6186 51.5185 16.8855 51.5282 17.1431 51.5539C17.8802 51.627 18.5598 51.4664 19.206 51.1154C19.4614 50.9768 19.734 50.8698 19.9979 50.7487C19.77 50.2527 19.7488 50.2214 19.3391 50.4995C18.6793 50.9471 17.9743 51.1368 17.1858 51.0418C17.0442 51.0248 16.8972 51.025 16.7556 51.0417C15.6839 51.1685 14.6964 50.9436 13.8045 50.3332C13.572 50.1739 13.4332 50.2431 13.3207 50.4669C13.2973 50.5138 13.2676 50.5575 13.2125 50.6502ZM28.6058 50.7559C29.4845 51.0606 30.2198 51.6772 31.2063 51.5571C31.5775 51.5118 31.9615 51.5232 32.3352 51.5556C33.0083 51.614 33.6255 51.4666 34.2227 51.1653C34.6021 50.9738 35.0005 50.8199 35.3906 50.6491C35.162 50.1695 35.1386 50.1341 34.742 50.3881C33.8772 50.9421 32.9493 51.1559 31.9355 51.0415C31.7937 51.0255 31.6469 51.0246 31.5055 51.0417C30.6602 51.1444 29.8917 50.9564 29.2101 50.4426C28.9848 50.2728 28.8278 50.3135 28.7116 50.5631C28.6893 50.6109 28.6609 50.656 28.6058 50.7559ZM24.5579 39.7654H26.2276V37.852H24.5579V39.7654ZM22.3644 37.8358C22.3644 38.4571 22.3612 39.0547 22.3705 39.6521C22.3713 39.6966 22.4583 39.7773 22.5065 39.7782C22.9813 39.7882 23.4563 39.7902 23.9309 39.7776C23.9847 39.7761 24.0799 39.6714 24.0812 39.613C24.0929 39.0753 24.0925 38.5371 24.0814 37.9995C24.0801 37.9439 23.9856 37.8444 23.9325 37.8431C23.4231 37.831 22.9135 37.8358 22.3644 37.8358ZM20.1543 31.2912C20.1311 31.2647 20.122 31.2445 20.1074 31.2393C19.9648 31.1872 19.8169 31.1474 19.6789 31.0858C18.7103 30.6545 17.7002 30.5268 16.643 30.5661C15.8533 30.5956 15.0726 30.5822 14.3217 30.8867C13.9368 31.0428 13.531 31.1477 13.1325 31.2766C13.3524 31.8044 13.3671 31.8349 13.8223 31.6163C14.7671 31.1626 15.7525 30.9899 16.7909 31.0823C16.8532 31.0878 16.9169 31.0886 16.979 31.0821C17.8763 30.9912 18.7144 31.1696 19.5163 31.5857C19.9374 31.8041 19.9524 31.7752 20.151 31.3294C20.1545 31.3216 20.1526 31.3118 20.1543 31.2912ZM28.4711 31.2753C28.6424 31.7718 28.6772 31.8096 29.0991 31.592C29.9089 31.1739 30.7535 30.9916 31.6616 31.0793C31.9102 31.1034 32.165 31.1008 32.4145 31.0795C33.0629 31.0246 33.6766 31.1351 34.2652 31.4101C34.4432 31.4931 34.631 31.5554 34.8146 31.6265C35.2557 31.7968 35.2561 31.7968 35.4615 31.3737C35.4724 31.3513 35.4723 31.3235 35.4769 31.2994C33.509 30.3927 30.6724 30.1975 28.4711 31.2753ZM28.4295 36.9331C28.6548 37.452 28.7047 37.4958 29.1701 37.262C29.9355 36.8773 30.7309 36.7758 31.5816 36.777C32.6917 36.7784 33.7811 36.7877 34.7886 37.3336C34.7962 37.3376 34.806 37.3378 34.8144 37.3408C35.2249 37.4776 35.4476 37.3387 35.5103 36.9334C35.1299 36.827 34.7459 36.7428 34.3781 36.6121C33.6591 36.3568 32.927 36.2489 32.1643 36.2897C31.6632 36.3166 31.1597 36.2916 30.6572 36.2971C30.5241 36.2986 30.3853 36.3075 30.2593 36.3464C29.6545 36.5333 29.0534 36.7319 28.4295 36.9331ZM13.1056 36.9436C13.2548 37.4051 13.4157 37.4891 13.8648 37.3263C13.9405 37.2989 14.0166 37.2709 14.089 37.2358C14.82 36.8815 15.5839 36.7121 16.4004 36.7894C16.6762 36.8155 16.9581 36.8133 17.2342 36.7898C17.9483 36.7286 18.6216 36.8515 19.2582 37.1812C19.3372 37.2221 19.4228 37.2509 19.5059 37.2844C19.9528 37.4654 20.0378 37.4209 20.1679 36.9564C18.9957 36.4339 17.7757 36.1807 16.4891 36.2912C16.1952 36.3164 15.8967 36.2854 15.6013 36.2984C15.4244 36.3062 15.2448 36.332 15.0746 36.3789C14.4218 36.5593 13.7724 36.7514 13.1056 36.9436ZM7.37121 38.8652C6.25105 38.8652 5.13071 38.8621 4.01055 38.8697C3.88807 38.8706 3.65145 38.7831 3.67409 38.9928C3.68894 39.1309 3.89308 39.2551 4.02614 39.3697C4.06233 39.4011 4.14751 39.3764 4.21023 39.3764C6.30728 39.3766 8.40433 39.3766 10.5016 39.3766C10.5643 39.3766 10.6478 39.4012 10.686 39.3703C10.823 39.2594 11.0364 39.14 11.0518 39.0047C11.0787 38.7666 10.8304 38.8715 10.7052 38.8706C9.5939 38.8613 8.48246 38.8652 7.37121 38.8652ZM7.37084 30.568C6.73393 30.568 6.09739 30.5678 5.46048 30.568C4.93121 30.568 4.40212 30.565 3.87303 30.5718C3.80307 30.5728 3.69469 30.606 3.67446 30.654C3.65164 30.7079 3.69209 30.8073 3.73385 30.8665C3.84241 31.0205 3.98847 31.0854 4.19112 31.0847C6.30747 31.0771 8.42438 31.0801 10.5409 31.0797C10.6036 31.0797 10.6909 31.1027 10.7246 31.0706C10.8529 30.9493 10.9635 30.8095 11.081 30.6766C10.9653 30.6404 10.8499 30.5733 10.7341 30.5726C9.61302 30.5646 8.49193 30.568 7.37084 30.568ZM41.2581 38.8652C40.5495 38.8652 39.841 38.8652 39.1324 38.8652C38.6752 38.8652 38.2177 38.8619 37.7603 38.8693C37.6905 38.8704 37.5801 38.9062 37.5626 38.9533C37.5426 39.0084 37.5899 39.1031 37.6326 39.1632C37.7421 39.3173 37.887 39.3822 38.0899 39.3814C40.2066 39.3736 42.3233 39.3766 44.4398 39.3764C44.5026 39.3764 44.5883 39.4 44.6239 39.3682C44.7503 39.2557 44.9433 39.1318 44.9561 38.9976C44.9767 38.784 44.744 38.8704 44.6213 38.8695C43.5004 38.8621 42.3792 38.8652 41.2581 38.8652ZM41.2829 30.568C40.6462 30.568 40.0091 30.5678 39.372 30.568C38.8338 30.568 38.2957 30.5652 37.7573 30.5718C37.6871 30.5726 37.5773 30.6067 37.5587 30.6538C37.5378 30.7078 37.5834 30.8043 37.6263 30.8637C37.7363 31.0155 37.8792 31.0856 38.083 31.0849C40.2001 31.0769 42.3175 31.0801 44.4348 31.0799C44.4976 31.0799 44.5831 31.1032 44.6189 31.0715C44.7457 30.9594 44.9389 30.8368 44.953 30.702C44.9758 30.4851 44.7423 30.5731 44.6204 30.5722C43.508 30.5648 42.3955 30.568 41.2829 30.568ZM28.0821 37.3595C27.9763 36.942 27.9197 36.8941 27.5374 36.894C25.386 36.8934 23.2346 36.8934 21.0835 36.894C20.7109 36.8941 20.6452 36.9507 20.5455 37.3595H28.0821ZM21.9329 38.8081C21.9329 38.5751 21.9225 38.3414 21.9359 38.1091C21.9478 37.9061 21.8917 37.8197 21.6683 37.8299C21.2748 37.8479 20.8799 37.8344 20.4856 37.8349C20.1875 37.8355 20.0274 37.9784 20.0203 38.2832C20.0099 38.7223 20.0109 39.1617 20.025 39.6006C20.0272 39.6642 20.127 39.7769 20.1842 39.7786C20.7036 39.7925 21.2234 39.7936 21.7429 39.778C21.8078 39.776 21.9175 39.6582 21.9234 39.5872C21.9453 39.3291 21.9322 39.0681 21.9329 38.8081ZM26.6995 37.8366C26.6995 38.4577 26.6941 39.0306 26.7071 39.6032C26.7086 39.6655 26.814 39.7769 26.8738 39.7786C27.3932 39.7928 27.9134 39.7928 28.4328 39.7797C28.4948 39.778 28.6047 39.6734 28.6067 39.6137C28.6214 39.166 28.6392 38.7152 28.6008 38.2704C28.5878 38.1188 28.4256 37.8655 28.315 37.8562C27.7922 37.8121 27.2635 37.8366 26.6995 37.8366ZM3.91813 51.5849H10.7606C10.5834 51.0405 10.5044 50.981 9.99642 50.979C8.24771 50.9723 6.4988 50.9636 4.7499 50.9569C4.23844 50.9551 4.12561 51.0398 3.91813 51.5849ZM44.7238 51.5892C44.54 51.1653 44.3346 50.93 43.8367 50.9425C42.09 50.9866 40.3417 50.9721 38.5939 50.9792C38.1439 50.9808 37.9963 51.1015 37.874 51.5892H44.7238ZM20.508 33.1448C20.508 33.8365 20.5036 34.4426 20.5173 35.0482C20.5184 35.0936 20.6496 35.1721 20.7218 35.1741C21.1514 35.1861 21.5812 35.1802 22.0112 35.1802C22.2488 35.1804 22.4863 35.1802 22.7211 35.1802V33.1505C21.9799 33.5607 21.262 33.551 20.508 33.1448ZM25.4218 33.1431C24.6658 33.5534 23.9472 33.5484 23.2134 33.1553V35.157H25.4218V33.1431ZM25.9043 35.1793C26.6071 35.1793 27.2778 35.1763 27.9483 35.1813C28.1224 35.1826 28.127 35.0786 28.1267 34.9533C28.1252 34.4523 28.1272 33.9511 28.125 33.4498C28.1246 33.3745 28.1086 33.2992 28.0917 33.1524C27.3557 33.5543 26.6387 33.5503 25.9043 33.157V35.1793ZM33.6892 31.671C33.6666 31.7472 33.6523 31.7726 33.6523 31.798C33.6499 33.1244 33.6473 34.4508 33.6519 35.7774C33.6521 35.8429 33.7029 35.9497 33.7536 35.9665C34.1222 36.0895 34.497 36.1942 34.9196 36.3196V32.136C34.5397 31.9925 34.1262 31.8362 33.6892 31.671ZM14.9692 31.6587C14.5001 31.8367 14.0803 31.996 13.7175 32.1336V36.3162C14.0786 36.2107 14.3822 36.1099 14.6923 36.0357C14.9102 35.9838 14.9928 35.885 14.9904 35.6495C14.9779 34.4308 14.9848 33.2119 14.9841 31.9932C14.9839 31.9049 14.9765 31.8169 14.9692 31.6587ZM29.0649 36.2602C29.4172 36.151 29.7113 36.0479 30.0119 35.9708C30.2419 35.9116 30.3157 35.7904 30.3135 35.5529C30.3018 34.3436 30.3089 33.1342 30.307 31.9248C30.3068 31.8215 30.2905 31.7182 30.2786 31.5803C29.8119 31.7759 29.3819 31.9559 28.9968 32.1172C29.0248 32.3444 29.0616 32.5092 29.0623 32.674C29.0675 33.7581 29.0649 34.842 29.0649 35.9261V36.2602ZM18.3588 31.5883C18.3338 31.6639 18.318 31.6889 18.318 31.7142C18.3152 33.0417 18.3121 34.3692 18.3165 35.6969C18.3167 35.7615 18.3711 35.8647 18.4243 35.8842C18.7892 36.0175 19.1602 36.1332 19.5681 36.2673V35.9235C19.5681 34.901 19.5651 33.8783 19.5701 32.8555C19.5714 32.6197 19.6005 32.3842 19.6197 32.1094C19.229 31.948 18.8037 31.7722 18.3588 31.5883ZM30.5898 28.2852C30.5852 28.3605 30.5707 28.4322 30.578 28.5017C30.6305 29.01 30.6824 29.5185 30.7509 30.0247C30.758 30.0774 30.8714 30.1534 30.9361 30.1541C31.6265 30.1636 32.317 30.1636 33.0074 30.1543C33.0705 30.1534 33.1803 30.077 33.1874 30.0247C33.223 29.764 33.2219 29.5189 33.3425 29.2515C33.4654 28.9794 33.3698 28.6084 33.3698 28.2487C33.2696 28.2924 33.2058 28.3056 33.1612 28.3423C32.9749 28.4951 32.8194 28.4771 32.6537 28.2995C32.5379 28.1752 32.39 28.081 32.1931 27.9223C32.1931 28.318 32.1853 28.6206 32.196 28.9224C32.2025 29.0984 32.1186 29.1312 31.9681 29.1316C31.79 29.132 31.7638 29.03 31.7653 28.888C31.7681 28.5902 31.766 28.2924 31.766 27.9946C31.5229 28.1128 31.3546 28.2438 31.1965 28.3859C30.9545 28.6026 30.8272 28.2429 30.5898 28.2852ZM34.9673 37.8649C34.5505 37.709 34.1277 37.5509 33.648 37.3714V37.7372C33.648 39.0299 33.6434 40.3226 33.6497 41.615C33.653 42.2419 33.5487 42.1027 34.1546 42.2938C34.3944 42.3695 34.6353 42.4414 34.9153 42.5271V42.1444C34.9153 40.8788 34.9135 39.613 34.9176 38.3474C34.9179 38.1902 34.9491 38.0329 34.9673 37.8649ZM13.6651 37.8629C13.683 38.0615 13.7143 38.2526 13.7149 38.4442C13.7193 39.6827 13.7171 40.9212 13.7171 42.16V42.5263C14.0805 42.4168 14.3997 42.3113 14.7243 42.2262C14.923 42.1742 14.9883 42.0712 14.987 41.865C14.9785 40.4738 14.9831 39.0825 14.9815 37.6914C14.9813 37.5998 14.9644 37.5082 14.9516 37.3803C14.4856 37.5551 14.0623 37.714 13.6651 37.8629ZM18.3601 37.2972C18.3327 37.3666 18.3148 37.3909 18.3148 37.4151C18.3117 38.9131 18.3084 40.411 18.3132 41.9091C18.3134 41.9727 18.3733 42.0739 18.4284 42.0938C18.7877 42.2221 19.1535 42.333 19.5671 42.4655V42.1112C19.5671 40.9181 19.5644 39.7248 19.5696 38.5319C19.5705 38.3051 19.6035 38.0784 19.625 37.8108C19.2333 37.6519 18.8063 37.4785 18.3601 37.2972ZM15.2752 28.2088C15.2563 28.3562 15.253 28.4179 15.24 28.4776C15.124 29.0166 15.4497 29.5035 15.4293 30.0334C15.4278 30.0733 15.5531 30.1539 15.62 30.1549C16.3102 30.1638 17.0008 30.1654 17.6906 30.1519C17.7583 30.1506 17.8698 30.0436 17.8821 29.9722C17.9216 29.7373 17.9244 29.5139 18.022 29.271C18.1374 28.9827 18.0489 28.6126 18.0489 28.244C17.9448 28.2863 17.8763 28.2958 17.8348 28.3341C17.6219 28.5301 17.4575 28.4383 17.2867 28.2681C17.1776 28.1595 17.0468 28.0727 16.8547 27.9194C16.8547 28.1993 16.8872 28.3998 16.8458 28.5833C16.8037 28.7693 17.0518 29.1214 16.6385 29.1177C16.2531 29.1142 16.485 28.7786 16.4464 28.5989C16.4058 28.4087 16.4373 28.2029 16.4373 27.9576C16.032 28.1456 15.8027 28.7535 15.2752 28.2088ZM28.9961 37.8143C29.0241 38.0587 29.0621 38.2411 29.0631 38.4236C29.0683 39.6514 29.0657 40.8793 29.0657 42.1073V42.4616C29.4224 42.3489 29.7321 42.2373 30.0492 42.1557C30.2653 42.1003 30.3232 41.9842 30.322 41.7725C30.3142 40.3832 30.3185 38.9939 30.3168 37.6046C30.3167 37.5114 30.299 37.4181 30.2859 37.2894C29.8212 37.4785 29.3949 37.6521 28.9961 37.8143ZM24.3404 29.9698C22.9766 29.9698 21.6126 29.9772 20.2488 29.9635C19.9836 29.9609 19.9647 30.0783 19.9652 30.2854C19.966 30.491 19.9819 30.6104 20.248 30.6093C22.9579 30.5997 25.6679 30.5997 28.3777 30.6091C28.6407 30.6102 28.6639 30.4945 28.6637 30.2861C28.6635 30.0785 28.6425 29.9611 28.3785 29.9637C27.0326 29.977 25.6864 29.9698 24.3404 29.9698ZM12.833 33.3406C12.2703 33.7342 11.7502 33.7221 11.1865 33.3582V35.015C10.767 35.0673 10.7595 35.0671 10.7569 35.2427C10.7517 35.5833 10.7454 35.9246 10.7642 36.2641C10.7679 36.3316 10.8813 36.4473 10.9458 36.4484C11.6537 36.4619 12.3618 36.4551 13.0698 36.4588C13.2207 36.4595 13.2756 36.3978 13.2715 36.2491C13.2639 35.9893 13.2697 35.7292 13.2697 35.4693C13.2697 35.0934 13.2695 35.0938 12.8994 35.0348C12.8842 35.0324 12.8712 35.0154 12.833 34.9874V33.3406ZM37.4331 33.4466C37.4091 33.4234 37.3852 33.4003 37.3611 33.3771C36.853 33.7874 36.3404 33.671 35.7965 33.3702V35.0228C35.7159 35.0371 35.6632 35.0577 35.6131 35.053C35.3993 35.033 35.3292 35.132 35.337 35.3365C35.3487 35.6406 35.3427 35.9454 35.3412 36.25C35.3407 36.3935 35.401 36.4599 35.5511 36.459C36.2586 36.4555 36.966 36.456 37.6732 36.4584C37.8198 36.4588 37.8822 36.3996 37.8792 36.2493C37.8727 35.9359 37.8692 35.622 37.8805 35.3091C37.8876 35.1198 37.8371 35.0143 37.6283 35.04C37.4693 35.0597 37.4264 34.9722 37.4325 34.8311C37.4383 34.7059 37.4333 34.5804 37.4331 34.4551V33.4466ZM24.3067 36.4249C25.5898 36.4249 26.8729 36.4267 28.156 36.4241C28.6852 36.423 28.6086 36.4779 28.6136 35.9654C28.6168 35.6263 28.608 35.6328 28.2667 35.6337C25.6736 35.64 23.0805 35.6445 20.4878 35.6421C20.0172 35.6415 20.0328 35.6261 20.0122 36.083C20.0001 36.3494 20.0689 36.4352 20.3497 36.4319C21.6685 36.4163 22.9876 36.4249 24.3067 36.4249ZM33.2021 31.5332C32.4386 31.5332 31.7139 31.5402 30.9896 31.5287C30.7801 31.5256 30.7346 31.6044 30.7357 31.7961C30.7422 33.0615 30.7442 34.327 30.7344 35.5924C30.7327 35.8243 30.8177 35.8805 31.0323 35.8768C31.6603 35.8657 32.2886 35.8644 32.9166 35.8773C33.1386 35.882 33.2091 35.8151 33.2067 35.5898C33.1957 34.6025 33.2021 33.6152 33.2021 32.6279V31.5332ZM17.8915 33.7017C17.8915 33.0649 17.8856 32.428 17.8953 31.7913C17.8984 31.5933 17.8366 31.5258 17.6343 31.5291C16.9798 31.5401 16.3251 31.5401 15.6705 31.5289C15.4718 31.5256 15.402 31.5881 15.4029 31.7868C15.4087 33.0604 15.4079 34.3342 15.4037 35.6078C15.4031 35.7974 15.4608 35.8799 15.6666 35.8766C16.321 35.866 16.9759 35.867 17.6304 35.8762C17.8294 35.879 17.8979 35.8106 17.8951 35.6122C17.8862 34.9755 17.8915 34.3384 17.8915 33.7017ZM19.2886 13.5462C19.2344 13.9632 19.5109 14.3218 19.8746 14.322C22.8337 14.3242 25.7932 14.3242 28.7522 14.322C29.1315 14.3218 29.422 13.9293 29.327 13.5462H19.2886ZM29.3533 23.9497H19.2938C19.2227 24.3706 19.5122 24.7218 19.9188 24.722C22.8424 24.7229 25.7659 24.7227 28.6895 24.7222C29.1033 24.7222 29.3915 24.3997 29.3533 23.9497ZM33.669 43.5756V50.4289C34.0862 50.2149 34.4675 50.0258 34.8398 49.8202C34.8884 49.7931 34.9114 49.6817 34.9116 49.6092C34.9155 47.8233 34.9155 46.0373 34.9114 44.2514C34.9112 44.1798 34.8847 44.0641 34.8379 44.0439C34.4642 43.882 34.0828 43.7385 33.669 43.5756ZM14.9653 43.5778C14.6096 43.7126 14.3063 43.839 13.9951 43.9416C13.7873 44.01 13.7095 44.1159 13.7114 44.3465C13.7229 45.9525 13.7418 47.5593 13.7028 49.1644C13.6908 49.6629 13.8262 49.9483 14.2954 50.1001C14.5168 50.1717 14.72 50.2991 14.9653 50.4178V43.5778ZM18.3277 50.5396C18.5735 50.407 18.7599 50.275 18.9668 50.201C19.4584 50.0254 19.5959 49.7113 19.5827 49.1863C19.541 47.5448 19.569 45.9017 19.5632 44.2592C19.5629 44.1546 19.5358 43.9874 19.4701 43.9562C19.1104 43.7849 18.7348 43.6469 18.3277 43.4827V50.5396ZM30.2966 43.4849C29.9225 43.6353 29.5881 43.7767 29.2481 43.903C29.1063 43.9557 29.0627 44.0372 29.0631 44.1837C29.067 46.013 29.0649 47.8422 29.0683 49.6717C29.0685 49.7455 29.0835 49.8582 29.1312 49.8867C29.5014 50.1085 29.8815 50.3139 30.2966 50.5457V43.4849ZM33.195 37.2436C32.4479 37.2436 31.7232 37.2499 30.9985 37.2397C30.7981 37.237 30.7361 37.3015 30.737 37.5008C30.7437 38.9351 30.7448 40.3696 30.7361 41.8042C30.7348 42.0293 30.8264 42.0736 31.0243 42.0708C31.6426 42.0621 32.2617 42.0521 32.8795 42.0747C33.1614 42.0851 33.2284 41.9868 33.2264 41.7242C33.2165 40.3439 33.2225 38.9631 33.2208 37.5824C33.2206 37.4778 33.2052 37.3731 33.195 37.2436ZM17.8897 39.6567C17.8897 38.9388 17.8847 38.2211 17.8928 37.5034C17.8951 37.3074 17.8336 37.2364 17.6312 37.2397C16.9764 37.2505 16.3214 37.2499 15.6668 37.2399C15.4712 37.2368 15.3961 37.2933 15.397 37.4965C15.4027 38.932 15.4022 40.3674 15.3975 41.8029C15.3968 41.9951 15.4558 42.0743 15.6599 42.0713C16.3147 42.0613 16.9698 42.0591 17.6243 42.0721C17.8509 42.0767 17.8947 41.9803 17.8927 41.7828C17.8852 41.0742 17.8899 40.3654 17.8897 39.6567ZM42.5299 28.1396V29.2488C42.1012 29.3268 42.0871 29.3162 42.0867 28.9426C42.0863 28.6985 42.0867 28.4541 42.0867 28.1819C41.7706 28.2891 41.5099 28.4495 41.2519 28.4446C40.9879 28.4398 40.7268 28.2729 40.4233 28.1619V29.266H39.9737V28.12C39.4093 28.5436 38.8814 28.4884 38.3289 28.1226C38.3289 28.776 38.3365 29.3396 38.3248 29.9031C38.3207 30.0994 38.4 30.1476 38.5768 30.1473C40.3714 30.1439 42.1661 30.1434 43.9607 30.1478C44.1607 30.1482 44.227 30.0698 44.2233 29.8753C44.2144 29.3908 44.2218 28.9061 44.2186 28.4215C44.2183 28.3469 44.1965 28.2724 44.1815 28.1762C43.8892 28.2757 43.6287 28.4383 43.3724 28.4318C43.1051 28.4252 42.8422 28.2555 42.5299 28.1396ZM4.40695 28.161C4.40695 28.4155 4.40175 28.6202 4.40806 28.8245C4.42142 29.2506 4.44091 29.6763 4.45798 30.1022C4.87684 30.1168 5.29569 30.1419 5.71473 30.1439C6.89038 30.1497 8.06602 30.146 9.24186 30.146C9.50204 30.146 9.76315 30.1341 10.0224 30.1491C10.2494 30.1623 10.3151 30.0736 10.3086 29.8532C10.2941 29.3689 10.305 28.8839 10.3036 28.3992C10.3032 28.3323 10.2896 28.2657 10.2791 28.1719C9.99512 28.2763 9.73773 28.4435 9.47884 28.4457C9.21569 28.4482 8.95124 28.288 8.64262 28.184V29.2873C8.4782 29.279 8.34959 29.2723 8.1937 29.2643V28.1176C7.63733 28.4875 7.10843 28.5392 6.55485 28.1702C6.52051 28.4597 6.52144 28.7059 6.52033 28.9519C6.51884 29.3116 6.49119 29.332 6.09183 29.2363V28.1396C5.77708 28.2574 5.51263 28.4313 5.24595 28.435C4.98243 28.4385 4.71649 28.2698 4.40695 28.161ZM24.2916 29.5109C24.9107 29.5109 25.53 29.5054 26.1491 29.5141C26.3421 29.5169 26.4245 29.4635 26.4147 29.256C26.3994 28.9336 26.4121 28.6098 26.4095 28.2869C26.4002 27.2215 25.6239 26.3467 24.5657 26.2077C23.5365 26.0723 22.508 26.7563 22.2905 27.7911C22.1925 28.2572 22.2445 28.7535 22.2148 29.2354C22.2018 29.4477 22.2759 29.5185 22.4878 29.5146C23.0889 29.5039 23.6902 29.5109 24.2916 29.5109ZM30.7416 47.0108C30.7416 48.1226 30.7444 49.2345 30.7385 50.3462C30.7376 50.5342 30.7843 50.6265 30.9922 50.624C31.6554 50.6158 32.3191 50.6167 32.9823 50.6234C33.1746 50.6254 33.229 50.5396 33.2288 50.363C33.226 48.1394 33.2254 45.9156 33.2295 43.692C33.2299 43.4923 33.1555 43.4321 32.9591 43.4352C32.3137 43.4458 31.6681 43.4482 31.0228 43.4345C30.7929 43.4295 30.7357 43.5127 30.7376 43.7291C30.7461 44.823 30.7416 45.9169 30.7416 47.0108ZM15.3973 47.0092C15.3973 48.1122 15.4009 49.2154 15.394 50.3184C15.3929 50.5286 15.4452 50.6291 15.6785 50.625C16.3238 50.6137 16.9696 50.6154 17.615 50.6243C17.8292 50.6273 17.8912 50.5422 17.8906 50.3371C17.8856 48.1311 17.8847 45.9249 17.8917 43.7187C17.8925 43.4884 17.8093 43.4309 17.5933 43.435C16.9659 43.4467 16.3377 43.4508 15.7106 43.4334C15.4578 43.4263 15.3903 43.5109 15.3927 43.7537C15.4033 44.8388 15.3972 45.924 15.3973 47.0092ZM28.6496 32.5474C28.4128 32.1324 28.1825 31.7614 27.9863 31.373C27.8679 31.1388 27.7139 31.0689 27.4576 31.0702C25.4396 31.0804 23.4214 31.0917 21.4038 31.0636C20.9553 31.0574 20.6901 31.1767 20.5142 31.5892C20.3761 31.9129 20.1725 32.209 19.9795 32.55C20.3729 32.6749 20.7268 32.7671 21.0646 32.8999C21.4502 33.0515 21.8227 33.0688 22.1985 32.8935C22.7116 32.6546 23.221 32.6455 23.7375 32.8872C24.1122 33.0626 24.4973 33.0695 24.874 32.8924C25.3986 32.6462 25.9158 32.6464 26.4392 32.8963C26.804 33.0702 27.1698 33.0526 27.5473 32.9052C27.8926 32.7702 28.2532 32.6742 28.6496 32.5474ZM24.3145 25.1759C22.9594 25.1759 21.6042 25.1777 20.2491 25.1736C20.0762 25.1731 19.9645 25.1831 19.9661 25.4104C19.975 26.6938 19.9728 27.9774 19.9676 29.2608C19.9669 29.447 20.0326 29.517 20.2183 29.5133C20.6311 29.5052 21.0445 29.5007 21.4567 29.5152C21.6803 29.523 21.7549 29.4433 21.7533 29.2221C21.7501 28.7647 21.7262 28.3009 21.7904 27.8511C21.9498 26.735 23.0148 25.8105 24.0968 25.744C25.5421 25.6551 26.5854 26.6371 26.7916 27.6941C26.8899 28.1977 26.8576 28.7281 26.8695 29.2469C26.8742 29.4421 26.94 29.5191 27.139 29.5139C27.5337 29.5035 27.9292 29.4983 28.3234 29.5158C28.5783 29.5269 28.6667 29.4455 28.6643 29.1824C28.6526 27.9529 28.6513 26.7231 28.6651 25.4935C28.6682 25.2243 28.5759 25.1684 28.3258 25.1705C26.9888 25.182 25.6516 25.1759 24.3145 25.1759ZM10.3049 31.5373C10.1915 31.5258 10.1209 31.5121 10.0502 31.5121C8.26571 31.5108 6.48117 31.5152 4.69682 31.5063C4.44054 31.505 4.40825 31.6196 4.4088 31.8332C4.41419 33.9229 4.4166 36.0129 4.40638 38.1026C4.40528 38.377 4.49064 38.4542 4.75992 38.4525C6.49954 38.4423 8.23935 38.4425 9.97898 38.4525C10.2364 38.4542 10.3119 38.3819 10.3106 38.1208C10.3002 36.0222 10.3049 33.9233 10.3049 31.8245V31.5373ZM38.3265 31.5317V31.8413C38.3265 33.9322 38.3328 36.0229 38.3192 38.1136C38.3172 38.4019 38.4152 38.4534 38.6724 38.4521C40.4038 38.4429 42.1355 38.4414 43.867 38.4533C44.1438 38.4551 44.2164 38.3655 44.2153 38.0995C44.2062 36.0177 44.2054 33.9359 44.216 31.8541C44.2175 31.5818 44.136 31.5033 43.8666 31.505C42.1351 31.5156 40.4037 31.5102 38.6722 31.5113C38.5662 31.5113 38.4603 31.5234 38.3265 31.5317ZM20.068 13.0339H28.5678C28.3699 12.5498 28.1959 12.0995 28.004 11.6567C27.3138 10.0661 26.3634 8.67901 24.9083 7.67891C24.786 7.59492 24.6966 7.38967 24.6839 7.23337C24.6518 6.84123 24.6658 6.44464 24.6754 6.05009C24.6802 5.8491 24.6008 5.76938 24.4052 5.79014C24.343 5.79682 24.279 5.79682 24.2168 5.79014C24.017 5.76882 23.9476 5.85726 23.9531 6.05454C23.9639 6.42202 23.9416 6.7908 23.9609 7.15773C23.975 7.4236 23.8546 7.57675 23.6607 7.74065C23.1555 8.16747 22.6344 8.58705 22.1933 9.07598C21.1733 10.2072 20.6146 11.6005 20.068 13.0339ZM24.3161 50.5263C25.4736 50.5263 26.6309 50.5264 27.7883 50.5263C28.2621 50.5263 28.6147 50.178 28.6149 49.7032C28.6158 48.061 28.6184 46.4186 28.6106 44.7765C28.6095 44.5189 28.5817 44.2562 28.5253 44.005C28.0027 41.6749 25.8997 40.2603 23.5361 40.6402C21.7149 40.9327 20.11 42.6185 20.0381 44.4576C19.9685 46.2407 20.0159 48.0286 20.0211 49.8142C20.022 50.1693 20.4147 50.5263 20.7632 50.5263C21.9476 50.5264 23.1319 50.5263 24.3161 50.5263ZM24.3156 14.7794C22.9608 14.7794 21.6061 14.7822 20.2516 14.776C20.0569 14.7751 19.9639 14.8079 19.9646 15.0363C19.9719 17.7552 19.9715 20.474 19.965 23.1929C19.9645 23.4121 20.0463 23.4703 20.2482 23.4701C22.9575 23.4664 25.6668 23.4656 28.3761 23.4712C28.6028 23.4716 28.665 23.3865 28.6644 23.1695C28.6591 20.4687 28.6578 17.7678 28.6661 15.0669C28.667 14.8174 28.5767 14.7733 28.3527 14.7747C27.007 14.784 25.6614 14.7794 24.3156 14.7794ZM38.3422 50.5156C38.451 50.5208 38.5384 50.5288 38.6262 50.5288C40.3847 50.5284 42.1437 50.5214 43.9022 50.5325C44.1678 50.5342 44.2136 50.4315 44.2132 50.2027C44.2088 46.8462 44.208 43.4897 44.2145 40.1332C44.2149 39.8878 44.1416 39.8166 43.8939 39.818C42.1351 39.8286 40.3766 39.8234 38.6176 39.8244C38.5306 39.8244 38.4436 39.834 38.3422 39.8397V50.5156ZM10.2904 39.8394C10.2137 39.8323 10.1696 39.8249 10.1254 39.8249C8.30449 39.8242 6.48358 39.8282 4.66249 39.8186C4.41771 39.8173 4.41066 39.9399 4.41084 40.1186C4.4127 43.483 4.41419 46.8473 4.40769 50.2118C4.40713 50.4574 4.47969 50.5329 4.72911 50.5316C6.48711 50.5225 8.24529 50.5284 10.0035 50.5286C10.0979 50.5286 10.1924 50.5194 10.2904 50.5143V39.8394ZM47.009 35.8151C47.0079 36.8856 47.007 37.9562 47.006 39.0267C46.5395 39.0245 46.0728 39.0174 45.6062 39.0254C45.5387 39.0267 45.4306 39.0853 45.4115 39.1413C45.2848 39.5168 45.0077 39.7252 44.6351 39.8848V40.2122C44.6351 43.5609 44.6373 46.9096 44.6306 50.2583C44.6301 50.5038 44.6811 50.7096 44.829 50.9063C45.0138 51.1522 45.1768 51.4145 45.3492 51.6696C45.3711 51.662 45.393 51.6542 45.4147 51.6466V48.8216H46.9975V49.1241C46.9975 49.959 46.9977 50.7939 46.9975 51.6288C46.9973 51.9759 46.9968 51.9707 46.6378 51.9787C46.2231 51.9876 45.8087 52.0071 45.3573 52.0232C45.3573 52.498 45.3468 52.9093 45.3618 53.3194C45.3701 53.5502 45.3024 53.6277 45.0597 53.624C44.118 53.6096 43.1759 53.6181 42.186 53.6181C42.186 53.223 42.1876 52.8414 42.1854 52.4599C42.1826 52.0021 42.2285 52.0584 41.7825 52.057C40.9027 52.0544 40.023 52.0629 39.1436 52.0516C38.9285 52.0488 38.8624 52.1163 38.8693 52.3269C38.8832 52.7461 38.8736 53.1661 38.8736 53.6016H35.7358V52.0377C36.0945 52.0377 36.4503 52.0293 36.8053 52.0414C36.9708 52.0471 37.0692 51.9911 37.1486 51.848C37.303 51.5697 37.473 51.2999 37.6753 50.9619C36.7541 51.0381 35.8839 50.7947 35.0786 51.2586C34.8626 51.383 34.618 51.4568 34.3922 51.5653C33.8224 51.8387 33.2449 52.0701 32.5913 51.9852C32.5414 51.9787 32.4872 52.0019 32.4126 52.0154V53.5951H29.2321V52.0434H30.2508C30.2554 52.0188 30.2602 51.9941 30.2649 51.9694C29.8865 51.8002 29.507 51.6327 29.1299 51.4609C28.7823 51.3025 28.4388 51.1353 28.0893 50.9816C28.0197 50.951 27.9307 50.9578 27.8507 50.9578C25.4905 50.9566 23.1303 50.9528 20.7701 50.9649C20.5899 50.9658 20.4056 51.0704 20.2313 51.1453C19.6083 51.4123 18.9891 51.6873 18.3778 52.0214H19.4367V53.6326L19.445 53.624H16.2382V52.0269C16.1556 52.0075 16.1027 51.9793 16.055 51.9861C15.3302 52.0922 14.6953 51.8107 14.0849 51.4918C13.2932 51.078 12.4713 50.8815 11.5807 50.9716C11.3977 50.9901 11.2114 50.9743 10.9575 50.9743C11.1795 51.3418 11.3606 51.6574 11.5618 51.9594C11.598 52.0139 11.7167 52.0325 11.798 52.0343C12.1555 52.0421 12.5131 52.0377 12.8931 52.0377V53.5968H9.75628C9.75628 53.1791 9.74552 52.7689 9.76074 52.3595C9.76927 52.1315 9.7097 52.0466 9.46288 52.0505C8.54853 52.0649 7.63362 52.0558 6.71871 52.057C6.64003 52.057 6.56134 52.0666 6.45018 52.0738V53.6374L6.45872 53.6292C5.38328 53.6283 4.30785 53.6274 3.23241 53.6263L3.24076 53.6348V52.0987C2.82173 51.8968 2.37893 51.9893 1.94876 51.9832C1.71381 51.9798 1.62232 51.929 1.62696 51.6685C1.64404 50.7279 1.63364 49.787 1.63364 48.8249H3.20291V51.6348C3.22759 51.6455 3.25227 51.6563 3.27695 51.6672C3.41762 51.4609 3.54567 51.2441 3.70212 51.0507C3.93409 50.7637 4.00313 50.4502 4.00201 50.0823C3.99051 46.7987 3.99533 43.5151 3.99533 40.2313V39.8794C3.56868 39.7261 3.3111 39.4593 3.15967 39.0293H1.62808V35.8054L1.61935 35.8138H3.21348V36.5634C3.21348 37.102 3.22091 37.6408 3.20959 38.1792C3.20569 38.3724 3.25691 38.4492 3.46272 38.4514C3.99533 38.457 3.99533 38.4659 3.99533 37.9387C3.99533 35.9458 3.99459 33.9528 3.99644 31.9598C3.99663 31.7386 4.03282 31.5391 3.72049 31.4527C3.54771 31.4047 3.41966 31.1956 3.22462 31.0163V32.4899H1.6574V29.3735H3.20884V30.1413C3.43284 30.1413 3.62714 30.1456 3.82144 30.14C4.01092 30.1348 3.98921 29.9887 3.98939 29.8651C3.99088 29.1917 3.99032 28.5184 3.99032 27.845V27.505C4.35406 27.649 4.66973 27.7913 4.99746 27.8956C5.13683 27.94 5.33132 27.9603 5.44953 27.8964C6.02242 27.5875 6.56747 27.5795 7.13386 27.9155C7.24483 27.9813 7.4614 27.9767 7.57609 27.911C8.14731 27.5845 8.69217 27.5862 9.25856 27.922C9.36378 27.9844 9.5514 27.9633 9.68038 27.9199C10.0256 27.8039 10.3592 27.6548 10.7456 27.4996V30.1465C10.9523 30.1465 11.1203 30.1539 11.2875 30.1445C11.4649 30.1345 11.4996 30.214 11.5204 30.3811C11.5917 30.9529 11.343 31.3137 10.8336 31.5304C10.8009 31.5443 10.7783 31.591 10.7605 31.627C10.7493 31.6491 10.7545 31.68 10.7554 31.7069C10.7664 32.0453 10.7777 32.3839 10.7892 32.7224C11.1763 32.8858 11.562 33.0534 11.9526 33.2078C12.0077 33.2297 12.0918 33.1971 12.1562 33.1728C12.449 33.0619 12.7408 32.9479 13.031 32.8296C13.3005 32.7196 13.3458 32.5971 13.2008 32.336C12.9753 31.9296 12.7402 31.5286 12.4847 31.0828C12.6773 30.9977 12.8466 30.8995 13.029 30.8488C13.242 30.7897 13.3322 30.6961 13.3246 30.4586C13.3057 29.8576 13.3185 29.2558 13.3185 28.6545V28.3056C13.5531 28.3953 13.7527 28.4611 13.9426 28.5479C14.0883 28.6145 14.1872 28.5939 14.2909 28.4695C14.4978 28.2216 14.7256 27.9911 14.9301 27.7414C15.0332 27.6155 15.1142 27.619 15.2457 27.6965C15.6972 27.9631 15.6997 27.9574 16.0955 27.6214C16.2596 27.4822 16.4264 27.3461 16.593 27.2098C16.6133 27.1933 16.6405 27.1857 16.6758 27.1686C16.9197 27.375 17.1746 27.574 17.4083 27.7953C17.5506 27.9303 17.6683 27.949 17.8273 27.8345C17.9491 27.7466 18.0877 27.682 18.2328 27.599C18.4971 27.8967 18.7547 28.1817 19.0058 28.4724C19.0989 28.5804 19.185 28.6195 19.3296 28.5559C19.4664 28.496 19.5543 28.437 19.5534 28.2692C19.5482 27.3086 19.5536 26.348 19.5458 25.3876C19.5452 25.3031 19.482 25.2148 19.4343 25.1364C19.4027 25.0843 19.3535 25.0372 19.3019 25.0038C18.8163 24.6882 18.7413 24.223 18.7948 23.6937C18.8128 23.5159 18.8727 23.4642 19.0395 23.466C19.5842 23.4725 19.5473 23.5357 19.5475 22.9341C19.548 20.3398 19.5454 17.7452 19.5521 15.1509C19.5527 14.9381 19.5181 14.7651 19.3381 14.6392C19.3164 14.624 19.3027 14.5967 19.2804 14.5832C18.7426 14.2576 18.7617 13.7359 18.8094 13.2123C18.815 13.1494 18.9184 13.0489 18.9809 13.0454C19.4365 13.0198 19.7037 12.8075 19.8657 12.3663C20.3059 11.168 20.8558 10.0223 21.6596 9.01553C22.1441 8.40832 22.6969 7.87267 23.3348 7.42954C23.4855 7.32478 23.5443 7.20742 23.5411 7.02775C23.5326 6.54309 23.5385 6.05825 23.5385 5.5734C23.5385 5.4527 23.533 5.33496 23.71 5.33496C24.7136 5.33719 25.7173 5.33607 26.7398 5.33607V7.30457H25.2127C25.2728 7.38226 25.2908 7.42045 25.3209 7.44215C26.7725 8.48508 27.7319 9.90198 28.4224 11.5232C28.5555 11.836 28.6993 12.1464 28.8034 12.4692C28.9276 12.8533 29.2067 13.0141 29.5693 13.0271C29.8 13.0354 29.8043 13.1372 29.8345 13.3204C29.9318 13.9085 29.7037 14.3314 29.2559 14.6869C29.1573 14.7651 29.085 14.9385 29.0846 15.0682C29.0748 17.7613 29.08 20.4546 29.0723 23.1477C29.0718 23.3957 29.1497 23.4979 29.3951 23.4688C29.4481 23.4625 29.5033 23.4734 29.5563 23.4671C29.7659 23.4421 29.8111 23.5326 29.836 23.7393C29.9017 24.2859 29.7566 24.7236 29.2926 25.0333C29.0948 25.1655 29.0696 25.3466 29.0716 25.5641C29.08 26.4437 29.0781 27.3237 29.0725 28.2032C29.0718 28.3727 29.1063 28.4799 29.2835 28.5548C29.4749 28.6354 29.5627 28.5433 29.666 28.4226C29.8587 28.1977 30.0661 27.9846 30.2478 27.7516C30.356 27.6129 30.441 27.6159 30.582 27.6987C31.0189 27.9555 31.0222 27.9501 31.4084 27.6266C31.5871 27.4772 31.7647 27.3264 31.9679 27.1547C32.2296 27.3715 32.4978 27.5769 32.7452 27.8052C32.8916 27.9403 33.005 27.9331 33.1655 27.8341C33.5619 27.5899 33.5647 27.5982 33.8707 27.9383C34.068 28.158 34.2372 28.4828 34.4809 28.5576C34.7028 28.6254 35.0087 28.4192 35.314 28.3225V29.378C35.3141 29.7729 35.3039 30.1684 35.3227 30.5624C35.3268 30.6475 35.4184 30.7606 35.4999 30.8032C35.6942 30.905 35.9065 30.9727 36.1476 31.0686C35.9065 31.4926 35.6872 31.8777 35.4682 32.263C35.2542 32.6395 35.3015 32.6649 35.6808 32.8752C36.3378 33.2393 36.9508 33.2163 37.5929 32.8533C37.7861 32.7443 37.9024 32.6596 37.8829 32.4191C37.8601 32.135 37.8777 31.8476 37.8777 31.6637C37.5986 31.4121 37.3112 31.2553 37.1909 31.0148C37.0794 30.7923 37.1436 30.4801 37.1414 30.2073C37.1412 30.1882 37.2295 30.1562 37.2785 30.1513C37.3765 30.1417 37.4767 30.1378 37.5743 30.1474C37.8005 30.1699 37.8905 30.0944 37.8844 29.8482C37.8675 29.1753 37.8781 28.5017 37.8777 27.8285C37.8775 27.7341 37.8777 27.64 37.8777 27.4976C38.2741 27.6578 38.6154 27.8094 38.9676 27.9299C39.0881 27.9713 39.2659 27.9844 39.3655 27.9244C39.9408 27.5771 40.495 27.5888 41.0716 27.9223C41.1779 27.9839 41.383 27.9798 41.4904 27.917C42.0548 27.5862 42.6007 27.5786 43.1744 27.8953C43.2915 27.96 43.4869 27.9403 43.6261 27.896C43.9484 27.7937 44.2583 27.6522 44.6154 27.51C44.6241 27.6268 44.6369 27.7182 44.6371 27.8098C44.6388 28.4921 44.6458 29.1744 44.6336 29.8565C44.6297 30.0848 44.7143 30.168 44.9309 30.1465C44.993 30.1402 45.0571 30.1395 45.1191 30.1469C45.3488 30.1738 45.4518 30.0885 45.4229 29.8456C45.4049 29.6967 45.4193 29.5441 45.4193 29.3745H46.9752C46.9834 29.4451 46.9964 29.5054 46.9964 29.5658C46.9979 30.4636 46.9921 31.3611 47.0018 32.2589C47.0038 32.4595 46.9442 32.5268 46.7425 32.5209C46.3142 32.5081 45.8851 32.517 45.4266 32.517V30.9951C45.3095 31.0975 45.2454 31.1507 45.1844 31.2072C45.0923 31.2925 45.0131 31.4362 44.9094 31.4563C44.5894 31.5184 44.6338 31.7392 44.6339 31.9596C44.6358 34.0064 44.6336 36.0533 44.6391 38.1C44.6395 38.2105 44.6885 38.4097 44.7358 38.4162C44.9435 38.4447 45.1599 38.4251 45.3705 38.4013C45.3948 38.3986 45.4169 38.2599 45.4175 38.184C45.421 37.5108 45.4193 36.8374 45.4195 36.1642V35.8151H47.009Z" fill="white"/>
<path fill-rule="evenodd" clip-rule="evenodd" d="M36.0217 20.5199C36.0002 20.5699 35.9786 20.6198 35.9567 20.6697C36.0709 20.7201 36.185 20.7705 36.299 20.821C36.3209 20.7683 36.3652 20.6715 36.3613 20.6697C36.2511 20.6141 36.136 20.5677 36.0217 20.5199ZM36.9849 20.4798C36.9106 20.5887 36.8366 20.6508 36.8364 20.7133C36.8362 20.7579 36.9416 20.8451 36.9884 20.8379C37.0557 20.8277 37.1127 20.7489 37.1741 20.6994C37.1239 20.6409 37.0736 20.5825 36.9849 20.4798ZM36.6501 20.5265L36.5044 20.439C36.4775 20.5221 36.4211 20.61 36.4337 20.6866C36.4437 20.7477 36.5359 20.8345 36.5953 20.8373C36.6569 20.8404 36.7228 20.7563 36.7868 20.7103C36.7412 20.6489 36.6957 20.5877 36.6501 20.5265ZM36.6386 20.5071C36.6799 20.5078 36.7215 20.5086 36.7627 20.5093C36.811 20.4477 36.8926 20.3906 36.9012 20.3241C36.9299 20.0968 36.7043 20.2288 36.6241 20.1463C36.5812 20.1991 36.4962 20.2599 36.5044 20.3028C36.5187 20.3767 36.5907 20.4396 36.6386 20.5071ZM40.4817 14.8424C40.4391 14.7227 40.4166 14.6142 40.3628 14.5246C40.3218 14.4566 40.2407 14.4127 40.1778 14.358C40.1306 14.447 40.0354 14.543 40.0473 14.6229C40.0646 14.7364 40.1536 14.8434 40.2269 14.9416C40.2498 14.9722 40.332 14.988 40.3691 14.9711C40.4159 14.9498 40.4442 14.888 40.4817 14.8424ZM40.0154 14.4312C40.0807 14.2816 40.2941 14.1611 40.1152 13.9753C40.0016 13.8577 39.83 13.7925 39.6765 13.7203C39.6366 13.7016 39.5564 13.7316 39.5162 13.7652C39.4961 13.7823 39.5067 13.8722 39.5334 13.9032C39.6821 14.0761 39.8398 14.241 40.0154 14.4312ZM40.5571 12.5823C40.4593 12.5823 40.4049 12.566 40.3722 12.5854C40.2815 12.6396 40.2 12.7087 40.1148 12.7718C40.1969 12.8382 40.2698 12.9309 40.3635 12.9633C40.4585 12.9961 40.5819 12.9932 40.6781 12.9613C40.7568 12.9353 40.8136 12.8435 40.88 12.7809C40.8167 12.7173 40.7614 12.6407 40.6872 12.5947C40.6408 12.566 40.5658 12.5828 40.5571 12.5823ZM37.941 12.2565C37.7467 12.3452 37.541 12.6707 37.6314 12.7861C37.7294 12.911 37.9124 12.9698 38.0582 13.0573C38.0822 13.0082 38.1353 12.952 38.1254 12.9105C38.0746 12.6969 38.0076 12.4868 37.941 12.2565ZM35.956 12.1395C35.8641 12.429 35.7827 12.6867 35.7008 12.9444L35.783 13.0121C35.9406 12.9008 36.1637 12.8222 36.2399 12.6702C36.3413 12.4679 36.1562 12.3031 35.956 12.1395ZM38.9292 18.6799C38.9592 18.6754 38.9895 18.671 39.0196 18.6665C39.0355 18.6191 39.063 18.5721 39.0656 18.5238C39.1032 17.8364 39.132 17.1484 39.1758 16.4614C39.1912 16.221 39.05 16.2371 38.8883 16.2358C38.7013 16.2341 38.5927 16.2964 38.6142 16.5007C38.6673 17.0071 38.713 17.5144 38.7785 18.0191C38.8076 18.2421 38.8778 18.4598 38.9292 18.6799ZM40.0042 12.0628C39.8604 12.1084 39.7569 12.014 39.7216 11.8703C39.6737 11.6766 39.7767 11.5364 39.9629 11.4815C40.3027 11.3814 40.5987 11.6684 40.5131 12.0164C40.476 12.1675 40.4062 12.3105 40.3136 12.5576C40.5183 12.507 40.7378 12.5124 40.7733 12.4343C41.0259 11.8755 40.8741 11.2963 40.2384 11.1392C39.9582 11.0701 39.7023 11.1591 39.5125 11.3801C39.3388 11.582 39.3237 11.8177 39.4295 12.0583C39.5299 12.2866 39.793 12.4011 40.0655 12.332C40.2785 12.278 40.3889 12.1279 40.349 11.9144C40.3314 11.8197 40.2451 11.7172 40.1612 11.664C40.1156 11.6352 39.9469 11.6938 39.9421 11.7283C39.9289 11.8217 39.9734 11.9235 40.0042 12.0628ZM35.3518 18.0198C35.3234 18.0228 35.2952 18.0257 35.2669 18.0289C35.251 18.0485 35.2244 18.0663 35.2204 18.0882C35.0823 18.8069 34.942 19.5253 34.8195 20.2468C34.8099 20.3046 34.9249 20.4407 34.9875 20.4442C35.3334 20.4637 35.681 20.4535 36.0466 20.4535C35.9812 20.3059 35.9462 20.1511 35.8571 20.0389C35.6095 19.7267 35.4614 19.3898 35.4475 18.9852C35.4366 18.6626 35.3852 18.3415 35.3518 18.0198ZM35.5971 13.203C36.0211 14.1162 37.1636 14.2755 37.8764 13.5611C37.9703 13.4669 38.1228 13.3701 37.9597 13.208C37.7936 13.043 37.5412 13.0158 37.4251 13.1712C37.1419 13.5507 36.5387 13.5592 36.3145 13.0892C36.291 13.0399 36.1845 12.9874 36.1345 13.0013C35.9577 13.0506 35.789 13.1283 35.5971 13.203ZM34.6625 19.3279L34.738 19.3351C34.7622 19.2721 34.7965 19.2109 34.8089 19.1454C34.9173 18.567 35.0296 17.989 35.1244 17.4083C35.176 17.0913 35.2057 16.7696 35.2267 16.4488C35.246 16.1516 35.1385 16.0839 34.7833 16.0693C34.5029 16.0578 34.5094 16.225 34.517 16.4171C34.5523 17.303 34.5846 18.1893 34.6209 19.0752C34.6245 19.1599 34.6482 19.2437 34.6625 19.3279ZM38.6764 16.0591C39.3593 16.1996 39.4911 16.1522 39.8636 15.6701C39.9074 15.6134 39.9476 15.5529 39.9976 15.5018C40.1675 15.3273 40.2266 15.1714 40.0234 14.9589C39.9064 14.8367 39.8656 14.642 39.7866 14.482C39.7353 14.3782 39.6914 14.2658 39.618 14.1794C39.4829 14.02 39.3486 14.0437 39.2877 14.2434C39.2359 14.4123 39.1966 14.594 39.2009 14.7688C39.2077 15.0616 39.1205 15.3113 38.9631 15.5503C38.8624 15.7029 38.7824 15.8691 38.6764 16.0591ZM38.4376 17.4454C38.4144 17.4467 38.3914 17.448 38.3682 17.4491C38.3392 17.6811 38.296 17.9123 38.2839 18.1451C38.2459 18.8775 38.0935 19.5771 37.7287 20.2206C37.6286 20.3971 37.6919 20.473 37.8801 20.4644C38.1661 20.4515 38.4526 20.4411 38.7365 20.4094C38.7892 20.4034 38.8778 20.2963 38.8715 20.2457C38.7616 19.3607 38.6402 18.477 38.517 17.5937C38.5098 17.5416 38.4649 17.4947 38.4376 17.4454ZM34.9166 15.905C34.932 15.87 34.9472 15.8351 34.9626 15.8001C34.8336 15.6091 34.6946 15.4241 34.5775 15.226C34.3429 14.8295 34.2262 14.429 34.5363 14.0025C34.5842 13.9369 34.5285 13.7884 34.5005 13.6834C34.4962 13.6675 34.365 13.6556 34.3216 13.6849C34.0219 13.8872 33.7096 14.0465 33.339 14.0667C33.1647 14.0761 33.1378 14.1705 33.1953 14.3257C33.279 14.5513 33.3733 14.7785 33.4143 15.0136C33.4984 15.4977 33.7034 15.8132 34.2529 15.8077C34.4738 15.8056 34.6954 15.8705 34.9166 15.905ZM37.4328 19.9479C37.4609 19.9551 37.4885 19.9623 37.5165 19.9696C37.5659 19.8889 37.6375 19.8144 37.6613 19.7269C37.794 19.2378 37.943 18.7507 38.0321 18.2531C38.1152 17.7884 38.0638 17.2923 38.1921 16.8447C38.3628 16.249 38.6477 15.6859 38.8895 15.1111C38.9585 14.9466 39.0704 14.7974 39.1188 14.6287C39.1424 14.5473 39.0923 14.3984 39.0251 14.35C38.955 14.2992 38.7948 14.289 38.725 14.3361C38.4222 14.5415 38.1373 14.7744 37.8463 14.9974C37.6099 15.1788 37.4289 15.3853 37.4598 15.7161C37.4761 15.8933 37.4625 16.0734 37.4603 16.2521C37.4455 17.3907 37.4295 18.5295 37.4158 19.6681C37.4147 19.7614 37.4269 19.8546 37.4328 19.9479ZM36.1846 20.0634C36.213 19.9612 36.2386 19.9115 36.2392 19.8613C36.2574 18.3932 36.2778 16.9251 36.2802 15.4571C36.2804 15.3295 36.1817 15.1799 36.088 15.0783C35.7504 14.7115 35.3974 14.3589 35.0439 14.0074C34.9951 13.9586 34.9028 13.9113 34.8446 13.9247C34.7739 13.9408 34.679 14.012 34.6623 14.0767C34.5768 14.4102 34.535 14.7438 34.7815 15.0431C34.9123 15.2018 35.0459 15.3638 35.1426 15.5437C35.2755 15.7916 35.4471 16.0498 35.4759 16.3172C35.577 17.2587 35.6192 18.2063 35.694 19.151C35.722 19.5027 35.8189 19.8301 36.1846 20.0634ZM38.4686 13.3918C38.4303 13.3708 38.3919 13.3501 38.3535 13.3291C38.2294 13.4927 38.1267 13.6799 37.9768 13.8151C37.5203 14.2274 36.988 14.4336 36.4038 14.1347C36.1015 13.9803 35.85 13.7192 35.5917 13.4888C35.4677 13.3783 35.3831 13.2702 35.2167 13.4272C34.9773 13.6527 34.9598 13.7164 35.1808 13.9725C35.2421 13.8509 35.292 13.7513 35.3616 13.6132C35.4457 13.7157 35.5399 13.8308 35.6684 13.9879C35.601 13.9558 35.5813 13.9391 35.5607 13.9376C35.4705 13.9313 35.3801 13.9295 35.29 13.926C35.3087 14.009 35.3052 14.1091 35.3518 14.1714C35.4252 14.2701 35.5297 14.3472 35.6266 14.4266C35.9196 14.6665 36.3337 14.8478 36.4771 15.156C36.6246 15.4725 36.5088 15.9117 36.5079 16.2972C36.5051 17.4538 36.5066 18.6105 36.4955 19.7671C36.4934 19.9772 36.5538 20.0723 36.77 20.0419C36.8227 20.0345 36.878 20.0356 36.931 20.0417C37.1138 20.0627 37.1819 19.9933 37.1836 19.8014C37.1899 19.0664 37.2148 18.3317 37.228 17.5967C37.2417 16.8349 37.2539 16.073 37.2578 15.311C37.2588 15.1345 37.3382 15.0443 37.4822 14.9541C37.8914 14.6974 38.2923 14.4267 38.6842 14.1442C38.7551 14.093 38.8243 13.933 38.7946 13.8694C38.7146 13.697 38.581 13.5492 38.4686 13.3918ZM36.2266 11.1474C36.5925 10.8697 37.2042 10.8469 37.5897 11.0897C37.6795 11.1461 37.7829 11.1808 37.8799 11.2255C37.8972 11.114 37.9308 11.0019 37.927 10.891C37.9239 10.7975 37.8996 10.6893 37.8459 10.6158C37.6776 10.3852 37.4952 10.164 37.3096 9.9465C37.1907 9.80707 37.0229 9.7572 36.8809 9.88068C36.6185 10.1091 36.3621 10.3498 36.1362 10.6138C35.9619 10.8177 36.0304 11.0732 36.234 11.1413C36.1952 11.295 36.1538 11.4481 36.1184 11.6028C36.103 11.6704 36.1123 11.7452 36.0893 11.8093C35.9911 12.0817 36.0518 12.1989 36.3285 12.2515C36.2655 12.54 36.3359 12.8687 36.5222 13.1053C36.6638 13.285 36.8386 13.3569 37.0652 13.2542C37.3603 13.1205 37.3942 12.9956 37.2924 12.5458C37.2515 12.3654 37.199 12.25 36.9869 12.2539C36.8078 12.2573 36.6363 12.2372 36.6451 12.4964C36.6456 12.5115 36.5964 12.5282 36.5703 12.5439C36.5823 12.4013 36.6204 12.245 36.7126 12.2002C37.0073 12.0572 37.2753 12.2137 37.3582 12.5345C37.371 12.5847 37.4189 12.6259 37.4507 12.6711C37.4869 12.6188 37.5622 12.5567 37.552 12.5157C37.5149 12.3652 37.4618 12.215 37.3894 12.078C37.3503 12.0034 37.2604 11.9558 37.1934 11.8961C37.2202 11.8737 37.2471 11.8514 37.2736 11.829C37.4058 11.9879 37.5379 12.1468 37.6682 12.3038C38.0868 11.9779 37.9992 11.3593 37.5034 11.1183C37.0756 10.9104 36.6488 11.0119 36.2266 11.1474ZM40.3863 13.7218C40.5211 13.5281 40.6562 13.3343 40.798 13.1305C40.5725 13.0766 40.295 12.9249 40.0746 12.9843C39.8927 13.0332 39.7704 13.3276 39.6494 13.5297C39.6403 13.5449 39.845 13.7059 39.964 13.7752C40.0881 13.8475 40.2293 13.9619 40.3622 13.7776C40.2657 14.0335 40.2692 14.269 40.4138 14.5215C40.5008 14.6733 40.6187 14.8612 40.4584 15.0664C40.3847 15.161 40.327 15.2987 40.3281 15.4163C40.3416 16.7151 40.3669 18.0135 40.3932 19.3119C40.396 19.4578 40.4253 19.6032 40.4439 19.7612C40.7289 19.6067 40.7826 19.5268 40.7801 19.2402C40.7651 17.4843 40.7477 15.7285 40.7299 13.9727C40.7291 13.9111 40.7369 13.8284 40.7024 13.7925C40.6196 13.7062 40.5435 13.5001 40.3863 13.7218ZM33.6166 13.7938C33.8096 13.7048 34.0143 13.6336 34.191 13.5195C34.2832 13.46 34.3264 13.3249 34.3918 13.2238C34.2906 13.2034 34.1882 13.1602 34.0885 13.166C33.4909 13.2001 33.4913 13.204 33.6192 13.8002C33.5678 13.7101 33.5164 13.62 33.4208 13.4522C33.3128 13.6126 33.233 13.7313 33.153 13.8499C33.2863 13.8472 33.4195 13.8464 33.5522 13.8396C33.5745 13.8383 33.5952 13.8097 33.6166 13.7938ZM34.0963 11.5835C34.1505 11.7244 34.2047 11.8649 34.2589 12.0057C34.0607 11.9017 33.8623 11.7975 33.6639 11.6932L33.6171 11.7593L33.7177 12.1102C33.6238 12.0574 33.5297 12.0046 33.4356 11.9517C33.4512 12.0531 33.4637 12.1553 33.4845 12.2556C33.4911 12.2875 33.5206 12.3147 33.5399 12.344C33.477 12.307 33.4139 12.2699 33.2768 12.1892C33.3154 12.4571 33.3434 12.6457 33.3698 12.8346C33.3892 12.9755 33.4227 13.12 33.6043 13.0924C33.8844 13.0497 34.2099 13.1658 34.4253 12.8764C34.4302 12.87 34.4266 12.858 34.4305 12.8504C34.5796 12.5504 34.4255 12.3003 34.2986 12.0457C34.35 12.0861 34.4016 12.1266 34.512 12.2133C34.4712 11.9437 34.4576 11.7385 34.4021 11.5457C34.3789 11.4652 34.2663 11.4105 34.1941 11.3439C34.1633 11.4268 34.1323 11.5095 34.1009 11.5913C34.0859 11.5234 34.0839 11.4485 34.0525 11.389C34.013 11.3145 33.9497 11.2523 33.8966 11.1849C33.8499 11.2583 33.7801 11.3267 33.7628 11.4066C33.748 11.4759 33.7775 11.5666 33.8152 11.6319C33.851 11.694 33.9222 11.7357 33.9781 11.7863C34.0174 11.7187 34.057 11.6512 34.0963 11.5835ZM38.0887 20.668C37.9254 20.6647 37.7619 20.6612 37.5986 20.6578C37.5069 20.6246 37.4158 20.5716 37.3232 20.5686C37.2861 20.5673 37.2458 20.6771 37.207 20.7362C37.2697 20.7629 37.3315 20.8063 37.3955 20.8104C37.4379 20.8132 37.4835 20.7589 37.5277 20.7299C37.6019 20.9426 37.7804 20.8429 37.9103 20.838C37.9697 20.8358 38.0252 20.7246 38.0824 20.6628C38.1856 20.6816 38.2887 20.7003 38.3919 20.719C38.3919 20.6606 38.4025 20.5538 38.3908 20.5512C38.2585 20.5232 38.1228 20.511 37.9881 20.4945C37.9825 20.5206 37.9772 20.5469 37.9718 20.5731C38.0107 20.6048 38.0497 20.6363 38.0887 20.668ZM35.4277 20.6682C35.4616 20.6276 35.4958 20.5868 35.5741 20.4934C35.4141 20.4934 35.3124 20.4715 35.2282 20.5006C35.1664 20.5219 35.1278 20.61 35.0788 20.6682C35.1433 20.6953 35.2076 20.7422 35.2727 20.7433C35.3261 20.7442 35.3805 20.691 35.4345 20.6617C35.5108 20.8809 35.7018 20.9224 35.9833 20.7722C35.8374 20.5087 35.6194 20.653 35.4277 20.6682ZM31.6867 9.6543H42.3028C42.3116 9.74125 42.326 9.81857 42.326 9.89589C42.3262 11.9786 42.3691 14.0624 42.3121 16.1435C42.2503 18.3864 41.1192 19.9913 39.0756 20.8705C36.1149 22.1442 32.7483 20.4843 31.8931 17.3751C31.7712 16.9314 31.7005 16.4596 31.6956 15.9998C31.6747 13.9801 31.6867 11.9601 31.6867 9.9402V9.6543Z" fill="white"/>
<path fill-rule="evenodd" clip-rule="evenodd" d="M14.2148 18.8902C14.5017 18.8886 14.789 18.878 15.0753 18.8886C15.2481 18.8951 15.3728 18.8463 15.4433 18.6855C15.6547 18.2048 15.8759 17.7277 16.0702 17.2401C16.143 17.0573 16.1517 16.8491 16.1935 16.6327H14.2152C14.2152 15.8949 14.215 15.157 14.215 14.4191H16.1962V12.161H14.2144V9.96608H12.2293V12.1611H10.2146V9.9659H8.18885V12.1608H6.18477V10.0892C6.17698 10.0892 6.16918 10.0894 6.16139 10.0894V15.9528H6.19906V14.4193H8.18903C8.18347 15.1583 8.1779 15.8972 8.17215 16.6362L8.18124 16.628H6.223C6.26253 17.262 6.54647 18.0312 6.94231 18.6607C7.04475 18.8237 7.1574 18.9002 7.35355 18.8891C7.62617 18.8737 7.90027 18.8852 8.18514 18.8852C8.18514 19.2225 8.17122 19.5102 8.19256 19.7952C8.20054 19.9016 8.26438 20.05 8.34863 20.0967C8.76136 20.3257 9.18523 20.5365 9.61466 20.7332C9.79393 20.8155 9.99658 20.8474 10.2339 20.9151V18.8908H12.2284V20.8943C12.9375 20.7453 13.5664 20.4679 14.1341 20.0528C14.1829 20.0172 14.2271 19.9389 14.2276 19.8801C14.2311 19.5503 14.2206 19.2203 14.2148 18.8902ZM5.84349 9.64551H16.5373V9.9544C16.5373 11.8571 16.5123 13.7603 16.5466 15.6624C16.5674 16.7988 16.3412 17.8466 15.7401 18.8124C14.599 20.6457 12.3516 21.6452 10.2742 21.2403C8.00624 20.7981 6.29315 19.0864 5.92645 16.8852C5.87634 16.5856 5.83867 16.2798 5.83755 15.9769C5.82976 13.9305 5.83347 11.8841 5.83366 9.83778C5.83366 9.78475 5.83885 9.73154 5.84349 9.64551Z" fill="white"/>
<path fill-rule="evenodd" clip-rule="evenodd" d="M3.23241 53.6266V55.2187H0.0335693V52.0402C0.509025 52.0402 0.972417 52.0341 1.43507 52.0497C1.48239 52.0514 1.56108 52.183 1.56405 52.257C1.57796 52.6059 1.56906 52.956 1.57203 53.3055C1.57277 53.4114 1.58464 53.517 1.59225 53.6353C2.15437 53.6353 2.69757 53.6353 3.24076 53.6351L3.23241 53.6266Z" fill="white"/>
<path fill-rule="evenodd" clip-rule="evenodd" d="M25.9605 53.6259L22.6733 53.6253L22.6821 53.6342V52.0586H25.9516V53.6346L25.9605 53.6259Z" fill="white"/>
<path fill-rule="evenodd" clip-rule="evenodd" d="M22.6733 53.625V55.2191H19.445V53.624L19.4366 53.6326C20.0088 53.6398 20.5809 53.6524 21.153 53.6531C21.6626 53.6537 22.1724 53.6409 22.682 53.634C22.682 53.6338 22.6733 53.625 22.6733 53.625Z" fill="white"/>
<path fill-rule="evenodd" clip-rule="evenodd" d="M6.4502 53.6371C7.40834 53.6428 8.36649 53.6487 9.32464 53.6543C9.43024 53.655 9.53583 53.6545 9.6598 53.6545V55.213C9.59503 55.2206 9.53527 55.2334 9.47552 55.2334C8.56154 55.2349 7.64737 55.2301 6.7332 55.2383C6.54707 55.2399 6.48286 55.1847 6.48397 54.9952C6.48638 54.5398 6.46875 54.0843 6.45892 53.6289C6.45873 53.6289 6.4502 53.6371 6.4502 53.6371Z" fill="white"/>
<path fill-rule="evenodd" clip-rule="evenodd" d="M19.4417 1.74902V3.34355H16.2306C16.2306 2.86222 16.2237 2.38999 16.241 1.91849C16.2428 1.87084 16.3889 1.79018 16.4687 1.78926C17.3201 1.7798 18.1719 1.78444 19.0235 1.78221C19.1657 1.78184 19.3078 1.76645 19.45 1.75792C19.45 1.75774 19.4417 1.74902 19.4417 1.74902Z" fill="white"/>
<path fill-rule="evenodd" clip-rule="evenodd" d="M1.62811 35.8052H0.0350952V32.5921C0.515561 32.5921 0.987676 32.5854 1.45886 32.6027C1.50619 32.6045 1.58599 32.7523 1.58691 32.8329C1.59619 33.7201 1.59192 34.6077 1.59378 35.4949C1.59415 35.6011 1.6103 35.7073 1.61939 35.8136L1.62811 35.8052Z" fill="white"/>
<path fill-rule="evenodd" clip-rule="evenodd" d="M1.607 19.5928C1.60236 20.5606 1.58919 21.5285 1.59828 22.4963C1.60051 22.7412 1.53722 22.8252 1.28484 22.812C0.875632 22.7909 0.464387 22.8065 0.0362549 22.8065V19.6017H1.61572L1.607 19.5928Z" fill="white"/>
<path fill-rule="evenodd" clip-rule="evenodd" d="M47.0295 19.591H45.4357V16.3945H46.9976V16.6967C46.9976 17.5667 46.9968 18.4366 46.9987 19.3066C46.9989 19.4043 47.013 19.5018 47.0208 19.5995L47.0295 19.591Z" fill="white"/>
<path fill-rule="evenodd" clip-rule="evenodd" d="M1.61566 19.6023C1.62159 18.6428 1.62772 17.6835 1.63366 16.7241C1.63421 16.619 1.63366 16.5139 1.63366 16.3936H3.19772V19.5932C2.65861 19.5932 2.13287 19.5932 1.60693 19.5934L1.61566 19.6023Z" fill="white"/>
<path fill-rule="evenodd" clip-rule="evenodd" d="M25.9518 53.6347C26.8468 53.6416 27.7419 53.6497 28.6369 53.6545C29.1645 53.6575 29.1647 53.6551 29.1645 54.1796C29.1645 54.4664 29.163 54.7533 29.1649 55.0399C29.1656 55.1667 29.1291 55.2379 28.981 55.2372C27.9959 55.2329 27.0109 55.235 25.9607 55.235V53.626L25.9518 53.6347Z" fill="white"/>
<path fill-rule="evenodd" clip-rule="evenodd" d="M24.2946 3.36243C23.8375 3.36243 23.3806 3.35724 22.9237 3.3654C22.7635 3.36818 22.6962 3.31738 22.6989 3.15236C22.7054 2.76727 22.7047 2.38161 22.6993 1.99652C22.6973 1.83836 22.7522 1.77625 22.9188 1.77736C23.8417 1.78367 24.7644 1.78367 25.6873 1.77736C25.849 1.77625 25.9128 1.82705 25.91 1.99077C25.9035 2.36697 25.9015 2.74353 25.9113 3.11973C25.916 3.30366 25.8556 3.37133 25.6652 3.36632C25.2085 3.35446 24.7514 3.36243 24.2946 3.36243Z" fill="white"/>
<path fill-rule="evenodd" clip-rule="evenodd" d="M29.2196 3.35961V1.80402C29.3072 1.79661 29.3846 1.78419 29.4622 1.78419C30.3491 1.78289 31.2361 1.78863 32.1232 1.77936C32.3294 1.77714 32.4135 1.82905 32.4034 2.04969C32.3871 2.41643 32.4079 2.78466 32.3914 3.1514C32.3882 3.22315 32.288 3.34997 32.2314 3.35071C31.2382 3.36314 30.2446 3.35961 29.2196 3.35961Z" fill="white"/>
<path fill-rule="evenodd" clip-rule="evenodd" d="M0.0183241 42.235V41.0434C0.0183241 40.4601 0.0242627 39.8768 0.0146125 39.2936C0.0118288 39.1138 0.076225 39.058 0.248072 39.0617C0.624799 39.07 1.00227 39.0556 1.37825 39.0721C1.45174 39.0754 1.5822 39.177 1.58276 39.2343C1.5926 40.212 1.58629 41.1898 1.58258 42.1677C1.58258 42.1836 1.5681 42.1994 1.55066 42.235H0.0183241Z" fill="white"/>
<path fill-rule="evenodd" clip-rule="evenodd" d="M38.9687 55.2337V53.6546H39.7015C40.4192 53.6546 41.1372 53.6609 41.8546 53.6505C42.0491 53.6477 42.1297 53.6963 42.1222 53.9036C42.1087 54.28 42.1254 54.6575 42.1113 55.0337C42.1085 55.1023 42.0191 55.2246 41.9684 55.2252C40.9754 55.2367 39.9818 55.2337 38.9687 55.2337Z" fill="white"/>
<path fill-rule="evenodd" clip-rule="evenodd" d="M6.44712 3.3603H4.26081C4.00062 3.3603 3.74044 3.35344 3.48081 3.36253C3.32697 3.36809 3.27259 3.30356 3.27352 3.15802C3.27686 2.76347 3.26591 2.36854 3.28373 1.97473C3.28688 1.90854 3.4038 1.79285 3.46931 1.7921C4.40166 1.78005 5.33401 1.78079 6.26618 1.79099C6.32724 1.79173 6.43728 1.89297 6.43914 1.95026C6.45343 2.406 6.44712 2.86229 6.44712 3.3603Z" fill="white"/>
<path fill-rule="evenodd" clip-rule="evenodd" d="M12.9162 3.34763H9.76262C9.76262 2.85852 9.75835 2.37868 9.77023 1.89939C9.77134 1.8599 9.88009 1.79 9.93929 1.78963C10.8702 1.78259 11.8008 1.78147 12.7317 1.79167C12.7939 1.79241 12.9062 1.89235 12.908 1.9489C12.9225 2.40426 12.9162 2.86019 12.9162 3.34763Z" fill="white"/>
<path fill-rule="evenodd" clip-rule="evenodd" d="M35.6283 53.6557V55.2104C35.5587 55.2195 35.4991 55.2341 35.4394 55.2341C34.5336 55.2356 33.6276 55.2306 32.7216 55.2391C32.5347 55.2408 32.4679 55.1841 32.4733 54.9959C32.4842 54.6195 32.4682 54.242 32.4846 53.866C32.4875 53.7937 32.5872 53.6654 32.6436 53.6646C33.6285 53.6522 34.6136 53.6557 35.6283 53.6557Z" fill="white"/>
<path fill-rule="evenodd" clip-rule="evenodd" d="M0.0322876 48.7228V45.5682C0.51795 45.5682 0.99025 45.5638 1.46218 45.5753C1.50672 45.5764 1.58596 45.6776 1.58633 45.7329C1.59413 46.6748 1.59468 47.6168 1.58503 48.5587C1.58448 48.614 1.4876 48.7141 1.43341 48.7156C0.976888 48.7282 0.519991 48.7228 0.0322876 48.7228Z" fill="white"/>
<path fill-rule="evenodd" clip-rule="evenodd" d="M46.9959 45.4783H45.4393V42.3346C45.922 42.3346 46.3939 42.3311 46.8656 42.3404C46.9098 42.3413 46.9902 42.4233 46.9903 42.468C46.9976 43.4606 46.9959 44.4533 46.9959 45.4783Z" fill="white"/>
<path fill-rule="evenodd" clip-rule="evenodd" d="M1.64859 45.466H3.19373V42.3535H1.64859V45.466Z" fill="white"/>
<path fill-rule="evenodd" clip-rule="evenodd" d="M38.8714 3.3468H35.7128C35.7128 2.86213 35.7076 2.39082 35.721 1.92007C35.7223 1.87334 35.8373 1.79102 35.9003 1.79046C36.8315 1.78212 37.7625 1.78157 38.6938 1.79195C38.7535 1.79269 38.8617 1.89615 38.8636 1.95437C38.8777 2.40936 38.8714 2.86492 38.8714 3.3468Z" fill="white"/>
<path fill-rule="evenodd" clip-rule="evenodd" d="M45.3442 3.34731H42.1875C42.1875 2.85875 42.1834 2.37891 42.1951 1.89925C42.196 1.85976 42.3048 1.79005 42.3636 1.78949C43.2948 1.78263 44.2261 1.78152 45.1571 1.79153C45.22 1.79227 45.334 1.89184 45.3358 1.94839C45.3507 2.40375 45.3442 2.85968 45.3442 3.34731Z" fill="white"/>
<path fill-rule="evenodd" clip-rule="evenodd" d="M3.18283 6.578H1.63361V5.51894C1.63361 4.89948 1.63918 4.27984 1.63046 3.66057C1.62786 3.48573 1.68335 3.4201 1.85928 3.42399C2.236 3.43233 2.61329 3.42714 2.9902 3.4264C3.11602 3.42603 3.21679 3.43419 3.21569 3.60884C3.20974 4.56945 3.21178 5.53006 3.20993 6.49067C3.20993 6.51533 3.19489 6.5398 3.18283 6.578Z" fill="white"/>
<path fill-rule="evenodd" clip-rule="evenodd" d="M0.0371094 26.1232C0.517761 26.1232 0.982453 26.1178 1.44659 26.1309C1.49651 26.1322 1.5854 26.2403 1.58596 26.2995C1.59487 27.2325 1.59487 28.1658 1.58596 29.0988C1.5854 29.1594 1.49855 29.2703 1.44919 29.2716C0.984865 29.285 0.520173 29.2796 0.0371094 29.2796V26.1232Z" fill="white"/>
<path fill-rule="evenodd" clip-rule="evenodd" d="M46.9664 26.0283H45.4196V25.6223C45.4196 24.7885 45.4246 23.9549 45.4159 23.1215C45.4138 22.9333 45.4732 22.8691 45.6599 22.8743C46.0359 22.8849 46.4126 22.8804 46.7888 22.8764C46.93 22.8751 47.0009 22.9157 47 23.0749C46.9938 24.025 46.9959 24.975 46.994 25.925C46.994 25.9504 46.9808 25.9757 46.9664 26.0283Z" fill="white"/>
<path fill-rule="evenodd" clip-rule="evenodd" d="M3.20323 22.8776V26.0199H1.65605C1.64881 25.9546 1.63489 25.8864 1.63471 25.818C1.63322 24.9208 1.63805 24.0234 1.63007 23.126C1.62858 22.943 1.67739 22.8696 1.86965 22.8742C2.30651 22.885 2.74355 22.8776 3.20323 22.8776Z" fill="white"/>
<path fill-rule="evenodd" clip-rule="evenodd" d="M1.64825 13.04H3.19432V9.92676H1.64825V13.04Z" fill="white"/>
<path fill-rule="evenodd" clip-rule="evenodd" d="M46.9968 6.58194H45.4446C45.4355 6.51352 45.4209 6.45401 45.4207 6.3943C45.4192 5.48876 45.4237 4.58304 45.416 3.67731C45.4146 3.49579 45.4621 3.41773 45.6551 3.42311C46.0314 3.43386 46.4085 3.41792 46.7841 3.43424C46.8574 3.43757 46.987 3.53806 46.9877 3.59499C47.0005 4.5797 46.9968 5.5646 46.9968 6.58194Z" fill="white"/>
<path fill-rule="evenodd" clip-rule="evenodd" d="M0.0370178 6.67394C0.518226 6.67394 0.982732 6.66856 1.44687 6.68173C1.49679 6.68321 1.58531 6.79186 1.58605 6.85156C1.59496 7.78454 1.59496 8.71771 1.58605 9.65069C1.5855 9.71077 1.49827 9.82034 1.44891 9.82183C0.984588 9.83499 0.520082 9.82962 0.0370178 9.82962V6.67394Z" fill="white"/>
<path fill-rule="evenodd" clip-rule="evenodd" d="M13.0106 55.2112H16.1335V53.6738H13.0106V55.2112Z" fill="white"/>
<path fill-rule="evenodd" clip-rule="evenodd" d="M0.0522462 13.1453C0.519536 13.1453 0.991651 13.141 1.46339 13.1525C1.50756 13.1535 1.58606 13.2545 1.58662 13.3096C1.59423 14.2505 1.59571 15.1915 1.58328 16.1323C1.58254 16.1946 1.46005 16.3054 1.39028 16.3084C0.996847 16.3255 0.601933 16.3253 0.208504 16.308C0.142623 16.3051 0.0273785 16.1903 0.0266362 16.1261C0.015687 15.1674 0.0197697 14.2084 0.0218111 13.2495C0.0218111 13.2248 0.0357296 13.2 0.0522462 13.1453Z" fill="white"/>
<path fill-rule="evenodd" clip-rule="evenodd" d="M45.442 13.0494H46.9784V9.92578H45.442V13.0494Z" fill="white"/>
<path fill-rule="evenodd" clip-rule="evenodd" d="M5.8877 49.9922C5.8877 49.2675 5.88269 48.5607 5.89011 47.8541C5.89345 47.533 5.88418 47.2046 5.94653 46.8928C6.09091 46.1721 6.78479 45.7154 7.56293 45.789C8.23677 45.8528 8.8117 46.4784 8.81968 47.18C8.82951 48.0497 8.82339 48.9198 8.82302 49.7898C8.82302 49.851 8.81244 49.9122 8.80501 49.9922H5.8877Z" fill="white"/>
<path fill-rule="evenodd" clip-rule="evenodd" d="M9.44716 43.4799H7.84579C7.83688 43.4117 7.82241 43.352 7.82222 43.2923C7.82074 42.6111 7.81758 41.9301 7.82297 41.2489C7.82668 40.7742 8.1687 40.4394 8.63692 40.4375C9.10402 40.4357 9.45904 40.7733 9.46349 41.2402C9.46961 41.9212 9.46572 42.6024 9.4646 43.2836C9.4646 43.344 9.45421 43.4044 9.44716 43.4799Z" fill="white"/>
<path fill-rule="evenodd" clip-rule="evenodd" d="M6.92953 43.4945C6.40471 43.4945 5.91348 43.5007 5.42318 43.4858C5.3714 43.4842 5.28084 43.3603 5.27991 43.2923C5.27063 42.602 5.2647 41.9113 5.28121 41.2212C5.29253 40.7527 5.63845 40.4379 6.09535 40.4375C6.54445 40.4373 6.91413 40.7633 6.92489 41.2177C6.94215 41.9608 6.92953 42.7045 6.92953 43.4945Z" fill="white"/>
<path fill-rule="evenodd" clip-rule="evenodd" d="M42.7433 49.997H39.8414C39.8414 48.9461 39.77 47.9035 39.8655 46.8765C39.9335 46.1479 40.6767 45.7248 41.4543 45.7885C42.1151 45.8427 42.7112 46.4605 42.7359 47.1965C42.7669 48.1186 42.7433 49.0425 42.7433 49.997Z" fill="white"/>
<path fill-rule="evenodd" clip-rule="evenodd" d="M40.8096 43.4812H39.1799C39.1743 43.3733 39.1658 43.2776 39.1656 43.1821C39.1646 42.5367 39.1609 41.8915 39.1671 41.2463C39.1717 40.7701 39.5139 40.4379 39.9838 40.4375C40.4481 40.4369 40.8041 40.7774 40.8079 41.2435C40.8141 41.9779 40.8096 42.7123 40.8096 43.4812Z" fill="white"/>
<path fill-rule="evenodd" clip-rule="evenodd" d="M41.7051 43.4772C41.7051 42.6872 41.6858 41.9174 41.7127 41.1492C41.7277 40.7181 42.1258 40.4215 42.5725 40.4382C43.0034 40.4543 43.3389 40.7743 43.3445 41.2065C43.3545 41.957 43.3474 42.7078 43.3474 43.4772H41.7051Z" fill="white"/>
<path fill-rule="evenodd" clip-rule="evenodd" d="M25.3603 19.1959C25.3603 20.0569 25.3624 20.9179 25.3585 21.7788C25.3577 21.9405 25.3735 22.0597 25.5815 22.0564C26.0297 22.0493 26.4782 22.0514 26.9264 22.0556C27.0914 22.0573 27.1426 21.98 27.1424 21.8252C27.1395 20.0942 27.1424 18.3632 27.138 16.6324C27.1371 16.2773 26.9981 15.9868 26.6711 15.8129C26.0566 15.4858 25.3735 15.9111 25.3635 16.6398C25.3514 17.4918 25.3607 18.3439 25.3603 19.1959ZM27.5461 22.4741H24.9656C24.9585 22.3881 24.9454 22.3028 24.9454 22.2175C24.9442 20.3322 24.9418 18.447 24.9465 16.5619C24.9478 15.9046 25.4193 15.3636 26.0312 15.2939C26.7696 15.2097 27.3575 15.5856 27.5314 16.2564C27.5516 16.3331 27.5602 16.4151 27.5602 16.4948C27.5622 18.4249 27.5624 20.3549 27.5622 22.285C27.5622 22.3378 27.5533 22.3905 27.5461 22.4741Z" fill="white"/>
<path fill-rule="evenodd" clip-rule="evenodd" d="M23.2649 19.2336C23.2649 18.4085 23.2733 17.5833 23.259 16.7584C23.2553 16.55 23.2172 16.3242 23.1271 16.1395C22.9621 15.8022 22.5365 15.638 22.1901 15.7272C21.7395 15.843 21.4873 16.1575 21.4856 16.6481C21.4804 18.3609 21.4871 20.0739 21.4789 21.7869C21.4778 22.0118 21.5723 22.0611 21.7671 22.0576C22.1706 22.0504 22.5744 22.0463 22.9775 22.0593C23.2017 22.0665 23.2713 21.9825 23.2688 21.7626C23.259 20.9197 23.2648 20.0767 23.2649 19.2336ZM23.6684 22.474H21.0881C21.0809 22.3878 21.068 22.3025 21.068 22.2172C21.0671 20.3322 21.0651 18.4469 21.0692 16.5617C21.0705 15.9155 21.5301 15.3752 22.1268 15.2963C22.8682 15.198 23.4552 15.5581 23.6443 16.2313C23.668 16.316 23.6823 16.4067 23.6823 16.4947C23.6849 18.4247 23.6851 20.3548 23.6847 22.2849C23.6847 22.3376 23.6758 22.3904 23.6684 22.474Z" fill="white"/>
<path fill-rule="evenodd" clip-rule="evenodd" d="M21.8014 46.897C21.8014 47.6504 21.8074 48.4039 21.7975 49.1572C21.7949 49.3699 21.8461 49.4568 22.0802 49.4552C23.5685 49.4457 25.0574 49.4459 26.5458 49.4552C26.7781 49.4566 26.8353 49.3715 26.8312 49.1578C26.8202 48.611 26.8319 48.0637 26.8266 47.5165C26.8162 46.4682 26.8462 45.4166 26.775 44.372C26.6786 42.9586 25.1951 41.916 23.8194 42.2325C22.6052 42.5119 21.8122 43.4957 21.8025 44.7444C21.7972 45.462 21.8016 46.1795 21.8014 46.897ZM24.268 41.8101C24.4103 41.7846 24.5083 41.7449 24.6022 41.753C25.8202 41.8598 26.9212 42.8253 27.1743 44.0169C27.2241 44.2513 27.2398 44.4967 27.2406 44.737C27.2461 46.3616 27.2437 47.9863 27.2428 49.6109C27.2428 49.698 27.2332 49.7852 27.2268 49.8859H21.4134C21.403 49.8126 21.3846 49.7444 21.3846 49.6762C21.3859 47.9439 21.3724 46.2114 21.3972 44.4793C21.4156 43.1989 22.4812 42.0126 23.7489 41.8011C23.8898 41.7777 24.0323 41.7549 24.1739 41.7538C24.2257 41.7532 24.2778 41.8166 24.268 41.8101Z" fill="white"/>
<path fill-rule="evenodd" clip-rule="evenodd" d="M43.3499 35.2094C43.3499 35.5497 43.3436 35.8901 43.3525 36.2299C43.357 36.4048 43.2887 36.4698 43.117 36.4672C42.7234 36.4609 42.3294 36.4617 41.9356 36.4672C41.7697 36.4695 41.6962 36.4183 41.6986 36.2359C41.7075 35.5556 41.6964 34.8749 41.7046 34.1947C41.71 33.7419 42.0832 33.3952 42.5406 33.3965C42.9893 33.3978 43.3343 33.731 43.3462 34.1889C43.3551 34.5288 43.3481 34.8692 43.3481 35.2094H43.3499Z" fill="white"/>
<path fill-rule="evenodd" clip-rule="evenodd" d="M40.81 35.2172C40.8102 35.5484 40.8024 35.8797 40.8134 36.2105C40.8193 36.3905 40.767 36.4727 40.5744 36.4682C40.1809 36.4591 39.7869 36.4608 39.3933 36.4673C39.2191 36.4702 39.1604 36.4003 39.1625 36.2279C39.1697 35.5478 39.1608 34.8676 39.1678 34.1873C39.1729 33.7388 39.5284 33.3993 39.9768 33.3965C40.4335 33.3936 40.7945 33.7405 40.8095 34.1969C40.81 34.2147 40.81 34.2327 40.81 34.2507V35.2172Z" fill="white"/>
<path fill-rule="evenodd" clip-rule="evenodd" d="M5.27689 35.187C5.27689 34.8555 5.26539 34.5237 5.27986 34.1931C5.30083 33.7101 5.64211 33.3915 6.10922 33.3965C6.55591 33.4014 6.92113 33.7572 6.92781 34.2196C6.93727 34.8913 6.92688 35.5632 6.93319 36.235C6.93468 36.3904 6.89329 36.4686 6.72534 36.4666C6.31336 36.4614 5.90137 36.4619 5.48957 36.466C5.32514 36.4677 5.26984 36.3894 5.27207 36.235C5.27652 35.8859 5.27337 35.5364 5.27337 35.187H5.27689Z" fill="white"/>
<path fill-rule="evenodd" clip-rule="evenodd" d="M7.82157 35.1648C7.82194 34.8426 7.81767 34.5203 7.82306 34.1981C7.83066 33.7481 8.17974 33.4014 8.62179 33.3965C9.08555 33.3915 9.45727 33.7312 9.46265 34.1855C9.47082 34.8655 9.46098 35.546 9.46841 36.2261C9.47026 36.3968 9.41756 36.4704 9.2407 36.4673C8.84708 36.4604 8.4531 36.4593 8.05948 36.468C7.86982 36.4721 7.81211 36.3942 7.81786 36.2118C7.82899 35.8632 7.8212 35.5139 7.82157 35.1648Z" fill="white"/>
<path fill-rule="evenodd" clip-rule="evenodd" d="M15.8997 48.583C15.8997 48.216 15.8933 47.8487 15.9013 47.482C15.9106 47.0567 16.2222 46.694 16.5989 46.6536C16.9519 46.6158 17.2989 46.9174 17.3878 47.3513C17.416 47.49 17.4281 47.6342 17.4292 47.7761C17.4335 48.4207 17.4249 49.0652 17.4348 49.7097C17.4377 49.8994 17.3756 49.9606 17.1887 49.9544C16.8313 49.9428 16.4727 49.9452 16.1149 49.9537C15.9533 49.9574 15.8917 49.9025 15.8954 49.7377C15.9036 49.353 15.8978 48.9679 15.8978 48.583H15.8997Z" fill="white"/>
<path fill-rule="evenodd" clip-rule="evenodd" d="M31.2046 49.9499C31.2046 49.0915 31.1775 48.277 31.2137 47.465C31.2395 46.8793 31.7621 46.5161 32.2214 46.7113C32.5378 46.8458 32.7173 47.1085 32.7249 47.4439C32.7425 48.2135 32.7353 48.9839 32.7258 49.7537C32.7249 49.8197 32.6332 49.9395 32.5807 49.9414C32.1355 49.9564 31.6893 49.9499 31.2046 49.9499Z" fill="white"/>
<path fill-rule="evenodd" clip-rule="evenodd" d="M15.9512 40.1165C15.9512 39.8119 15.941 39.5069 15.954 39.203C15.9692 38.8413 16.2335 38.58 16.5822 38.5576C16.9621 38.5333 17.2961 38.7386 17.3219 39.0999C17.3696 39.768 17.362 40.4401 17.3631 41.1107C17.3633 41.1569 17.2482 41.2412 17.1844 41.2436C16.8355 41.2566 16.4859 41.2462 16.1366 41.2509C15.9766 41.2531 15.9423 41.1674 15.9444 41.0302C15.9486 40.7258 15.9457 40.4212 15.9457 40.1165H15.9512Z" fill="white"/>
<path fill-rule="evenodd" clip-rule="evenodd" d="M32.682 40.137C32.6821 40.4329 32.6764 40.7288 32.6844 41.0246C32.6886 41.1814 32.6398 41.2558 32.4723 41.2523C32.1317 41.2452 31.791 41.2465 31.4503 41.2517C31.2974 41.2539 31.2517 41.1877 31.2534 41.0405C31.2595 40.4667 31.2485 39.8926 31.2584 39.319C31.2664 38.8549 31.5633 38.5621 31.9829 38.5519C32.3578 38.5427 32.7193 38.8814 32.6859 39.3303C32.6656 39.5977 32.682 39.868 32.682 40.137Z" fill="white"/>
<path fill-rule="evenodd" clip-rule="evenodd" d="M15.945 35.1974C15.945 35.0159 15.9445 34.8663 15.945 34.7167C15.9473 34.187 15.9406 33.6572 15.9552 33.1279C15.9647 32.779 16.2509 32.5051 16.5918 32.483C16.9427 32.4604 17.2883 32.6798 17.3204 33.0207C17.3696 33.5458 17.3653 34.0765 17.3718 34.6047C17.3794 35.1974 17.3736 35.1974 16.7829 35.1974H15.945Z" fill="white"/>
<path fill-rule="evenodd" clip-rule="evenodd" d="M32.6795 35.1849H31.2559C31.2559 34.5501 31.2541 33.9266 31.258 33.3032C31.2585 33.2064 31.2762 33.1074 31.301 33.0136C31.3949 32.6619 31.7117 32.4455 32.066 32.4839C32.4023 32.5202 32.6721 32.8024 32.6767 33.156C32.6858 33.8251 32.6795 34.4943 32.6795 35.1849Z" fill="white"/>
<path fill-rule="evenodd" clip-rule="evenodd" d="M29.5394 41.6249C29.5394 40.8182 29.5307 40.0243 29.5492 39.2309C29.5518 39.1161 29.6856 39.0047 29.7588 38.8916C29.8167 39.0117 29.9213 39.1304 29.925 39.2522C29.9467 39.9414 29.9443 40.6313 29.9505 41.3208C29.9532 41.6401 29.6912 41.5619 29.5394 41.6249Z" fill="white"/>
<path fill-rule="evenodd" clip-rule="evenodd" d="M19.097 41.6075C18.6809 41.574 18.6522 41.5491 18.6579 41.1549C18.6678 40.5123 18.6835 39.8697 18.6995 39.2271C18.701 39.1659 18.7092 39.0988 18.7366 39.0459C18.7667 38.9879 18.8225 38.9432 18.8671 38.8926C18.9159 38.9374 18.9799 38.9738 19.0102 39.0289C19.0525 39.1052 19.0927 39.1955 19.0933 39.2803C19.0996 40.0558 19.097 40.8316 19.097 41.6075Z" fill="white"/>
<path fill-rule="evenodd" clip-rule="evenodd" d="M14.2278 41.6093C14.2278 40.8118 14.2273 40.0118 14.2293 39.2119C14.2293 39.1689 14.2399 39.119 14.2636 39.0847C14.311 39.0165 14.3707 38.9568 14.4251 38.8936C14.4763 38.9588 14.5515 39.0172 14.5734 39.0912C14.6107 39.2175 14.6289 39.3534 14.6302 39.4856C14.6361 40.0401 14.6329 40.5945 14.6329 41.1493C14.6329 41.5585 14.6313 41.5601 14.2278 41.6093Z" fill="white"/>
<path fill-rule="evenodd" clip-rule="evenodd" d="M34.4543 41.6122C34.0113 41.576 33.9994 41.5636 33.9994 41.1594C33.9996 40.5772 33.9855 39.9945 34.0091 39.4134C34.0161 39.2374 34.1279 39.0661 34.1917 38.8926C34.2735 39.048 34.4029 39.1965 34.4272 39.3604C34.4699 39.65 34.4517 39.949 34.4536 40.2442C34.4563 40.6996 34.4543 41.1551 34.4543 41.6122Z" fill="white"/>
<path fill-rule="evenodd" clip-rule="evenodd" d="M19.083 35.5503C18.6569 35.4815 18.6518 35.4815 18.6581 35.0766C18.6681 34.4319 18.6809 33.7874 18.7048 33.1433C18.7091 33.0287 18.7733 32.9166 18.8099 32.8035C18.8466 32.7983 18.8834 32.7931 18.9201 32.7881C18.9802 32.9418 19.0879 33.094 19.0927 33.2494C19.115 33.9929 19.1096 34.7369 19.1122 35.481C19.1122 35.5043 19.0929 35.5279 19.083 35.5503Z" fill="white"/>
<path fill-rule="evenodd" clip-rule="evenodd" d="M29.7983 32.7695C29.8488 32.9303 29.9245 33.0643 29.9278 33.2002C29.9458 33.8909 29.944 34.5821 29.9508 35.2731C29.9538 35.562 29.6959 35.4856 29.5552 35.5794C29.3423 35.0983 29.4914 33.0558 29.7983 32.7695Z" fill="white"/>
<path fill-rule="evenodd" clip-rule="evenodd" d="M14.2168 35.5923C14.0338 34.6191 14.1626 33.0399 14.4897 32.7676C14.5421 32.9684 14.6213 33.1391 14.6254 33.3114C14.641 33.9663 14.6299 34.6219 14.6339 35.2771C14.6358 35.5721 14.3747 35.4772 14.2168 35.5923Z" fill="white"/>
<path fill-rule="evenodd" clip-rule="evenodd" d="M34.273 32.7959C34.332 32.9928 34.4363 33.1884 34.4423 33.387C34.4629 34.0864 34.4502 34.787 34.4484 35.4871C34.4484 35.5103 34.4289 35.5333 34.4191 35.555C33.9995 35.4842 33.9993 35.4842 33.9993 35.1057C33.9995 34.5223 33.9906 33.9384 34.0056 33.3553C34.0104 33.1701 34.0795 32.9865 34.1192 32.8022C34.1704 32.8002 34.2218 32.7979 34.273 32.7959Z" fill="white"/>
<path fill-rule="evenodd" clip-rule="evenodd" d="M36.5773 14.6519C36.6569 14.6854 36.7364 14.7188 36.8375 14.7614C36.8542 14.6385 36.8679 14.5365 36.8819 14.4346C36.9089 14.4349 36.9364 14.4351 36.9635 14.4353C36.973 14.5312 36.9826 14.6272 36.9952 14.7546C37.1123 14.7357 37.2278 14.7168 37.3432 14.698C37.3519 14.7168 37.3605 14.7355 37.3692 14.754C37.331 14.7752 37.2925 14.8148 37.2547 14.8141C36.9329 14.8091 36.9032 14.8427 36.9483 15.1605C36.9652 15.2786 36.9691 15.3985 36.9789 15.5177C36.937 15.5185 36.8952 15.5192 36.8535 15.5201C36.8664 15.3705 36.8789 15.2211 36.8926 15.0716C36.9073 14.9109 36.9039 14.7748 36.6731 14.8174C36.6274 14.8258 36.5691 14.7666 36.5168 14.7386C36.5369 14.7097 36.5573 14.6808 36.5773 14.6519Z" fill="white"/>
<path fill-rule="evenodd" clip-rule="evenodd" d="M38.4786 13.967C38.3476 14.0284 38.2337 14.0818 38.1422 14.1246C38.1895 14.0376 38.2511 13.9256 38.3125 13.8135C38.3588 13.8409 38.4098 13.8626 38.4489 13.8977C38.4718 13.918 38.4759 13.9598 38.4786 13.967Z" fill="white"/>
<path fill-rule="evenodd" clip-rule="evenodd" d="M37.4584 11.29C37.4011 11.3078 37.3438 11.3256 37.2411 11.3573C37.3324 11.4042 37.3807 11.4291 37.443 11.461C37.3759 11.506 37.3217 11.5418 37.2335 11.6006C37.1979 11.5055 37.1222 11.3686 37.1441 11.3507C37.2209 11.2874 37.3311 11.2652 37.4289 11.2275C37.4388 11.2483 37.4484 11.2691 37.4584 11.29Z" fill="white"/>
<path fill-rule="evenodd" clip-rule="evenodd" d="M36.6123 11.2471C36.6477 11.2715 36.734 11.3008 36.758 11.3568C36.7788 11.405 36.7426 11.4944 36.7042 11.5447C36.6836 11.5717 36.6054 11.5552 36.5531 11.5582C36.5598 11.5124 36.5648 11.4662 36.5733 11.4208C36.5819 11.3746 36.5937 11.329 36.6123 11.2471Z" fill="white"/>
<path fill-rule="evenodd" clip-rule="evenodd" d="M33.5497 12.4096C33.6121 12.424 33.6746 12.4385 33.7372 12.453C33.7455 12.3949 33.7639 12.3361 33.7594 12.279C33.7546 12.218 33.7285 12.1587 33.7116 12.0986C33.7678 12.2041 33.824 12.3096 33.9187 12.4878C33.9686 12.3287 33.9964 12.2395 34.0245 12.1504C34.0412 12.1513 34.0579 12.1522 34.0747 12.1531C34.0567 12.3259 34.0389 12.4987 34.0256 12.625C33.9092 12.5863 33.8062 12.5588 33.7088 12.5173C33.6511 12.4926 33.6024 12.4463 33.5497 12.4096Z" fill="white"/>
<path fill-rule="evenodd" clip-rule="evenodd" d="M14.2212 14.4235C13.5549 14.4235 12.8889 14.4237 12.2227 14.4239V12.1543C12.8889 12.1545 13.5551 12.1545 14.2212 12.1547V14.4235Z" fill="white"/>
<path fill-rule="evenodd" clip-rule="evenodd" d="M8.18307 14.4241H10.184V12.1543H8.18307V14.4241Z" fill="white"/>
<path fill-rule="evenodd" clip-rule="evenodd" d="M14.221 18.8948C13.555 18.8948 12.8891 18.895 12.2231 18.895C12.2229 18.1387 12.2229 17.3823 12.2229 16.626C12.8889 16.626 13.5551 16.626 14.2212 16.6262C14.2212 17.3823 14.221 18.1386 14.221 18.8948Z" fill="white"/>
<path fill-rule="evenodd" clip-rule="evenodd" d="M8.17227 16.6361H10.1791C10.1886 16.7423 10.2021 16.8276 10.2025 16.9131C10.2046 17.4769 10.1973 18.0409 10.2072 18.6046C10.2103 18.797 10.1598 18.8757 9.95217 18.871C9.38132 18.8588 8.80992 18.8668 8.18174 18.8668C8.18174 18.1032 8.18174 17.3655 8.18155 16.6279C8.18137 16.6279 8.17227 16.6361 8.17227 16.6361Z" fill="white"/>
<path fill-rule="evenodd" clip-rule="evenodd" d="M12.229 14.418C12.229 15.1559 12.229 15.894 12.2288 16.6321H10.248V14.418H12.229Z" fill="white"/>
</g>
</svg>
