<svg width="131" height="15" viewBox="0 0 131 15" fill="none" xmlns="http://www.w3.org/2000/svg">
<path fill-rule="evenodd" clip-rule="evenodd" d="M0.833597 9.11479C0.833597 8.80194 0.773846 8.54827 0.65143 8.35878C0.529013 8.1693 0.314785 8.0712 0 8.0712V6.71078C0.136795 6.71525 0.272765 6.68819 0.397367 6.63154C0.500109 6.58412 0.587938 6.50949 0.65143 6.41582C0.718273 6.31568 0.765442 6.20374 0.790362 6.08592C0.820384 5.94822 0.834908 5.80757 0.833597 5.66662C0.833597 5.43272 0.819169 5.19907 0.790362 4.96697C0.760244 4.73089 0.727697 4.4952 0.693207 4.2581C0.658716 4.021 0.622769 3.78487 0.596051 3.54437C0.567438 3.30479 0.553011 3.0637 0.552816 2.82238C0.547813 2.42771 0.610576 2.03513 0.738384 1.66165C0.853854 1.32296 1.04933 1.01711 1.3082 0.770092C1.59073 0.509573 1.92757 0.314888 2.29433 0.200224C2.69122 0.0670491 3.16874 0 3.72301 0H4.13058V1.05286C4.13378 1.12691 4.11557 1.20028 4.07811 1.26421C4.04304 1.32072 3.99772 1.37013 3.94453 1.40997C3.89337 1.44515 3.83722 1.47236 3.7779 1.49063C3.73001 1.50778 3.67963 1.5173 3.62877 1.51881C3.29795 1.51881 3.05604 1.62035 2.9001 1.82441C2.74417 2.02848 2.66693 2.31028 2.66693 2.6737C2.66693 2.96231 2.68101 3.2339 2.70385 3.49141C2.72668 3.74892 2.75242 3.99525 2.77866 4.23478C2.80489 4.47431 2.82966 4.70704 2.85395 4.93739C2.87824 5.16764 2.89038 5.40182 2.89038 5.63795C2.89106 5.83167 2.86372 6.02446 2.80926 6.2103C2.75869 6.39138 2.67805 6.56269 2.57074 6.71705C2.46202 6.87418 2.32829 7.01241 2.17483 7.12615C2.01137 7.24805 1.82745 7.33969 1.63173 7.39678C1.82624 7.45537 2.00972 7.54564 2.17483 7.66405C2.32819 7.77623 2.46193 7.913 2.57074 8.06877C2.67839 8.22435 2.75903 8.39697 2.80926 8.57936C2.86308 8.76458 2.89038 8.95644 2.89038 9.14928C2.89038 9.38541 2.87533 9.61911 2.85395 9.8499C2.83258 10.0807 2.80537 10.3163 2.77866 10.552C2.75194 10.7877 2.72619 11.0378 2.70385 11.2953C2.6815 11.5529 2.66693 11.8254 2.66693 12.1121C2.66693 12.4731 2.74757 12.7568 2.9001 12.9609C3.05264 13.1649 3.29698 13.2675 3.62877 13.2675C3.67963 13.2688 3.72996 13.2781 3.7779 13.2951C3.83702 13.3146 3.89308 13.3422 3.94453 13.3773C3.99806 13.4156 4.04348 13.4641 4.07811 13.5201C4.11571 13.5838 4.13393 13.6571 4.13058 13.731V14.7843H3.72155C3.16874 14.7843 2.68976 14.7173 2.29288 14.5851C1.92582 14.4684 1.58908 14.272 1.30675 14.0099C1.04797 13.7622 0.851959 13.4564 0.734984 13.1179C0.606835 12.7465 0.544024 12.3557 0.549416 11.9629C0.549999 11.7219 0.564912 11.4811 0.594108 11.2419C0.622283 10.9993 0.654684 10.7604 0.691263 10.5252C0.72624 10.2901 0.758787 10.0535 0.788419 9.81686C0.818003 9.58398 0.833111 9.34951 0.833597 9.11479Z" fill="white"/>
<path fill-rule="evenodd" clip-rule="evenodd" d="M16.892 1.62891V3.73415H13.6722V13.0768H11.0145V3.73415H7.79575V1.62891H16.892Z" fill="white"/>
<path fill-rule="evenodd" clip-rule="evenodd" d="M22.2195 7.01129H23.2882C23.6511 7.01129 23.9567 6.9666 24.2112 6.87331C24.445 6.7945 24.6581 6.66434 24.8349 6.49239C24.9954 6.33298 25.1162 6.1381 25.1876 5.92345C25.2635 5.69592 25.3011 5.45736 25.2989 5.21749C25.2989 4.71511 25.1366 4.32204 24.8087 4.03879C24.4808 3.75553 23.9751 3.61414 23.2887 3.61414H22.22L22.2195 7.01129ZM22.2195 8.84154V13.0768H19.5647V1.62891H23.2887C24.1145 1.62891 24.8238 1.71199 25.4072 1.88398C25.9906 2.05598 26.4676 2.29017 26.8373 2.59432C27.1915 2.88063 27.4682 3.2511 27.6423 3.67196C27.8107 4.10219 27.8954 4.56065 27.8919 5.02266C27.8935 5.37952 27.8429 5.73474 27.7418 6.07698C27.6431 6.40353 27.4933 6.7123 27.2978 6.99186C27.0975 7.27784 26.8545 7.53146 26.5774 7.74398C26.2766 7.97199 25.9441 8.15468 25.5903 8.2862C25.7684 8.37594 25.9353 8.48613 26.0878 8.61464C26.2478 8.75117 26.3842 8.91321 26.4914 9.09419L28.9301 13.0783H26.525C26.081 13.0783 25.7617 12.9115 25.567 12.5778L23.6671 9.25015C23.5974 9.12154 23.4955 9.0132 23.3713 8.9358C23.2581 8.87312 23.0988 8.83862 22.8952 8.83862L22.2195 8.84154Z" fill="white"/>
<path fill-rule="evenodd" clip-rule="evenodd" d="M34.8872 8.69967H38.0137L36.961 5.56439C36.8915 5.36519 36.8129 5.13101 36.7215 4.86135C36.6302 4.5917 36.5394 4.30018 36.4466 3.9868C36.3664 4.3065 36.277 4.60239 36.1896 4.87301C36.1022 5.14369 36.0181 5.3822 35.9375 5.58237L34.8872 8.69967ZM42.24 13.0763H40.1793C39.9524 13.0763 39.761 13.0244 39.6095 12.9155C39.4651 12.8155 39.3569 12.6714 39.301 12.5049L38.6258 10.509H34.2722L33.5985 12.5049C33.4565 12.857 33.1117 13.0846 32.7323 13.0768H30.6541L35.0883 1.62891H37.8063L42.24 13.0763Z" fill="white"/>
<path fill-rule="evenodd" clip-rule="evenodd" d="M42.2258 1.62891H44.3608C44.593 1.62891 44.7801 1.68089 44.9272 1.78487C45.0735 1.88773 45.1837 2.03387 45.2425 2.20271L47.4572 8.33182C47.5543 8.60007 47.6583 8.89056 47.7589 9.20637C47.8594 9.52219 47.9575 9.85116 48.045 10.1961C48.1193 9.85116 48.2058 9.51883 48.302 9.20637C48.3981 8.89401 48.4963 8.60201 48.589 8.33182L50.7891 2.20514C50.9278 1.85104 51.2733 1.62172 51.6533 1.63134H53.8053L49.2162 13.0792H46.814L42.2258 1.62891Z" fill="white"/>
<path fill-rule="evenodd" clip-rule="evenodd" d="M63.6904 1.62891V3.67196H58.9905V6.3442H62.5916V8.30806H58.9905V11.0372H63.6904V13.0778H56.3211V1.62891H63.6904Z" fill="white"/>
<path fill-rule="evenodd" clip-rule="evenodd" d="M69.4266 10.957H73.6698V13.0768H66.7718V1.62891H69.4275L69.4266 10.957Z" fill="white"/>
<path fill-rule="evenodd" clip-rule="evenodd" d="M83.0463 3.10133C83.0063 3.17217 82.953 3.23465 82.8895 3.28548C82.8278 3.32935 82.7533 3.35141 82.6776 3.34815C82.5805 3.34815 82.4731 3.29957 82.3507 3.20677C82.1996 3.09511 82.0425 2.99197 81.88 2.89776C81.6621 2.77323 81.4329 2.6696 81.1955 2.58826C80.8817 2.48774 80.5534 2.44012 80.2239 2.44736C79.9023 2.44241 79.5821 2.49167 79.2767 2.59312C79.023 2.67669 78.7882 2.80962 78.5859 2.98424C78.4052 3.14492 78.263 3.34417 78.1696 3.56728C78.0743 3.79612 78.0261 4.04182 78.0277 4.28975C78.0277 4.61883 78.1087 4.89252 78.2706 5.11086C78.444 5.33873 78.6622 5.52861 78.9119 5.66863C79.201 5.83106 79.5054 5.96447 79.8208 6.06704C80.1608 6.18025 80.5067 6.29782 80.8633 6.41832C81.2198 6.53881 81.5628 6.67631 81.9004 6.82742C82.2297 6.97269 82.5358 7.16572 82.8088 7.40025C83.0796 7.63584 83.2985 7.92503 83.452 8.24954C83.6138 8.58964 83.6949 8.99966 83.6949 9.488C83.6985 9.98611 83.6087 10.4806 83.4301 10.9456C83.2598 11.3906 82.997 11.7945 82.6592 12.1306C82.304 12.4762 81.8815 12.7451 81.418 12.9206C80.9249 13.115 80.3658 13.2121 79.7372 13.2121C78.9729 13.2121 78.2766 13.073 77.6484 12.7948C77.0398 12.5326 76.4909 12.1492 76.0351 11.668L76.4971 10.9086C76.5419 10.8489 76.5962 10.7969 76.6578 10.7546C76.721 10.7149 76.7941 10.6938 76.8687 10.6939C76.9853 10.6939 77.115 10.7546 77.2661 10.88C77.4432 11.0256 77.628 11.1616 77.8198 11.2871C78.0748 11.4521 78.3466 11.5894 78.6306 11.6967C78.9468 11.8215 79.3321 11.8823 79.7883 11.8823C80.1334 11.8881 80.4772 11.8355 80.8049 11.7268C81.084 11.6324 81.3406 11.4815 81.5589 11.2837C81.7653 11.0947 81.9275 10.8624 82.034 10.6035C82.1475 10.3233 82.2036 10.0231 82.1992 9.72068C82.1992 9.36313 82.1195 9.07016 81.9563 8.84229C81.7861 8.60767 81.568 8.41191 81.3165 8.268C81.0302 8.10446 80.7267 7.97313 80.4115 7.87634L79.3729 7.54596C79.0194 7.43426 78.6722 7.30356 78.3329 7.1544C78.003 7.01131 77.6979 6.81663 77.4293 6.57768C77.1564 6.32975 76.9387 6.0271 76.7905 5.68952C76.6249 5.33485 76.5476 4.89708 76.5476 4.37235C76.55 3.5251 76.8917 2.7142 77.4963 2.12086C77.8251 1.80461 78.2135 1.55687 78.6389 1.39207C79.0926 1.21133 79.6105 1.11853 80.2021 1.11853C80.8189 1.11109 81.4317 1.21779 82.0097 1.43337C82.5423 1.63539 83.028 1.94425 83.4369 2.34096L83.0463 3.10133Z" fill="white"/>
<path fill-rule="evenodd" clip-rule="evenodd" d="M96.7303 7.1691C96.7303 6.4403 96.6298 5.7907 96.4335 5.21253C96.2571 4.67132 95.9703 4.17268 95.5912 3.74813C95.2258 3.34574 94.775 3.03027 94.2718 2.825C93.7559 2.60976 93.1773 2.50238 92.54 2.50238C91.9026 2.50238 91.3309 2.60976 90.8155 2.825C90.3107 3.03042 89.8579 3.34579 89.4903 3.74813C89.1098 4.17239 88.8214 4.67103 88.6435 5.21253C88.4448 5.7907 88.3477 6.44176 88.3477 7.1691C88.3477 7.89643 88.4448 8.54409 88.6435 9.11983C88.8219 9.66021 89.1102 10.1578 89.4903 10.5813C89.8583 10.9814 90.311 11.2944 90.8155 11.4972C91.3307 11.709 91.9056 11.8148 92.54 11.8144C93.1773 11.8144 93.7544 11.709 94.2718 11.4972C94.7746 11.2945 95.2254 10.9815 95.5912 10.5813C95.9698 10.1575 96.2566 9.65992 96.4335 9.11983C96.6278 8.54409 96.7284 7.89352 96.7284 7.1691H96.7303ZM98.3718 7.1691C98.3718 8.05337 98.2309 8.86962 97.953 9.60715C97.6901 10.3187 97.2845 10.9689 96.7614 11.5181C96.2429 12.059 95.6144 12.4825 94.9184 12.7599C94.2018 13.0543 93.4066 13.2011 92.538 13.2011C91.6695 13.2011 90.8757 13.0553 90.1577 12.7599C89.464 12.4798 88.837 12.0566 88.3176 11.5181C87.7971 10.9674 87.393 10.3175 87.1294 9.60715C86.851 8.86762 86.7106 8.05239 86.7106 7.1691C86.7106 6.2858 86.851 5.46858 87.1294 4.73006C87.3938 4.01861 87.7978 3.36722 88.3176 2.81431C88.837 2.27369 89.4638 1.84783 90.1577 1.56418C90.8744 1.26746 91.6678 1.11845 92.538 1.11719C93.4047 1.11719 94.1999 1.26732 94.9184 1.56418C95.6146 1.84511 96.2429 2.27131 96.7614 2.81431C97.2834 3.36625 97.6881 4.01827 97.9511 4.73104C98.2289 5.46984 98.3691 6.28254 98.3718 7.1691Z" fill="white"/>
<path fill-rule="evenodd" clip-rule="evenodd" d="M109.496 1.25195V2.55504H103.817V6.69021H108.67V7.99476H103.819V13.0769H102.207V1.25195H109.496Z" fill="white"/>
<path fill-rule="evenodd" clip-rule="evenodd" d="M121.252 1.25195V2.59391H117.432V13.0769H115.834V2.59391H111.993V1.25195H121.252Z" fill="white"/>
<path fill-rule="evenodd" clip-rule="evenodd" d="M129.876 9.11479C129.877 9.34868 129.892 9.58238 129.921 9.81443C129.949 10.0511 129.983 10.2877 130.018 10.5228C130.053 10.758 130.086 10.997 130.115 11.2395C130.145 11.4787 130.159 11.7195 130.158 11.9605C130.163 12.3533 130.1 12.744 129.972 13.1154C129.856 13.4539 129.66 13.7597 129.402 14.0074C129.119 14.2697 128.782 14.4662 128.414 14.5827C128.018 14.7149 127.54 14.7819 126.987 14.7819H126.578V13.7285C126.574 13.6545 126.593 13.5811 126.631 13.5177C126.665 13.4607 126.712 13.412 126.767 13.3749C126.817 13.3393 126.871 13.3116 126.929 13.2927C126.977 13.2761 127.027 13.2668 127.078 13.265C127.407 13.265 127.65 13.1628 127.807 12.9584C127.96 12.7544 128.037 12.4726 128.037 12.1097C128.037 11.823 128.026 11.5494 128.001 11.2929C127.977 11.0364 127.953 10.7891 127.928 10.5495C127.903 10.3101 127.876 10.0768 127.851 9.84747C127.826 9.61814 127.819 9.38303 127.819 9.14685C127.818 8.95426 127.844 8.76249 127.896 8.57698C127.948 8.39508 128.028 8.22264 128.135 8.06629C128.36 7.74208 128.689 7.50483 129.068 7.39435C128.873 7.33799 128.69 7.24625 128.528 7.12372C128.376 7.00881 128.244 6.87078 128.135 6.71462C128.029 6.55954 127.948 6.38846 127.896 6.20787C127.844 6.02159 127.818 5.82899 127.819 5.63552C127.819 5.39939 127.829 5.16521 127.851 4.93491C127.873 4.70461 127.9 4.46994 127.928 4.23235C127.956 3.99476 127.977 3.74649 128.001 3.48898C128.026 3.23147 128.037 2.95988 128.037 2.67127C128.037 2.30979 127.96 2.02848 127.806 1.82199C127.653 1.61549 127.406 1.51638 127.078 1.51638C127.027 1.51448 126.977 1.50496 126.929 1.4882C126.871 1.47046 126.816 1.44321 126.767 1.40754C126.712 1.36892 126.666 1.31926 126.631 1.26179C126.593 1.19814 126.574 1.12463 126.578 1.05044V0H126.987C127.539 0 128.018 0.0670491 128.414 0.200224C128.782 0.314693 129.119 0.50933 129.402 0.770093C129.661 1.01701 129.857 1.32291 129.972 1.66165C130.1 2.03518 130.162 2.42771 130.158 2.82238C130.159 3.0637 130.144 3.30484 130.115 3.54437C130.087 3.7873 130.055 4.02343 130.018 4.2581C129.982 4.49277 129.948 4.73089 129.921 4.96698C129.892 5.19907 129.877 5.43272 129.876 5.66662C129.875 5.80766 129.891 5.94827 129.921 6.08592C129.945 6.20364 129.991 6.31568 130.057 6.41582C130.122 6.50935 130.211 6.58378 130.314 6.63154C130.438 6.688 130.573 6.71511 130.709 6.71079V8.0712C130.394 8.0712 130.174 8.16837 130.057 8.35878C129.939 8.54924 129.876 8.80194 129.876 9.11479Z" fill="white"/>
</svg>
