<svg width="129" height="14" viewBox="0 0 129 14" fill="none" xmlns="http://www.w3.org/2000/svg">
<path fill-rule="evenodd" clip-rule="evenodd" d="M52.4093 8.72295C53.525 8.09802 54.1257 7.94286 56.3656 7.86571H58.1935V5.37116H56.3656C55.007 5.27601 53.6468 5.5246 52.4093 6.09124V2.99662H59.9185V0.467773H49.9635V13.3263H60.3304V10.7546H52.4093V8.72295Z" fill="white"/>
<path fill-rule="evenodd" clip-rule="evenodd" d="M21.1803 5.52546L17.8248 0.467773H14.6752L19.9531 8.1486V13.3092H22.4418V8.1486L27.6767 0.467773H24.6302L21.1803 5.52546Z" fill="white"/>
<path fill-rule="evenodd" clip-rule="evenodd" d="M0 3.04805H4.57414V13.3092H7.10579V3.04805H11.8344V0.467773H0V3.04805Z" fill="white"/>
<path fill-rule="evenodd" clip-rule="evenodd" d="M40.0172 6.14322H38.9016C37.5405 6.04806 36.1777 6.2958 34.9367 6.86329V3.0486H40.0172C41.0299 3.0486 41.991 3.30577 41.991 4.54019C41.991 5.93748 41.2358 6.14322 40.0172 6.14322ZM40.4721 0.468319H32.448V13.3268H34.9367V9.435C36.0009 8.86922 36.5587 8.71492 38.9016 8.71492H40.0172C42.8578 8.71492 44.5828 7.11189 44.5828 4.58305C44.7244 2.45196 43.1101 0.61062 40.9784 0.468319C40.8093 0.457175 40.6411 0.457175 40.4721 0.468319Z" fill="white"/>
<path fill-rule="evenodd" clip-rule="evenodd" d="M107.273 5.1483C104.836 5.1483 104.536 4.62539 104.536 3.85388C104.536 3.08237 105.849 2.46516 107.11 2.46516C108.459 2.38115 109.792 2.78233 110.869 3.59671L112.586 1.63364C110.96 0.511517 109.016 -0.0594012 107.042 0.00489146C104.253 0.00489146 101.815 1.54791 101.815 3.87102C101.815 6.65704 103.995 7.68572 107.042 7.68572C109.685 7.68572 110.955 7.89145 110.955 9.08301C110.955 10.4203 109.333 11.1404 107.042 11.1404C104.75 11.1404 103.901 9.85452 103.137 9.03158L101.309 10.8832C102.739 12.5737 104.826 13.5698 107.042 13.6178C110.646 13.6178 113.444 12.1776 113.444 9.08301C113.444 7.01707 112.628 5.1483 107.273 5.1483Z" fill="white"/>
<path fill-rule="evenodd" clip-rule="evenodd" d="M76.3185 9.43479C75.5993 8.71729 74.6828 8.23038 73.6847 8.0375L72.4137 10.292C72.9621 10.376 73.4822 10.5869 73.9336 10.9092H73.9842C73.4659 11.0978 72.9149 11.1861 72.3631 11.1664C69.9258 11.1664 67.4877 9.88056 67.4877 6.94024C67.4877 3.99992 69.8735 2.71407 72.3107 2.71407C74.748 2.71407 77.2882 3.94849 77.2882 6.83737C77.308 7.7949 76.9613 8.72414 76.3185 9.43479ZM72.3631 0.0566406C68.5519 0.0566406 64.896 2.57691 64.896 6.86309C64.896 11.1493 68.5012 13.721 72.3107 13.721C73.7508 13.7107 75.1634 13.3395 76.4215 12.6409C77.0188 13.1226 77.7431 13.4192 78.5077 13.4981L79.8113 11.295C79.3453 11.2607 78.893 11.1201 78.4897 10.8835C79.3719 9.69111 79.8362 8.24152 79.8113 6.76022C79.8113 2.32831 76.1219 0.0566406 72.3631 0.0566406Z" fill="white"/>
<path fill-rule="evenodd" clip-rule="evenodd" d="M116.894 0.467773V3.04805H121.468V13.3083H123.957V3.04805H128.728V0.467773H116.894Z" fill="white"/>
<path fill-rule="evenodd" clip-rule="evenodd" d="M92.6842 9.03189C90.9223 8.98131 89.1768 9.37049 87.6037 10.1626L90.5902 4.29138L93.0274 9.04046L92.6842 9.03189ZM88.3932 0.210938L89.2514 1.81397L83.2441 13.3609H85.8187L85.8702 13.2066C86.2735 12.6408 89.526 11.3979 92.6241 11.3979H94.1431L95.1643 13.3086H97.902L91.0965 0.210938H88.3932Z" fill="white"/>
</svg>
