<svg width="55" height="55" viewBox="0 0 55 55" fill="none" xmlns="http://www.w3.org/2000/svg">
<mask id="mask0_1_662" style="mask-type:alpha" maskUnits="userSpaceOnUse" x="0" y="0" width="55" height="55">
<path d="M0 0H54.1359V54.2118H0V0Z" fill="white"/>
</mask>
<g mask="url(#mask0_1_662)">
<path fill-rule="evenodd" clip-rule="evenodd" d="M27.033 53.6899C12.2793 53.6567 0.460526 41.7201 0.519226 26.912C0.577998 12.2804 12.5364 0.468788 27.2367 0.520095C41.8161 0.573575 53.6515 12.5267 53.6131 27.162C53.5724 41.8543 41.6823 53.7211 27.033 53.6899ZM27.0991 8.33511e-07C12.129 -0.00367509 0.00348769 12.1517 2.50824e-07 27.1675C-0.00201879 42.0253 12.1857 54.2174 27.0385 54.2119C41.9776 54.2082 54.1341 42.0584 54.1359 27.1363C54.1377 12.1792 42.0051 0.00367842 27.0991 8.33511e-07Z" fill="white"/>
</g>
<path fill-rule="evenodd" clip-rule="evenodd" d="M29.0901 13.2402C28.9686 13.3839 28.847 13.522 28.731 13.6657C29.0293 13.6767 29.1509 13.5386 29.0901 13.2402ZM29.0901 13.2402C28.9686 13.3839 28.847 13.522 28.731 13.6657C29.0293 13.6767 29.1509 13.5386 29.0901 13.2402ZM29.0901 13.2402C28.9686 13.3839 28.847 13.522 28.731 13.6657C29.0293 13.6767 29.1509 13.5386 29.0901 13.2402ZM29.0901 13.2402C28.9686 13.3839 28.847 13.522 28.731 13.6657C29.0293 13.6767 29.1509 13.5386 29.0901 13.2402ZM29.0901 13.2402C28.9686 13.3839 28.847 13.522 28.731 13.6657C29.0293 13.6767 29.1509 13.5386 29.0901 13.2402ZM29.0901 13.2402C28.9686 13.3839 28.847 13.522 28.731 13.6657C29.0293 13.6767 29.1509 13.5386 29.0901 13.2402ZM29.0901 13.2402C28.9686 13.3839 28.847 13.522 28.731 13.6657C29.0293 13.6767 29.1509 13.5386 29.0901 13.2402ZM29.0901 13.2402C28.9686 13.3839 28.847 13.522 28.731 13.6657C29.0293 13.6767 29.1509 13.5386 29.0901 13.2402ZM29.0901 13.2402C28.9686 13.3839 28.847 13.522 28.731 13.6657C29.0293 13.6767 29.1509 13.5386 29.0901 13.2402ZM29.0901 13.2402C28.9686 13.3839 28.847 13.522 28.731 13.6657C29.0293 13.6767 29.1509 13.5386 29.0901 13.2402ZM29.0901 13.2402C28.9686 13.3839 28.847 13.522 28.731 13.6657C29.0293 13.6767 29.1509 13.5386 29.0901 13.2402ZM29.0901 13.2402C28.9686 13.3839 28.847 13.522 28.731 13.6657C29.0293 13.6767 29.1509 13.5386 29.0901 13.2402ZM29.0901 13.2402C28.9686 13.3839 28.847 13.522 28.731 13.6657C29.0293 13.6767 29.1509 13.5386 29.0901 13.2402ZM29.0901 13.2402C28.9686 13.3839 28.847 13.522 28.731 13.6657C29.0293 13.6767 29.1509 13.5386 29.0901 13.2402ZM29.0901 13.2402C28.9686 13.3839 28.847 13.522 28.731 13.6657C29.0293 13.6767 29.1509 13.5386 29.0901 13.2402ZM29.0901 13.2402C28.9686 13.3839 28.847 13.522 28.731 13.6657C29.0293 13.6767 29.1509 13.5386 29.0901 13.2402ZM29.0901 13.2402C28.9686 13.3839 28.847 13.522 28.731 13.6657C29.0293 13.6767 29.1509 13.5386 29.0901 13.2402ZM29.0901 13.2402C28.9686 13.3839 28.847 13.522 28.731 13.6657C29.0293 13.6767 29.1509 13.5386 29.0901 13.2402ZM29.0901 13.2402C28.9686 13.3839 28.847 13.522 28.731 13.6657C29.0293 13.6767 29.1509 13.5386 29.0901 13.2402ZM29.0901 13.2402C28.9686 13.3839 28.847 13.522 28.731 13.6657C29.0293 13.6767 29.1509 13.5386 29.0901 13.2402ZM29.0901 13.2402C28.9686 13.3839 28.847 13.522 28.731 13.6657C29.0293 13.6767 29.1509 13.5386 29.0901 13.2402ZM29.0901 13.2402C28.9686 13.3839 28.847 13.522 28.731 13.6657C29.0293 13.6767 29.1509 13.5386 29.0901 13.2402ZM29.0901 13.2402C28.9686 13.3839 28.847 13.522 28.731 13.6657C29.0293 13.6767 29.1509 13.5386 29.0901 13.2402ZM29.0901 13.2402C28.9686 13.3839 28.847 13.522 28.731 13.6657C29.0293 13.6767 29.1509 13.5386 29.0901 13.2402ZM29.0901 13.2402C28.9686 13.3839 28.847 13.522 28.731 13.6657C29.0293 13.6767 29.1509 13.5386 29.0901 13.2402ZM29.0901 13.2402C28.9686 13.3839 28.847 13.522 28.731 13.6657C29.0293 13.6767 29.1509 13.5386 29.0901 13.2402ZM29.0901 13.2402C28.9686 13.3839 28.847 13.522 28.731 13.6657C29.0293 13.6767 29.1509 13.5386 29.0901 13.2402Z" fill="white"/>
<path fill-rule="evenodd" clip-rule="evenodd" d="M37.2119 6.26734C37.242 5.45366 36.4876 5.37601 35.9464 5.13907C35.3939 4.89708 35.5134 5.51133 35.334 5.73595C35.2187 5.88048 35.0934 6.08928 35.3828 6.23416C35.5806 6.333 35.759 6.36809 35.935 6.19472C36.0816 6.05019 36.1773 5.72726 36.4675 5.99304C36.7067 6.2121 36.4897 6.41725 36.4079 6.6165C36.2764 6.93683 36.1425 7.25716 35.9839 7.56428C35.9167 7.69439 35.8877 7.92786 35.632 7.83684C35.4283 7.7644 35.3896 7.63985 35.4644 7.43521C35.5874 7.09977 35.4368 6.80411 35.1197 6.76919C34.6469 6.71708 34.7085 7.23145 34.5432 7.49514C34.4206 7.69092 34.2323 7.95983 34.6293 8.12781C35.2907 8.40801 35.9614 8.86192 36.5071 7.95097C36.6075 7.78385 36.7442 7.68988 36.9359 7.77534C37.218 7.90094 37.0742 8.10401 37.009 8.28676C36.9898 8.34095 36.9554 8.38925 36.9335 8.4424C36.479 9.54583 36.4779 9.54844 35.3918 9.06673C34.5739 8.70402 33.7588 8.3354 32.9444 7.96556C32.7691 7.886 32.5206 7.84101 32.6222 7.55542C32.6929 7.35635 32.8506 7.32959 33.0436 7.40099C33.2838 7.48976 33.4337 7.35721 33.5238 7.15466C33.8519 6.4169 34.1708 5.67515 34.4975 4.93686C34.5741 4.76367 34.5979 4.61046 34.4292 4.47583C34.2559 4.3379 33.9903 4.2196 34.2453 3.94201C34.4426 3.72712 34.6248 3.93679 34.7881 4.00698C35.7418 4.41816 36.6902 4.84236 37.634 5.27595C37.8494 5.37497 38.2247 5.41753 38.0984 5.77503C37.9468 6.20341 37.8672 6.82739 37.4775 6.96097C37.0092 7.12148 37.0964 6.64412 37.2119 6.26734Z" fill="white"/>
<path fill-rule="evenodd" clip-rule="evenodd" d="M7.22955 34.7139C7.12993 34.7368 6.97557 34.7582 6.83126 34.8092C6.64655 34.8749 6.47059 34.9361 6.35962 34.7064C6.22351 34.4246 6.43205 34.3128 6.62049 34.1986C6.69999 34.1503 6.78602 34.1135 6.86776 34.0688C7.92109 33.4924 7.92109 33.4922 8.45679 34.5566C8.90702 35.4509 9.36098 36.3436 9.80339 37.2421C9.89128 37.4205 10.0749 37.6189 9.80004 37.8108C9.57511 37.9678 9.50044 37.7704 9.35521 37.6624C8.89008 37.317 6.21196 38.6405 6.22723 39.227C6.23337 39.463 6.31959 39.6639 6.04569 39.7448C5.73678 39.8358 5.70792 39.5294 5.61985 39.3588C5.06106 38.2747 4.52164 37.1803 3.96676 36.094C3.83344 35.8333 3.79173 35.6107 4.11833 35.4973C4.56148 35.3431 4.93891 34.8198 5.43569 35.0612C5.75633 35.217 5.45059 35.4564 5.2804 35.6403C4.82496 36.1323 4.93314 37.3397 5.47219 37.7013C5.84217 37.9496 6.08702 37.5574 6.38438 37.4475C6.5555 37.3844 6.7458 37.2779 6.61993 37.0352C6.47879 36.7638 6.28235 36.5804 5.94625 36.7279C5.71592 36.8291 5.60551 36.6952 5.52712 36.5011C5.44053 36.2861 5.61184 36.2294 5.73957 36.1603C6.1764 35.9249 6.61602 35.6947 7.05824 35.4699C7.18746 35.4042 7.32711 35.294 7.45932 35.4838C7.58426 35.6633 7.61088 35.8146 7.40159 35.9525C7.06066 36.177 6.89327 36.5507 7.23271 36.7971C7.60623 37.0687 7.93506 36.594 8.28902 36.4656C8.68209 36.323 8.58006 36.0559 8.4229 35.7872C8.14751 35.3163 8.00507 34.6995 7.22955 34.7139Z" fill="white"/>
<path fill-rule="evenodd" clip-rule="evenodd" d="M16.6935 44.7344C17.3469 44.7971 17.8968 45.0728 18.3437 45.5693C18.4591 45.6975 18.5517 45.8598 18.6885 45.9528C18.8916 46.0912 19.4093 45.7842 19.3298 46.2392C19.2484 46.7049 18.9864 47.2348 18.6389 47.5238C18.308 47.7989 18.1956 47.3815 18.2194 47.0554C18.2715 46.3374 17.9243 45.8824 17.335 45.5797C17.0546 45.4356 16.7717 45.3957 16.5656 45.68C16.3781 45.9387 16.5052 46.1978 16.6899 46.3996C17.0426 46.7858 17.4231 47.1451 17.7744 47.533C18.1842 47.9856 18.3417 48.4924 17.9657 49.0544C17.6034 49.5966 17.1065 49.8184 16.4818 49.6538C16.0333 49.5356 15.6271 49.3226 15.3067 48.9642C15.2102 48.8563 15.14 48.6472 15.0378 48.6326C13.7475 48.4463 14.6908 47.8053 14.8021 47.3571C14.845 47.1845 14.9255 46.934 15.2116 47.0322C15.4568 47.1164 15.4691 47.3075 15.4358 47.5322C15.3397 48.1806 15.6271 48.6078 16.1688 48.8906C16.4468 49.0355 16.7305 49.0963 16.9427 48.8175C17.1413 48.5563 16.9792 48.2956 16.805 48.1007C16.4374 47.6894 16.0246 47.3209 15.6649 46.9026C15.3213 46.5032 15.1748 46.0484 15.4475 45.5182C15.7183 44.9917 16.1357 44.7552 16.6935 44.7344Z" fill="white"/>
<path fill-rule="evenodd" clip-rule="evenodd" d="M20.9314 3.55644C21.1113 3.56915 21.2912 3.59167 21.4713 3.59236C21.7306 3.59373 21.9522 3.1027 22.1428 3.37958C22.3742 3.71559 22.394 4.18376 22.4988 4.59625C22.532 4.72738 22.4462 4.8073 22.3302 4.86213C22.0576 4.9912 21.9664 4.79338 21.8387 4.63096C21.3966 4.06844 20.8208 3.96445 20.1588 4.22948C19.9285 4.32177 19.7221 4.48023 19.7577 4.74027C19.7934 5.00014 20.0321 5.10996 20.2827 5.13489C20.8806 5.19401 21.4807 5.23165 22.0795 5.28149C22.61 5.32566 23.0131 5.56301 23.1435 6.06298C23.2897 6.62207 23.1959 7.14713 22.6709 7.52456C22.1452 7.9025 21.5445 8.05787 20.8913 8.01559C20.5859 7.99582 20.297 7.79216 20.0121 8.15704C19.8449 8.37119 19.5736 8.2581 19.4978 7.95698C19.449 7.76329 19.3609 7.57028 19.3582 7.37624C19.3547 7.11706 18.9924 6.81938 19.3689 6.60471C19.7571 6.38352 19.8659 6.78758 20.0653 6.96615C20.2642 7.14473 20.4662 7.32828 20.7471 7.35956C21.2979 7.42075 22.0217 7.46406 22.1363 6.88778C22.2718 6.20563 21.4881 6.31993 21.0299 6.23296C20.7386 6.17762 20.429 6.21216 20.1284 6.19704C19.515 6.16645 18.9728 5.99733 18.8286 5.35316C18.6737 4.66139 18.9362 4.12429 19.6184 3.78932C20.0337 3.58548 20.4728 3.52498 20.9314 3.55644Z" fill="white"/>
<path fill-rule="evenodd" clip-rule="evenodd" d="M46.5621 18.1786C46.4922 17.6921 46.4095 17.2213 46.361 16.7475C46.3074 16.2264 46.4876 15.8092 47.0295 15.5814C47.5774 15.3514 48.0701 15.4222 48.5111 15.8063C48.9431 16.1823 49.2132 16.6312 49.2552 17.198C49.2704 17.4043 49.1569 17.6431 49.428 17.8031C49.9894 18.1346 49.6545 18.3409 49.2797 18.4668C48.9392 18.5811 48.5894 19.0265 48.2491 18.7249C47.8567 18.3771 48.4786 18.187 48.5792 17.8969C48.6559 17.6764 48.7202 17.4599 48.6736 17.2394C48.5844 16.8202 48.4444 16.2894 47.9191 16.3492C47.3107 16.4183 47.4649 16.9555 47.5439 17.372C47.6172 17.7583 47.7111 18.1434 47.7482 18.5329C47.7977 19.0518 47.5936 19.476 47.0798 19.7159C46.551 19.9623 46.0345 19.9167 45.5805 19.5593C45.0545 19.1453 44.7642 18.6054 44.7197 17.9537C44.7084 17.7872 44.7327 17.6032 44.6648 17.4591C44.5665 17.2504 43.9516 17.2149 44.3156 16.8796C44.6605 16.5615 45.1683 16.2712 45.6595 16.3046C46.0516 16.3311 45.9869 16.6691 45.7251 16.9244C45.2858 17.3526 45.1903 17.8484 45.4679 18.3942C45.6261 18.7049 45.8105 19.0523 46.2416 18.9496C46.657 18.8508 46.5471 18.4631 46.5621 18.1786Z" fill="white"/>
<path fill-rule="evenodd" clip-rule="evenodd" d="M40.3339 11.287C40.3351 10.8733 40.512 10.5488 40.7917 10.2615C41.2247 9.81684 41.6524 9.3673 42.0742 8.91265C42.2266 8.74836 42.4878 8.58848 42.2962 8.32259C42.1453 8.11305 41.989 7.94067 42.3017 7.76159C42.5748 7.60505 42.6665 7.88203 42.8039 8.00089C43.1843 8.32999 43.5471 8.67881 43.9099 9.02693C44.0294 9.14138 44.2154 9.2488 44.0679 9.4608C43.9377 9.64851 43.7839 9.64393 43.6189 9.50324C43.5964 9.48404 43.5731 9.44883 43.5505 9.449C42.5176 9.45411 42.3152 10.4766 41.6614 10.9515C41.3487 11.1785 41.1481 11.5389 41.3659 11.9603C41.6829 12.574 42.3234 12.6985 42.8328 12.2151C43.3255 11.7471 43.7823 11.2422 44.2484 10.7478C44.3618 10.6277 44.561 10.5155 44.4363 10.3104C44.3078 10.0988 43.9851 9.88129 44.378 9.68126C44.6843 9.52542 44.8079 9.89766 45.0056 10.0406C45.197 10.179 45.38 10.3352 45.5392 10.5081C45.6659 10.6458 45.9443 10.727 45.8336 10.9857C45.7051 11.2861 45.5125 11.2097 45.265 11.0773C44.9821 10.9258 44.8511 11.2262 44.6966 11.3784C44.2755 11.7932 43.872 12.2253 43.4633 12.6523C42.971 13.1665 42.4087 13.4336 41.7084 13.0769C40.9633 12.6971 40.3819 12.1827 40.3339 11.287Z" fill="white"/>
<path fill-rule="evenodd" clip-rule="evenodd" d="M37.2367 44.1842C37.7732 44.1529 38.1643 44.4069 38.4211 44.9008C38.7102 45.4572 38.9782 46.0265 39.2743 46.5784C39.431 46.8706 39.5123 47.3188 40.0046 47.0909C40.1819 47.0087 40.255 47.1778 40.3112 47.3124C40.3915 47.5047 40.2421 47.5846 40.125 47.6525C39.6278 47.9406 39.1247 48.2171 38.6258 48.5019C38.4951 48.5766 38.3663 48.6453 38.2552 48.4851C38.1626 48.3515 38.1375 48.1755 38.2738 48.0824C38.75 47.7566 38.4808 47.4123 38.3148 47.0715C38.066 46.5607 37.8058 46.0563 37.5564 45.5459C37.3015 45.0245 36.961 44.8558 36.4502 45.1694C35.9731 45.4621 35.8251 45.8417 36.0883 46.3777C36.3782 46.9683 36.6653 47.5607 36.9586 48.1492C37.0781 48.3885 37.1807 48.6704 37.5283 48.4948C37.5982 48.4597 37.701 48.4386 37.7672 48.4677C37.9093 48.5301 37.9779 48.662 37.9222 48.8316C37.8722 48.984 36.5071 49.7609 36.376 49.7039C36.1945 49.6247 36.0698 49.424 36.2271 49.2853C36.702 48.8676 36.3372 48.5321 36.1766 48.1788C36.0031 47.7974 35.807 47.428 35.6234 47.0519C34.9149 45.6013 35.7051 44.1974 37.2367 44.1842Z" fill="white"/>
<path fill-rule="evenodd" clip-rule="evenodd" d="M5.52032 28.5284C4.78725 28.6014 4.13395 28.6576 3.48388 28.7358C3.24994 28.7638 2.99893 28.8201 2.97144 29.1035C2.95186 29.3058 2.91916 29.514 2.62395 29.4601C2.34563 29.4091 2.41571 29.1671 2.38804 28.9891C2.35893 28.8006 2.34078 28.6106 2.31994 28.4211C2.29191 28.1632 2.06138 27.8506 2.36558 27.6644C2.73643 27.4378 2.71792 27.9335 2.93515 27.9976C3.12453 28.0535 3.34283 28.0601 3.54407 28.044C4.10789 27.9994 4.66812 27.9127 5.2323 27.8773C6.46362 27.7999 7.04811 28.3007 7.17208 29.5087C7.26983 30.4589 6.68462 31.049 5.54494 31.1581C5.01148 31.209 4.47946 31.2717 3.94636 31.3259C3.67811 31.3533 3.38092 31.3525 3.32271 31.6689C3.28462 31.8751 3.24904 32.0713 2.96264 32.0162C2.68037 31.9618 2.76482 31.7153 2.73894 31.5405C2.67102 31.0825 2.61299 30.6232 2.56178 30.1635C2.54723 30.032 2.54579 29.8846 2.73517 29.836C2.89957 29.7933 3.05158 29.832 3.08033 29.991C3.16136 30.4405 3.52556 30.3609 3.84089 30.3355C4.43436 30.2877 5.02657 30.223 5.61735 30.151C6.1562 30.0856 6.53424 29.8487 6.45644 29.2968C6.38295 28.7756 6.10733 28.4224 5.52032 28.5284Z" fill="white"/>
<path fill-rule="evenodd" clip-rule="evenodd" d="M49.6296 24.788C49.0632 24.7862 48.9906 24.2888 48.9478 23.8732C48.8852 23.2497 49.4204 23.4948 49.5802 23.4042C50.188 23.2443 50.2358 23.5712 50.2406 23.9673C50.2472 24.4327 50.1434 24.7898 49.6296 24.788ZM50.5337 22.1554C50.524 22.0684 50.5222 21.9796 50.5108 21.8925C50.4843 21.7131 50.4482 21.5248 50.2358 21.5284C50.094 21.5301 49.9771 21.6083 49.987 21.8019C50.0117 22.2869 49.679 22.2673 49.3778 22.31C48.864 22.381 48.35 22.4592 47.8395 22.548C47.4475 22.6155 47.0226 22.8464 46.8365 22.2034C46.8036 22.0879 46.662 22.0719 46.5518 22.1217C46.3919 22.1945 46.405 22.3562 46.42 22.4965C46.4808 23.0809 46.55 23.6635 46.6208 24.2462C46.6407 24.4025 46.7114 24.5322 46.8826 24.5073C47.0376 24.486 47.1033 24.3705 47.1148 24.2018C47.1611 23.4486 47.7721 23.6849 48.1244 23.6262C48.574 23.5499 48.3831 24.097 48.4966 24.3546C48.574 24.534 48.5544 24.7613 48.6118 24.9567C48.793 25.5696 49.1176 26.0208 49.786 25.9389C50.5108 25.852 50.8104 25.3475 50.8318 24.573C50.7346 23.7879 50.6343 22.9725 50.5337 22.1554Z" fill="white"/>
<path fill-rule="evenodd" clip-rule="evenodd" d="M11.3349 41.9784C10.8229 42.2475 10.311 42.517 9.79875 42.7858C9.49736 42.9438 9.14691 43.0766 9.53149 43.5216C9.62304 43.6277 9.56447 43.7345 9.47718 43.8165C9.35725 43.9292 9.23961 43.9342 9.12263 43.805C9.02764 43.7006 8.92657 43.6024 8.82797 43.5018C8.06948 42.7292 8.08802 42.7783 9.02091 42.3766C9.87882 42.0072 10.6924 41.5203 11.5226 41.0787C11.8357 40.912 12.0888 40.6978 12.4553 41.0797C12.8202 41.4601 12.7339 41.7512 12.5451 42.1464C12.174 42.9227 11.8314 43.7147 11.4926 44.5076C11.4046 44.7135 11.3336 44.9454 11.327 45.1679C11.3206 45.3902 11.6512 45.6608 11.2713 45.8172C11.0212 45.9203 10.9015 45.6302 10.7495 45.4821C10.427 45.1681 10.118 44.8384 9.80187 44.5169C9.69375 44.4068 9.62927 44.2858 9.73378 44.1414C9.81861 44.0244 9.92902 43.9122 10.069 44.0507C10.4378 44.415 10.5697 44.1255 10.7093 43.8069C10.9592 43.2367 11.2186 42.6711 11.474 42.1036C11.4276 42.0619 11.3812 42.0202 11.3349 41.9784Z" fill="white"/>
<path fill-rule="evenodd" clip-rule="evenodd" d="M5.94916 23.1075C6.49432 23.1349 6.92788 22.9428 7.13298 22.3859C7.33132 21.8477 7.11158 21.4366 6.68921 21.133C6.47523 20.9793 6.21582 20.8156 6.41778 20.5397C6.61185 20.2742 6.86089 20.5272 7.05018 20.6459C7.71452 21.0624 7.81344 21.7219 7.68868 22.4424C7.51996 23.4178 6.812 24.1802 5.962 24.2709C5.02821 24.3706 4.20569 24.094 3.67041 23.2462C3.14845 22.4196 3.22302 21.5716 3.75238 20.762C3.7983 20.6917 3.8783 20.639 3.90628 20.5636C4.17195 19.8474 4.55597 19.6975 5.22919 20.0605C5.34309 20.1219 5.5044 20.155 5.46408 20.3515C5.43527 20.4915 5.39676 20.6553 5.23084 20.6557C4.41161 20.6574 3.88126 21.0066 3.9657 21.9279C4.02776 22.6068 4.95513 23.1188 5.94916 23.1075Z" fill="white"/>
<path fill-rule="evenodd" clip-rule="evenodd" d="M43.3436 44.7342C43.0055 44.3525 42.5977 43.9825 42.3178 43.5336C42.1986 43.3431 42.4427 43.0898 42.7501 43.2118C42.9709 43.2995 43.1615 43.4689 43.3852 43.5403C43.6746 43.6328 43.9455 43.4896 44.0852 43.2549C44.231 43.0101 43.9292 42.9076 43.797 42.7803C43.2565 42.2593 42.6943 41.7601 42.1435 41.2496C41.9149 41.0378 41.6986 40.8108 41.3956 41.1516C41.2401 41.3266 41.082 41.2896 40.9442 41.1224C40.8107 40.9609 40.9373 40.8502 41.0348 40.7446C41.4627 40.2812 41.8945 39.8215 42.3252 39.3606C42.4318 39.2467 42.5491 39.1419 42.7078 39.2628C42.8581 39.3772 42.9854 39.5146 42.7924 39.6979C42.4022 40.0685 42.7503 40.2756 42.9781 40.4937C43.4771 40.9719 43.9753 41.4523 44.4999 41.9017C44.6684 42.0462 44.8007 42.4566 45.1285 42.17C45.373 41.9558 45.3903 41.6335 45.245 41.339C45.167 41.1806 45.0326 41.0504 44.9335 40.9008C44.7927 40.6892 44.9514 40.4984 45.0952 40.4744C45.6049 40.3898 45.7338 40.9156 46.0478 41.1498C46.2279 41.284 46.5967 41.4597 46.3001 41.7834C45.4482 42.7133 44.5763 43.6255 43.7079 44.5404C43.6519 44.5993 43.5582 44.6223 43.3436 44.7342Z" fill="white"/>
<path fill-rule="evenodd" clip-rule="evenodd" d="M27.4458 2.83046C28.2329 2.89224 29.0201 2.95353 29.8073 3.01564C30.0697 3.03641 30.413 2.98065 30.3732 3.37028C30.3295 3.79942 30.5263 4.28365 30.1671 4.64046C30.011 4.79518 29.7629 4.68969 29.7009 4.43971C29.6478 4.22539 29.6443 3.99198 29.5462 3.79775C29.4389 3.58577 29.2047 3.47627 28.9362 3.52667C28.6923 3.57254 28.7411 3.77715 28.7265 3.93203C28.6612 4.62556 28.6013 5.31959 28.5458 6.01396C28.5229 6.29927 28.5101 6.58258 28.9339 6.65156C29.1268 6.68321 29.2851 6.77195 29.1917 6.9923C29.1263 7.14601 28.9757 7.17079 28.816 7.16024C28.2099 7.12039 27.6036 7.0797 26.9977 7.03784C26.8128 7.02512 26.618 7.01474 26.6215 6.77765C26.6242 6.60502 26.7521 6.53084 26.9173 6.5285C27.3164 6.52331 27.4251 6.30781 27.4456 5.9865C27.49 5.29163 27.5618 4.59827 27.6033 3.90323C27.6139 3.72843 27.7229 3.48933 27.4363 3.40209C27.1757 3.32256 26.9383 3.41917 26.7971 3.61574C26.6672 3.79674 26.6105 4.02044 26.5055 4.21819C26.3803 4.45394 26.0742 4.4742 26.0355 4.27712C25.9514 3.84965 25.9403 3.38434 26.0364 2.96056C26.1318 2.54012 26.5431 2.86261 26.8069 2.82744C27.0136 2.79982 27.2311 2.84117 27.4436 2.85189C27.4443 2.84469 27.445 2.83749 27.4458 2.83046Z" fill="white"/>
<path fill-rule="evenodd" clip-rule="evenodd" d="M9.74292 9.68444C9.087 10.399 10.0042 10.5898 10.3194 10.9685C10.5572 11.2543 10.8537 11.5181 11.178 11.7212C11.4446 11.8884 11.5684 12.5016 12.0738 12.0896C12.5362 11.7129 13.1391 11.3269 12.607 10.6215C12.4732 10.4443 12.0874 10.2746 12.4326 10.0059C12.8224 9.70231 12.9647 10.1233 13.1532 10.2786C14.0343 11.0041 14.0256 11.0131 13.17 11.8244C12.5543 12.4083 11.9407 12.9941 11.3192 13.5731C11.1791 13.7032 11.0442 13.9076 10.7878 13.713C10.5903 13.5631 10.6649 13.423 10.8061 13.2917C11.0784 13.0382 10.8295 12.8962 10.6618 12.7466C10.0919 12.2387 9.51566 11.7369 8.94251 11.2321C8.76144 11.0727 8.57815 10.8925 8.32114 11.1168C8.11919 11.293 7.9529 11.2843 7.79382 11.0813C7.63455 10.8777 7.83724 10.782 7.95512 10.6714C8.36087 10.2907 8.77142 9.91424 9.18474 9.54048C9.2871 9.44796 9.38318 9.30952 9.56832 9.40555C9.67678 9.46183 9.77082 9.5323 9.74292 9.68444Z" fill="white"/>
<path fill-rule="evenodd" clip-rule="evenodd" d="M46.5967 31.6266C46.5405 32.1254 46.8858 32.3316 47.2673 32.5033C47.4565 32.5884 47.6636 32.6643 47.572 32.9397C47.4786 33.2206 47.2489 33.1189 47.0637 33.0857C46.8399 33.0455 46.6231 32.9558 46.3988 32.9279C45.9308 32.8695 45.7762 32.6499 45.8999 32.1536C46.1429 31.1774 46.3455 30.1903 46.5617 29.2069C46.6054 29.008 46.5874 28.7416 46.8383 28.7137C47.1189 28.6823 47.1192 28.9219 47.1223 29.1426C47.1269 29.4505 47.3533 29.51 47.586 29.5658C48.2518 29.7248 48.9139 29.9001 49.5811 30.0531C49.859 30.1167 50.1617 30.1817 50.3132 29.8107C50.3949 29.6099 50.5222 29.53 50.7095 29.6424C50.8557 29.7302 50.8449 29.8795 50.8084 30.0345C50.6792 30.5818 50.5625 31.1322 50.4278 31.6779C50.3882 31.8388 50.3687 32.05 50.1277 32.0357C49.8988 32.0219 49.8503 31.8865 49.9021 31.6719C49.9915 31.3007 49.7504 31.2171 49.4796 31.1535C48.8692 31.0096 48.2598 30.8599 47.6504 30.7103C46.8101 30.5037 46.5984 30.6815 46.5967 31.6266Z" fill="white"/>
<path fill-rule="evenodd" clip-rule="evenodd" d="M16.2677 9.02864C15.957 8.48903 15.7143 7.92799 15.3414 7.46181C15.0203 7.06097 15.1165 6.16515 14.1154 6.4319C13.9109 6.48644 13.6419 6.16119 13.9581 5.96068C14.5281 5.59908 15.1507 5.31271 15.7522 4.99593C15.8718 4.93275 15.9878 4.93203 16.0894 5.03301C16.216 5.15864 16.2545 5.31307 16.0981 5.41495C15.6313 5.71877 15.887 6.02494 16.0668 6.33813C16.3816 6.8871 16.6841 7.44255 17.0133 7.98343C17.1894 8.27286 17.3073 8.70178 17.8407 8.41487C18.0114 8.32307 18.1242 8.46095 18.1991 8.60152C18.3017 8.79357 18.1517 8.87169 18.0171 8.94476C17.5016 9.22483 16.9867 9.50652 16.4631 9.77255C16.3154 9.84778 16.1575 10.0292 15.9663 9.84454C15.7533 9.63899 15.855 9.48564 16.0574 9.33211C16.146 9.26497 16.1903 9.14456 16.2677 9.02864Z" fill="white"/>
<path fill-rule="evenodd" clip-rule="evenodd" d="M9.94526 16.1794C9.56494 16.851 9.24562 17.5227 8.82165 18.1124C8.6424 18.3616 8.30322 18.1007 8.41109 17.847C8.66708 17.2453 8.22361 17.1573 7.92093 16.964C7.38998 16.6255 6.84741 16.3067 6.30644 15.9854C6.03167 15.8224 5.75242 15.5543 5.47675 15.9973C5.38033 16.1521 5.24169 16.1603 5.09714 16.0502C4.90197 15.9009 4.97138 15.7413 5.06727 15.5693C5.35063 15.0613 5.6263 14.5484 5.90966 14.0403C6.00143 13.8757 6.10948 13.7181 6.3288 13.8314C6.47764 13.9082 6.55242 14.0218 6.4653 14.2002C6.24419 14.6521 6.56762 14.7949 6.85814 14.9672C7.37353 15.2727 7.88104 15.5928 8.3966 15.8983C8.74097 16.1022 9.05206 16.4483 9.47173 15.942C9.6839 15.6859 9.85939 15.9323 9.94526 16.1794Z" fill="white"/>
<path fill-rule="evenodd" clip-rule="evenodd" d="M49.1742 37.0498C48.8561 37.7297 48.5751 38.4074 48.2273 39.0426C48.0345 39.3942 47.6774 39.1038 47.7302 38.9262C48.0016 38.0138 47.2649 38.0173 46.8682 37.7484C46.4419 37.4593 45.9714 37.2459 45.5174 37.0059C45.2321 36.8553 44.9352 36.5927 44.7012 37.0953C44.6199 37.2698 44.4783 37.2823 44.3292 37.1725C44.1777 37.0609 44.1738 36.92 44.251 36.7571C44.522 36.1838 44.7918 35.6098 45.0615 35.0359C45.1321 34.8858 45.2194 34.7552 45.3983 34.7955C45.5718 34.8347 45.6712 34.9807 45.6031 35.1476C45.4003 35.6446 45.7468 35.7608 46.0318 35.9214C46.5854 36.2337 47.1409 36.5426 47.6984 36.8467C48.0327 37.0294 48.339 37.3138 48.7044 36.8176C48.8886 36.5674 49.1182 36.7317 49.1742 37.0498Z" fill="white"/>
<path fill-rule="evenodd" clip-rule="evenodd" d="M1.66138 20.4229C1.94843 20.8116 2.97488 20.8966 2.72305 21.4893C2.48354 22.0536 1.61887 21.9316 1.10489 22.0804C1.2893 21.5313 1.47018 20.992 1.66138 20.4229Z" fill="white"/>
<path fill-rule="evenodd" clip-rule="evenodd" d="M19.8906 1.51552C20.9239 1.72894 20.9239 1.72894 21.5481 1.08496C21.4279 1.66361 21.5239 2.48102 21.0235 2.69793C20.4336 2.95389 20.2651 2.04767 19.8906 1.51552Z" fill="white"/>
<path fill-rule="evenodd" clip-rule="evenodd" d="M28.6685 13.3108C28.7072 13.2629 28.748 13.2168 28.7883 13.1689C28.8088 13.2684 28.768 13.3145 28.6685 13.3108Z" fill="white"/>
<path fill-rule="evenodd" clip-rule="evenodd" d="M28.6685 13.3108C28.7072 13.2629 28.748 13.2168 28.7883 13.1689C28.8088 13.2684 28.768 13.3145 28.6685 13.3108Z" fill="white"/>
<path fill-rule="evenodd" clip-rule="evenodd" d="M41.2903 32.5177C41.1875 33.0735 40.9068 33.6237 40.3657 33.8157C38.6669 34.4195 37.1296 35.6214 35.3887 35.2965H34.6201C33.369 35.2946 32.5489 34.4268 32.6388 33.1787C32.672 32.719 33.0241 32.623 33.4111 32.5528C35.0879 32.2463 36.7701 32.0727 38.478 32.1743C38.7422 32.1891 39.1586 32.3183 39.1512 31.8143C39.1386 30.904 39.7511 31.0406 40.2831 31.1422C41.0096 31.2825 41.4333 31.7386 41.2903 32.5177ZM33.3616 38.7381C33.3029 38.9338 33.1011 38.9688 32.9103 38.9688H30.6246V38.9781C29.8633 38.9781 29.1001 38.9818 28.3388 38.9762C28.0196 38.9762 27.794 38.7971 28.1022 38.559C28.6452 38.1361 28.9937 37.3182 29.9036 37.5324C29.9605 37.5453 30.0394 37.549 30.0834 37.5195C31.4317 36.624 32.2242 37.6819 33.1176 38.3873C33.2369 38.4833 33.4093 38.5756 33.3616 38.7381ZM27.4913 35.8208C27.3812 36.3692 27.5738 37.0136 26.8382 37.4788C26.9262 36.9674 27.0253 36.6111 27.0418 36.2529C27.0547 35.939 27.2088 35.4977 26.7832 35.3703C26.4401 35.2688 26.2695 35.638 26.1099 35.8891C25.8512 36.299 25.6164 36.7255 25.3614 37.165C25 36.1015 25.0404 35.9888 26.4731 34.0448C25.6825 34.1905 25.0753 34.5265 24.5139 34.9807C24.2057 35.2282 23.8792 35.4553 23.5455 35.6694C23.2703 35.845 22.9748 35.8633 22.6813 35.6787C22.3492 35.47 22.4299 35.1488 22.4648 34.8515C22.7289 32.5565 22.795 32.5325 25.0532 32.9922C26.2603 33.2359 27.4931 33.2119 28.6965 32.9664C29.2909 32.8447 29.4854 32.9793 29.4633 33.5683C29.4468 33.9782 29.6615 34.3345 29.8137 34.7019C29.8853 34.8773 29.9642 35.0675 29.7827 35.2041C29.6028 35.3408 29.4211 35.2189 29.2872 35.1008C28.8359 34.7019 28.3957 34.2884 27.8747 33.9246C28.4617 34.8256 29.2083 35.6565 28.9258 36.9563C28.4782 36.5889 28.4434 36.1126 28.2636 35.7193C28.1609 35.4977 28.0508 35.2134 27.7738 35.2355C27.4417 35.2614 27.5335 35.6085 27.4913 35.8208ZM23.604 36.275C23.8682 36.3101 23.9764 36.48 23.9691 36.7145C23.9617 36.9453 24.0131 37.2721 23.6792 37.2776C23.4371 37.2813 23.3747 37.0136 23.3765 36.7902C23.3765 36.5889 23.3252 36.3507 23.604 36.275ZM20.3863 38.9024C21.0231 38.1306 21.509 37.6801 22.6115 37.5878C24.1782 37.4548 25.3192 38.066 26.5373 38.7473C26.5575 38.7584 26.5612 38.7971 26.6089 38.9024H20.3863ZM20.0231 33.3063C19.9277 33.151 19.8378 32.9719 20.0011 32.8076C20.1295 32.6802 20.2836 32.7559 20.4269 32.8002C20.6597 32.8704 20.889 32.9756 21.1274 33.0015C22.0098 33.0993 22.3969 33.4612 21.975 34.3844C21.8851 34.5838 21.9144 34.8792 21.9786 35.1044C22.1199 35.6067 21.9309 35.7248 21.3623 35.5993C20.7881 35.5771 20.3166 35.3315 20.4175 34.5025C20.4727 34.0539 20.2487 33.6756 20.0231 33.3063ZM32.316 35.2872C32.4095 35.5642 32.3618 35.8374 32.0665 35.9907C31.8115 36.1255 31.562 36.1827 31.3125 35.9556C30.5549 35.2688 30.1219 34.3511 30.0449 33.3966C29.9843 32.6359 30.8649 32.9018 31.329 32.778C31.6849 32.682 32.1582 32.7079 32.1967 33.2913C32.2134 33.5646 32.1986 33.8397 32.1986 33.8692C32.1692 34.5118 32.1875 34.9013 32.316 35.2872ZM15.4185 31.6684C14.8205 31.6739 14.6315 31.5447 14.6297 30.9243C14.6224 28.8564 14.5985 28.8564 16.6128 28.8564C23.6003 28.8564 30.5879 28.8693 37.5754 28.8398C38.3881 28.8361 38.6816 29.0115 38.6486 29.8867C38.5789 31.6499 38.6303 31.6518 36.838 31.6518H26.5869C22.8647 31.6518 19.1407 31.637 15.4185 31.6684ZM19.1829 35.531C17.3557 35.0712 15.4442 34.9604 13.6923 34.1942C13.0631 33.9191 12.5292 33.4704 12.2761 32.815C12.0504 32.2297 12.0908 31.5705 12.753 31.3268C13.285 31.133 14.0078 30.9483 14.2041 31.8641C14.2977 32.2943 14.6169 32.1448 14.8572 32.1595C15.923 32.2241 16.9815 32.3146 18.0088 32.6507C19.071 32.9959 19.5555 33.7751 19.7369 34.8146C19.814 35.2503 19.7222 35.5568 19.1829 35.531ZM20.1478 22.2077C20.2396 22.0582 20.2946 21.8237 20.5276 21.8975C20.7037 21.9548 20.7991 22.1394 20.8046 22.3351C20.8101 22.5474 20.8339 22.7727 20.7752 22.9703C20.5441 23.7679 20.5588 24.5341 20.9367 25.2874C21.0174 25.4481 21.0449 25.6382 21.0834 25.8173C21.1917 26.3269 20.9477 26.5448 20.467 26.6149C19.7296 26.7202 20.1166 26.1979 20.0579 25.9059C20.1166 25.4499 20.0579 24.9458 19.836 24.5766C19.2838 23.6626 19.7002 22.9481 20.1478 22.2077ZM22.4611 26.9196C22.3382 27.2796 22.3309 27.8557 21.9016 27.8834C21.2082 27.9277 20.5973 28.1271 19.9882 28.4114C19.9002 28.4521 19.7314 28.4225 19.6544 28.3579C19.5021 28.2323 19.6232 28.0791 19.6874 27.9499C19.9332 27.4643 20.2671 27.0987 20.8413 27.0064C21.2907 26.9344 21.731 26.8217 22.1768 26.7257C22.3602 26.65 22.5125 26.7682 22.4611 26.9196ZM20.2267 19.6321C20.711 19.3865 21.177 19.1705 21.5769 19.7927C21.7218 20.0179 21.9456 20.2026 22.1621 20.3688C22.5125 20.6365 22.584 20.9227 22.3731 21.3215C21.6283 22.7413 21.476 24.1759 22.3474 25.6068C22.4776 25.8173 22.5253 26.0132 22.2905 26.1589C22.052 26.3048 21.8944 26.1423 21.7512 25.9671C21.4466 25.5921 21.3182 25.1526 21.3441 24.68C21.41 23.4558 21.2393 22.2428 21.1678 20.8636C20.5349 21.2384 20.157 21.0242 19.902 20.4426C19.7204 20.0346 19.8873 19.8056 20.2267 19.6321ZM23.8076 19.3348C24.7194 20.2967 25.8733 19.9958 26.9758 19.6265C27.3408 19.5048 27.6655 19.2425 28.1682 19.2905C27.6674 20.426 26.6823 20.7122 25.6751 20.8765C23.9415 21.159 22.5932 20.4758 21.5255 19.0006C22.4336 18.5796 23.1087 18.5963 23.8076 19.3348ZM24.8606 18.8363C26.1851 18.8307 27.3922 18.5113 28.3828 17.5771C28.6708 17.3057 29.0414 17.2431 29.2891 17.4885C29.5606 17.7562 29.201 18.0442 29.0231 18.1494C27.6105 18.9785 26.1246 19.5841 24.4369 19.3994C24.2754 19.3828 24.1287 19.2314 23.9159 19.1059C24.2516 18.7532 24.5726 18.8363 24.8606 18.8363ZM22.5932 13.7385C22.562 13.6757 22.5712 13.5539 22.6134 13.4985C22.7069 13.3748 22.8372 13.4154 22.9252 13.5133C23.5325 14.1816 23.9232 15.0384 24.679 15.5814C24.6955 15.5941 24.6882 15.6384 24.6955 15.679C24.657 15.8821 24.5121 15.9154 24.3781 15.7972C23.6921 15.1916 23.0188 14.5712 22.5932 13.7385ZM22.1584 13.3305C22.0722 12.8654 22.3951 12.6843 22.4996 12.4038C22.6115 12.1008 22.872 12.1414 23.0775 12.3685C23.8021 13.1717 24.5249 13.9767 25.2459 14.7836C25.3706 14.922 25.5027 15.0974 25.3266 15.2599C25.1468 15.4261 24.978 15.2525 24.8606 15.1325C24.5212 14.7817 24.0681 14.466 23.9012 14.0413C23.5581 13.1643 23.0335 12.9577 22.1584 13.3305ZM23.4462 12.0067C23.5875 10.9173 24.9872 9.61194 26.2163 9.49008C26.1503 9.85935 25.8788 9.91123 25.677 10.02C24.8129 10.4834 24.2589 11.1575 24.1378 12.1656C24.114 12.3648 24.2094 12.747 23.8113 12.6603C23.5233 12.5956 23.4022 12.3316 23.4462 12.0067ZM27.7536 11.1093C27.029 11.1114 26.5062 11.3032 26.6419 12.1617C26.6804 12.3981 26.7813 12.8338 26.3942 12.8098C26.0255 12.7895 26.1429 12.387 26.2055 12.1304C26.2878 11.7925 26.4071 11.4361 26.0384 11.222C25.6806 11.0133 25.3596 11.1536 25.0844 11.4287C25.3027 11.7576 25.7503 11.2424 25.8531 11.7205C25.8696 11.7906 25.7448 11.9422 25.6531 11.9771C25.3413 12.1045 25.0459 12.0177 24.8056 11.7943C24.5891 11.5912 24.6478 11.3623 24.7872 11.1278C25.4807 9.94798 26.7942 9.90385 27.7536 11.1093ZM27.1227 11.6743C27.1574 11.3955 27.4142 11.4361 27.616 11.4509C27.7609 11.462 27.9499 11.4878 27.9389 11.6743C27.9224 11.9383 27.6931 11.966 27.4839 11.9863C27.3005 11.9513 27.095 11.8829 27.1227 11.6743ZM28.6176 12.2633C28.5259 12.5255 29.1019 12.7563 28.8763 13.1551C29.3166 12.9077 29.5184 12.3316 30.3219 12.195C28.7295 14.1466 27.2583 15.8969 24.8478 16.4859C24.8533 15.9541 25.3284 15.6513 25.7927 15.5553C27.1592 15.2728 27.9958 14.3478 28.7571 13.2972C28.5699 13.3102 28.4635 12.7083 28.192 13.2529C27.9902 13.6573 27.6013 13.9342 27.3555 14.333C26.8712 15.1177 25.6825 15.0236 25.2752 14.2001C25.1285 13.9028 25.0826 13.541 24.7982 13.3286C24.4038 13.0351 24.1452 12.5587 24.5121 12.2614C24.8496 11.9884 25.4403 12.2799 25.732 12.5975C25.9998 12.8874 26.5814 13.3102 25.8531 13.7995C25.7302 13.8809 25.4183 14.2112 25.9521 14.2463C26.2513 13.4616 26.5594 13.5022 26.8767 14.2333C27.3042 14.261 27.1372 14.0487 27.031 13.8567C26.6144 13.1052 26.8327 12.5458 27.6362 12.2947C28.425 12.0491 28.5663 11.5746 28.104 10.8638C27.7132 10.26 26.9538 10.1068 26.486 9.52331C28.0838 9.55101 29.0873 10.9155 28.6176 12.2633ZM29.157 11.0355C29.5129 11.353 29.6596 11.5857 29.5075 11.9088C29.4835 11.9605 29.3258 12.0122 29.2946 11.9863C29.0249 11.7611 29.0414 11.4768 29.157 11.0355ZM26.9483 18.0664C26.0989 18.5556 25.178 18.5575 24.2424 18.3987C24.8826 18.0701 25.5687 17.9131 26.1007 17.4146C26.2402 17.2854 26.4951 17.2244 26.6933 17.23C27.031 17.2392 27.5426 17.0269 27.6509 17.4739C27.7444 17.8559 27.2198 17.9076 26.9483 18.0664ZM29.7972 14.1447C29.0948 14.8703 28.4709 15.644 27.9389 16.5173C27.6949 16.9161 27.029 16.7111 26.6034 16.8127C26.3631 16.7628 26.0787 16.9401 25.9888 16.6834C25.8824 16.3751 26.1961 16.2034 26.3979 16.1868C27.6857 16.0778 28.348 15.1768 28.9974 14.2278C29.1148 14.0561 29.3019 13.925 29.478 13.8087C29.5642 13.7496 29.7293 13.709 29.8046 13.7533C29.988 13.8604 29.8908 14.0487 29.7972 14.1447ZM29.8871 18.1402C30.0579 18.1236 30.2962 18.2307 30.2173 18.4522C30.0614 18.8935 29.6523 19.0468 29.2909 19.1779C29.0708 19.152 28.9222 19.0671 28.9699 18.8917C29.0964 18.4356 29.4266 18.1827 29.8871 18.1402ZM31.4978 18.7791C30.9071 19.6025 29.8853 19.5951 29.1313 20.2949C30.5402 20.57 31.2997 19.5822 32.316 19.0172C32.3141 19.5748 32.0683 19.8481 31.7803 20.053C30.7145 20.81 29.4798 20.9947 28.2196 21.039C28.0306 21.0464 27.7444 20.9393 27.6637 20.7953C27.5445 20.5811 27.8306 20.4426 27.9609 20.2838C28.2544 19.9219 28.5773 19.6468 29.0744 19.549C29.5441 19.4587 30.0082 19.2741 30.3567 18.8861C30.6686 18.5409 31.0373 18.6166 31.4978 18.7791ZM26.9373 27.8963C27.0583 27.8852 27.1941 27.8557 27.2986 27.8963C28.1407 28.225 28.691 28.1622 28.669 27.0396C28.6617 26.7073 28.4727 26.1349 29.0671 26.0777C29.6413 26.0241 30.1496 26.3251 30.4558 26.807C30.9713 27.6212 30.6594 28.201 29.6963 28.3099C29.1551 28.3708 28.6121 28.4207 28.0691 28.4742C28.0691 28.4631 28.0673 28.4502 28.0673 28.4391C27.6731 28.4391 27.2785 28.4465 26.8859 28.4354C26.7263 28.4299 26.5612 28.3413 26.5538 28.1806C26.541 27.9406 26.7538 27.9129 26.9373 27.8963ZM27.0877 27.1005C27.35 27.1448 27.594 27.1578 27.8178 27.2335C28.0434 27.3092 28.3241 27.455 28.2544 27.7246C28.1609 28.0904 27.8857 27.8465 27.6747 27.804C27.4711 27.7634 27.262 27.7412 27.0547 27.7211C26.7868 27.6932 26.3832 27.7043 26.3906 27.4052C26.3998 26.9547 26.8547 27.2002 27.0877 27.1005ZM22.54 27.588C22.6996 27.0304 22.9179 26.482 23.615 26.4192C23.7673 26.4063 23.914 26.4839 23.8296 26.7571C23.3472 27.0396 23.7471 27.9683 22.9693 28.1049C22.6409 28.1622 22.4464 27.9111 22.54 27.588ZM28.3113 26.7442C28.2819 27.0045 28.0636 27.0156 27.9114 26.9177C27.4949 26.6463 26.9703 26.9141 26.3906 26.5854C27.0216 26.2955 27.4986 26.4155 27.9664 26.4286C28.1535 26.434 28.3388 26.5079 28.3113 26.7442ZM28.5057 23.6276C28.4269 23.6516 28.3553 23.6497 28.3278 23.6848C28.0728 23.9931 28.2489 24.7464 27.7096 24.6504C27.2693 24.571 27.5004 23.8953 27.383 23.4965C27.3023 23.0903 27.361 22.6268 26.8602 22.2354C26.9519 22.9206 27.0235 23.4762 27.0969 24.0319C26.5667 24.8849 26.5667 24.8849 25.8622 23.5906C25.51 23.7457 25.5852 24.1095 25.4843 24.3827C25.145 25.2874 24.4479 25.6013 23.593 25.2191C22.23 24.6098 21.8264 22.2502 22.9034 21.2144C23.105 21.0224 23.2866 21.1128 23.4866 21.1996C24.4515 21.6224 25.4422 21.591 26.4328 21.3233C26.9207 21.1904 27.3995 21.2365 27.8802 21.3252C28.5167 21.4435 29.1717 21.532 29.7752 21.2956C30.4907 21.0131 30.7401 21.3732 30.9731 21.9437C31.329 22.8244 31.3143 23.6829 30.8906 24.5193C30.6117 25.0677 30.1971 25.4979 29.511 25.328C28.847 25.1637 28.4599 24.7391 28.5424 23.9931C28.5553 23.8768 28.5204 23.755 28.5057 23.6276ZM25.9595 27.407C26.2181 28.3727 25.7742 28.4613 25.1596 28.4373C24.5671 28.4373 24.0057 28.465 23.7966 27.9332C23.5893 27.4089 24.0186 27.0287 24.347 26.6666C24.8808 26.0795 25.5999 25.9521 26.3319 25.8875C26.7245 25.8524 27.1227 25.8727 27.517 25.8579C27.7774 25.8487 28.181 25.4757 28.2416 25.9724C28.2783 26.2715 27.8123 26.1792 27.5591 26.2106C27.3794 26.2309 27.1941 26.2161 27.0125 26.218C26.0567 26.2198 25.7173 26.5042 25.9595 27.407ZM31.384 28.2157C30.8375 28.0846 31.0373 27.5344 30.8924 27.2095C30.9236 26.9787 30.8245 26.6223 31.1089 26.6851C31.6262 26.7979 31.6812 27.3295 31.7821 27.7597C31.8518 28.0532 31.6427 28.2767 31.384 28.2157ZM33.1562 19.6284C33.3286 19.7133 33.446 19.8481 33.4772 20.0456C33.446 20.3152 33.2149 20.3632 33.0259 20.45C32.6957 20.6014 32.351 20.7269 32.0224 20.8876C31.7548 21.0205 31.6225 21.1904 31.7601 21.5467C32.3453 23.0755 32.0811 24.5489 31.384 25.9743C31.2813 26.1866 31.1878 26.4968 30.8759 26.3786C30.5769 26.266 30.6356 25.9706 30.7585 25.7527C31.5803 24.2922 31.9399 22.8078 31.0465 21.2402C31.0318 21.2127 31.0061 21.1867 31.0025 21.159C30.9786 20.8562 32.8883 19.4973 33.1562 19.6284ZM33.4735 25.8819C33.468 26.2494 33.2682 26.5356 32.9599 26.521C32.5453 26.4986 32.8186 26.085 32.714 25.8247C33.0296 24.3735 33.0057 22.8853 32.7948 21.3935C32.7672 21.2015 32.7709 20.9947 32.9892 20.9485C33.2552 20.8931 33.2277 21.1331 33.2662 21.305C33.6148 22.817 33.4955 24.3515 33.4735 25.8819ZM34.1174 27.9074C34.0899 28.2434 33.6661 28.0292 33.5029 28.0643C32.9837 28.0976 32.5636 28.0754 32.2738 27.6692C32.0977 27.4218 31.8188 27.1282 31.9729 26.8568C32.1802 26.4931 32.4224 26.9454 32.6645 26.9621C32.9379 26.9805 33.2204 26.951 33.4809 27.0174C33.9175 27.1282 34.1486 27.5365 34.1174 27.9074ZM42.6478 30.8375C42.013 30.0676 41.127 30.0196 40.2116 30.2338C40.063 30.2689 39.9126 30.2947 39.7621 30.3187C39.3475 30.3852 39.1751 30.2504 39.1476 29.787C39.0595 28.2527 39.0375 28.2545 37.5076 28.2545C37.2948 28.2563 37.0801 28.2674 36.8673 28.2545C35.9923 28.2028 35.1411 28.5519 34.5687 27.2464C34.1523 26.3029 33.8679 25.4351 33.9798 24.49C34.0734 23.6903 34.2587 22.9832 33.7854 22.2096C33.512 21.7646 33.5763 21.1276 33.8166 20.6051C34.0479 20.1049 33.9175 19.8148 33.501 19.4363C32.3655 18.3987 30.7585 18.2344 29.6303 17.1321C29.0084 16.5265 28.9277 16.1979 29.4211 15.5719C29.8963 14.9719 30.331 14.3367 30.753 13.6979C31.2685 12.9187 31.0593 12.1156 30.498 11.5395C29.5165 10.5296 28.3737 9.69133 27.1244 9.02296C26.5704 8.72754 26.0402 8.76077 25.4807 9.08573C24.2167 9.81891 23.2188 10.8601 22.23 11.9014C21.4943 12.6769 21.5512 13.3731 22.263 14.1761C22.7693 14.7485 23.3967 15.2121 23.7893 15.8858C24.2993 16.7591 24.2296 17.145 23.294 17.5346C22.1052 18.0294 21.0889 18.8326 19.9075 19.3366C19.4764 19.5194 19.2233 19.8352 19.4361 20.3632C19.7204 21.0667 19.6048 21.7757 19.2783 22.4145C18.9151 23.1254 18.9077 23.814 19.1187 24.5526C19.2379 24.9643 19.2765 25.3964 19.3755 25.8136C19.5883 26.7202 18.9664 27.4052 18.6674 28.1365C18.5243 28.4834 17.7043 28.225 17.1925 28.2508C16.7357 28.273 16.2752 28.2545 15.8166 28.2545C14.3032 28.2545 14.2885 28.2545 14.2298 29.7334C14.2078 30.2836 14.1032 30.4886 13.4721 30.3298C12.8282 30.1692 12.155 30.2209 11.5368 30.6234C10.603 31.2291 10.4159 32.1226 10.526 33.1159C10.6582 34.3068 11.168 35.302 12.3054 35.8227C13.3933 36.3212 14.5013 36.7902 15.2516 37.778C15.8478 38.5627 16.6531 38.9448 17.5612 39.1553C18.0639 39.2717 18.5812 39.3547 19.0948 39.3898C19.6819 39.4304 19.9479 39.6354 19.9057 40.2871C19.8451 41.2048 19.8855 42.1298 19.8928 43.053C19.8965 43.3115 19.8176 43.6586 20.2652 43.6272C20.6138 43.6013 20.5918 43.3227 20.5918 43.0788C20.5973 42.248 20.6413 41.4153 20.5808 40.5899C20.5221 39.7886 20.7184 39.4618 21.6081 39.5006C23.4079 39.5781 25.2128 39.5246 27.0143 39.5246C28.9699 39.5246 30.9254 39.5394 32.881 39.5135C33.424 39.5061 33.6478 39.6502 33.6203 40.2318C33.5781 41.1217 33.5964 42.0153 33.6184 42.9073C33.6239 43.1693 33.446 43.6216 33.9395 43.6032C34.3486 43.5884 34.1963 43.1822 34.2 42.9403C34.2183 41.9581 34.255 40.9703 34.1908 39.9899C34.1413 39.2513 34.4018 39.1129 35.075 39.2033C36.6784 39.4212 38.0139 39.039 38.8669 37.4733C39.4026 36.4929 40.2116 35.7433 41.2242 35.2189C41.9543 34.8404 42.4625 34.2127 42.7743 33.4557C43.1357 32.575 43.3137 31.6446 42.6478 30.8375Z" fill="white"/>
</svg>
