<svg width="76" height="20" viewBox="0 0 76 20" fill="none" xmlns="http://www.w3.org/2000/svg">
<rect x="0.5" y="0.5" width="75" height="19" rx="5.5" stroke="#D73246"/>
<path d="M26.804 5.624H25.496C25.28 5.624 25.16 5.744 25.16 5.96V11.204C25.16 12.212 24.704 12.704 23.888 12.704C23.084 12.704 22.628 12.212 22.628 11.204V5.96C22.628 5.744 22.508 5.624 22.292 5.624H20.984C20.768 5.624 20.648 5.744 20.648 5.96V11.156C20.648 13.088 21.812 14.216 23.888 14.216C25.964 14.216 27.14 13.088 27.14 11.156V5.96C27.14 5.744 27.02 5.624 26.804 5.624ZM33.1966 14H34.5046C34.7206 14 34.8406 13.88 34.8406 13.664V7.172H36.5926C36.7966 7.172 36.9166 7.052 36.9166 6.836V5.96C36.9166 5.744 36.7966 5.624 36.5926 5.624H31.1206C30.9046 5.624 30.7846 5.744 30.7846 5.96V6.836C30.7846 7.052 30.9046 7.172 31.1206 7.172H32.8606V13.664C32.8606 13.88 32.9806 14 33.1966 14ZM39.4745 5.624H38.1665C37.9505 5.624 37.8305 5.744 37.8305 5.96V13.664C37.8305 13.88 37.9505 14 38.1665 14H39.4745C39.6905 14 39.8105 13.88 39.8105 13.664V5.96C39.8105 5.744 39.6905 5.624 39.4745 5.624ZM42.6061 14.216C44.2741 14.216 45.3901 13.088 45.4021 11.396L45.4141 5.96C45.4141 5.744 45.2821 5.624 45.0781 5.624H41.5741C41.3581 5.624 41.2381 5.744 41.2381 5.96V6.836C41.2381 7.052 41.3581 7.172 41.5741 7.172H43.4341V11.408C43.4341 12.14 43.0861 12.608 42.4621 12.608C42.2461 12.608 41.9701 12.512 41.7301 12.344C41.5501 12.212 41.3941 12.224 41.2741 12.404L40.7461 13.136C40.6261 13.304 40.6261 13.472 40.7941 13.604C41.2741 13.976 41.9701 14.216 42.6061 14.216ZM47.2251 14H51.6171C51.8211 14 51.9411 13.88 51.9411 13.664V12.824C51.9411 12.608 51.8211 12.488 51.6171 12.488H48.8691V10.4H51.0891C51.3051 10.4 51.4251 10.28 51.4251 10.064V9.344C51.4251 9.14 51.3051 9.02 51.0891 9.02H48.8691V7.136H51.5571C51.7611 7.136 51.8811 7.016 51.8811 6.812V5.96C51.8811 5.744 51.7611 5.624 51.5571 5.624H47.2251C47.0091 5.624 46.8891 5.744 46.8891 5.96V13.664C46.8891 13.88 47.0091 14 47.2251 14ZM59.8058 13.604L57.7058 9.464L59.5778 6.02C59.6978 5.78 59.6018 5.624 59.3378 5.624H58.0658C57.8858 5.624 57.7658 5.708 57.6818 5.876L56.0618 9.02H55.1738V5.96C55.1738 5.744 55.0538 5.624 54.8378 5.624H53.5298C53.3138 5.624 53.1938 5.744 53.1938 5.96V13.664C53.1938 13.88 53.3138 14 53.5298 14H54.8378C55.0538 14 55.1738 13.88 55.1738 13.664V10.4H56.0498L57.6938 13.76C57.7778 13.916 57.9098 14 58.0898 14H59.5658C59.8178 14 59.9138 13.844 59.8058 13.604ZM66.4954 5.624H65.1874C64.9714 5.624 64.8514 5.744 64.8514 5.96V11.204C64.8514 12.212 64.3954 12.704 63.5794 12.704C62.7754 12.704 62.3194 12.212 62.3194 11.204V5.96C62.3194 5.744 62.1994 5.624 61.9834 5.624H60.6754C60.4594 5.624 60.3394 5.744 60.3394 5.96V11.156C60.3394 13.088 61.5034 14.216 63.5794 14.216C65.6554 14.216 66.8314 13.088 66.8314 11.156V5.96C66.8314 5.744 66.7114 5.624 66.4954 5.624Z" fill="#D73246"/>
<circle cx="12" cy="10" r="4" fill="#D73246"/>
</svg>
