<svg width="16" height="16" viewBox="0 0 16 16" fill="none" xmlns="http://www.w3.org/2000/svg">
<path d="M8.00043 0C9.44305 0.00011395 10.827 0.573654 11.8471 1.59375C12.867 2.61391 13.4399 3.99785 13.4399 5.44043C13.4396 8.64457 10.2533 13.6994 8.75824 15.6279C8.57713 15.8626 8.29682 16.0002 8.00043 16C7.70409 15.9997 7.42433 15.8618 7.24359 15.627C5.7489 13.6935 2.56028 8.62544 2.56 5.44043C2.56 2.436 4.996 0 8.00043 0ZM8.00043 0.639648C5.34946 0.639648 3.19965 2.78946 3.19965 5.44043C3.19993 8.39484 6.26595 13.3158 7.75043 15.2363C7.81019 15.3143 7.90311 15.3604 8.0014 15.3604C8.09969 15.3603 8.19269 15.3144 8.25238 15.2363C9.73624 13.3229 12.7999 8.41105 12.8002 5.44043C12.8002 2.78961 10.6512 0.63988 8.00043 0.639648ZM8.00043 2.55957C8.59418 2.55968 9.16349 2.79608 9.58344 3.21582C10.0035 3.63585 10.2396 4.2058 10.2397 4.7998C10.2397 6.03678 9.23735 7.03981 8.00043 7.04004C6.76331 7.04004 5.76019 6.03692 5.76019 4.7998C5.76031 3.56278 6.76338 2.55957 8.00043 2.55957ZM8.00043 3.2002C7.11683 3.2002 6.39993 3.91623 6.39984 4.7998C6.39984 5.68346 7.11677 6.40039 8.00043 6.40039C8.88346 6.39914 9.59901 5.68289 9.60004 4.7998C9.59994 3.91637 8.88383 3.20043 8.00043 3.2002Z" fill="white" fill-opacity="0.8"/>
</svg>
