<svg width="142" height="48" viewBox="0 0 142 48" fill="none" xmlns="http://www.w3.org/2000/svg">
<path d="M34.2544 22.9785C33.985 21.4963 33.23 20.1428 32.1057 19.1262L28.1197 15.1692C26.5669 13.6267 25.0119 12.0841 23.4549 10.5415C22.6059 9.62846 21.4976 8.99009 20.2751 8.71007C19.0526 8.43006 17.773 8.52146 16.604 8.97231C15.3904 9.33719 14.322 10.0666 13.5474 11.0592C12.7728 12.0518 12.3304 13.2583 12.2818 14.5108C12.2818 15.3292 12.2818 16.3569 12.2818 17.4215C12.2494 17.6668 12.3117 17.915 12.4561 18.1169L14.0692 19.6923C14.2561 19.8523 14.6547 19.7908 14.6484 19.5692C14.6484 17.8215 14.6484 15.8769 14.6858 14.5723C14.718 13.8008 14.997 13.0593 15.4827 12.4545C15.9684 11.8496 16.6358 11.4125 17.3888 11.2062C18.1309 10.9052 18.9494 10.8401 19.7307 11.0198C20.512 11.1996 21.2172 11.6153 21.7484 12.2092L26.4132 16.8431L30.3992 20.7939C31.1682 21.4483 31.6925 22.339 31.8877 23.3231C32.0005 23.9251 31.9618 24.5453 31.775 25.129C31.5882 25.7128 31.259 26.2422 30.8165 26.6708C29.4837 28.0123 28.1135 29.36 26.7807 30.6708C25.1054 32.32 23.3677 34.0246 21.6861 35.7354C21.1669 36.2499 20.5167 36.6164 19.8042 36.7962C19.0917 36.976 18.3433 36.9624 17.6379 36.7569C17.0265 36.5975 16.4629 36.2951 15.9946 35.8753C15.5264 35.4554 15.1672 34.9304 14.9474 34.3446C14.9228 34.2819 14.8831 34.226 14.8316 34.1819C14.7802 34.1378 14.7186 34.1068 14.6523 34.0917C14.586 34.0765 14.5169 34.0776 14.4511 34.0949C14.3852 34.1122 14.3247 34.1451 14.2747 34.1908L13.1163 35.3354C13.0516 35.411 13.0086 35.5024 12.9918 35.6C12.9675 35.7446 12.9962 35.893 13.0727 36.0185C13.4848 36.7591 14.0443 37.4097 14.7175 37.9311C15.3908 38.4525 16.1638 38.8339 16.9902 39.0523C17.5822 39.2159 18.194 39.2988 18.8088 39.2985C19.6667 39.3028 20.5168 39.1367 21.3086 38.8101C22.1003 38.4834 22.8175 38.0028 23.4175 37.3969C25.0867 35.6985 26.8118 34 28.4872 32.3569C29.82 31.0462 31.1964 29.6923 32.5417 28.3385C33.24 27.6454 33.76 26.797 34.058 25.8644C34.356 24.9317 34.4234 23.9421 34.2544 22.9785Z" fill="white"/>
<path d="M17.04 28.7077C17.299 28.4471 17.4909 28.1289 17.5992 27.7797C17.7076 27.4305 17.7294 27.0607 17.6628 26.7015C17.5642 26.1365 17.2796 25.6195 16.8532 25.2307L12.8672 21.2677C12.551 20.9136 12.1319 20.6645 11.6671 20.5543C11.2023 20.4442 10.7145 20.4784 10.2701 20.6523C9.8056 20.786 9.39715 21.0642 9.10543 21.4456C8.8137 21.827 8.65426 22.2912 8.6508 22.7692C8.6508 24.1969 8.6508 27.0769 8.6508 27.0769C8.6508 28.2769 8.6508 29.4707 8.6508 30.6707C8.63608 31.0393 8.65904 31.4083 8.71931 31.7723C8.8268 32.1865 9.04326 32.5653 9.34674 32.8702C9.65021 33.1751 10.0299 33.3953 10.4473 33.5084C10.8647 33.6215 11.3049 33.6235 11.7234 33.5142C12.1418 33.4049 12.5235 33.1882 12.8298 32.8861C14.2125 31.4769 15.6387 30.1107 17.0338 28.7077" fill="#30CEC2"/>
<path d="M44.0823 30.3323C44.016 30.3405 43.9486 30.3335 43.8855 30.3119C43.8224 30.2902 43.7651 30.2545 43.7182 30.2075C43.6712 30.1605 43.6358 30.1035 43.6147 30.0409C43.5936 29.9782 43.5874 29.9116 43.5965 29.8462V17.8462C43.5882 17.7807 43.5953 17.7141 43.6172 17.6518C43.6391 17.5894 43.6753 17.5328 43.7228 17.4864C43.7704 17.44 43.8281 17.405 43.8915 17.3842C43.9549 17.3634 44.0223 17.3572 44.0885 17.3662H47.3894C51.2508 17.3662 53.2687 19.5816 53.2687 23.8462C53.2687 28.1108 51.2508 30.3262 47.3894 30.3262L44.0823 30.3323ZM50.7152 23.8523C50.7152 20.7754 49.6626 19.3416 47.6011 19.3416H46.0068V28.3754H47.5887C49.6626 28.3754 50.7152 26.9047 50.7152 23.8523Z" fill="white"/>
<path d="M65.0397 17.8461V26.1046C65.0397 28.8984 63.271 30.6523 60.2566 30.6523C57.2422 30.6523 55.4672 28.923 55.4672 26.1046V17.8461C55.4591 17.7812 55.4661 17.7153 55.4877 17.6534C55.5093 17.5916 55.5448 17.5354 55.5916 17.4891C55.6385 17.4428 55.6953 17.4077 55.7579 17.3864C55.8206 17.3651 55.8872 17.3582 55.953 17.3661H57.3854C57.4516 17.3571 57.519 17.3633 57.5825 17.3841C57.6459 17.405 57.7036 17.44 57.7511 17.4863C57.7987 17.5327 57.8348 17.5893 57.8567 17.6517C57.8786 17.7141 57.8857 17.7806 57.8775 17.8461V26.0677C57.8775 27.7846 58.7058 28.7138 60.2566 28.7138C61.8074 28.7138 62.6108 27.7846 62.6108 26.0677V17.8461C62.6044 17.7794 62.6135 17.712 62.6373 17.6493C62.6611 17.5865 62.699 17.5298 62.7482 17.4836C62.7974 17.4374 62.8565 17.4028 62.9212 17.3824C62.9858 17.3621 63.0543 17.3565 63.1215 17.3661H64.5353C64.602 17.3575 64.6697 17.3639 64.7336 17.3847C64.7975 17.4055 64.8558 17.4402 64.9042 17.4863C64.9527 17.5324 64.99 17.5887 65.0135 17.651C65.0369 17.7133 65.0459 17.78 65.0397 17.8461Z" fill="white"/>
<path d="M67.9794 29.9262V17.9323C67.9701 17.8663 67.9764 17.7991 67.9978 17.7359C68.0192 17.6727 68.0552 17.6153 68.1029 17.5682C68.1506 17.5211 68.2087 17.4855 68.2726 17.4644C68.3366 17.4432 68.4046 17.437 68.4714 17.4462H70.5204C70.8007 17.4462 70.9377 17.5877 71.0809 17.8523L74.2759 23.5569L77.39 17.8523C77.583 17.5385 77.6516 17.4462 77.9318 17.4462H79.9808C80.0484 17.4376 80.117 17.4441 80.1816 17.4652C80.2462 17.4864 80.3052 17.5216 80.3542 17.5682C80.4032 17.6149 80.441 17.6718 80.4648 17.7348C80.4885 17.7979 80.4977 17.8653 80.4916 17.9323V29.9262C80.4979 29.9929 80.4888 30.0602 80.465 30.123C80.4412 30.1858 80.4033 30.2425 80.3542 30.2887C80.305 30.3349 80.2458 30.3695 80.1812 30.3898C80.1165 30.4102 80.048 30.4158 79.9808 30.4062H78.6792C78.6137 30.4129 78.5475 30.4052 78.4855 30.3834C78.4234 30.3617 78.3671 30.3266 78.3205 30.2806C78.274 30.2346 78.2384 30.1789 78.2164 30.1176C78.1944 30.0563 78.1865 29.9909 78.1934 29.9262V25.0031C78.2494 23.4708 78.2681 20.6215 78.2681 20.6215L75.5714 25.4339C75.4157 25.7108 75.3098 25.84 75.0233 25.84H73.5535C73.2732 25.84 73.1549 25.7046 73.0054 25.4339L70.1903 20.4123C70.1903 20.4123 70.2713 23.4892 70.2713 25.0031V29.9262C70.2794 29.9911 70.2723 30.057 70.2508 30.1189C70.2292 30.1807 70.1937 30.2369 70.1468 30.2832C70.1 30.3295 70.0431 30.3646 69.9805 30.3859C69.9179 30.4072 69.8512 30.4141 69.7855 30.4062H68.4838C68.4167 30.4173 68.3479 30.4127 68.2828 30.3928C68.2178 30.3729 68.1584 30.3383 68.1093 30.2916C68.0603 30.245 68.023 30.1876 68.0004 30.1241C67.9779 30.0607 67.9707 29.9929 67.9794 29.9262Z" fill="white"/>
<path d="M83.5869 29.8462V17.8462C83.5787 17.7807 83.5858 17.7141 83.6077 17.6518C83.6296 17.5894 83.6657 17.5328 83.7132 17.4864C83.7608 17.44 83.8185 17.405 83.8819 17.3842C83.9453 17.3634 84.0127 17.3572 84.0789 17.3662H87.193C90.662 17.3662 92.6238 18.8739 92.6238 21.52C92.6238 24.1662 90.662 25.8277 87.2117 25.8277H85.966V29.8462C85.9752 29.9116 85.9689 29.9782 85.9478 30.0409C85.9267 30.1035 85.8913 30.1605 85.8444 30.2075C85.7974 30.2545 85.7402 30.2902 85.677 30.3119C85.6139 30.3335 85.5466 30.3405 85.4803 30.3323H84.0789C84.0122 30.3416 83.9441 30.3353 83.8802 30.3141C83.8162 30.293 83.7581 30.2574 83.7104 30.2103C83.6627 30.1632 83.6268 30.1058 83.6053 30.0426C83.5839 29.9794 83.5776 29.9122 83.5869 29.8462ZM87.4296 24C89.2981 24 90.1638 23.1631 90.1638 21.5385C90.1638 20.0062 89.2794 19.1693 87.5667 19.1693H85.9972V24H87.4296Z" fill="white"/>
<path d="M95.1587 30.3323C95.0921 30.3403 95.0246 30.3332 94.9613 30.3116C94.8979 30.2899 94.8404 30.2544 94.793 30.2075C94.7456 30.1607 94.7096 30.1038 94.6877 30.0412C94.6658 29.9786 94.6586 29.9119 94.6667 29.8462V17.8462C94.6584 17.7807 94.6655 17.7141 94.6874 17.6518C94.7093 17.5894 94.7454 17.5328 94.793 17.4864C94.8405 17.44 94.8982 17.405 94.9616 17.3842C95.0251 17.3634 95.0925 17.3572 95.1587 17.3662H98.4596C102.321 17.3662 104.339 19.5816 104.339 23.8462C104.339 28.1108 102.321 30.3262 98.4596 30.3262L95.1587 30.3323ZM101.798 23.8523C101.798 20.7754 100.739 19.3416 98.6838 19.3416H97.1018V28.3754H98.6838C100.739 28.3754 101.798 26.9047 101.798 23.8523Z" fill="#30CEC2"/>
<path d="M104.632 29.7908L108.368 17.7785C108.397 17.6554 108.469 17.5464 108.572 17.4718C108.675 17.3971 108.802 17.3618 108.929 17.3723H111.096C111.225 17.3603 111.353 17.3949 111.457 17.4696C111.562 17.5444 111.635 17.6542 111.663 17.7785L115.4 29.7908C115.43 29.8537 115.443 29.9238 115.436 29.9932C115.429 30.0627 115.403 30.129 115.361 30.1848C115.318 30.2407 115.261 30.284 115.196 30.31C115.13 30.336 115.059 30.3437 114.989 30.3323H113.482C113.355 30.3499 113.226 30.3171 113.123 30.241C113.02 30.1649 112.952 30.0517 112.934 29.9262L112.199 27.317H107.746L107.011 29.9262C106.989 30.0503 106.92 30.1616 106.819 30.2371C106.717 30.3126 106.589 30.3467 106.463 30.3323H104.993C104.675 30.3323 104.488 30.1539 104.632 29.7908ZM111.738 25.4831L110.025 19.2062H109.988L108.269 25.4831H111.738Z" fill="#30CEC2"/>
<path d="M117.63 29.8462V25.4523L113.725 17.9446C113.556 17.5939 113.687 17.3723 114.067 17.3723H115.612C115.733 17.3679 115.853 17.3988 115.958 17.4611C116.062 17.5234 116.145 17.6145 116.197 17.7231L118.838 23.3477L121.528 17.7231C121.579 17.6174 121.66 17.5283 121.76 17.4662C121.86 17.4041 121.977 17.3715 122.095 17.3723H123.602C123.982 17.3723 124.132 17.5939 123.964 17.9446L120.04 25.4523V29.8462C120.048 29.9114 120.041 29.9774 120.019 30.0395C119.997 30.1016 119.962 30.1581 119.915 30.2048C119.869 30.2515 119.812 30.2873 119.749 30.3093C119.687 30.3314 119.62 30.3393 119.554 30.3323H118.122C118.055 30.3415 117.987 30.3353 117.923 30.3141C117.859 30.293 117.801 30.2574 117.753 30.2103C117.705 30.1632 117.669 30.1058 117.648 30.0426C117.627 29.9794 117.62 29.9122 117.63 29.8462Z" fill="#30CEC2"/>
<path d="M124.125 29.0892C124.074 29.0525 124.032 29.0057 124 28.9519C123.968 28.898 123.948 28.8382 123.941 28.7762C123.934 28.7143 123.94 28.6516 123.959 28.5921C123.978 28.5327 124.009 28.4777 124.051 28.4308L124.605 27.6246C124.635 27.5655 124.68 27.5148 124.735 27.477C124.791 27.4393 124.854 27.4157 124.921 27.4083C124.988 27.401 125.055 27.4102 125.118 27.4351C125.18 27.4599 125.235 27.4997 125.278 27.5508C126.153 28.1975 127.206 28.5666 128.298 28.6092C129.818 28.6092 130.69 27.9323 130.727 26.8492C130.727 25.3661 129.668 25.04 127.962 24.4861C126.255 23.9323 124.312 23.1692 124.312 20.7938C124.312 18.5723 126.037 17.1015 128.728 17.1015C129.993 17.1095 131.231 17.4654 132.303 18.1292C132.362 18.1603 132.414 18.2046 132.453 18.2585C132.492 18.3125 132.518 18.3747 132.529 18.4402C132.54 18.5057 132.535 18.5729 132.515 18.6364C132.496 18.6998 132.461 18.7579 132.415 18.8061L131.879 19.5754C131.848 19.6315 131.805 19.6802 131.753 19.718C131.7 19.7558 131.64 19.7818 131.577 19.7941C131.513 19.8064 131.448 19.8048 131.385 19.7893C131.322 19.7739 131.263 19.7449 131.213 19.7046C130.482 19.2941 129.656 19.0779 128.815 19.0769C127.52 19.0769 126.741 19.6923 126.741 20.6523C126.741 21.7908 127.688 22.1354 129.264 22.6523C131.064 23.2 133.194 23.8831 133.194 26.6646C133.194 29.0831 131.176 30.5477 128.392 30.5477C126.845 30.5427 125.344 30.0296 124.125 29.0892Z" fill="#30CEC2"/>
</svg>
