<svg width="26" height="31" viewBox="0 0 26 31" fill="none" xmlns="http://www.w3.org/2000/svg">
<path d="M25.6079 14.4274C25.3385 12.9452 24.5835 11.5917 23.4592 10.5751L19.4733 6.61814C17.9204 5.07557 16.3655 3.53301 14.8085 1.99045C13.9594 1.07736 12.8511 0.43899 11.6286 0.158975C10.4061 -0.121039 9.12657 -0.0296337 7.95758 0.421215C6.74396 0.786093 5.67556 1.51554 4.90093 2.50814C4.12629 3.50074 3.68391 4.70716 3.63529 5.95968C3.63529 6.77814 3.63529 7.80583 3.63529 8.87045C3.60299 9.11565 3.66524 9.3639 3.80968 9.56583L5.42275 11.1412C5.60959 11.3012 6.00819 11.2397 6.00196 11.0181C6.00196 9.27045 6.00196 7.32583 6.03933 6.02122C6.07152 5.24974 6.35053 4.50823 6.83624 3.90336C7.32194 3.29849 7.9893 2.86144 8.74231 2.65506C9.48442 2.3541 10.303 2.28897 11.0842 2.46873C11.8655 2.64849 12.5708 3.06421 13.102 3.65814L17.7668 8.29199L21.7528 12.2428C22.5218 12.8972 23.046 13.7879 23.2413 14.772C23.354 15.374 23.3153 15.9942 23.1285 16.5779C22.9417 17.1617 22.6126 17.6911 22.17 18.1197C20.8372 19.4612 19.467 20.8089 18.1342 22.1197C16.4589 23.7689 14.7213 25.4735 13.0397 27.1843C12.5204 27.6988 11.8702 28.0653 11.1577 28.2451C10.4452 28.4249 9.6968 28.4113 8.99143 28.2058C8.38005 28.0464 7.81645 27.744 7.34818 27.3242C6.87991 26.9043 6.52072 26.3793 6.30091 25.7935C6.27634 25.7308 6.23661 25.6749 6.18518 25.6308C6.13374 25.5867 6.07217 25.5558 6.00583 25.5406C5.93949 25.5254 5.8704 25.5265 5.80459 25.5438C5.73878 25.5611 5.67825 25.594 5.62828 25.6397L4.46986 26.7843C4.40514 26.8599 4.36213 26.9513 4.34529 27.0489C4.321 27.1935 4.34971 27.3419 4.42626 27.4674C4.83834 28.208 5.39784 28.8586 6.07108 29.38C6.74433 29.9014 7.51738 30.2828 8.34372 30.5012C8.93571 30.6648 9.54759 30.7477 10.1623 30.7474C11.0203 30.7517 11.8704 30.5856 12.6621 30.259C13.4538 29.9323 14.171 29.4517 14.7711 28.8458C16.4402 27.1474 18.1654 25.4489 19.8407 23.8058C21.1735 22.4951 22.5499 21.1412 23.8952 19.7874C24.5936 19.0943 25.1135 18.2459 25.4115 17.3133C25.7095 16.3806 25.7769 15.391 25.6079 14.4274Z" fill="white"/>
<path d="M8.39352 20.1566C8.65256 19.896 8.84437 19.5778 8.95276 19.2286C9.06116 18.8794 9.08296 18.5096 9.01633 18.1504C8.91773 17.5854 8.63312 17.0684 8.20668 16.6796L4.22072 12.7166C3.90447 12.3625 3.48539 12.1134 3.02061 12.0032C2.55584 11.8931 2.06799 11.9273 1.62361 12.1012C1.15911 12.2349 0.750665 12.5131 0.458941 12.8945C0.167217 13.2759 0.00777986 13.7401 0.00431404 14.2181C0.00431404 15.6458 0.00431404 18.5258 0.00431404 18.5258C0.00431404 19.7258 0.00431404 20.9196 0.00431404 22.1196C-0.0104011 22.4881 0.0125512 22.8572 0.0728226 23.2212C0.180314 23.6354 0.396776 24.0142 0.700251 24.3191C1.00373 24.624 1.38342 24.8442 1.80081 24.9573C2.2182 25.0704 2.65844 25.0724 3.07687 24.9631C3.4953 24.8538 3.87703 24.6371 4.18335 24.335C5.56598 22.9258 6.99221 21.5596 8.3873 20.1566" fill="#30CEC2"/>
</svg>
