<svg width="77" height="25" viewBox="0 0 77 25" fill="none" xmlns="http://www.w3.org/2000/svg">
<path fill-rule="evenodd" clip-rule="evenodd" d="M14.956 18.841V0H9.69776V6.52879C9.186 5.98044 8.59962 5.56918 7.9386 5.29501C7.27758 5.02083 6.54194 4.88374 5.73166 4.88374C4.06845 4.88374 2.69738 5.4835 1.61843 6.68302C0.53947 7.88254 0 9.61325 0 11.8752C0 13.8973 0.488295 15.6151 1.4649 17.0288C2.4415 18.4426 3.85521 19.1494 5.70607 19.1494C6.62723 19.1494 7.46309 18.9524 8.21367 18.5582C8.7766 18.2583 9.39923 17.68 10.0816 16.8232V18.841H14.956ZM9.05804 9.58038C9.5101 10.1073 9.73612 10.9063 9.73612 11.9773C9.73612 13.1597 9.51436 14.0122 9.07084 14.5348C8.62731 15.0575 8.07292 15.3188 7.40763 15.3188C6.78499 15.3188 6.26258 15.0596 5.84038 14.5412C5.41818 14.0229 5.20708 13.2068 5.20708 12.0929C5.20708 10.902 5.41178 10.0538 5.82119 9.54825C6.2306 9.04274 6.73808 8.78999 7.34366 8.78999C8.03454 8.78999 8.60599 9.05345 9.05804 9.58038ZM32.4453 18.8404H27.5836V16.6299C26.8586 17.5381 26.1273 18.185 25.3895 18.5706C24.6517 18.9561 23.7455 19.1489 22.6708 19.1489C21.2378 19.1489 20.1141 18.7184 19.2996 17.8573C18.485 16.9962 18.0778 15.6703 18.0778 13.8796V5.19167H23.3105V12.6972C23.3105 13.554 23.4683 14.1623 23.7838 14.5222C24.0994 14.882 24.5429 15.062 25.1144 15.062C25.737 15.062 26.2467 14.8221 26.6433 14.3423C27.0399 13.8624 27.2382 13.0014 27.2382 11.759V5.19167H32.4453V18.8404ZM40.5054 5.19109H35.6437V18.8399H40.8636V11.8741C40.8636 10.8374 41.0555 10.092 41.4393 9.63787C41.8231 9.18376 42.3136 8.95671 42.9106 8.95671C43.2774 8.95671 43.5972 9.06167 43.8702 9.27159C44.1431 9.4815 44.335 9.75782 44.4459 10.1005C44.5141 10.3147 44.5482 10.7217 44.5482 11.3215V18.8399H49.7681V11.797C49.7681 10.8117 49.9558 10.0963 50.3311 9.65072C50.7064 9.20518 51.2011 8.98242 51.8152 8.98242C52.3354 8.98242 52.7704 9.21804 53.1201 9.68928C53.359 9.98916 53.4784 10.4475 53.4784 11.0644V18.8399H58.6983V10.2676C58.6983 8.41692 58.2889 7.05677 57.4701 6.18712C56.6512 5.31747 55.5126 4.88265 54.0541 4.88265C53.0647 4.88265 52.2331 5.04329 51.5593 5.36459C50.8855 5.68589 50.1392 6.29207 49.3204 7.18315C48.9195 6.42059 48.4035 5.84654 47.7723 5.46098C47.1411 5.07542 46.2839 4.88265 45.2007 4.88265C44.1943 4.88265 43.335 5.05829 42.6228 5.40958C41.9106 5.76086 41.2048 6.35205 40.5054 7.18315V5.19109ZM61.8327 24.0321V5.19109H66.7072V7.20885C67.381 6.36062 67.9994 5.78657 68.5623 5.48669C69.3214 5.08399 70.1616 4.88265 71.0827 4.88265C72.8995 4.88265 74.3046 5.58093 75.2983 6.97751C76.292 8.3741 76.7888 10.1005 76.7888 12.1569C76.7888 14.4274 76.2472 16.1602 75.164 17.3555C74.0807 18.5507 72.7118 19.1483 71.0571 19.1483C70.2554 19.1483 69.524 19.0112 68.863 18.7371C68.202 18.4629 67.6113 18.0559 67.091 17.5161V24.0321H61.8327ZM67.7307 14.4582C67.2787 13.9356 67.0526 13.1345 67.0526 12.0549C67.0526 10.8811 67.2744 10.0328 67.7179 9.5102C68.1614 8.98755 68.7158 8.72623 69.3811 8.72623C69.9952 8.72623 70.5155 8.98541 70.942 9.50377C71.3684 10.0221 71.5817 10.8339 71.5817 11.9392C71.5817 13.1387 71.377 13.9891 70.9676 14.4903C70.5582 14.9916 70.0507 15.2422 69.4451 15.2422C68.7542 15.2422 68.1828 14.9808 67.7307 14.4582Z" fill="white"/>
<path fill-rule="evenodd" clip-rule="evenodd" d="M44.8898 0V0.504325H45.3086V0H44.8898ZM22.6545 3.24577V3.57224H23.043V0.000548695H22.6266V1.28207C22.5537 1.17649 22.4591 1.09082 22.3427 1.02504C22.2264 0.959253 22.0938 0.926363 21.9449 0.926363C21.7418 0.926363 21.558 0.982398 21.3936 1.09447C21.2292 1.20654 21.1059 1.36775 21.0237 1.57809C20.9415 1.78843 20.9004 2.02272 20.9004 2.28097C20.9004 2.54573 20.9458 2.78002 21.0365 2.98386C21.1272 3.18771 21.2552 3.34647 21.4203 3.46017C21.5855 3.57387 21.7666 3.63071 21.9636 3.63071C22.2675 3.63071 22.4978 3.5024 22.6545 3.24577ZM20.021 3.19166V3.57173H20.3956V0.984327H19.9768V2.37061C19.9768 2.59151 19.9539 2.76002 19.9082 2.87616C19.8624 2.99229 19.7845 3.08406 19.6744 3.15146C19.5643 3.21887 19.4464 3.25257 19.3208 3.25257C19.1951 3.25257 19.0897 3.21968 19.0044 3.1539C18.9191 3.08812 18.8632 2.99757 18.8369 2.88225C18.8198 2.80266 18.8113 2.64836 18.8113 2.41934V0.984327H18.3925V2.58745C18.3925 2.77424 18.4011 2.91067 18.4181 2.99675C18.443 3.12507 18.486 3.23349 18.5473 3.32201C18.6085 3.41053 18.7023 3.48403 18.8287 3.5425C18.9551 3.60097 19.0912 3.63021 19.237 3.63021C19.5674 3.63021 19.8287 3.48403 20.021 3.19166ZM21.3308 2.28103C21.3308 2.61238 21.3975 2.86007 21.5308 3.02412C21.6642 3.18817 21.8216 3.27019 22.0031 3.27019C22.1861 3.27019 22.3416 3.19182 22.4695 3.03508C22.5975 2.87834 22.6615 2.63918 22.6615 2.31758C22.6615 1.96349 22.5963 1.70362 22.466 1.53794C22.3358 1.37227 22.1753 1.28944 21.9845 1.28944C21.7984 1.28944 21.6429 1.36902 21.5181 1.5282C21.3932 1.68737 21.3308 1.93832 21.3308 2.28103ZM23.6966 0.984908V3.57231H24.1154V2.2177C24.1154 2.03254 24.1387 1.86199 24.1852 1.70607C24.2162 1.60374 24.2682 1.52375 24.341 1.46609C24.4139 1.40843 24.4961 1.3796 24.5876 1.3796C24.69 1.3796 24.7924 1.41127 24.8947 1.47461L25.039 1.06774C24.8932 0.973538 24.7497 0.926435 24.6086 0.926435C24.5109 0.926435 24.4213 0.955671 24.3399 1.01414C24.2585 1.07262 24.1697 1.19362 24.0735 1.37716V0.984908H23.6966ZM26.9071 3.57173V3.19166C26.7148 3.48403 26.4534 3.63021 26.1231 3.63021C25.9773 3.63021 25.8412 3.60097 25.7148 3.5425C25.5884 3.48403 25.4946 3.41053 25.4333 3.32201C25.3721 3.23349 25.329 3.12507 25.3042 2.99675C25.2871 2.91067 25.2786 2.77424 25.2786 2.58745V0.984327H25.6974V2.41934C25.6974 2.64836 25.7059 2.80266 25.7229 2.88225C25.7493 2.99757 25.8051 3.08812 25.8904 3.1539C25.9757 3.21968 26.0812 3.25257 26.2068 3.25257C26.3325 3.25257 26.4503 3.21887 26.5604 3.15146C26.6706 3.08406 26.7485 2.99229 26.7942 2.87616C26.84 2.76002 26.8629 2.59151 26.8629 2.37061V0.984327H27.2816V3.57173H26.9071ZM28.268 3.85006L27.8609 3.78671C27.8547 4.06608 27.9423 4.2752 28.1238 4.41407C28.3053 4.55295 28.5433 4.62238 28.838 4.62238C29.0861 4.62238 29.2951 4.57366 29.465 4.4762C29.6348 4.37875 29.7589 4.24597 29.8372 4.07786C29.9155 3.90975 29.9547 3.62429 29.9547 3.22148V0.984908H29.5685V1.29676C29.3793 1.04988 29.1389 0.926435 28.8473 0.926435C28.6286 0.926435 28.4383 0.983283 28.2762 1.09698C28.1141 1.21068 27.9904 1.37188 27.9051 1.5806C27.8198 1.78931 27.7772 2.01711 27.7772 2.26399C27.7772 2.62295 27.8702 2.93074 28.0563 3.18737C28.2424 3.444 28.5053 3.57231 28.845 3.57231C29.1179 3.57231 29.3459 3.45943 29.5289 3.23366C29.5305 3.51953 29.5204 3.70713 29.4987 3.79646C29.4615 3.94264 29.3901 4.05634 29.2847 4.13755C29.1792 4.21876 29.0295 4.25937 28.8357 4.25937C28.6558 4.25937 28.5139 4.21876 28.4099 4.13755C28.3324 4.07745 28.2851 3.98162 28.268 3.85006ZM28.2076 2.2323C28.2076 2.57177 28.2719 2.81946 28.4006 2.97539C28.5294 3.13132 28.6907 3.20928 28.8845 3.20928C29.0768 3.20928 29.2381 3.13173 29.3684 2.97661C29.4987 2.8215 29.5638 2.57827 29.5638 2.24692C29.5638 1.9302 29.4967 1.69143 29.3626 1.53063C29.2284 1.36983 29.0668 1.28944 28.8775 1.28944C28.6914 1.28944 28.5332 1.36862 28.403 1.52698C28.2727 1.68534 28.2076 1.92045 28.2076 2.2323ZM31.7518 3.54551C31.8952 3.48867 32.0445 3.39121 32.1996 3.25315C32.212 3.37497 32.2399 3.48136 32.2833 3.57231H32.7207C32.668 3.47324 32.6327 3.36969 32.6148 3.26168C32.597 3.15367 32.5881 2.89582 32.5881 2.48814V1.90341C32.5881 1.7085 32.5811 1.57369 32.5671 1.49898C32.5423 1.37878 32.4989 1.2793 32.4369 1.20052C32.3748 1.12175 32.2779 1.05637 32.1461 1.0044C32.0142 0.952423 31.8429 0.926435 31.6319 0.926435C31.4195 0.926435 31.2326 0.956889 31.0713 1.0178C30.91 1.07871 30.7867 1.1656 30.7014 1.27849C30.6161 1.39137 30.5548 1.53958 30.5176 1.72312L30.9271 1.78159C30.972 1.59806 31.0414 1.47015 31.1353 1.39787C31.2291 1.32559 31.3745 1.28945 31.5715 1.28945C31.7824 1.28945 31.9414 1.33899 32.0484 1.43807C32.1275 1.51116 32.167 1.63704 32.167 1.8157C32.167 1.83195 32.1662 1.87012 32.1647 1.93021C32.0049 1.98869 31.756 2.03904 31.4179 2.08127C31.252 2.10238 31.1279 2.12431 31.0457 2.14705C30.934 2.17953 30.8336 2.22745 30.7444 2.29079C30.6553 2.35414 30.5831 2.43819 30.5281 2.54296C30.473 2.64772 30.4455 2.76344 30.4455 2.89014C30.4455 3.10616 30.5184 3.28361 30.6642 3.42248C30.81 3.56135 31.0186 3.63079 31.29 3.63079C31.4544 3.63079 31.6083 3.60236 31.7518 3.54551ZM32.1646 2.27361C32.0126 2.33858 31.7847 2.3938 31.4807 2.43928C31.3085 2.46527 31.1868 2.4945 31.1154 2.52699C31.0441 2.55947 30.989 2.60698 30.9503 2.66951C30.9115 2.73205 30.8921 2.80148 30.8921 2.87782C30.8921 2.99477 30.9344 3.09222 31.0189 3.17018C31.1034 3.24815 31.2271 3.28713 31.39 3.28713C31.5512 3.28713 31.6947 3.25018 31.8203 3.17627C31.946 3.10237 32.0382 3.00126 32.0972 2.87295C32.1421 2.77387 32.1646 2.62769 32.1646 2.43441V2.27361ZM34.5608 0.984908V3.57231H34.9796V2.22988C34.9796 1.99437 35.0021 1.81408 35.0471 1.68901C35.092 1.56395 35.1645 1.46893 35.2646 1.40396C35.3646 1.33899 35.4736 1.30651 35.5914 1.30651C35.7465 1.30651 35.8582 1.35523 35.9264 1.45269C35.9947 1.55014 36.0288 1.69632 36.0288 1.89123V3.57231H36.4475V2.06908C36.4475 1.80271 36.5049 1.60902 36.6197 1.48801C36.7344 1.36701 36.8787 1.30651 37.0524 1.30651C37.1485 1.30651 37.2323 1.33006 37.3036 1.37716C37.375 1.42426 37.4242 1.48639 37.4514 1.56354C37.4785 1.64069 37.4921 1.76698 37.4921 1.94239V3.57231H37.9085V1.79621C37.9085 1.5006 37.8426 1.28174 37.7107 1.13962C37.5789 0.997495 37.3905 0.926435 37.1454 0.926435C36.8322 0.926435 36.5778 1.07749 36.3824 1.3796C36.3343 1.23666 36.2517 1.1254 36.1346 1.04582C36.0175 0.966229 35.8675 0.926435 35.6845 0.926435C35.5201 0.926435 35.3735 0.96501 35.2448 1.04216C35.1161 1.11931 35.0129 1.22123 34.9354 1.34792V0.984908H34.5608ZM38.5203 3.57224V0.000548695H38.9391V3.57224H38.5203ZM40.7525 3.54551C40.8959 3.48867 41.0452 3.39121 41.2003 3.25315C41.2127 3.37497 41.2406 3.48136 41.284 3.57231H41.7214C41.6687 3.47324 41.6334 3.36969 41.6155 3.26168C41.5977 3.15367 41.5888 2.89582 41.5888 2.48814V1.90341C41.5888 1.7085 41.5818 1.57369 41.5678 1.49898C41.543 1.37878 41.4996 1.2793 41.4376 1.20052C41.3755 1.12175 41.2786 1.05637 41.1468 1.0044C41.0149 0.952423 40.8436 0.926435 40.6326 0.926435C40.4202 0.926435 40.2333 0.956889 40.072 1.0178C39.9107 1.07871 39.7874 1.1656 39.7021 1.27849C39.6168 1.39137 39.5555 1.53958 39.5183 1.72312L39.9278 1.78159C39.9727 1.59806 40.0421 1.47015 40.136 1.39787C40.2298 1.32559 40.3752 1.28945 40.5722 1.28945C40.7831 1.28945 40.942 1.33899 41.0491 1.43807C41.1282 1.51116 41.1677 1.63704 41.1677 1.8157C41.1677 1.83195 41.1669 1.87012 41.1654 1.93021C41.0056 1.98869 40.7567 2.03904 40.4186 2.08127C40.2527 2.10238 40.1286 2.12431 40.0464 2.14705C39.9347 2.17953 39.8343 2.22745 39.7451 2.29079C39.656 2.35414 39.5838 2.43819 39.5288 2.54296C39.4737 2.64772 39.4462 2.76344 39.4462 2.89014C39.4462 3.10616 39.5191 3.28361 39.6649 3.42248C39.8107 3.56135 40.0193 3.63079 40.2907 3.63079C40.4551 3.63079 40.609 3.60236 40.7525 3.54551ZM41.1653 2.27361C41.0133 2.33858 40.7854 2.3938 40.4814 2.43928C40.3092 2.46527 40.1875 2.4945 40.1161 2.52699C40.0448 2.55947 39.9897 2.60698 39.951 2.66951C39.9122 2.73205 39.8928 2.80148 39.8928 2.87782C39.8928 2.99477 39.9351 3.09222 40.0196 3.17018C40.1041 3.24815 40.2278 3.28713 40.3906 3.28713C40.5519 3.28713 40.6954 3.25018 40.821 3.17627C40.9467 3.10237 41.0389 3.00126 41.0979 2.87295C41.1428 2.77387 41.1653 2.62769 41.1653 2.43441V2.27361ZM43.8406 3.24577V3.57224H44.2291V0.000548695H43.8127V1.28207C43.7398 1.17649 43.6452 1.09082 43.5289 1.02504C43.4126 0.959253 43.28 0.926363 43.1311 0.926363C42.9279 0.926363 42.7441 0.982398 42.5797 1.09447C42.4153 1.20654 42.2921 1.36775 42.2099 1.57809C42.1277 1.78843 42.0866 2.02272 42.0866 2.28097C42.0866 2.54573 42.1319 2.78002 42.2227 2.98386C42.3134 3.18771 42.4413 3.34647 42.6065 3.46017C42.7717 3.57387 42.9527 3.63071 43.1497 3.63071C43.4537 3.63071 43.684 3.5024 43.8406 3.24577ZM42.5169 2.28103C42.5169 2.61238 42.5836 2.86007 42.717 3.02412C42.8504 3.18817 43.0078 3.27019 43.1893 3.27019C43.3723 3.27019 43.5277 3.19182 43.6557 3.03508C43.7836 2.87834 43.8476 2.63918 43.8476 2.31758C43.8476 1.96349 43.7825 1.70362 43.6522 1.53794C43.5219 1.37227 43.3614 1.28944 43.1706 1.28944C42.9845 1.28944 42.8291 1.36902 42.7042 1.5282C42.5794 1.68737 42.5169 1.93832 42.5169 2.28103ZM44.8898 3.57173V0.984327H45.3086V3.57173H44.8898ZM45.9461 0.000548695V3.57224H46.3648V2.15672C46.3648 1.95369 46.3881 1.79452 46.4346 1.6792C46.4811 1.56387 46.5591 1.47251 46.6684 1.40511C46.7778 1.3377 46.8945 1.304 47.0185 1.304C47.1845 1.304 47.3128 1.35394 47.4035 1.45383C47.4943 1.55372 47.5396 1.7133 47.5396 1.93258V3.57224H47.9584V1.93258C47.9584 1.67919 47.9293 1.48591 47.8711 1.35272C47.813 1.21954 47.7164 1.11518 47.5815 1.03965C47.4466 0.964126 47.2876 0.926363 47.1046 0.926363C46.8068 0.926363 46.5602 1.04493 46.3648 1.28207V0.000548695H45.9461ZM49.9195 4.56391V0.984908H50.3011V1.32112C50.391 1.18956 50.4926 1.09089 50.6058 1.02511C50.719 0.959326 50.8563 0.926435 51.0176 0.926435C51.2285 0.926435 51.4146 0.983283 51.5759 1.09698C51.7372 1.21068 51.8589 1.37107 51.9411 1.57816C52.0233 1.78525 52.0644 2.01224 52.0644 2.25912C52.0644 2.52387 52.0191 2.76223 51.9283 2.97419C51.8376 3.18615 51.7058 3.34858 51.5329 3.46146C51.3599 3.57435 51.1781 3.63079 50.9873 3.63079C50.8477 3.63079 50.7225 3.59993 50.6116 3.53821C50.5007 3.47648 50.4096 3.39852 50.3383 3.30432V4.56391H49.9195ZM50.4918 3.03136C50.363 2.87218 50.2987 2.62612 50.2987 2.29315C50.2987 1.96018 50.3673 1.70639 50.5045 1.53179C50.6418 1.35718 50.7996 1.26988 50.978 1.26988C51.1579 1.26988 51.3126 1.3519 51.4421 1.51595C51.5716 1.68 51.6363 1.92688 51.6363 2.2566C51.6363 2.60256 51.57 2.85797 51.4374 3.02283C51.3048 3.18769 51.1455 3.27012 50.9594 3.27012C50.7763 3.27012 50.6205 3.19054 50.4918 3.03136ZM52.5646 3.57231V0.984908H52.9415V1.37716C53.0376 1.19362 53.1264 1.07262 53.2078 1.01414C53.2892 0.955671 53.3788 0.926435 53.4765 0.926435C53.6177 0.926435 53.7611 0.973538 53.9069 1.06774L53.7627 1.47461C53.6603 1.41127 53.5579 1.3796 53.4556 1.3796C53.3641 1.3796 53.2819 1.40843 53.209 1.46609C53.1361 1.52375 53.0841 1.60374 53.0531 1.70607C53.0066 1.86199 52.9833 2.03254 52.9833 2.2177V3.57231H52.5646ZM54.3815 1.21392C54.1271 1.44457 54 1.79946 54 2.27861C54 2.71553 54.1066 3.05012 54.3198 3.28239C54.5331 3.51466 54.8126 3.63079 55.1585 3.63079C55.3741 3.63079 55.573 3.578 55.7552 3.47242C55.9374 3.36685 56.0762 3.21864 56.1716 3.02779C56.267 2.83694 56.3147 2.57504 56.3147 2.24207C56.3147 1.83113 56.2069 1.50913 55.9913 1.27605C55.7758 1.04297 55.4981 0.926435 55.1585 0.926435C54.853 0.926435 54.594 1.02226 54.3815 1.21392ZM54.4303 2.2786C54.4303 2.60994 54.4994 2.85804 54.6374 3.0229C54.7754 3.18776 54.9491 3.27019 55.1585 3.27019C55.3663 3.27019 55.5392 3.18736 55.6773 3.02168C55.8153 2.85601 55.8843 2.60344 55.8843 2.26398C55.8843 1.944 55.8149 1.70159 55.6761 1.53673C55.5373 1.37187 55.3648 1.28944 55.1585 1.28944C54.9491 1.28944 54.7754 1.37146 54.6374 1.53551C54.4994 1.69956 54.4303 1.94725 54.4303 2.2786ZM57.1359 3.85006L56.7288 3.78671C56.7226 4.06608 56.8102 4.2752 56.9916 4.41407C57.1731 4.55295 57.4112 4.62238 57.7058 4.62238C57.954 4.62238 58.163 4.57366 58.3328 4.4762C58.5026 4.37875 58.6267 4.24597 58.705 4.07786C58.7833 3.90975 58.8225 3.62429 58.8225 3.22148V0.984908H58.4363V1.29676C58.2471 1.04988 58.0067 0.926435 57.7151 0.926435C57.4965 0.926435 57.3061 0.983283 57.144 1.09698C56.982 1.21068 56.8583 1.37188 56.773 1.5806C56.6877 1.78931 56.645 2.01711 56.645 2.26399C56.645 2.62295 56.7381 2.93074 56.9242 3.18737C57.1103 3.444 57.3732 3.57231 57.7128 3.57231C57.9858 3.57231 58.2138 3.45943 58.3968 3.23366C58.3983 3.51953 58.3882 3.70713 58.3665 3.79646C58.3293 3.94264 58.258 4.05634 58.1525 4.13755C58.047 4.21876 57.8974 4.25937 57.7035 4.25937C57.5236 4.25937 57.3817 4.21876 57.2778 4.13755C57.2002 4.07745 57.1529 3.98162 57.1359 3.85006ZM57.0755 2.2323C57.0755 2.57177 57.1399 2.81946 57.2686 2.97539C57.3973 3.13132 57.5586 3.20928 57.7525 3.20928C57.9448 3.20928 58.1061 3.13173 58.2364 2.97661C58.3666 2.8215 58.4318 2.57827 58.4318 2.24692C58.4318 1.9302 58.3647 1.69143 58.2305 1.53063C58.0964 1.36983 57.9347 1.28944 57.7455 1.28944C57.5594 1.28944 57.4012 1.36862 57.2709 1.52698C57.1406 1.68534 57.0755 1.92045 57.0755 2.2323ZM59.4506 0.984908V3.57231H59.8694V2.2177C59.8694 2.03254 59.8927 1.86199 59.9392 1.70607C59.9702 1.60374 60.0222 1.52375 60.095 1.46609C60.1679 1.40843 60.2501 1.3796 60.3416 1.3796C60.444 1.3796 60.5464 1.41127 60.6487 1.47461L60.793 1.06774C60.6472 0.973538 60.5037 0.926435 60.3626 0.926435C60.2649 0.926435 60.1753 0.955671 60.0939 1.01414C60.0125 1.07262 59.9237 1.19362 59.8275 1.37716V0.984908H59.4506ZM62.6541 3.25315C62.499 3.39121 62.3497 3.48867 62.2063 3.54551C62.0628 3.60236 61.9089 3.63079 61.7445 3.63079C61.4731 3.63079 61.2645 3.56135 61.1187 3.42248C60.9729 3.28361 60.9 3.10616 60.9 2.89014C60.9 2.76344 60.9275 2.64772 60.9826 2.54296C61.0377 2.43819 61.1098 2.35414 61.1989 2.29079C61.2881 2.22745 61.3885 2.17953 61.5002 2.14705C61.5824 2.12431 61.7065 2.10238 61.8724 2.08127C62.2105 2.03904 62.4594 1.98869 62.6192 1.93021C62.6207 1.87012 62.6215 1.83195 62.6215 1.8157C62.6215 1.63704 62.582 1.51116 62.5029 1.43807C62.3959 1.33899 62.2369 1.28945 62.026 1.28945C61.829 1.28945 61.6836 1.32559 61.5898 1.39787C61.4959 1.47015 61.4265 1.59806 61.3816 1.78159L60.9721 1.72312C61.0093 1.53958 61.0706 1.39137 61.1559 1.27849C61.2412 1.1656 61.3645 1.07871 61.5258 1.0178C61.6871 0.956889 61.874 0.926435 62.0865 0.926435C62.2974 0.926435 62.4688 0.952423 62.6006 1.0044C62.7324 1.05637 62.8293 1.12175 62.8914 1.20052C62.9534 1.2793 62.9968 1.37878 63.0217 1.49898C63.0356 1.57369 63.0426 1.7085 63.0426 1.90341V2.48814C63.0426 2.89582 63.0515 3.15367 63.0693 3.26168C63.0872 3.36969 63.1225 3.47324 63.1752 3.57231H62.7378C62.6944 3.48136 62.6665 3.37497 62.6541 3.25315ZM61.9352 2.43928C62.2392 2.3938 62.4672 2.33858 62.6191 2.27361V2.43441C62.6191 2.62769 62.5967 2.77387 62.5517 2.87295C62.4927 3.00126 62.4005 3.10237 62.2748 3.17627C62.1492 3.25018 62.0058 3.28713 61.8445 3.28713C61.6816 3.28713 61.5579 3.24815 61.4734 3.17018C61.3889 3.09222 61.3466 2.99477 61.3466 2.87782C61.3466 2.80148 61.366 2.73205 61.4048 2.66951C61.4436 2.60698 61.4986 2.55947 61.57 2.52699C61.6413 2.4945 61.763 2.46527 61.9352 2.43928ZM63.6917 3.57231V0.984908H64.0662V1.34792C64.1437 1.22123 64.2469 1.11931 64.3756 1.04216C64.5043 0.96501 64.6509 0.926435 64.8153 0.926435C64.9983 0.926435 65.1483 0.966229 65.2654 1.04582C65.3825 1.1254 65.4651 1.23666 65.5132 1.3796C65.7086 1.07749 65.963 0.926435 66.2762 0.926435C66.5213 0.926435 66.7097 0.997495 66.8416 1.13962C66.9734 1.28174 67.0393 1.5006 67.0393 1.79621V3.57231H66.6229V1.94239C66.6229 1.76698 66.6093 1.64069 66.5822 1.56354C66.555 1.48639 66.5058 1.42426 66.4344 1.37716C66.3631 1.33006 66.2793 1.30651 66.1832 1.30651C66.0095 1.30651 65.8653 1.36701 65.7505 1.48801C65.6357 1.60902 65.5783 1.80271 65.5783 2.06908V3.57231H65.1596V1.89123C65.1596 1.69632 65.1255 1.55014 65.0572 1.45269C64.989 1.35523 64.8773 1.30651 64.7222 1.30651C64.6044 1.30651 64.4954 1.33899 64.3954 1.40396C64.2953 1.46893 64.2228 1.56395 64.1779 1.68901C64.1329 1.81408 64.1104 1.99437 64.1104 2.22988V3.57231H63.6917ZM69.7844 2.79512L69.3517 2.73908C69.2881 2.92425 69.2021 3.05906 69.0935 3.14352C68.9849 3.22798 68.8539 3.27021 68.7003 3.27021C68.4941 3.27021 68.3219 3.19468 68.1839 3.04363C68.0458 2.89257 67.9691 2.67493 67.9536 2.39068H69.7961C69.7976 2.33871 69.7984 2.29973 69.7984 2.27374C69.7984 1.84656 69.6937 1.51522 69.4843 1.27971C69.2749 1.04419 69.0051 0.926435 68.6747 0.926435C68.3335 0.926435 68.0559 1.04663 67.8419 1.28702C67.6279 1.5274 67.5209 1.86524 67.5209 2.30054C67.5209 2.72122 67.6267 3.04809 67.8384 3.28117C68.0501 3.51425 68.3366 3.63079 68.698 3.63079C68.9849 3.63079 69.2207 3.5577 69.4052 3.41151C69.5898 3.26533 69.7162 3.05987 69.7844 2.79512ZM67.9768 2.03018H69.3563C69.3377 1.81253 69.285 1.64929 69.1981 1.54047C69.0647 1.37155 68.8918 1.28709 68.6793 1.28709C68.487 1.28709 68.3253 1.35449 68.1943 1.48931C68.0632 1.62412 67.9907 1.80441 67.9768 2.03018ZM70.3055 0.984908V3.57231H70.7242V2.2177C70.7242 2.03254 70.7475 1.86199 70.794 1.70607C70.825 1.60374 70.877 1.52375 70.9499 1.46609C71.0228 1.40843 71.105 1.3796 71.1965 1.3796C71.2988 1.3796 71.4012 1.41127 71.5035 1.47461L71.6478 1.06774C71.502 0.973538 71.3585 0.926435 71.2174 0.926435C71.1197 0.926435 71.0301 0.955671 70.9487 1.01414C70.8673 1.07262 70.7785 1.19362 70.6823 1.37716V0.984908H70.3055ZM73.5089 3.25315C73.3538 3.39121 73.2045 3.48867 73.0611 3.54551C72.9176 3.60236 72.7637 3.63079 72.5993 3.63079C72.3279 3.63079 72.1193 3.56135 71.9735 3.42248C71.8277 3.28361 71.7548 3.10616 71.7548 2.89014C71.7548 2.76344 71.7824 2.64772 71.8374 2.54296C71.8925 2.43819 71.9646 2.35414 72.0538 2.29079C72.1429 2.22745 72.2434 2.17953 72.355 2.14705C72.4372 2.12431 72.5613 2.10238 72.7272 2.08127C73.0653 2.03904 73.3143 1.98869 73.474 1.93021C73.4756 1.87012 73.4763 1.83195 73.4763 1.8157C73.4763 1.63704 73.4368 1.51116 73.3577 1.43807C73.2507 1.33899 73.0917 1.28945 72.8808 1.28945C72.6838 1.28945 72.5384 1.32559 72.4446 1.39787C72.3508 1.47015 72.2814 1.59806 72.2364 1.78159L71.8269 1.72312C71.8642 1.53958 71.9254 1.39137 72.0107 1.27849C72.096 1.1656 72.2193 1.07871 72.3806 1.0178C72.5419 0.956889 72.7288 0.926435 72.9413 0.926435C73.1522 0.926435 73.3236 0.952423 73.4554 1.0044C73.5872 1.05637 73.6842 1.12175 73.7462 1.20052C73.8082 1.2793 73.8517 1.37878 73.8765 1.49898C73.8904 1.57369 73.8974 1.7085 73.8974 1.90341V2.48814C73.8974 2.89582 73.9063 3.15367 73.9242 3.26168C73.942 3.36969 73.9773 3.47324 74.03 3.57231H73.5927C73.5492 3.48136 73.5213 3.37497 73.5089 3.25315ZM72.79 2.43928C73.094 2.3938 73.322 2.33858 73.474 2.27361V2.43441C73.474 2.62769 73.4515 2.77387 73.4065 2.87295C73.3476 3.00126 73.2553 3.10237 73.1297 3.17627C73.004 3.25018 72.8606 3.28713 72.6993 3.28713C72.5364 3.28713 72.4127 3.24815 72.3282 3.17018C72.2437 3.09222 72.2014 2.99477 72.2014 2.87782C72.2014 2.80148 72.2208 2.73205 72.2596 2.66951C72.2984 2.60698 72.3534 2.55947 72.4248 2.52699C72.4961 2.4945 72.6179 2.46527 72.79 2.43928Z" fill="white"/>
</svg>
