<svg width="13" height="25" viewBox="0 0 13 25" fill="none" xmlns="http://www.w3.org/2000/svg">
<path d="M12.335 0.00516718L9.26062 0C5.80667 0 3.57457 2.39886 3.57457 6.11174V8.92967H0.483416C0.216304 8.92967 0 9.15651 0 9.43631V13.5192C0 13.799 0.216551 14.0255 0.483416 14.0255H3.57457V24.3279C3.57457 24.6077 3.79087 24.8343 4.05798 24.8343H8.09105C8.35817 24.8343 8.57447 24.6074 8.57447 24.3279V14.0255H12.1887C12.4559 14.0255 12.6722 13.799 12.6722 13.5192L12.6736 9.43631C12.6736 9.30196 12.6226 9.1733 12.5321 9.07822C12.4416 8.98315 12.3182 8.92967 12.19 8.92967H8.57447V6.54088C8.57447 5.39273 8.83566 4.80987 10.2635 4.80987L12.3345 4.8091C12.6014 4.8091 12.8177 4.58226 12.8177 4.30271V0.511551C12.8177 0.232265 12.6016 0.0056839 12.335 0.00516718Z" fill="white"/>
</svg>
