<svg width="24" height="25" viewBox="0 0 24 25" fill="none" xmlns="http://www.w3.org/2000/svg">
<path fill-rule="evenodd" clip-rule="evenodd" d="M6.41107 0H16.8207C20.356 0 23.2322 2.97532 23.232 6.63228V17.4009C23.232 21.0578 20.356 24.0331 16.8207 24.0331H6.41107C2.87601 24.0331 0 21.058 0 17.4009V6.63228C0 2.97532 2.87601 0 6.41107 0ZM16.8208 21.9005C19.2194 21.9005 21.1709 19.8819 21.1709 17.4006H21.1708V6.63202C21.1708 4.15083 19.2193 2.13207 16.8207 2.13207H6.41104C4.01256 2.13207 2.06123 4.15083 2.06123 6.63202V17.4006C2.06123 19.8819 4.01256 21.9007 6.41104 21.9005H16.8208Z" fill="white"/>
<path fill-rule="evenodd" clip-rule="evenodd" d="M5.60767 11.6158C5.60767 8.30275 8.30293 5.60742 11.616 5.60742C14.929 5.60742 17.6242 8.30275 17.6242 11.6158C17.6242 14.9288 14.929 17.624 11.616 17.624C8.30293 17.624 5.60767 14.9288 5.60767 11.6158ZM7.67654 11.616C7.67654 13.7882 9.44387 15.5553 11.616 15.5553C13.7881 15.5553 15.5555 13.7882 15.5555 11.616C15.5555 9.44367 13.7883 7.67644 11.616 7.67644C9.44374 7.67644 7.67654 9.44367 7.67654 11.616Z" fill="white"/>
<path d="M17.6243 4.00586C17.2034 4.00586 16.7898 4.17628 16.4926 4.47487C16.1938 4.77201 16.0221 5.18567 16.0221 5.60807C16.0221 6.02916 16.194 6.44268 16.4926 6.74127C16.7897 7.03841 17.2034 7.21028 17.6243 7.21028C18.0467 7.21028 18.4589 7.03841 18.7575 6.74127C19.0561 6.44268 19.2265 6.02901 19.2265 5.60807C19.2265 5.18567 19.0561 4.77201 18.7575 4.47487C18.4604 4.17628 18.0467 4.00586 17.6243 4.00586Z" fill="white"/>
</svg>
