<svg width="29" height="20" viewBox="0 0 29 20" fill="none" xmlns="http://www.w3.org/2000/svg">
<path d="M14.0195 0C14.0625 3.55329e-06 22.8012 0.00128882 24.9902 0.587891C26.1912 0.904669 27.1387 1.83239 27.4619 3.00879C28.0591 5.14529 28.0393 9.58481 28.0391 9.63574C28.0391 9.63574 28.0393 14.0923 27.4619 16.2412C27.1385 17.4174 26.1914 18.3446 24.9902 18.6611C22.796 19.2268 14.0195 19.2275 14.0195 19.2275C13.9943 19.2275 5.26272 19.2259 3.04883 18.6387C1.84773 18.3219 0.900623 17.3949 0.577148 16.2188C-0.000226839 14.0924 0 9.61328 0 9.61328C1.19038e-05 9.57305 0.0024738 5.14784 0.577148 3.00879C0.900384 1.8326 1.87097 0.881999 3.04883 0.56543C5.24348 -0.000176069 14.0195 0 14.0195 0ZM11.2158 13.7334L18.4727 9.61328L11.2158 5.49316V13.7334Z" fill="white"/>
</svg>
