<svg width="97" height="30" viewBox="0 0 97 30" fill="none" xmlns="http://www.w3.org/2000/svg">
<path d="M10.6037 19.0638C10.3622 18.825 9.62765 18.0958 9.62765 14.777C9.62765 11.4582 10.3622 10.7297 10.6037 10.4908C10.8452 10.2519 11.5798 9.52272 14.9259 9.52272C18.2721 9.52272 19.0035 10.2507 19.2475 10.4908C19.4915 10.7309 20.2236 11.4589 20.2236 14.777C20.2236 18.0951 19.489 18.825 19.2475 19.0638C19.0061 19.3027 18.2715 20.0319 14.9259 20.0319C11.5804 20.0319 10.8439 19.3033 10.6037 19.0638ZM7.93482 7.86966C6.7759 9.0191 6.02728 11.7496 6.02728 14.8257C6.02728 17.9018 6.7759 20.6316 7.93482 21.7804C9.09374 22.9292 11.8467 23.6761 14.9476 23.6761C18.0485 23.6761 20.8021 22.9336 21.961 21.7804C23.1193 20.6316 23.8685 17.9011 23.8685 14.8257C23.8685 11.7502 23.1193 9.0191 21.961 7.86966C20.8027 6.72023 18.0491 5.979 14.9476 5.979C11.8461 5.979 9.09374 6.72212 7.93482 7.87093" fill="#F15F22"/>
<path d="M7.93482 7.86966C6.7759 9.0191 6.02728 11.7496 6.02728 14.8257C6.02728 17.9018 6.7759 20.6316 7.93482 21.7804C9.09374 22.9292 11.8467 23.6761 14.9476 23.6761C18.0485 23.6761 20.8021 22.933 21.961 21.7804C23.1199 20.6316 23.8685 17.9011 23.8685 14.8257C23.8685 11.7502 23.1199 9.0191 21.961 7.86966C20.8021 6.72023 18.0491 5.979 14.9476 5.979C11.8461 5.979 9.09374 6.72212 7.93482 7.87093V7.86966ZM10.6037 19.0651C10.3622 18.8263 9.62765 18.097 9.62765 14.7783C9.62765 11.4595 10.3622 10.7309 10.6037 10.4921C10.8452 10.2532 11.5798 9.52399 14.9253 9.52399C18.2708 9.52399 19.0061 10.2526 19.2475 10.4921C19.489 10.7316 20.2236 11.4601 20.2236 14.7783C20.2236 18.0964 19.4896 18.8263 19.2475 19.0651C19.0054 19.304 18.2715 20.0332 14.9253 20.0332C11.5791 20.0332 10.8477 19.3046 10.6037 19.0651Z" fill="#F15F22"/>
<path d="M6.40369 23.3602C4.76821 21.7381 3.7915 18.5653 3.7915 14.8725C3.7915 11.1796 4.76693 8.00685 6.40369 6.38602C8.04045 4.76519 11.2375 3.79521 14.9609 3.79521C18.6842 3.79521 21.8825 4.76329 23.518 6.38602C25.1535 8.00875 26.1302 11.1796 26.1302 14.8725C26.1302 18.5653 25.1541 21.7381 23.518 23.3602C21.8819 24.9823 18.6823 25.9472 14.9609 25.9472C11.2394 25.9472 8.03854 24.9792 6.40369 23.3564V23.3602ZM0.00127354 14.8257C0.00127354 22.9451 6.58272 29.5409 14.743 29.6502C23.1045 29.7627 30.0103 22.9141 29.8956 14.6204C29.7841 6.5263 23.1351 0 14.9481 0C6.69295 0 0 6.63499 0 14.8257" fill="#F15F22"/>
<path d="M16.9935 11.9551H12.9013C12.433 11.9551 12.0533 12.3316 12.0533 12.7961V16.8555C12.0533 17.32 12.433 17.6966 12.9013 17.6966H16.9935C17.4619 17.6966 17.8416 17.32 17.8416 16.8555V12.7961C17.8416 12.3316 17.4619 11.9551 16.9935 11.9551Z" fill="#F15F22"/>
<path d="M40.1266 10.4463H36.8665V19.5407H40.1266V10.4463Z" fill="white"/>
<path d="M41.8869 19.5405V10.4461H44.4806L44.8877 11.4382C45.6472 10.6302 46.6475 10.226 47.8886 10.2256C48.9819 10.2256 49.8522 10.5567 50.5377 11.2366C51.2233 11.8982 51.5571 12.7437 51.5571 13.7908V19.5411H48.2963V14.3203C48.2963 13.4932 47.6847 12.8669 46.8513 12.8669C45.832 12.8669 45.1471 13.5835 45.1471 14.6672V19.5361L41.8869 19.5405Z" fill="white"/>
<path d="M52.2959 12.8896V10.446H53.8333V9.6005C53.8333 8.62673 54.1519 7.85518 54.7781 7.26751C55.4267 6.67773 56.2603 6.38284 57.2788 6.38284C58.048 6.38092 58.8141 6.47972 59.5572 6.67668L59.1501 9.06527C58.7955 8.9987 58.436 8.96192 58.0752 8.95532C57.4827 8.95532 57.0934 9.32246 57.0934 9.92909V10.4435H58.9831V12.887H57.0934V19.5404H53.8333V12.8896H52.2959Z" fill="white"/>
<path d="M64.6344 17.2625C65.7456 17.2625 66.542 16.3254 66.542 15.0028C66.542 13.6612 65.7456 12.7241 64.6344 12.7241C63.5233 12.7241 62.7447 13.6612 62.7447 15.0028C62.7447 16.3254 63.5226 17.2625 64.6344 17.2625ZM60.8754 11.5671C61.8572 10.6667 63.0983 10.2256 64.6344 10.2256C66.1705 10.2256 67.4314 10.6679 68.3934 11.5671C69.3752 12.4486 69.8588 13.5892 69.8588 15.0028C69.8588 16.3987 69.3771 17.538 68.3934 18.4378C67.4301 19.3225 66.1705 19.761 64.6344 19.761C63.0983 19.761 61.8559 19.3187 60.8754 18.4378C59.8936 17.538 59.41 16.3987 59.41 15.0028C59.41 13.6069 59.8917 12.4669 60.8754 11.5671Z" fill="white"/>
<path d="M74.0235 15.4798C74.0235 16.4908 74.6905 17.2251 75.6723 17.2251C76.7281 17.2251 77.4875 16.3069 77.4875 15.0027C77.4875 13.6795 76.7281 12.7607 75.6723 12.7607C74.6905 12.7607 74.0235 13.4956 74.0235 14.525V15.4798ZM70.8188 19.5404V6.60596H74.0789V11.0893C74.7703 10.5196 75.6439 10.2133 76.5426 10.2255C77.7838 10.2255 78.8025 10.6678 79.6008 11.567C80.3972 12.4485 80.8044 13.5891 80.8044 15.0027C80.8044 16.3986 80.3972 17.5379 79.6008 18.4377C78.8036 19.3199 77.7842 19.7609 76.5426 19.7609C75.4315 19.7609 74.5236 19.4115 73.8196 18.6955L73.4118 19.5404H70.8188Z" fill="white"/>
<path d="M81.9923 10.4462H85.2531V19.5405H81.9923V10.4462ZM83.6227 6.20166C84.7338 6.20166 85.4939 6.97385 85.4939 8.05756C85.4939 9.10463 84.7338 9.89514 83.6227 9.89514C82.567 9.89514 81.7706 9.10463 81.7706 8.05756C81.7706 6.97385 82.567 6.20166 83.6227 6.20166Z" fill="white"/>
<path d="M90.2178 15.4799C90.2178 16.4909 90.8849 17.2252 91.8667 17.2252C92.9224 17.2252 93.6818 16.307 93.6818 15.0028C93.6818 13.6796 92.9224 12.7608 91.8667 12.7608C90.8849 12.7608 90.2178 13.4957 90.2178 14.5251V15.4799ZM87.0137 23.3616V10.4461H89.6068L90.0139 11.291C90.7179 10.575 91.6258 10.2256 92.7376 10.2256C93.9787 10.2256 94.9975 10.6679 95.7958 11.5671C96.5922 12.4486 97 13.5892 97 15.0028C97 16.3987 96.5922 17.538 95.7958 18.4378C94.9994 19.32 93.98 19.761 92.7376 19.761C91.84 19.7669 90.9686 19.4616 90.2739 18.8978V23.3616H87.0137Z" fill="white"/>
<path d="M40.1266 6.24414H36.8665V9.47759H40.1266V6.24414Z" fill="white"/>
</svg>
